<?xml version="1.0" encoding="UTF-8"?>
<svg width="16px" height="16px" viewBox="0 0 16 16" version="1.1" xmlns="http://www.w3.org/2000/svg" xmlns:xlink="http://www.w3.org/1999/xlink">
    <!-- Generator: Sketch 52.5 (67469) - http://www.bohemiancoding.com/sketch -->
    <title>充值</title>
    <desc>Created with Sketch.</desc>
    <g id="Page-1" stroke="none" stroke-width="1" fill="none" fill-rule="evenodd">
        <g id="会员信息-1" transform="translate(-955.000000, -138.000000)" fill="#FFFFFF" fill-rule="nonzero" stroke="#FFFFFF" stroke-width="0.3">
            <g id="个人信息" transform="translate(0.000000, 62.000000)">
                <g id="充值" transform="translate(942.000000, 68.000000)">
                    <g id="充值图标" transform="translate(13.000000, 8.000000)">
                        <path d="M11.8947964,3 C13.0539848,3 13.9936926,4.0120311 13.9936926,5.26043473 L13.9936926,9.31307129 C13.9936926,9.49141467 13.8594486,9.63599054 13.6938503,9.63599054 C13.528252,9.63599054 13.394008,9.49141467 13.394008,9.31307129 L13.394008,6.22919247 C13.3770477,6.23075069 13.3599951,6.23075069 13.3430348,6.22919247 L2.59968463,6.22919247 L2.59968463,10.4271427 C2.59968464,11.3188596 3.27090452,12.0417389 4.09889621,12.0417389 L8.65050255,12.0417389 C8.81610089,12.0417389 8.95034487,12.1863148 8.95034487,12.3646582 C8.95034487,12.5430016 8.81610089,12.6875774 8.65050255,12.6875774 L4.09889621,12.6875774 C2.93970784,12.6875774 2,11.6755463 2,10.4271427 L2,5.26043473 C2,4.0120311 2.93970784,3 4.09889621,3 L11.8947964,3 Z M13.3430348,5.58335398 C13.3606343,5.58918712 13.3776975,5.59675387 13.394008,5.60595833 L13.394008,5.26043473 C13.394008,4.36871785 12.7227881,3.6458385 11.8947964,3.6458385 L4.09889621,3.6458385 C3.27090452,3.6458385 2.59968464,4.36871786 2.59968463,5.26043473 L2.59968463,5.58335398 L13.3430348,5.58335398 Z M7.62204341,7.84378871 C7.62284753,7.89487555 7.60456476,7.94416939 7.57130071,7.98060075 C7.53803667,8.0170321 7.49257925,8.0375476 7.44513645,8.03754026 L3.54718635,8.03754026 C3.44782734,8.03754026 3.36728096,7.95079474 3.36728096,7.84378871 C3.36728096,7.73678269 3.44782734,7.65003717 3.54718635,7.65003717 L7.44513645,7.65003717 C7.49257925,7.65002983 7.53803667,7.67054533 7.57130071,7.70697668 C7.60456476,7.74340804 7.62284753,7.79270188 7.62204341,7.84378871 Z M10.7853798,7.84378872 C10.7853798,7.95079474 10.7048335,8.03754026 10.6054745,8.03754026 L8.65050255,8.03754026 C8.55114355,8.03754026 8.47059716,7.95079474 8.47059716,7.84378872 C8.47059716,7.73678269 8.55114355,7.65003717 8.65050255,7.65003717 L10.6054745,7.65003717 C10.7048335,7.65003717 10.7853798,7.73678269 10.7853798,7.84378872 Z M12.6653912,10.5724564 C12.8309895,10.5724564 12.9652335,10.7170322 12.9652335,10.8953756 C12.9652335,11.073719 12.8309895,11.2182948 12.6653912,11.2182948 L11.7028973,11.2182948 L11.7028973,12.2548656 C11.7028973,12.433209 11.5686534,12.5777849 11.403055,12.5777849 C11.2374567,12.5777849 11.1032127,12.433209 11.1032127,12.2548656 L11.1032127,11.2182948 L10.1407189,11.2182948 C9.97512053,11.2182948 9.84087655,11.073719 9.84087655,10.8953756 C9.84087655,10.7170322 9.97512053,10.5724564 10.1407189,10.5724564 L11.1032127,10.5724564 L11.1032127,9.53588558 C11.1032127,9.3575422 11.2374567,9.21296633 11.403055,9.21296633 C11.5686534,9.21296633 11.7028973,9.3575422 11.7028973,9.53588558 L11.7028973,10.5724564 L12.6653912,10.5724564 Z M3.96996401,9.2258831 L6.53361581,9.2258831 C6.87143642,9.2258831 7.14529413,9.52081788 7.14529413,9.88463836 C7.14529413,10.2484589 6.87143642,10.5433936 6.53361581,10.5433936 L3.96996401,10.5433936 C3.6321434,10.5433936 3.35828569,10.2484589 3.35828569,9.88463836 C3.35828569,9.52081788 3.6321434,9.2258831 3.96996401,9.2258831 Z M6.78548335,9.87172159 L6.79747704,9.88463836 C6.80094613,9.80818784 6.77426233,9.73371722 6.72400697,9.67959402 C6.67375161,9.62547082 6.60460291,9.59673334 6.53361581,9.60046942 L3.96996401,9.60046942 C3.90264659,9.59960628 3.83781009,9.62780306 3.78992527,9.67876656 C3.74204045,9.72973006 3.71509328,9.79921803 3.71509805,9.87172159 C3.71509805,9.94451857 3.74194992,10.014334 3.78974656,10.0658092 C3.8375432,10.1172845 3.90236935,10.146203 3.96996401,10.146203 L6.53361581,10.146203 C6.67320205,10.1444343 6.78549302,10.0220613 6.78548335,9.87172159 Z" id="合并形状"></path>
                    </g>
                </g>
            </g>
        </g>
    </g>
</svg>