<?xml version="1.0" encoding="UTF-8"?>
<svg width="26px" height="26px" viewBox="0 0 26 26" version="1.1" xmlns="http://www.w3.org/2000/svg" xmlns:xlink="http://www.w3.org/1999/xlink">
    <!-- Generator: Sketch 52.5 (67469) - http://www.bohemiancoding.com/sketch -->
    <title>商家信息</title>
    <desc>Created with Sketch.</desc>
    <g id="Page-1" stroke="none" stroke-width="1" fill="none" fill-rule="evenodd">
        <g id="切图（总部）" transform="translate(-42.000000, -332.000000)" fill="#E5E5E5" fill-rule="nonzero">
            <g id="数据管理-copy-9" transform="translate(42.000000, 332.000000)">
                <path d="M22.2215365,12.3313721 C22.2205346,12.3256751 22.2195636,12.3202089 22.2186236,12.3149736 C21.5303732,8.48186737 18.4961911,5.45223048 14.6583745,4.76587315 C14.6479926,4.76401645 14.6367117,4.76204008 14.6245317,4.75994404 C14.5122782,4.74061924 14.4056176,4.81595944 14.3862997,4.92821414 C14.3843116,4.93976739 14.383312,4.95146913 14.383312,4.96319221 C14.383312,7.1712273 14.383312,9.37926239 14.383312,11.5872975 C14.383312,12.1395822 14.8310273,12.5872975 15.383312,12.5872975 C17.5911143,12.5872975 19.7989166,12.5872975 22.006719,12.5872975 C22.1271973,12.5872975 22.2248643,12.4896305 22.2248643,12.3691522 C22.2248643,12.3564852 22.223761,12.3438423 22.2215669,12.3313668 L22.2215365,12.3313721 Z M13.003312,11.9672975 L13.003312,4.61959868 C13.0014687,4.61742957 13.0003233,4.31051572 13.0000034,3.96215834 C12.9995828,3.50413072 13.0378007,3.34690409 13.2217467,3.16147928 C13.4056927,2.97605446 13.6865948,2.98735743 14.0125823,3.01693338 C19.2853963,3.49532135 23.4963914,7.70469753 23.9727659,12.9729189 C23.9807457,13.0611667 24.0397327,13.3625663 23.7882989,13.6838214 C23.536865,14.0050766 23.1058714,13.9706637 23.0068452,13.970518 C22.721585,13.9700983 22.4622965,13.9698721 22.3655163,13.9706338 L15.0033122,13.9672974 C13.899021,13.9669038 13.0040249,13.0715887 13.0040249,11.9672975 L13.003312,11.9672975 Z M22.2445706,16.2888594 C22.3371218,15.935874 22.6890762,15.7164734 23.0467548,15.7887955 C23.4193411,15.8641319 23.6603098,16.2272451 23.5849734,16.5998315 L23.5705307,16.6712595 C22.246972,21.260657 18.015482,24.6173254 13,24.6173254 C6.92486775,24.6173254 2,19.6924577 2,13.6173254 C2,8.57346121 5.39476626,4.32248711 10.0240973,3.02460468 L10.0687966,3.01512164 C10.4248476,2.93958481 10.7782622,3.15391695 10.8758477,3.50456667 C10.9779064,3.87128944 10.7633537,4.25131186 10.396631,4.35337051 C6.27981429,5.50756407 3.38,9.27711245 3.38,13.6173254 C3.38,18.9303047 7.68702071,23.2373254 13,23.2373254 C17.3143558,23.2373254 21.067081,20.371767 22.2445706,16.2888594 Z" id="合并形状"></path>
            </g>
        </g>
    </g>
</svg>