<?xml version="1.0" encoding="UTF-8"?>
<svg width="26px" height="26px" viewBox="0 0 26 26" version="1.1" xmlns="http://www.w3.org/2000/svg" xmlns:xlink="http://www.w3.org/1999/xlink">
    <!-- Generator: Sketch 52.5 (67469) - http://www.bohemiancoding.com/sketch -->
    <title>商家信息</title>
    <desc>Created with Sketch.</desc>
    <g id="Page-1" stroke="none" stroke-width="1" fill="none" fill-rule="evenodd">
        <g id="切图（门店经理）" transform="translate(-42.000000, -332.000000)" fill="#E5E5E5" fill-rule="nonzero">
            <g id="分组-5" transform="translate(42.000000, 332.000000)">
                <g id="分组-4" transform="translate(2.000000, 3.000000)">
                    <path d="M17.4472368,2.675 C17.0744446,2.675 16.7722368,2.37279221 16.7722368,2 C16.7722368,1.62720779 17.0744446,1.325 17.4472368,1.325 L18.6190476,1.325 C20.3068035,1.325 21.675,2.69319648 21.675,4.38095238 L21.675,17.7142857 C21.675,19.4020416 20.3068035,20.7702381 18.6190476,20.7702381 L3.38095238,20.7702381 C1.69319648,20.7702381 0.325,19.4020416 0.325,17.7142857 L0.325,4.38095238 C0.325,2.69319648 1.69319648,1.325 3.38095238,1.325 L4.60978757,1.325 C4.98257978,1.325 5.28478757,1.62720779 5.28478757,2 C5.28478757,2.37279221 4.98257978,2.675 4.60978757,2.675 L3.38095238,2.675 C2.4387809,2.675 1.675,3.4387809 1.675,4.38095238 L1.675,17.7142857 C1.675,18.6564572 2.4387809,19.4202381 3.38095238,19.4202381 L18.6190476,19.4202381 C19.5612191,19.4202381 20.325,18.6564572 20.325,17.7142857 L20.325,4.38095238 C20.325,3.4387809 19.5612191,2.675 18.6190476,2.675 L17.4472368,2.675 Z" id="路径"></path>
                    <path d="M8,1.35 C7.64101491,1.35 7.35,1.64101491 7.35,2 L7.35,3 C7.35,3.35898509 7.64101491,3.65 8,3.65 L14,3.65 C14.3589851,3.65 14.65,3.35898509 14.65,3 L14.65,2 C14.65,1.64101491 14.3589851,1.35 14,1.35 L8,1.35 Z M8,0 L14,0 C15.1045695,0 16,0.8954305 16,2 L16,3 C16,4.1045695 15.1045695,5 14,5 L8,5 C6.8954305,5 6,4.1045695 6,3 L6,2 C6,0.8954305 6.8954305,0 8,0 Z" id="矩形"></path>
                    <path d="M5,9.175 C4.62720779,9.175 4.325,8.87279221 4.325,8.5 C4.325,8.12720779 4.62720779,7.825 5,7.825 L7,7.825 C7.37279221,7.825 7.675,8.12720779 7.675,8.5 C7.675,8.87279221 7.37279221,9.175 7,9.175 L5,9.175 Z" id="直线"></path>
                    <path d="M5,13.175 C4.62720779,13.175 4.325,12.8727922 4.325,12.5 C4.325,12.1272078 4.62720779,11.825 5,11.825 L7,11.825 C7.37279221,11.825 7.675,12.1272078 7.675,12.5 C7.675,12.8727922 7.37279221,13.175 7,13.175 L5,13.175 Z" id="直线-copy-2"></path>
                    <path d="M9,9.175 C8.62720779,9.175 8.325,8.87279221 8.325,8.5 C8.325,8.12720779 8.62720779,7.825 9,7.825 L17,7.825 C17.3727922,7.825 17.675,8.12720779 17.675,8.5 C17.675,8.87279221 17.3727922,9.175 17,9.175 L9,9.175 Z" id="直线-copy"></path>
                    <path d="M9,13.175 C8.62720779,13.175 8.325,12.8727922 8.325,12.5 C8.325,12.1272078 8.62720779,11.825 9,11.825 L17,11.825 C17.3727922,11.825 17.675,12.1272078 17.675,12.5 C17.675,12.8727922 17.3727922,13.175 17,13.175 L9,13.175 Z" id="直线-copy-3"></path>
                </g>
            </g>
        </g>
    </g>
</svg>