<?xml version="1.0" encoding="UTF-8"?>
<svg width="26px" height="26px" viewBox="0 0 26 26" version="1.1" xmlns="http://www.w3.org/2000/svg" xmlns:xlink="http://www.w3.org/1999/xlink">
    <!-- Generator: Sketch 52.5 (67469) - http://www.bohemiancoding.com/sketch -->
    <title>切图</title>
    <desc>Created with Sketch.</desc>
    <g id="Page-1" stroke="none" stroke-width="1" fill="none" fill-rule="evenodd">
        <g id="切图（总部）" transform="translate(-42.000000, -260.000000)" fill="#E5E5E5" fill-rule="nonzero">
            <g id="分组" transform="translate(42.000000, 260.000000)">
                <path d="M13.68,13.69 L13.68,17.7938478 C15.3543544,18.1188805 16.6212121,19.5952637 16.6212121,21.3636364 C16.6212121,23.3696969 14.9909091,25 12.9848485,25 C10.9787879,25 9.34848484,23.369697 9.34848484,21.3636364 C9.34848484,19.5916383 10.6205423,18.1128281 12.3,17.7918633 L12.3,13.69 L5.94117647,13.69 C5.81212119,13.69 5.69,13.8197538 5.69,14 L5.69,14.7389796 C7.43396824,15.0061694 8.77272729,16.5154706 8.77272727,18.3333333 C8.77272725,20.3393939 7.14242424,21.969697 5.13636365,21.969697 C3.13030303,21.969697 1.5,20.3393939 1.5,18.3333333 C1.5,16.611457 2.70111381,15.1664173 4.31,14.7915556 L4.31,14 C4.31,13.0756767 5.03063693,12.31 5.94117647,12.31 L12.3,12.31 L12.3,9.87878786 L8.74545455,9.87878786 C7.74242425,9.87878786 6.92424244,9.06060606 6.92424244,8.05757575 L6.92424244,3.82121212 C6.92424244,2.81818181 7.74242425,2 8.74545455,2 L17.2242424,2 C18.2272727,2 19.0454545,2.81818181 19.0454545,3.82121212 L19.0454545,8.05757575 C19.0454545,9.06060606 18.2272727,9.87878786 17.2242424,9.87878786 L13.68,9.87878786 L13.68,12.31 L20.0588235,12.31 C20.9693631,12.31 21.69,13.0756767 21.69,14 L21.69,14.7915556 C23.2988862,15.1664173 24.5,16.611457 24.5,18.3333333 C24.5,20.3393939 22.869697,21.969697 20.8636364,21.969697 C18.8575758,21.969697 17.2272727,20.3393939 17.2272727,18.3333333 C17.2272728,16.5154706 18.5660318,15.0061694 20.31,14.7389796 L20.31,14 C20.31,13.8197538 20.1878788,13.69 20.0588235,13.69 L13.68,13.69 Z M5.13636365,20.589697 C6.38027128,20.589697 7.39272725,19.577241 7.39272727,18.3333333 C7.39272728,17.0894257 6.38027131,16.0769697 5.13636365,16.0769697 C3.89245599,16.0769697 2.88,17.0894257 2.88,18.3333333 C2.88,19.577241 3.89245599,20.589697 5.13636365,20.589697 Z M12.9848485,23.62 C14.2287561,23.62 15.2412121,22.607544 15.2412121,21.3636364 C15.2412121,20.1197287 14.2287562,19.1072727 12.9848485,19.1072727 C11.7409408,19.1072727 10.7284848,20.1197287 10.7284848,21.3636364 C10.7284848,22.607544 11.7409408,23.62 12.9848485,23.62 Z M20.8636364,20.589697 C22.107544,20.589697 23.12,19.577241 23.12,18.3333333 C23.12,17.0894257 22.107544,16.0769697 20.8636364,16.0769697 C19.6197287,16.0769697 18.6072727,17.0894257 18.6072727,18.3333333 C18.6072727,19.577241 19.6197287,20.589697 20.8636364,20.589697 Z M17.2242424,8.49878786 C17.4651198,8.49878786 17.6654545,8.2984531 17.6654545,8.05757575 L17.6654545,3.82121212 C17.6654545,3.58033476 17.4651198,3.38 17.2242424,3.38 L8.74545455,3.38 C8.5045772,3.38 8.30424244,3.58033476 8.30424244,3.82121212 L8.30424244,8.05757575 C8.30424244,8.2984531 8.5045772,8.49878786 8.74545455,8.49878786 L17.2242424,8.49878786 Z" id="合并形状"></path>
            </g>
        </g>
    </g>
</svg>