<?xml version="1.0" encoding="UTF-8"?>
<svg width="26px" height="26px" viewBox="0 0 26 26" version="1.1" xmlns="http://www.w3.org/2000/svg" xmlns:xlink="http://www.w3.org/1999/xlink">
    <!-- Generator: Sketch 52.5 (67469) - http://www.bohemiancoding.com/sketch -->
    <title>切图</title>
    <desc>Created with Sketch.</desc>
    <g id="Page-1" stroke="none" stroke-width="1" fill="none" fill-rule="evenodd">
        <g id="切图（总部）" transform="translate(-42.000000, -188.000000)" fill="#E5E5E5" fill-rule="nonzero">
            <g id="商品管理-copy-12" transform="translate(42.000000, 188.000000)">
                <path d="M5.93278812,7.99325172 L12.15762,11.0158106 C12.2921823,11.0816404 12.5239098,11.1293905 12.7792548,11.1293905 C13.0549129,11.1293905 13.3070714,11.0757341 13.4619217,10.9987011 L19.7735143,7.83426656 L13.5586359,4.81522436 C13.4144557,4.74592679 13.1816203,4.69746019 12.9283724,4.69746019 C12.6527211,4.69746019 12.4005626,4.75111659 12.2457123,4.82814964 L5.93278812,7.99325172 Z M14.1564433,3.57142923 L20.8757459,6.83549553 C21.334811,7.057719 21.6008921,7.41846942 21.6038161,7.81962391 C21.6067402,8.22366456 21.3406593,8.59307347 20.8728218,8.82683937 L14.080427,12.2323344 C13.7207758,12.4112663 13.2587866,12.5093905 12.7792548,12.5093905 C12.326038,12.5093905 11.8874419,12.4199239 11.5511839,12.2554215 L4.82896388,8.99135518 C4.36989879,8.76913171 4.10381773,8.40838129 4.10089375,8.0072268 C4.10089375,7.60318616 4.36697465,7.23377724 4.83481216,7.00001135 L11.627207,3.59451631 C11.9868581,3.41558441 12.4488473,3.31746019 12.9283791,3.31746019 C13.3845133,3.31746019 13.8201853,3.40981297 14.1564433,3.57142923 Z M4.54315771,11.4721191 L4.59630353,11.3618024 C4.55210241,11.3954089 4.50350571,11.4188436 4.45645693,11.4271712 L4.54315771,11.4721191 Z M4.76158473,19.4502334 C4.76158473,19.5326719 4.97286067,19.8258354 5.27657144,19.973799 L11.0425406,22.9630228 L11.0425406,15.0981466 C11.0425406,15.0157082 10.8312647,14.7225447 10.5275539,14.5745811 L4.76158473,11.5853572 L4.76158473,19.4502334 Z M11.1975791,23.194611 C11.2444453,23.1567124 11.2969561,23.1301849 11.3476685,23.1212088 L11.2553185,23.0733323 L11.1975791,23.194611 Z M5.141822,10.2294495 L5.15644189,10.2381075 L11.1623041,13.3492272 C11.8816041,13.698433 12.4225406,14.4487954 12.4225406,15.0981466 L12.4225406,23.4848751 C12.4225406,24.070733 11.9868664,24.4978629 11.3845275,24.4978629 C11.1535317,24.4978629 10.9108417,24.4372568 10.6623034,24.3189306 L10.6476834,24.3102726 L4.64182119,21.1991529 C3.92252122,20.8499471 3.38158473,20.0995846 3.38158473,19.4502334 L3.38158473,11.0635049 C3.38158473,10.4776471 3.81725896,10.0505171 4.41959786,10.0505171 C4.65351777,10.0505171 4.89620782,10.1111232 5.141822,10.2294495 Z M21.2384428,11.586553 L15.4404261,14.5877701 C15.1700897,14.719013 14.9574975,15.0143436 14.9574975,15.095254 L14.9574975,22.9560614 L20.7555142,19.9548443 C21.0258506,19.8236014 21.2384428,19.5282708 21.2384428,19.4473604 L21.2384428,11.586553 Z M22.6184428,11.0663909 L22.6184428,19.4473604 C22.6184428,20.0938255 22.0775064,20.8470741 21.3582064,21.1962799 L15.3377347,24.3131585 C15.0921183,24.4314848 14.8465041,24.4920909 14.6155106,24.4920909 C14.0131695,24.4920909 13.5774975,24.0678493 13.5774975,23.4791031 L13.5774975,15.095254 C13.5774975,14.448789 14.118434,13.6955403 14.837734,13.3463346 L20.8582056,10.229456 C21.103822,10.1111297 21.3494362,10.0505236 21.5804297,10.0505236 C22.1827709,10.0505169 22.6184428,10.4776446 22.6184428,11.0663909 Z" id="合并形状"></path>
            </g>
        </g>
    </g>
</svg>