<?xml version="1.0" encoding="UTF-8"?>
<svg width="26px" height="26px" viewBox="0 0 26 26" version="1.1" xmlns="http://www.w3.org/2000/svg" xmlns:xlink="http://www.w3.org/1999/xlink">
    <!-- Generator: Sketch 52.5 (67469) - http://www.bohemiancoding.com/sketch -->
    <title>icon-其他应用</title>
    <desc>Created with Sketch.</desc>
    <g id="Page-1" stroke="none" stroke-width="1" fill="none" fill-rule="evenodd">
        <g id="体检" transform="translate(-41.000000, -332.000000)" fill="#0899AC" fill-rule="nonzero">
            <g id="其他应用" transform="translate(41.000000, 332.000000)">
                <g transform="translate(2.000000, 3.000000)" id="合并形状">
                    <path d="M14,1.675 C13.2682227,1.675 12.675,2.26822271 12.675,3 L12.675,7 C12.675,7.73177729 13.2682227,8.325 14,8.325 L19,8.325 C19.7317773,8.325 20.325,7.73177729 20.325,7 L20.325,3 C20.325,2.26822271 19.7317773,1.675 19,1.675 L14,1.675 Z M14,0.325 L19,0.325 C20.4773617,0.325 21.675,1.52263829 21.675,3 L21.675,7 C21.675,8.47736171 20.4773617,9.675 19,9.675 L14,9.675 C12.5226383,9.675 11.325,8.47736171 11.325,7 L11.325,3 C11.325,1.52263829 12.5226383,0.325 14,0.325 Z M1,3.175 C0.627207794,3.175 0.325,2.87279221 0.325,2.5 C0.325,2.12720779 0.627207794,1.825 1,1.825 L9,1.825 C9.37279221,1.825 9.675,2.12720779 9.675,2.5 C9.675,2.87279221 9.37279221,3.175 9,3.175 L1,3.175 Z M1,8 C0.627207794,8 0.325,7.69779221 0.325,7.325 C0.325,6.95220779 0.627207794,6.65 1,6.65 L9,6.65 C9.37279221,6.65 9.675,6.95220779 9.675,7.325 C9.675,7.69779221 9.37279221,8 9,8 L1,8 Z M1,14.175 C0.627207794,14.175 0.325,13.8727922 0.325,13.5 C0.325,13.1272078 0.627207794,12.825 1,12.825 L9,12.825 C9.37279221,12.825 9.675,13.1272078 9.675,13.5 C9.675,13.8727922 9.37279221,14.175 9,14.175 L1,14.175 Z M1,19 C0.627207794,19 0.325,18.6977922 0.325,18.325 C0.325,17.9522078 0.627207794,17.65 1,17.65 L9,17.65 C9.37279221,17.65 9.675,17.9522078 9.675,18.325 C9.675,18.6977922 9.37279221,19 9,19 L1,19 Z M14,12.675 C13.2682227,12.675 12.675,13.2682227 12.675,14 L12.675,18 C12.675,18.7317773 13.2682227,19.325 14,19.325 L19,19.325 C19.7317773,19.325 20.325,18.7317773 20.325,18 L20.325,14 C20.325,13.2682227 19.7317773,12.675 19,12.675 L14,12.675 Z M14,11.325 L19,11.325 C20.4773617,11.325 21.675,12.5226383 21.675,14 L21.675,18 C21.675,19.4773617 20.4773617,20.675 19,20.675 L14,20.675 C12.5226383,20.675 11.325,19.4773617 11.325,18 L11.325,14 C11.325,12.5226383 12.5226383,11.325 14,11.325 Z"></path>
                </g>
            </g>
        </g>
    </g>
</svg>