<?xml version="1.0" encoding="UTF-8"?>
<svg width="26px" height="26px" viewBox="0 0 26 26" version="1.1" xmlns="http://www.w3.org/2000/svg" xmlns:xlink="http://www.w3.org/1999/xlink">
    <!-- Generator: Sketch 52.5 (67469) - http://www.bohemiancoding.com/sketch -->
    <title>商家信息</title>
    <desc>Created with Sketch.</desc>
    <g id="Page-1" stroke="none" stroke-width="1" fill="none" fill-rule="evenodd">
        <g id="切图（总部）" transform="translate(-42.000000, -116.000000)" fill="#E5E5E5" fill-rule="nonzero">
            <g id="优选中心icon-copy-7" transform="translate(42.000000, 116.000000)">
                <path d="M6.05354522,14.4420468 L3.69668617,14.4420468 C2.3860609,14.4420468 1.31,13.4538276 1.31,12.2050682 L1.31,9.41052633 C1.31,7.8038452 2.25172761,6.32630706 3.77306391,5.50714541 L10.5555222,1.91645154 C12.0572118,1.10784949 13.8999033,1.10784949 15.3973065,1.91416294 L22.1883374,5.50943402 C23.7053874,6.32630706 24.647115,7.8038452 24.647115,9.41052633 L24.647115,16.5964912 C24.647115,18.2031723 23.7053874,19.6807105 22.1840511,20.4998721 L15.4015928,24.090566 C14.6684712,24.4853238 13.864042,24.6720663 12.9785575,24.6720663 C12.093073,24.6720663 11.2886437,24.4853238 10.5633268,24.0947043 L3.76877757,20.5474861 C2.25172761,19.730613 1.31,18.2530749 1.31,16.6463938 C1.31,16.2653173 1.61892352,15.9563938 2,15.9563938 C2.38107648,15.9563938 2.69,16.2653173 2.69,16.6463938 C2.69,17.7292872 3.34014397,18.7493406 4.41523068,19.3282977 L11.2097799,22.8755159 C11.7333966,23.1574633 12.3132247,23.2920663 12.9785575,23.2920663 C13.6438903,23.2920663 14.2237184,23.1574633 14.7516214,22.8732273 L21.5340797,19.2825334 C22.616971,18.6994381 23.267115,17.6793846 23.267115,16.5964912 L23.267115,9.41052633 C23.267115,8.32763293 22.616971,7.30757947 21.538366,6.72677274 L14.7473351,3.13150167 C13.6540928,2.54283278 12.3030222,2.54283278 11.2054936,3.13379027 L4.42303532,6.72448413 C3.34014397,7.30757947 2.69,8.32763293 2.69,9.41052633 L2.69,12.2050682 C2.69,12.6641976 3.12321354,13.0620468 3.69668617,13.0620468 L5.87777263,13.0620468 C5.84875663,12.5341977 5.87751293,12.1001199 5.9667948,11.7585677 C6.64461475,8.65189293 9.65848936,6.37510721 13.1282651,6.37510721 C15.0326282,6.37510721 16.794224,7.02860241 18.1610255,8.23172069 C19.453069,9.30842365 20.2430389,10.8161203 20.392078,12.4584226 C20.4140469,12.5173541 20.4292745,12.5781511 20.4396761,12.6405608 C20.4528394,12.7195404 20.4553021,12.7737207 20.4553021,12.8538012 C20.4553021,13.7599187 19.6709837,14.4919493 18.7173489,14.4919493 L7.51564807,14.4919493 C8.23331656,16.6905079 10.5189992,18.3018129 13.1781676,18.3018129 C14.0296664,18.3018129 14.8308403,18.1551191 15.5807268,17.8467204 C16.2513383,17.5952411 16.9275911,17.1638385 17.5025609,16.6367827 C17.783473,16.37928 18.2199445,16.398257 18.4774473,16.6791691 C18.73495,16.9600812 18.715973,17.3965527 18.4350609,17.6540555 C17.7352011,18.2955937 16.9097392,18.8221814 16.0857193,19.1308154 C15.1830253,19.5025129 14.2037719,19.6818129 13.1781676,19.6818129 C9.78098299,19.6818129 6.84775869,17.5058914 6.09073231,14.5316623 C6.07637384,14.5029854 6.06391507,14.4730684 6.05354522,14.4420468 Z M18.7173489,13.1119493 C18.9045609,13.1119493 19.0403263,13.005626 19.0694641,12.896818 C19.0459261,12.8341566 19.0314503,12.7679257 19.0269278,12.7000892 C18.9386845,11.3764395 18.3187361,10.1595036 17.263465,9.2797857 C16.1365963,8.28814121 14.699722,7.75510721 13.1282651,7.75510721 C10.2902169,7.75510721 7.85064627,9.59804373 7.30866354,12.0795481 C7.24795472,12.3126597 7.23163996,12.6592931 7.26431348,13.1119493 L18.7173489,13.1119493 Z" id="合并形状"></path>
            </g>
        </g>
    </g>
</svg>