<?xml version="1.0" encoding="UTF-8"?>
<svg width="26px" height="26px" viewBox="0 0 26 26" version="1.1" xmlns="http://www.w3.org/2000/svg" xmlns:xlink="http://www.w3.org/1999/xlink">
    <!-- Generator: Sketch 52.5 (67469) - http://www.bohemiancoding.com/sketch -->
    <title>切图</title>
    <desc>Created with Sketch.</desc>
    <g id="Page-1" stroke="none" stroke-width="1" fill="none" fill-rule="evenodd">
        <g id="切图（门店经理）" transform="translate(-42.000000, -476.000000)" fill="#E5E5E5" fill-rule="nonzero">
            <g id="营销管理-copy" transform="translate(31.000000, 476.000000)">
                <path d="M32.666871,11.5106583 L32.666871,17.4829206 C32.666871,18.6357245 31.8400086,19.5519037 30.8443718,19.5519037 L17.1562337,19.5519037 C16.1599914,19.5519037 15.3337534,18.6357245 15.3337534,17.4829206 L15.3337534,6.44807678 C15.3337534,5.29527292 16.1606347,4.37909372 17.1562526,4.37909372 L31.0362487,4.37909372 C31.6893793,4.37909372 32.2799953,4.82327631 32.53626,5.50733277 C32.669494,5.86227365 33.0556445,6.03827707 33.3987505,5.90044795 C33.7418564,5.76261825 33.9119913,5.3631481 33.7787579,5.0082072 C33.7787579,5.00820719 33.7787579,5.0082072 33.7787579,5.00820719 C33.3281376,3.80819192 32.2543764,3 31.0362487,3 L17.1562526,3 C15.402493,3 14,4.55433569 14,6.44809632 L14,17.4829206 C14,19.3766812 15.402493,20.9309973 17.1562526,20.9309973 L30.8437474,20.9309973 C32.5968826,20.9309973 34,19.3766812 34,17.4829206 L34,11.5106387 L34,11.5106391 C33.9889039,11.1298082 33.6814779,10.8303877 33.3133434,10.8418676 C32.9608016,10.8528603 32.677497,11.1459368 32.666871,11.5106391 L32.666871,11.5106583 Z M21.1031341,16.2829054 C21.1971761,16.6512796 21.5620814,16.8710416 21.9181728,16.7737552 C22.1087498,16.7216887 22.2672975,16.5850716 22.3512514,16.4005815 L24.7743758,11.0599968 L26.5681342,13.3688538 C26.7978018,13.6662484 27.2170322,13.7147301 27.5045107,13.4771389 C27.5246125,13.4605256 27.5437671,13.4427216 27.5618783,13.4238163 L31.1318743,9.70028095 C31.4001424,9.43923242 31.4130503,9.00263458 31.1607069,8.72511294 C30.9083626,8.44759131 30.4863224,8.43423823 30.2180543,8.69528579 C30.2066465,8.70638663 30.1956202,8.7178997 30.1849959,8.72980375 L27.1399982,11.903107 L25.1449971,9.3349788 C25.0008338,9.14915437 24.7743801,9.05315099 24.5456207,9.08087497 C24.3168329,9.1086015 24.1182088,9.25684022 24.0206224,9.47269832 L21.9243755,14.0949532 L21.2750101,11.5390977 C21.1817975,11.1704984 20.8173873,10.9498575 20.4610783,11.0462866 C20.364534,11.0724144 20.2748891,11.120624 20.1987514,11.1873614 L16.8912451,14.0820156 C16.6104456,14.3280493 16.5756122,14.7629853 16.8134423,15.0534705 C17.0512724,15.3439557 17.4717062,15.3799906 17.7525056,15.133957 L20.25313,12.9460254 L21.1024893,16.2835508 L21.1024893,16.2829048 L21.1031341,16.2829054 Z M19.3662519,23 L28.6137487,23 C29.0056195,23 29.32438,22.6909336 29.32438,22.3107565 C29.32438,21.9305795 29.0056195,21.6215327 28.6137487,21.6215327 L19.3662519,21.6215327 C18.9743811,21.6215327 18.6556207,21.930599 18.6556207,22.3107565 C18.6556207,22.6909141 18.9743811,23 19.3662519,23 Z" id="形状-copy-3"></path>
            </g>
        </g>
    </g>
</svg>