<?xml version="1.0" encoding="UTF-8"?>
<svg width="22px" height="24px" viewBox="0 0 22 24" version="1.1" xmlns="http://www.w3.org/2000/svg" xmlns:xlink="http://www.w3.org/1999/xlink">
    <!-- Generator: Sketch 52.5 (67469) - http://www.bohemiancoding.com/sketch -->
    <title>形状 2 copy</title>
    <desc>Created with Sketch.</desc>
    <g id="Page-1" stroke="none" stroke-width="1" fill="none" fill-rule="evenodd">
        <g id="直营产品/非直营产品/其他产品2（添加）" transform="translate(-182.000000, -576.000000)" fill="#CCCCCC" fill-rule="nonzero">
            <g id="形状-2-copy" transform="translate(182.000000, 576.000000)">
                <path d="M19.153488,23.913043 L2.62896211,23.913043 C1.48236235,23.7801928 0.538103732,22.9166662 0.40320964,21.7210141 L0.40320964,2.19202895 C0.538103732,1.06280191 1.48236235,0.132850241 2.62896211,0 L13.6902774,0 L21.4466875,7.63888873 L21.4466875,21.7874392 C21.2443464,22.9166662 20.3000877,23.7801928 19.153488,23.913043 Z M19.7973006,7.68188911 L15.1594717,7.68188911 C14.5173108,7.61161898 14.0178523,7.11972801 14.0178523,6.55756694 L14.0178523,1.919738 L3.45787251,1.919738 C2.81571158,1.84946787 2.31625308,2.34135882 2.31625308,2.97379001 L2.31625308,21.4548357 C2.45895551,22.0169968 2.88706281,22.5088877 3.45787251,22.5791579 L18.6556812,22.5791579 C19.2978421,22.5088877 19.7973006,22.0169968 19.7973006,21.4548357 L19.7973006,7.68188911 Z M16.118371,16.0084538 C15.0392183,15.9420287 13.9600655,15.5434779 13.150701,14.8128016 C11.5319719,15.2113524 9.98068993,15.6763282 8.42940792,16.3405794 C7.14791409,18.5326083 6.00131432,19.5954102 5.05705571,19.5954102 C4.85471458,19.5954102 4.65237343,19.5289851 4.45003231,19.46256 C4.04535003,19.2632846 3.77556188,18.8647339 3.77556185,18.3997581 C3.77556185,18.0676325 3.84300889,17.0712557 7.62004337,15.4106277 C8.49685495,13.88285 9.17132539,12.222222 9.71090175,10.561594 C9.23877244,9.63164233 8.22706677,7.30676314 8.90153723,6.11111099 C9.17132541,5.71256027 9.64345472,5.44685981 10.115584,5.44685978 C10.5202663,5.44685978 10.9249485,5.64613513 11.1947367,5.97826075 C11.7343131,6.70893707 11.666866,8.1702897 10.9923956,10.4287438 C11.666866,11.6243959 12.4762306,12.6871978 13.4879362,13.5507244 C14.2973008,13.351449 15.1741123,13.2850239 15.9834769,13.2850239 C17.8719941,13.2850239 18.1417823,14.1485504 18.1417823,14.6799514 C18.0743353,16.0084538 16.7253944,16.0084538 16.118371,16.0084538 Z M4.92216162,18.3997581 L5.05705571,18.3997581 C5.59663207,18.2004827 6.06876138,17.801932 6.33854954,17.3369562 C5.73152614,17.5362315 5.25939683,17.9347822 4.92216162,18.3997581 Z M10.1830311,6.64251193 L10.048137,6.64251193 C9.98068993,6.64251193 9.91324288,6.64251193 9.9132429,6.70893707 C9.77834881,7.37318825 9.84579587,8.10386457 10.1830311,8.70169064 C10.3853722,8.03743946 10.3853722,7.30676314 10.1830311,6.64251193 Z M10.5202663,12.3550722 L10.5202663,12.4214973 L10.5202663,12.3550722 C10.115584,13.2850239 9.71090177,14.2149756 9.3062195,15.0785021 L9.37366653,15.012077 L9.3062195,15.0785021 C10.1830311,14.7463765 11.1272897,14.480676 12.0041013,14.2814007 L12.0715483,14.2814007 C11.4645249,13.6835746 10.9249485,13.0193234 10.5202663,12.3550722 Z M15.9160298,14.4142509 C15.5787946,14.4142509 15.2415594,14.4142509 14.9043242,14.480676 C15.3090064,14.6799514 15.7136887,14.7463765 16.118371,14.8128016 C16.3881591,14.8792267 16.6579473,14.8128016 16.9277355,14.7463765 C16.8602885,14.6135263 16.7253944,14.480676 15.9160298,14.4142509 Z" id="形状"></path>
            </g>
        </g>
    </g>
</svg>