<?xml version="1.0" encoding="UTF-8"?>
<svg width="330px" height="230px" viewBox="0 0 330 230" version="1.1" xmlns="http://www.w3.org/2000/svg" xmlns:xlink="http://www.w3.org/1999/xlink">
    <!-- Generator: Sketch 52.5 (67469) - http://www.bohemiancoding.com/sketch -->
    <title>菲卡价-单项有限次</title>
    <desc>Created with Sketch.</desc>
    <defs>
        <rect id="path-1" x="0" y="0" width="300" height="203"></rect>
        <filter x="-3.7%" y="-5.4%" width="108.7%" height="112.8%" filterUnits="objectBoundingBox" id="filter-2">
            <feOffset dx="2" dy="2" in="SourceAlpha" result="shadowOffsetOuter1"></feOffset>
            <feGaussianBlur stdDeviation="4" in="shadowOffsetOuter1" result="shadowBlurOuter1"></feGaussianBlur>
            <feColorMatrix values="0 0 0 0 0.911245748   0 0 0 0 0.911245748   0 0 0 0 0.911245748  0 0 0 1 0" type="matrix" in="shadowBlurOuter1"></feColorMatrix>
        </filter>
        <linearGradient x1="0%" y1="0%" x2="100.49483%" y2="95.4592013%" id="linearGradient-3">
            <stop stop-color="#94CA87" offset="0%"></stop>
            <stop stop-color="#73A066" offset="100%"></stop>
        </linearGradient>
        <linearGradient x1="50%" y1="0%" x2="50%" y2="100%" id="linearGradient-4">
            <stop stop-color="#FFFCB0" offset="0%"></stop>
            <stop stop-color="#DAAA4B" offset="100%"></stop>
        </linearGradient>
    </defs>
    <g id="菲卡时代2.0" stroke="none" stroke-width="1" fill="none" fill-rule="evenodd">
        <g id="菲卡价" transform="translate(-88.000000, -846.000000)">
            <g id="分组-11" transform="translate(88.000000, 846.000000)">
                <g id="分组-5-copy" transform="translate(15.000000, 13.000000)">
                    <g id="矩形-copy-12">
                        <use fill="black" fill-opacity="1" filter="url(#filter-2)" xlink:href="#path-1"></use>
                        <use fill="#FFFFFF" fill-rule="evenodd" xlink:href="#path-1"></use>
                    </g>
                    <path d="M12,0 L288,0 C294.627417,-1.21743675e-15 300,5.372583 300,12 L300,135 L0,135 L0,12 C-8.11624501e-16,5.372583 5.372583,1.21743675e-15 12,0 Z" id="卡样式2-copy" fill="url(#linearGradient-3)"></path>
                    <text id="次卡" font-family="PingFangSC-Medium, PingFang SC" font-size="14" font-weight="400" fill="#FFFFFF">
                        <tspan x="20" y="35">次卡</tspan>
                    </text>
                    <text id="单项有限次" font-family="PingFangSC-Medium, PingFang SC" font-size="14" font-weight="400" fill="#000000">
                        <tspan x="10" y="162">单项有限次</tspan>
                    </text>
                    <text id="¥4000.00" font-family="PingFangSC-Medium, PingFang SC" font-size="10" font-weight="400" fill="#000000">
                        <tspan x="10" y="182">¥</tspan>
                        <tspan x="16" y="182" font-size="14">4000</tspan>
                        <tspan x="49.6" y="182">.00</tspan>
                    </text>
                    <text id="¥150.00" font-family="PingFangSC-Medium, PingFang SC" font-size="10" font-weight="400" fill="#FF4142">
                        <tspan x="184" y="182">¥</tspan>
                        <tspan x="190" y="182" font-size="14">150</tspan>
                        <tspan x="212.512" y="182">.00</tspan>
                    </text>
                    <g id="编组-2" transform="translate(238.000000, 175.000000)">
                        <path d="M7.73934308,0.216668 L45.2393431,0.216668 C48.829194,0.216668 51.7393431,3.12681713 51.7393431,6.716668 C51.7393431,10.3065189 48.829194,13.216668 45.2393431,13.216668 L7.73934308,13.216668 L7.73934308,0.216668 Z" id="矩形" fill="#1B1B1B"></path>
                        <path d="M0,0.216668 L11.5,0.216668 C15.0898509,0.216668 18,3.12681713 18,6.716668 C18,10.3065189 15.0898509,13.216668 11.5,13.216668 L5.0589959,13.216668 L0,0.216668 Z" id="矩形备份" fill="#DAAA4B" transform="translate(9.000000, 6.716668) scale(-1, 1) translate(-9.000000, -6.716668) "></path>
                        <path d="M24.0237394,4.376668 L24.8787394,4.376668 L22.6617684,10.568668 L21.8067684,10.568668 L22.3223431,9.128668 L19.7393431,9.128668 L20.0325762,8.309668 L22.6155762,8.309668 L22.8991422,7.517668 L20.7121422,7.517668 L21.002153,6.707668 L23.189153,6.707668 L23.4566073,5.960668 L20.9546073,5.960668 L21.2413957,5.159668 L23.7433957,5.159668 L24.0237394,4.376668 Z M22.0129822,2.828668 L23.9479822,2.828668 L24.1509897,2.261668 L25.0059897,2.261668 L24.8029822,2.828668 L27.1879822,2.828668 L27.3909897,2.261668 L28.2459897,2.261668 L28.0429822,2.828668 L29.9689822,2.828668 L29.6821938,3.629668 L27.7561938,3.629668 L27.5209628,4.286668 L26.6659628,4.286668 L26.9011938,3.629668 L24.5161938,3.629668 L24.2809628,4.286668 L23.4259628,4.286668 L23.6611938,3.629668 L21.7261938,3.629668 L22.0129822,2.828668 Z M26.0339618,4.367668 L26.8889618,4.367668 L26.6053957,5.159668 L29.0623957,5.159668 L28.7756073,5.960668 L26.3186073,5.960668 L26.051153,6.707668 L28.211153,6.707668 L27.9211422,7.517668 L25.7611422,7.517668 L25.4775762,8.309668 L27.9705762,8.309668 L27.6773431,9.128668 L25.1843431,9.128668 L24.6687684,10.568668 L23.8137684,10.568668 L26.0339618,4.367668 Z M34.314545,2.279668 L35.178545,2.279668 L34.8111981,3.305668 L37.6731981,3.305668 L37.379965,4.124668 L34.517965,4.124668 L34.1022829,5.285668 L38.1342829,5.285668 L37.8378275,6.113668 L33.8058275,6.113668 L33.5222614,6.905668 C34.3896997,7.373668 35.2525815,7.904668 36.1166846,8.507668 L35.369675,9.236668 C34.5396836,8.588668 33.8169124,8.093668 33.2193613,7.751668 L32.2172131,10.550668 L31.3532131,10.550668 L32.9418275,6.113668 L29.7828275,6.113668 L30.0792829,5.285668 L33.2382829,5.285668 L34.314545,2.279668 Z M39.8670552,5.699668 C39.4771616,6.059668 39.0757126,6.401668 38.6717083,6.725668 L38.7123871,5.807668 C39.9167341,4.781668 40.9663055,3.584668 41.8521014,2.216668 L42.5177631,2.594668 C42.1283109,3.179668 41.7035257,3.737668 41.2401852,4.277668 L39.0071025,10.514668 L38.1431025,10.514668 L39.8670552,5.699668 Z M44.7967255,5.429668 L45.6247255,5.429668 L43.8169918,10.478668 L42.9889918,10.478668 L44.7967255,5.429668 Z M42.5190584,5.456668 L43.3470584,5.456668 L42.8701519,6.788668 C42.23024,8.525668 41.3348898,9.794668 40.1841014,10.595668 L39.7448866,10.037668 C40.7245622,9.362668 41.4892432,8.282668 42.0421519,6.788668 L42.5190584,5.456668 Z M44.7841003,2.297668 L45.5671003,2.297668 C45.6971959,3.467668 46.2780713,4.484668 47.2942819,5.366668 L46.5562722,6.095668 C45.6222829,5.285668 45.0587405,4.295668 44.8778672,3.116668 C43.720183,4.439668 42.4798361,5.465668 41.1690488,6.185668 L40.9530584,5.456668 C42.4130692,4.646668 43.6900831,3.593668 44.7841003,2.297668 Z" id="菲卡价" fill="url(#linearGradient-4)" fill-rule="nonzero"></path>
                        <g id="形状-2" transform="translate(2.739343, 2.216668)" fill="#000000" fill-rule="nonzero">
                            <path d="M2.47433047,1.31572553 L2.66319142,0.998865587 L9.37332608,0.998865587 L9.56823567,1.31572553 L2.60660476,1.31572553 L2.47433047,1.31572553 Z M10.553581,3.58551112 L9.04201692,1.37006172 L9.44074989,1.11510655 L10.9523007,3.33134381 L10.553581,3.58551112 Z M7.56701002,3.52869512 L5.84337203,1.46326113 L6.2147402,1.1725554 L7.93900163,3.23798938 L7.56701002,3.52869512 Z M4.10225133,3.58551112 L2.59038219,1.37006172 L2.98940698,1.11510655 L4.5009843,3.33134381 L4.10225133,3.58551112 Z M1.48358649,3.58675102 L1.08423009,3.33258369 L2.65618772,1.0199181 L3.05554413,1.27409834 L1.48358649,3.58675102 Z M7.93490286,3.58675102 L7.53555973,3.33258369 L9.10753063,1.0199181 L9.5068605,1.27409834 L7.93490286,3.58675102 Z M4.43547059,3.50950244 L4.06983273,3.21121522 L5.91684448,1.09715378 L6.28217726,1.39559598 L4.43547059,3.50950244 Z M1.30424951,3.53504963 L1.30424951,3.21816383 L10.7462621,3.21816383 L10.7462621,3.53504963 L1.30424951,3.53504963 Z M5.72320829,8.2280072 L3.83644262,3.30130197 L4.28126996,3.13257175 L6.16831419,8.05941905 L5.91363445,8.41964979 L5.72320829,8.2280072 Z M6.31395918,8.45231351 L5.86182305,8.3021431 L7.7040463,3.10068298 L8.15618243,3.25005262 L6.31395918,8.45231351 Z M5.99535747,8.99886559 L0.996153344,3.41957069 L1.28199155,3.04233003 L6.27959067,8.62227072 L5.99535747,8.99886559 Z M5.99535747,8.99886559 L5.80523639,8.5225747 L10.7090285,2.97221089 L10.9961533,3.38658409 L6.16896415,8.82287678 L5.99535747,8.99886559 Z" id="形状"></path>
                        </g>
                    </g>
                </g>
            </g>
        </g>
    </g>
</svg>