<?xml version="1.0" encoding="UTF-8"?>
<svg width="28px" height="28px" viewBox="0 0 28 28" version="1.1" xmlns="http://www.w3.org/2000/svg" xmlns:xlink="http://www.w3.org/1999/xlink">
    <!-- Generator: Sketch 52.5 (67469) - http://www.bohemiancoding.com/sketch -->
    <title>分组 8</title>
    <desc>Created with Sketch.</desc>
    <g id="Page-1" stroke="none" stroke-width="1" fill="none" fill-rule="evenodd">
        <g id="会员-copy-10" transform="translate(-166.000000, -474.000000)" fill="#999999" fill-rule="nonzero">
            <g id="分组-8" transform="translate(124.000000, 397.000000)">
                <g id="分组-3" transform="translate(34.000000, 70.000000)">
                    <g id="添加会员" transform="translate(8.000000, 7.000000)">
                        <g id="形状-2" transform="translate(3.000000, 3.000000)">
                            <path d="M10.8651337,21.7333827 C4.86449785,21.7333827 4.38760139e-13,16.8679181 4.38760139e-13,10.8665087 C-2.14405239e-10,4.86509941 4.86447636,-4.26325641e-14 10.8651337,-4.26325641e-14 C16.8658126,-4.24989903e-14 21.7303104,4.86509941 21.7303104,10.8665087 C21.7303104,16.8679181 16.8658341,21.7333827 10.8651337,21.7333827 Z M10.8651337,1.35824377 C5.61451825,1.35824377 1.35817931,5.61520575 1.35817931,10.8664873 C1.35817931,16.1177688 5.61451825,20.3747952 10.8651337,20.3747952 C16.1157492,20.3747952 20.3720882,16.1177688 20.3720882,10.8664873 C20.3720882,5.61520575 16.1157492,1.35824377 10.8651337,1.35824377 Z M14.9395643,11.545781 L11.5442771,11.545781 L11.5442771,14.9415838 C11.5442771,15.3164651 11.2402342,15.6206111 10.8651982,15.6206111 C10.4901622,15.6206111 10.1861708,15.3164651 10.1861708,14.9415838 L10.1861708,11.545781 L6.79077626,11.545781 C6.41574028,11.545781 6.11169735,11.2416865 6.11169735,10.8664937 C6.11169735,10.4915608 6.41579184,10.1874663 6.79077626,10.1874663 L10.1861708,10.1874663 L10.1861708,6.79149169 C10.1861708,6.4166104 10.4902138,6.11261903 10.8651982,6.11261903 C11.2402857,6.11261903 11.5442771,6.41655883 11.5442771,6.79149169 L11.5442771,10.1874663 L14.9395643,10.1874663 C15.3146518,10.1874663 15.6186432,10.4915608 15.6186432,10.8664937 C15.6186431,11.2416844 15.3146518,11.545781 14.9395643,11.545781 Z" id="形状"></path>
                        </g>
                    </g>
                </g>
            </g>
        </g>
    </g>
</svg>