<?xml version="1.0" encoding="UTF-8"?>
<svg width="10px" height="6px" viewBox="0 0 10 6" version="1.1" xmlns="http://www.w3.org/2000/svg" xmlns:xlink="http://www.w3.org/1999/xlink">
    <!-- Generator: Sketch 52.5 (67469) - http://www.bohemiancoding.com/sketch -->
    <title>icon-展开</title>
    <desc>Created with Sketch.</desc>
    <g id="菲卡时代2.0" stroke="none" stroke-width="1" fill="none" fill-rule="evenodd">
        <g id="卡项" transform="translate(-377.000000, -431.000000)" fill="#666666">
            <g id="icon-展开" transform="translate(382.000000, 434.000000) scale(-1, 1) rotate(-180.000000) translate(-382.000000, -434.000000) translate(377.000000, 431.000000)">
                <path d="M7.87329657,-1.28494702 L3.04414467,3.00097652 L7.87329656,7.28592354 C8.04223447,7.44900152 8.04223447,7.71461355 7.87329656,7.87769152 C7.70435866,8.04076949 7.43137972,8.04076949 7.26244181,7.87769152 L2.12322704,3.31736731 C2.03360754,3.23045749 1.9954935,3.11425223 2.00064404,3 C1.99446338,2.88574777 2.03257743,2.77051901 2.12322704,2.68263269 L7.26244181,-1.87769152 C7.43137972,-2.04076949 7.70435866,-2.04076949 7.87329656,-1.87769152 C8.04223448,-1.71266051 8.04223448,-1.44802499 7.87329657,-1.28494702 Z" id="路径" transform="translate(5.000000, 3.000000) rotate(-270.000000) translate(-5.000000, -3.000000) "></path>
            </g>
        </g>
    </g>
</svg>