<?xml version="1.0" encoding="UTF-8"?>
<svg width="28px" height="28px" viewBox="0 0 28 28" version="1.1" xmlns="http://www.w3.org/2000/svg" xmlns:xlink="http://www.w3.org/1999/xlink">
    <!-- Generator: Sketch 52.5 (67469) - http://www.bohemiancoding.com/sketch -->
    <title>分组 8</title>
    <desc>Created with Sketch.</desc>
    <g id="Page-1" stroke="none" stroke-width="1" fill="none" fill-rule="evenodd">
        <g id="会员-copy-2" transform="translate(-385.000000, -108.000000)" fill="#999999" fill-rule="nonzero">
            <g id="分组-8" transform="translate(123.000000, 31.000000)">
                <g id="分组-9" transform="translate(254.000000, 70.000000)">
                    <g id="会员卡配置" transform="translate(8.000000, 7.000000)">
                        <g id="卡片" transform="translate(3.000000, 5.000000)">
                            <path d="M22.0000256,2.69440157 C22.0000256,1.20634476 20.7331915,0 19.1711961,0 L2.82945251,0 C1.26684054,0 0,1.20633402 0,2.69440157 L0,15.0272421 C0,16.5159112 1.26683409,17.7222452 2.82882946,17.7222452 L19.1705731,17.7222452 C20.7331851,17.7222452 22.0000256,16.5159112 22.0000256,15.0278437 L22.0000256,2.69500314 L22.0000256,2.69440157 Z M2.82882946,1.79606791 L19.1705731,1.79606791 C19.6894063,1.79606791 20.1135191,2.20062346 20.1135191,2.69440157 L20.1135191,4.87973029 L1.88589634,4.87973029 L1.88589634,2.69440157 C1.88589634,2.20062346 2.31000698,1.79606791 2.82884235,1.79606791 L2.82882946,1.79606791 Z M19.1705731,15.9261859 L2.82945251,15.9261859 C2.31061929,15.9261859 1.88650649,15.5216304 1.88650649,15.0278523 L1.88650649,6.67579175 L20.1147523,6.67579175 L20.1147523,15.0278523 C20.1147523,15.5216304 19.6906417,15.9261859 19.1718063,15.9261859 L19.1705731,15.9261859 Z M8.23350958,11.8549566 L3.96000461,11.8549566 C3.43811416,11.8549566 3.01705859,12.2558469 3.01705859,12.7532902 C3.01705859,13.2495133 3.43872646,13.6510137 3.96000461,13.6510137 L8.23411114,13.6510137 C8.7560016,13.6510137 9.17705716,13.2495133 9.17705716,12.7526801 C9.17705716,12.2558469 8.7560016,11.8543464 8.23411114,11.8543464 L8.23350958,11.8549566 Z" id="形状"></path>
                        </g>
                    </g>
                </g>
            </g>
        </g>
    </g>
</svg>