<?xml version="1.0" encoding="UTF-8"?>
<svg width="54px" height="54px" viewBox="0 0 54 54" version="1.1" xmlns="http://www.w3.org/2000/svg" xmlns:xlink="http://www.w3.org/1999/xlink">
    <!-- Generator: Sketch 52.5 (67469) - http://www.bohemiancoding.com/sketch -->
    <title>会员设置</title>
    <desc>Created with Sketch.</desc>
    <g id="Page-1" stroke="none" stroke-width="1" fill="none" fill-rule="evenodd">
        <g id="会员-copy-2" transform="translate(-153.000000, -59.000000)">
            <g id="充值" transform="translate(136.000000, 41.000000)">
                <g id="会员设置" transform="translate(17.000000, 18.000000)">
                    <rect id="矩形" fill="#FBD07A" x="0" y="0" width="54" height="54" rx="16"></rect>
                    <g id="卡片1" transform="translate(17.000000, 18.000000)">
                        <rect id="矩形" fill="#000000" opacity="0" x="2" y="0" width="20" height="20"></rect>
                        <path d="M20,3.44944445 L20,14.6611111 C20,16.0144445 18.8483333,17.1111111 17.4283333,17.1111111 L2.57222223,17.1111111 C1.15166666,17.1111111 0,16.0144445 0,14.6616667 L0,3.45 C0,2.09666668 1.15166666,1 2.57166666,1 L17.4277778,1 C18.8483333,1 20,2.09666668 20,3.44944445 Z M7.48555555,11.7772222 L3.6,11.7772222 C3.12555555,11.7772222 2.74277777,12.1416667 2.74277777,12.5938889 C2.74277777,13.045 3.12611111,13.41 3.6,13.41 L7.48555555,13.41 C7.96,13.41 8.34277777,13.045 8.34277777,12.5933333 C8.34277777,12.1416667 7.96,11.7766667 7.48555555,11.7766667 L7.48555555,11.7772222 Z M2.5,5.44444445 C2.03981253,5.4445149 1.66679424,5.81759031 1.66679424,6.27777778 C1.66679424,6.73796526 2.03981253,7.11104066 2.5,7.11111111 L17.5,7.11111111 C17.9601875,7.11104066 18.3332058,6.73796526 18.3332058,6.27777778 C18.3332058,5.81759031 17.9601875,5.4445149 17.5,5.44444445 L2.5,5.44444445 Z" id="形状" fill="#FFFFFF" fill-rule="nonzero"></path>
                    </g>
                </g>
            </g>
        </g>
    </g>
</svg>