<?xml version="1.0" encoding="UTF-8"?>
<svg width="13px" height="12px" viewBox="0 0 13 12" version="1.1" xmlns="http://www.w3.org/2000/svg" xmlns:xlink="http://www.w3.org/1999/xlink">
    <!-- Generator: Sketch 52.5 (67469) - http://www.bohemiancoding.com/sketch -->
    <title>产品</title>
    <desc>Created with Sketch.</desc>
    <g id="Page-1" stroke="none" stroke-width="1" fill="none" fill-rule="evenodd">
        <g id="今日会员-768*1024" transform="translate(-136.000000, -320.000000)" fill="#D9D9DA" fill-rule="nonzero">
            <g id="22" transform="translate(123.000000, 137.000000)">
                <g id="分组-13" transform="translate(12.000000, 123.000000)">
                    <g id="分组" transform="translate(0.000000, 26.000000)">
                        <g id="产品" transform="translate(0.000000, 33.000000)">
                            <path d="M13.0565047,2.95992989 C13.3040606,2.95992989 13.4919351,2.99347057 13.6290328,3.0598646 C13.7648498,3.12659465 13.8626065,3.20667377 13.9209776,3.30660847 C13.9793933,3.40654318 14.0054221,3.50646261 13.9990638,3.6200824 C13.9927055,3.73336617 13.9793933,3.82677908 13.9540049,3.90653745 L13.7845202,4.4000252 L13.5052473,5.21999992 L13.192962,6.10671997 C13.0958605,6.40001756 13.0177742,6.63341237 12.9657168,6.80007713 C12.8482896,7.15326224 12.705474,7.40002138 12.5303161,7.53998801 C12.3545029,7.67996991 12.1399594,7.74668469 11.8867003,7.74668469 L11.4379427,7.74668469 L10.5804386,7.74668469 L9.46270663,7.74668469 L8.23389088,7.74668469 L4.96509476,7.74668469 L5.16629635,8.94657319 L11.8022707,8.94657319 C12.2249995,8.94657319 12.439543,9.12658702 12.439543,9.4934572 C12.439543,9.67315028 12.3938438,9.82678672 12.3088037,9.95341955 C12.2313578,10.0800218 12.0625134,10.1467824 11.8149872,10.1467824 L11.1847134,10.1467824 L9.96288138,10.1467824 L8.44209104,10.1467824 L6.90161535,10.1467824 L5.64044236,10.1467824 L4.91303728,10.1467824 C4.73720925,10.1467824 4.58806515,10.10672 4.470638,10.0266561 C4.35385114,9.94657701 4.25609445,9.83981504 4.178038,9.7131822 C4.09360838,9.58654937 4.0352224,9.44658274 3.98317981,9.29326705 C3.9381209,9.13995135 3.89876508,8.99996945 3.87273634,8.86650935 L3.80100839,8.48011959 L3.65183451,7.71318984 L3.4633197,6.68648789 L3.25513443,5.54651744 L2.6832764,2.54653654 L1.69500317,2.54653654 C1.56552953,2.54653654 1.45510095,2.51333188 1.37003104,2.44660183 C1.27989833,2.37987178 1.20754497,2.30011341 1.14915899,2.20668522 C1.09710151,2.11327232 1.05204259,2.01332234 1.03237213,1.90654509 C1.01334196,1.80010386 1,1.69984841 1,1.61326277 C1,1.43323367 1.05840087,1.28676052 1.17582803,1.17315601 C1.29895828,1.05987224 1.45510095,1 1.65630254,1 L1.94890253,1 L2.21548868,1 L2.5404608,1 L2.98857807,1 C3.16439121,1 3.30719192,1.02668286 3.41127711,1.08006384 C3.51537719,1.1334601 3.59979191,1.19985414 3.66519136,1.27993325 C3.72357735,1.3599971 3.76863626,1.44659801 3.794665,1.53318365 L3.85940926,1.76007194 C3.87972002,1.83330851 3.89242169,1.93322795 3.91146675,2.05986078 L3.96352423,2.4534291 L4.04222098,2.95992989 L13.0565047,2.95992989 Z M10.8400709,10.5332027 C11.0089003,10.5332027 11.1714013,10.5667129 11.3211857,10.6266309 C11.4773134,10.6865184 11.6068169,10.7734095 11.7179006,10.8867086 C11.8283292,10.9999924 11.9191022,11.1266252 11.9838465,11.2799256 C12.0492161,11.4332566 12.0815734,11.5933995 12.0815734,11.7600796 C12.0815734,11.9267596 12.0492013,12.0865818 11.9838465,12.2399128 C11.9190873,12.3932132 11.8283292,12.519846 11.7179006,12.6334506 C11.6068169,12.7467496 11.4773283,12.8333352 11.3211857,12.9000653 C11.1714013,12.9667953 11.0089003,13 10.8400709,13 C10.6775848,13 10.5150987,12.9667953 10.3659248,12.9000653 C10.2167659,12.8333352 10.0860116,12.7467496 9.98192644,12.6334506 C9.87146808,12.519846 9.78069507,12.3932132 9.71598059,12.2399128 C9.65059603,12.0865818 9.6182239,11.9267443 9.6182239,11.7600796 C9.6182239,11.5934148 9.65061092,11.4332719 9.71598059,11.2799256 C9.78070996,11.1266252 9.87146808,10.9999924 9.98192644,10.8867086 C10.0860116,10.7734095 10.2167659,10.6865184 10.3659248,10.6266309 C10.5150987,10.5667129 10.6775848,10.5332027 10.8400709,10.5332027 Z M5.36116944,10.5065199 C5.529984,10.5065199 5.68614156,10.54003 5.83592596,10.5999328 C5.98509984,10.6601411 6.11519888,10.746742 6.23198574,10.8600105 C6.34242921,10.9732942 6.43382762,11.0999271 6.49222849,11.2532428 C6.55695787,11.4065585 6.58997029,11.5667167 6.58997029,11.7333967 C6.58997029,11.9000767 6.55695787,12.0598837 6.49222849,12.2132147 C6.43382762,12.3665456 6.34241432,12.4934839 6.23198574,12.6067677 C6.11519888,12.7200667 5.98508495,12.8066371 5.83592596,12.8733672 C5.68614156,12.9400972 5.529984,12.9733019 5.36116944,12.9733019 C5.18596681,12.9733019 5.02348075,12.9400972 4.88003974,12.8733672 C4.73722414,12.8066371 4.60711021,12.7200667 4.49032335,12.6067677 C4.37987988,12.4934839 4.28848147,12.3665456 4.2300806,12.2132147 C4.16535122,12.0598837 4.13235369,11.9000615 4.13235369,11.7333967 C4.13235369,11.566732 4.16535122,11.4065737 4.2300806,11.2532428 C4.28848147,11.0999271 4.37989477,10.9732942 4.49032335,10.8600105 C4.60711021,10.746742 4.73722414,10.6601411 4.88003974,10.5999328 C5.02348075,10.54003 5.18596681,10.5065199 5.36116944,10.5065199 Z" id="形状"></path>
                        </g>
                    </g>
                </g>
            </g>
        </g>
    </g>
</svg>