<?xml version="1.0" encoding="UTF-8"?>
<svg width="178px" height="127px" viewBox="0 0 178 127" version="1.1" xmlns="http://www.w3.org/2000/svg" xmlns:xlink="http://www.w3.org/1999/xlink">
    <!-- Generator: Sketch 52.5 (67469) - http://www.bohemiancoding.com/sketch -->
    <title>充值赠送</title>
    <desc>Created with Sketch.</desc>
    <defs>
        <linearGradient x1="0%" y1="55.8771307%" x2="100%" y2="55.8771307%" id="linearGradient-1">
            <stop stop-color="#FFE8A1" offset="0%"></stop>
            <stop stop-color="#FFC530" offset="100%"></stop>
        </linearGradient>
        <linearGradient x1="0%" y1="44.8697917%" x2="100%" y2="44.8697917%" id="linearGradient-2">
            <stop stop-color="#FFEBC6" offset="0%"></stop>
            <stop stop-color="#FFD969" offset="100%"></stop>
        </linearGradient>
        <filter x="0.0%" y="0.0%" width="100.0%" height="100.0%" filterUnits="objectBoundingBox" id="filter-3">
            <feGaussianBlur stdDeviation="0 0" in="SourceGraphic"></feGaussianBlur>
        </filter>
        <filter x="0.0%" y="0.0%" width="100.0%" height="100.0%" filterUnits="objectBoundingBox" id="filter-4">
            <feGaussianBlur stdDeviation="0 0" in="SourceGraphic"></feGaussianBlur>
        </filter>
        <filter x="-0.0%" y="0.0%" width="100.0%" height="100.0%" filterUnits="objectBoundingBox" id="filter-5">
            <feGaussianBlur stdDeviation="0 0" in="SourceGraphic"></feGaussianBlur>
        </filter>
        <filter x="-0.0%" y="0.0%" width="100.0%" height="100.0%" filterUnits="objectBoundingBox" id="filter-6">
            <feGaussianBlur stdDeviation="0 0" in="SourceGraphic"></feGaussianBlur>
        </filter>
        <linearGradient x1="-8.13843665%" y1="84.8409149%" x2="98.8462606%" y2="35.3465759%" id="linearGradient-7">
            <stop stop-color="#FFDB00" offset="0%"></stop>
            <stop stop-color="#FFB400" offset="100%"></stop>
        </linearGradient>
        <linearGradient x1="50%" y1="0%" x2="50%" y2="100%" id="linearGradient-8">
            <stop stop-color="#FAD961" offset="0%"></stop>
            <stop stop-color="#F76B1C" offset="100%"></stop>
        </linearGradient>
    </defs>
    <g id="Page-1" stroke="none" stroke-width="1" fill="none" fill-rule="evenodd">
        <g id="充值---选择后-copy-3" transform="translate(-365.000000, -321.000000)">
            <g id="充值赠送" transform="translate(365.000000, 320.000000)">
                <g id="分组" transform="translate(5.355000, 81.585000)">
                    <rect id="矩形" x="0.598292079" y="39.797561" width="171.108416" height="6.53817073"></rect>
                    <path d="M3.71450495,40.9944493 L3.71450495,40.9346341 L170.006955,40.9346341 L170.006955,40.9359906 C170.982484,40.9237245 171.521197,40.9946484 171.623092,41.1487622 C171.799587,41.4157052 171.912516,42.3337438 171.961879,43.9028782 C171.962674,43.9281267 171.963071,43.9533862 171.963071,43.9786473 C171.963071,45.3095142 170.884191,46.3883955 169.553324,46.388396 L165.051109,46.3884025 C164.87845,46.3884024 164.710031,46.3702436 164.54766,46.3357317 L7.73019748,46.3357317 C7.56782601,46.3702436 7.39940778,46.3884024 7.22674834,46.3884025 L2.72453333,46.388396 C1.39366642,46.3883955 0.314786062,45.3095142 0.314786612,43.9786473 C0.314786622,43.9533862 0.315183845,43.9281267 0.315978133,43.9028782 C0.365341104,42.3337438 0.478270077,41.4157052 0.654765054,41.1487622 C0.799032967,40.9305616 1.81894627,40.879124 3.71450495,40.9944493 Z" id="合并形状" fill="#3655D0"></path>
                    <g id="分组-3" transform="translate(86.171707, 21.809680) scale(-1, 1) rotate(90.000000) translate(-86.171707, -21.809680) translate(64.436707, -64.342820)">
                        <path d="M2.55741537,14.7102117 L40.9615073,0.352732608 C42.2614747,-0.153487062 43.3153065,1.85321931 43.3153065,4.83603564 L43.3153065,167.43055 C43.3153065,170.413366 42.2614747,172.420072 40.9615073,171.913853 L2.55741537,157.556374 C1.25744797,157.0906 0.203616182,154.74546 0.203616182,152.317158 L0.203616182,19.9494272 C0.203616182,17.521125 1.25744797,15.175985 2.55741537,14.7102117 Z" id="矩形" fill="#517BF4"></path>
                        <path d="M21.511693,162.44257 C22.9484991,162.966151 24.1132605,160.94601 24.1132605,157.929034 C24.1132605,154.912057 22.9484991,152.100898 21.511693,151.651359 C20.0748869,151.203173 18.9101255,153.226649 18.9101255,156.169695 C18.9101255,159.112741 20.0748869,161.920565 21.511693,162.44257 Z" id="椭圆形" fill="#FFFFFF"></path>
                        <path d="M3.08068913,25.8813992 L40.2459394,14.2192692 C40.3827781,14.1746518 40.4937077,14.3898868 40.4937077,14.7000212 L40.4937077,155.367809 C40.4937077,155.677944 40.3827781,155.894168 40.2459394,155.85077 L3.08068913,144.507527 C2.94385045,144.467395 2.83292079,144.224792 2.83292079,143.965647 L2.83292079,26.4253211 C2.83292079,26.1661765 2.94385045,25.9226594 3.08068913,25.8813992 Z" id="矩形" fill="#FFFFFF"></path>
                        <path d="M13.1574788,15.7595925 L22.201023,12.6161117 C22.50891,12.508049 22.7585017,12.9549833 22.7585017,13.6144296 C22.7585017,14.2738758 22.50891,14.8933246 22.201023,14.9979469 L13.1574788,18.0413509 C12.8495917,18.1439537 12.6,17.717659 12.6,17.0892553 C12.6,16.4608516 12.8495917,15.8655691 13.1574788,15.7595925 Z" id="矩形" fill="#FFFFFF"></path>
                        <path d="M24.8744208,13.8698588 C25.2165175,13.7569465 25.4938417,13.1013513 25.4938417,12.40562 C25.4938417,11.7098886 25.2165175,11.2408479 24.8744208,11.3579115 C24.5323242,11.4748902 24.255,12.1302956 24.255,12.8218772 C24.255,13.5134589 24.5323242,13.9826893 24.8744208,13.8698588 Z" id="椭圆形" fill="#FFFFFF"></path>
                    </g>
                </g>
                <g id="分组-2" transform="translate(83.160000, 86.310000)">
                    <path d="M0.0126367908,22.1359091 L0,22.1359091 L0,9.765 L62.685,9.765 L62.685,22.1359091 L62.6723632,22.1359091 C62.196674,28.5728154 48.351904,32.445 31.3425,32.445 C14.333096,32.445 0.488325981,28.5728154 0.0126373167,22.1359162 Z" id="合并形状" fill="url(#linearGradient-1)"></path>
                    <path d="M31.3425,20.79 C48.6524848,20.79 62.685,16.7463333 62.685,10.0485 C62.685,3.3506667 48.6524848,0 31.3425,0 C14.0325152,0 0,3.3506667 0,10.0485 C0,16.7463333 14.0325152,20.79 31.3425,20.79 Z" id="椭圆形" fill="url(#linearGradient-2)"></path>
                    <path d="M31.3732908,16.695 C44.871221,16.695 55.125,13.3359126 55.125,10.1808 C55.125,5.20382153 44.871221,2.835 31.3732908,2.835 C17.8753607,2.835 7.23288223,5.57633775 6.93312629,10.1808 C6.71563088,13.5216826 17.8753607,16.695 31.3732908,16.695 Z" id="椭圆形-copy" fill="#FFBB59"></path>
                    <path d="M33.0195191,11.6445073 L33.0195191,11.655 L22.05,8.49975363 L33.0195191,5.36259231 L33.0195191,5.355 L43.785,8.49975363 L33.0195191,11.6445073 Z" id="合并形状" fill="#FBD789"></path>
                </g>
                <g id="分组-2-copy" transform="translate(83.160000, 72.765000)">
                    <path d="M0.0126367908,22.1359091 L0,22.1359091 L0,9.765 L62.685,9.765 L62.685,22.1359091 L62.6723632,22.1359091 C62.196674,28.5728154 48.351904,32.445 31.3425,32.445 C14.333096,32.445 0.488325981,28.5728154 0.0126373167,22.1359162 Z" id="合并形状" fill="url(#linearGradient-1)"></path>
                    <path d="M31.3425,20.79 C48.6524848,20.79 62.685,16.7463333 62.685,10.0485 C62.685,3.3506667 48.6524848,0 31.3425,0 C14.0325152,0 0,3.3506667 0,10.0485 C0,16.7463333 14.0325152,20.79 31.3425,20.79 Z" id="椭圆形" fill="url(#linearGradient-2)"></path>
                    <path d="M31.3732908,16.695 C44.871221,16.695 55.125,13.3359126 55.125,10.1808 C55.125,5.20382153 44.871221,2.835 31.3732908,2.835 C17.8753607,2.835 7.23288223,5.57633775 6.93312629,10.1808 C6.71563088,13.5216826 17.8753607,16.695 31.3732908,16.695 Z" id="椭圆形-copy" fill="#FFBB59"></path>
                    <path d="M33.0195191,11.6445073 L33.0195191,11.655 L22.05,8.49975363 L33.0195191,5.36259231 L33.0195191,5.355 L43.785,8.49975363 L33.0195191,11.6445073 Z" id="合并形状" fill="#FBD789"></path>
                </g>
                <g id="分组-2-copy-2" transform="translate(83.160000, 59.220000)">
                    <path d="M0.0126367908,22.1359091 L0,22.1359091 L0,9.765 L62.685,9.765 L62.685,22.1359091 L62.6723632,22.1359091 C62.196674,28.5728154 48.351904,32.445 31.3425,32.445 C14.333096,32.445 0.488325981,28.5728154 0.0126373167,22.1359162 Z" id="合并形状" fill="url(#linearGradient-1)"></path>
                    <path d="M31.3425,20.79 C48.6524848,20.79 62.685,16.7463333 62.685,10.0485 C62.685,3.3506667 48.6524848,0 31.3425,0 C14.0325152,0 0,3.3506667 0,10.0485 C0,16.7463333 14.0325152,20.79 31.3425,20.79 Z" id="椭圆形" fill="url(#linearGradient-2)"></path>
                    <path d="M31.3732908,16.695 C44.871221,16.695 55.125,13.3359126 55.125,10.1808 C55.125,5.20382153 44.871221,2.835 31.3732908,2.835 C17.8753607,2.835 7.23288223,5.57633775 6.93312629,10.1808 C6.71563088,13.5216826 17.8753607,16.695 31.3732908,16.695 Z" id="椭圆形-copy" fill="#FFBB59"></path>
                    <path d="M33.0195191,11.6445073 L33.0195191,11.655 L22.05,8.49975363 L33.0195191,5.36259231 L33.0195191,5.355 L43.785,8.49975363 L33.0195191,11.6445073 Z" id="合并形状" fill="#FBD789"></path>
                </g>
                <g id="分组-2-copy-3" transform="translate(83.160000, 45.675000)">
                    <path d="M0.0126367908,22.1359091 L0,22.1359091 L0,9.765 L62.685,9.765 L62.685,22.1359091 L62.6723632,22.1359091 C62.196674,28.5728154 48.351904,32.445 31.3425,32.445 C14.333096,32.445 0.488325981,28.5728154 0.0126373167,22.1359162 Z" id="合并形状" fill="url(#linearGradient-1)"></path>
                    <path d="M31.3425,20.79 C48.6524848,20.79 62.685,16.7463333 62.685,10.0485 C62.685,3.3506667 48.6524848,0 31.3425,0 C14.0325152,0 0,3.3506667 0,10.0485 C0,16.7463333 14.0325152,20.79 31.3425,20.79 Z" id="椭圆形" fill="url(#linearGradient-2)"></path>
                    <path d="M31.3732908,16.695 C44.871221,16.695 55.125,13.3359126 55.125,10.1808 C55.125,5.20382153 44.871221,2.835 31.3732908,2.835 C17.8753607,2.835 7.23288223,5.57633775 6.93312629,10.1808 C6.71563088,13.5216826 17.8753607,16.695 31.3732908,16.695 Z" id="椭圆形-copy" fill="#FFBB59"></path>
                    <path d="M33.0195191,11.6445073 L33.0195191,11.655 L22.05,8.49975363 L33.0195191,5.36259231 L33.0195191,5.355 L43.785,8.49975363 L33.0195191,11.6445073 Z" id="合并形状" fill="#FBD789"></path>
                </g>
                <g id="分组-2-copy-6" transform="translate(83.160000, 32.130000)">
                    <path d="M0.0126367908,22.1359091 L0,22.1359091 L0,9.765 L62.685,9.765 L62.685,22.1359091 L62.6723632,22.1359091 C62.196674,28.5728154 48.351904,32.445 31.3425,32.445 C14.333096,32.445 0.488325981,28.5728154 0.0126373167,22.1359162 Z" id="合并形状" fill="url(#linearGradient-1)"></path>
                    <path d="M31.3425,20.79 C48.6524848,20.79 62.685,16.7463333 62.685,10.0485 C62.685,3.3506667 48.6524848,0 31.3425,0 C14.0325152,0 0,3.3506667 0,10.0485 C0,16.7463333 14.0325152,20.79 31.3425,20.79 Z" id="椭圆形" fill="url(#linearGradient-2)"></path>
                    <path d="M31.3732908,16.695 C44.871221,16.695 55.125,13.3359126 55.125,10.1808 C55.125,5.20382153 44.871221,2.835 31.3732908,2.835 C17.8753607,2.835 7.23288223,5.57633775 6.93312629,10.1808 C6.71563088,13.5216826 17.8753607,16.695 31.3732908,16.695 Z" id="椭圆形-copy" fill="#FFBB59"></path>
                    <path d="M33.0195191,11.6445073 L33.0195191,11.655 L22.05,8.49975363 L33.0195191,5.36259231 L33.0195191,5.355 L43.785,8.49975363 L33.0195191,11.6445073 Z" id="合并形状" fill="#FBD789"></path>
                </g>
                <g id="分组-2-copy-7" transform="translate(83.160000, 18.585000)">
                    <path d="M0.0126367908,22.1359091 L0,22.1359091 L0,9.765 L62.685,9.765 L62.685,22.1359091 L62.6723632,22.1359091 C62.196674,28.5728154 48.351904,32.445 31.3425,32.445 C14.333096,32.445 0.488325981,28.5728154 0.0126373167,22.1359162 Z" id="合并形状" fill="url(#linearGradient-1)"></path>
                    <path d="M31.3425,20.79 C48.6524848,20.79 62.685,16.7463333 62.685,10.0485 C62.685,3.3506667 48.6524848,0 31.3425,0 C14.0325152,0 0,3.3506667 0,10.0485 C0,16.7463333 14.0325152,20.79 31.3425,20.79 Z" id="椭圆形" fill="url(#linearGradient-2)"></path>
                    <path d="M31.3732908,16.695 C44.871221,16.695 55.125,13.3359126 55.125,10.1808 C55.125,5.20382153 44.871221,2.835 31.3732908,2.835 C17.8753607,2.835 7.23288223,5.57633775 6.93312629,10.1808 C6.71563088,13.5216826 17.8753607,16.695 31.3732908,16.695 Z" id="椭圆形-copy" fill="#FFBB59"></path>
                    <path d="M33.0195191,11.6445073 L33.0195191,11.655 L22.05,8.49975363 L33.0195191,5.36259231 L33.0195191,5.355 L43.785,8.49975363 L33.0195191,11.6445073 Z" id="合并形状" fill="#FBD789"></path>
                </g>
                <g id="分组-2-copy-5" transform="translate(170.120648, 34.674899) scale(-1, 1) rotate(41.000000) translate(-170.120648, -34.674899) translate(163.505648, 31.209899)">
                    <path d="M0.00266706138,4.72805825 L0,4.72805825 L0,2.08572816 L13.23,2.08572816 L13.23,4.72805825 L13.2273329,4.72805825 C13.1269384,6.10293085 10.2049258,6.93 6.615,6.93 C3.02507422,6.93 0.103061621,6.10293085 0.00266706138,4.72805825 Z" id="合并形状" fill="url(#linearGradient-1)" filter="url(#filter-3)"></path>
                    <path d="M6.615,4.44058252 C10.2683636,4.44058252 13.23,3.57688672 13.23,2.14628155 C13.23,0.715676382 10.2683636,0 6.615,0 C2.96163638,0 0,0.715676382 0,2.14628155 C0,3.57688672 2.96163638,4.44058252 6.615,4.44058252 Z" id="椭圆形" fill="url(#linearGradient-2)" filter="url(#filter-4)"></path>
                    <path d="M6.62149856,3.56592233 C9.47030794,3.56592233 11.6344221,2.84844735 11.6344221,2.17453981 C11.6344221,1.11149586 9.47030794,0.605533981 6.62149856,0.605533981 C3.77268919,0.605533981 1.52653796,1.19106243 1.46327289,2.17453981 C1.41736933,2.88812638 3.77268919,3.56592233 6.62149856,3.56592233 Z" id="椭圆形-copy" fill="#FFBB59" filter="url(#filter-5)"></path>
                    <path d="M6.96894372,2.48717631 L6.96894372,2.48941748 L4.65376884,1.81548136 L6.96894372,1.14540807 L6.96894372,1.14378641 L9.24105528,1.81548136 L6.96894372,2.48717631 Z" id="合并形状" fill="#FBD789" filter="url(#filter-6)"></path>
                </g>
                <g id="分组-2-copy-8" transform="translate(80.185250, 117.040250) scale(-1, 1) rotate(1.000000) translate(-80.185250, -117.040250) translate(75.617750, 114.677750)">
                    <path d="M0.00184154238,3.22367608 L0,3.22367608 L0,1.42208738 L9.135,1.42208738 L9.135,3.22367608 L9.13315846,3.22367608 C9.0638384,4.16108921 7.04625828,4.725 4.5675,4.725 C2.08874172,4.725 0.0711615958,4.16108921 0.00184154238,3.22367608 Z" id="合并形状" fill="url(#linearGradient-1)"></path>
                    <path d="M4.5675,3.0276699 C7.09006059,3.0276699 9.135,2.4387864 9.135,1.46337379 C9.135,0.487961169 7.09006059,0 4.5675,0 C2.04493941,0 0,0.487961169 0,1.46337379 C0,2.4387864 2.04493941,3.0276699 4.5675,3.0276699 Z" id="椭圆形" fill="url(#linearGradient-2)"></path>
                    <path d="M4.5719871,2.43131068 C6.53902215,2.43131068 8.03329146,1.94212319 8.03329146,1.48264078 C8.03329146,0.757838087 6.53902215,0.412864078 4.5719871,0.412864078 C2.60495206,0.412864078 1.05403811,0.812088022 1.01035509,1.48264078 C0.978659776,1.96917708 2.60495206,2.43131068 4.5719871,2.43131068 Z" id="椭圆形-copy" fill="#FFBB59"></path>
                    <path d="M4.81188971,1.69580203 L4.81188971,1.6973301 L3.21331658,1.2378282 L4.81188971,0.780960046 L4.81188971,0.779854369 L6.38072864,1.2378282 L4.81188971,1.69580203 Z" id="合并形状" fill="#FBD789"></path>
                </g>
                <ellipse id="椭圆形" fill="#F7F8FA" cx="64.1025" cy="110.4075" rx="16.2225" ry="6.7725"></ellipse>
                <ellipse id="椭圆形-copy-4" fill="#F7F8FA" style="mix-blend-mode: multiply;" cx="27.2475" cy="118.9125" rx="16.2225" ry="6.7725"></ellipse>
                <g id="分组-5" transform="translate(0.000000, 54.180000)">
                    <g id="分组-4" transform="translate(4.725000, 5.040000)">
                        <path d="M4.61852778e-13,21.7778203 L8.669837,36.6468047 C18.1662778,34.3624468 26.2151173,31.3177749 32.8163555,27.5127891 C39.4175937,23.7078032 44.967838,18.913897 49.4670885,13.1310703 L36.1265625,0 C31.5355074,5.52024752 26.2928082,10.0569858 20.3984648,13.6102148 C14.5041215,17.1634439 7.70463318,19.885979 4.61852778e-13,21.7778203 Z" id="路径-6" fill="url(#linearGradient-7)"></path>
                        <path d="M2.0095844,22.4100352 L9.828,34.8719766 C18.0017578,32.7388359 25.0839258,29.9557617 31.0745039,26.5227539 C37.065082,23.0897461 42.4825078,18.7230586 47.3267813,13.4226914 L36.288,2.28744141 C30.8101498,7.92972721 25.6990497,12.1924531 20.9546998,15.075619 C16.2103499,17.9587849 9.89531145,20.4035903 2.0095844,22.4100352 Z" id="路径-6-copy" stroke="#FFFFFF" stroke-width="0.525" stroke-dasharray="0.5040000200271607,0.5040000200271607"></path>
                        <circle id="椭圆形" stroke="#FFFFFF" stroke-width="1.512" cx="14.112" cy="25.704" r="3.528"></circle>
                        <text id="$" transform="translate(25.403618, 20.646225) rotate(-31.000000) translate(-25.403618, -20.646225) " font-family="PingFangSC-Medium, PingFang SC" font-size="11.592" font-weight="400" fill="#FFFFFF">
                            <tspan x="21.903618" y="24.6462253">$</tspan>
                        </text>
                        <circle id="椭圆形-copy-3" stroke="#FFFFFF" stroke-width="1.512" cx="35.28" cy="13.608" r="3.528"></circle>
                    </g>
                    <g id="分组-4-copy" transform="translate(3.150000, 3.150000)">
                        <path d="M4.61852778e-13,21.7778203 L8.669837,36.6468047 C18.1662778,34.3624468 26.2151173,31.3177749 32.8163555,27.5127891 C39.4175937,23.7078032 44.967838,18.913897 49.4670885,13.1310703 L36.1265625,0 C31.5355074,5.52024752 26.2928082,10.0569858 20.3984648,13.6102148 C14.5041215,17.1634439 7.70463318,19.885979 4.61852778e-13,21.7778203 Z" id="路径-6" fill="url(#linearGradient-7)"></path>
                        <path d="M2.0095844,22.4100352 L9.828,34.8719766 C18.0017578,32.7388359 25.0839258,29.9557617 31.0745039,26.5227539 C37.065082,23.0897461 42.4825078,18.7230586 47.3267813,13.4226914 L36.288,2.28744141 C30.8101498,7.92972721 25.6990497,12.1924531 20.9546998,15.075619 C16.2103499,17.9587849 9.89531145,20.4035903 2.0095844,22.4100352 Z" id="路径-6-copy" stroke="#FFFFFF" stroke-width="0.525" stroke-dasharray="0.5040000200271607,0.5040000200271607"></path>
                        <circle id="椭圆形" stroke="#FFFFFF" stroke-width="1.512" cx="14.112" cy="25.704" r="3.528"></circle>
                        <text id="$" transform="translate(25.403618, 20.646225) rotate(-31.000000) translate(-25.403618, -20.646225) " font-family="PingFangSC-Medium, PingFang SC" font-size="11.592" font-weight="400" fill="#FFFFFF">
                            <tspan x="21.903618" y="24.6462253">$</tspan>
                        </text>
                        <circle id="椭圆形-copy-3" stroke="#FFFFFF" stroke-width="1.512" cx="35.28" cy="13.608" r="3.528"></circle>
                    </g>
                    <g id="分组-4-copy-2">
                        <path d="M4.61852778e-13,21.7778203 L8.669837,36.6468047 C18.1662778,34.3624468 26.2151173,31.3177749 32.8163555,27.5127891 C39.4175937,23.7078032 44.967838,18.913897 49.4670885,13.1310703 L36.1265625,0 C31.5355074,5.52024752 26.2928082,10.0569858 20.3984648,13.6102148 C14.5041215,17.1634439 7.70463318,19.885979 4.61852778e-13,21.7778203 Z" id="路径-6" fill="url(#linearGradient-7)"></path>
                        <path d="M2.0095844,22.4100352 L9.828,34.8719766 C18.0017578,32.7388359 25.0839258,29.9557617 31.0745039,26.5227539 C37.065082,23.0897461 42.4825078,18.7230586 47.3267813,13.4226914 L36.288,2.28744141 C30.8101498,7.92972721 25.6990497,12.1924531 20.9546998,15.075619 C16.2103499,17.9587849 9.89531145,20.4035903 2.0095844,22.4100352 Z" id="路径-6-copy" stroke="#FFFFFF" stroke-width="0.525" stroke-dasharray="0.5040000200271607,0.5040000200271607"></path>
                        <circle id="椭圆形" stroke="#FFFFFF" stroke-width="1.512" cx="14.112" cy="25.704" r="3.528"></circle>
                        <text id="$" transform="translate(25.403618, 20.646225) rotate(-31.000000) translate(-25.403618, -20.646225) " font-family="PingFangSC-Medium, PingFang SC" font-size="11.592" font-weight="400" fill="#FFFFFF">
                            <tspan x="21.903618" y="24.6462253">$</tspan>
                        </text>
                        <circle id="椭圆形-copy-3" stroke="#FFFFFF" stroke-width="1.512" cx="35.28" cy="13.608" r="3.528"></circle>
                    </g>
                </g>
                <g id="分组-4" transform="translate(147.420000, 102.375000)">
                    <path d="M4.61852778e-13,11.150244 L4.43895654,18.763164 C9.30113423,17.5935727 13.42214,16.0347007 16.801974,14.086548 C20.181808,12.1383953 23.0235331,9.68391526 25.3271493,6.723108 L18.4968,0 C16.1461798,2.82636673 13.4619178,5.14917673 10.444014,6.96843 C7.42611019,8.78768327 3.94477219,10.1816213 4.61852778e-13,11.150244 Z" id="路径-6" fill="url(#linearGradient-7)"></path>
                    <path d="M1.02890721,11.473938 L5.031936,17.854452 C9.2169,16.762284 12.84297,15.33735 15.910146,13.57965 C18.977322,11.82195 21.751044,9.586206 24.231312,6.872418 L18.579456,1.17117 C15.7747967,4.06002033 13.1579134,6.24253597 10.7288063,7.71871693 C8.29969916,9.19489789 5.06639946,10.4466382 1.02890721,11.473938 Z" id="路径-6-copy" stroke="#FFFFFF" stroke-width="0.525" stroke-dasharray="0.25804797783494,0.25804797783494"></path>
                    <circle id="椭圆形" stroke="#FFFFFF" stroke-width="0.774144" cx="7.225344" cy="13.160448" r="1.806336"></circle>
                    <text id="$" transform="translate(13.135500, 10.381451) rotate(-31.000000) translate(-13.135500, -10.381451) " font-family="PingFangSC-Medium, PingFang SC" font-size="5.935104" font-weight="400" fill="#FFFFFF">
                        <tspan x="11.1354995" y="12.3814514">$</tspan>
                    </text>
                    <circle id="椭圆形-copy-3" stroke="#FFFFFF" stroke-width="0.774144" cx="18.06336" cy="6.967296" r="1.806336"></circle>
                </g>
                <g id="分组-4-copy-3" transform="translate(64.955832, 43.209466) rotate(154.000000) translate(-64.955832, -43.209466) translate(60.955832, 40.209466)">
                    <path d="M4.61852778e-13,3.3450732 L1.33168696,5.6289492 C2.79034027,5.27807182 4.02664201,4.81041022 5.0405922,4.2259644 C6.05454239,3.64151858 6.90705992,2.90517458 7.59814479,2.0169324 L5.54904,0 C4.84385394,0.84791002 4.03857534,1.54475302 3.1332042,2.090529 C2.22783306,2.63630498 1.18343166,3.05448638 4.61852778e-13,3.3450732 Z" id="路径-6" fill="url(#linearGradient-7)"></path>
                    <path d="M0.308672163,3.4421814 L1.5095808,5.3563356 C2.76507,5.0286852 3.852891,4.601205 4.7730438,4.073895 C5.6931966,3.546585 6.5253132,2.8758618 7.2693936,2.0617254 L5.5738368,0.351351 C4.732439,1.2180061 3.94737403,1.87276079 3.21864189,2.31561508 C2.48990975,2.75846937 1.51991984,3.13399147 0.308672163,3.4421814 Z" id="路径-6-copy" stroke="#FFFFFF" stroke-width="0.525" stroke-dasharray="0.07741439491510392,0.07741439491510392"></path>
                    <circle id="椭圆形" stroke="#FFFFFF" stroke-width="0.525" cx="2.1676032" cy="3.9481344" r="1"></circle>
                    <text id="$" transform="translate(4.438028, 3.165570) rotate(-31.000000) translate(-4.438028, -3.165570) " font-family="PingFangSC-Medium, PingFang SC" font-size="1.7805312" font-weight="400" fill="#FFFFFF">
                        <tspan x="3.43802821" y="3.66557037">$</tspan>
                    </text>
                    <circle id="椭圆形-copy-3" stroke="#FFFFFF" stroke-width="0.525" cx="5.419008" cy="2.0901888" r="1"></circle>
                </g>
                <g id="分组-4-copy-4" transform="translate(152.994158, 53.894032) rotate(231.000000) translate(-152.994158, -53.894032) translate(148.994158, 50.894032)">
                    <path d="M4.61852778e-13,3.3450732 L1.33168696,5.6289492 C2.79034027,5.27807182 4.02664201,4.81041022 5.0405922,4.2259644 C6.05454239,3.64151858 6.90705992,2.90517458 7.59814479,2.0169324 L5.54904,0 C4.84385394,0.84791002 4.03857534,1.54475302 3.1332042,2.090529 C2.22783306,2.63630498 1.18343166,3.05448638 4.61852778e-13,3.3450732 Z" id="路径-6" fill="url(#linearGradient-7)"></path>
                    <path d="M0.308672163,3.4421814 L1.5095808,5.3563356 C2.76507,5.0286852 3.852891,4.601205 4.7730438,4.073895 C5.6931966,3.546585 6.5253132,2.8758618 7.2693936,2.0617254 L5.5738368,0.351351 C4.732439,1.2180061 3.94737403,1.87276079 3.21864189,2.31561508 C2.48990975,2.75846937 1.51991984,3.13399147 0.308672163,3.4421814 Z" id="路径-6-copy" stroke="#FFFFFF" stroke-width="0.525" stroke-dasharray="0.07741439491510392,0.07741439491510392"></path>
                    <circle id="椭圆形" stroke="#FFFFFF" stroke-width="0.525" cx="2.1676032" cy="3.9481344" r="1"></circle>
                    <text id="$" transform="translate(4.438028, 3.165570) rotate(-31.000000) translate(-4.438028, -3.165570) " font-family="PingFangSC-Medium, PingFang SC" font-size="1.7805312" font-weight="400" fill="#FFFFFF">
                        <tspan x="3.43802821" y="3.66557037">$</tspan>
                    </text>
                    <circle id="椭圆形-copy-3" stroke="#FFFFFF" stroke-width="0.525" cx="5.419008" cy="2.0901888" r="1"></circle>
                </g>
                <g id="分组-5-copy" transform="translate(53.905000, 96.485000) scale(-1, -1) translate(-53.905000, -96.485000) translate(48.905000, 92.485000)">
                    <g id="分组-4" transform="translate(0.850500, 0.907200)">
                        <path d="M4.61852778e-13,3.92000766 L1.56057066,6.59642484 C3.26993,6.18524042 4.71872111,5.63719948 5.90694398,4.95230203 C7.09516686,4.26740458 8.09421084,3.40450146 8.90407593,2.36359266 L6.50278125,0 C5.67639134,0.993644554 4.73270548,1.81025744 3.67172367,2.44983867 C2.61074186,3.0894199 1.38683397,3.57947623 4.61852778e-13,3.92000766 Z" id="路径-6" fill="url(#linearGradient-7)"></path>
                        <path d="M0.361725191,4.03380633 L1.76904,6.27695578 C3.24031641,5.89299047 4.51510664,5.39203711 5.5934107,4.7740957 C6.67171477,4.1561543 7.64685141,3.37015055 8.51882063,2.41608445 L6.53184,0.411739453 C5.54582696,1.4273509 4.62582895,2.19464155 3.77184597,2.71361142 C2.91786298,3.23258129 1.78115606,3.67264626 0.361725191,4.03380633 Z" id="路径-6-copy" stroke="#FFFFFF" stroke-width="0.525" stroke-dasharray="0.09071999453008175,0.09071999453008175"></path>
                        <circle id="椭圆形" stroke="#FFFFFF" stroke-width="0.525" cx="2.54016" cy="4.62672" r="1"></circle>
                        <text id="$" transform="translate(4.920705, 3.577187) rotate(-31.000000) translate(-4.920705, -3.577187) " font-family="PingFangSC-Medium, PingFang SC" font-size="2.08656" font-weight="400" fill="#FFFFFF">
                            <tspan x="3.92070542" y="4.0771865">$</tspan>
                        </text>
                        <circle id="椭圆形-copy-3" stroke="#FFFFFF" stroke-width="0.525" cx="6.3504" cy="2.44944" r="1"></circle>
                    </g>
                    <g id="分组-4-copy" transform="translate(0.567000, 0.567000)">
                        <path d="M4.61852778e-13,3.92000766 L1.56057066,6.59642484 C3.26993,6.18524042 4.71872111,5.63719948 5.90694398,4.95230203 C7.09516686,4.26740458 8.09421084,3.40450146 8.90407593,2.36359266 L6.50278125,0 C5.67639134,0.993644554 4.73270548,1.81025744 3.67172367,2.44983867 C2.61074186,3.0894199 1.38683397,3.57947623 4.61852778e-13,3.92000766 Z" id="路径-6" fill="url(#linearGradient-7)"></path>
                        <path d="M0.361725191,4.03380633 L1.76904,6.27695578 C3.24031641,5.89299047 4.51510664,5.39203711 5.5934107,4.7740957 C6.67171477,4.1561543 7.64685141,3.37015055 8.51882063,2.41608445 L6.53184,0.411739453 C5.54582696,1.4273509 4.62582895,2.19464155 3.77184597,2.71361142 C2.91786298,3.23258129 1.78115606,3.67264626 0.361725191,4.03380633 Z" id="路径-6-copy" stroke="#FFFFFF" stroke-width="0.525" stroke-dasharray="0.09071999453008175,0.09071999453008175"></path>
                        <circle id="椭圆形" stroke="#FFFFFF" stroke-width="0.525" cx="2.54016" cy="4.62672" r="1"></circle>
                        <text id="$" transform="translate(4.920705, 3.577187) rotate(-31.000000) translate(-4.920705, -3.577187) " font-family="PingFangSC-Medium, PingFang SC" font-size="2.08656" font-weight="400" fill="#FFFFFF">
                            <tspan x="3.92070542" y="4.0771865">$</tspan>
                        </text>
                        <circle id="椭圆形-copy-3" stroke="#FFFFFF" stroke-width="0.525" cx="6.3504" cy="2.44944" r="1"></circle>
                    </g>
                    <g id="分组-4-copy-2">
                        <path d="M4.61852778e-13,3.92000766 L1.56057066,6.59642484 C3.26993,6.18524042 4.71872111,5.63719948 5.90694398,4.95230203 C7.09516686,4.26740458 8.09421084,3.40450146 8.90407593,2.36359266 L6.50278125,0 C5.67639134,0.993644554 4.73270548,1.81025744 3.67172367,2.44983867 C2.61074186,3.0894199 1.38683397,3.57947623 4.61852778e-13,3.92000766 Z" id="路径-6" fill="url(#linearGradient-7)"></path>
                        <path d="M0.361725191,4.03380633 L1.76904,6.27695578 C3.24031641,5.89299047 4.51510664,5.39203711 5.5934107,4.7740957 C6.67171477,4.1561543 7.64685141,3.37015055 8.51882063,2.41608445 L6.53184,0.411739453 C5.54582696,1.4273509 4.62582895,2.19464155 3.77184597,2.71361142 C2.91786298,3.23258129 1.78115606,3.67264626 0.361725191,4.03380633 Z" id="路径-6-copy" stroke="#FFFFFF" stroke-width="0.525" stroke-dasharray="0.09071999453008175,0.09071999453008175"></path>
                        <circle id="椭圆形" stroke="#FFFFFF" stroke-width="0.525" cx="2.54016" cy="4.62672" r="1"></circle>
                        <text id="$" transform="translate(4.920705, 3.577187) rotate(-31.000000) translate(-4.920705, -3.577187) " font-family="PingFangSC-Medium, PingFang SC" font-size="2.08656" font-weight="400" fill="#FFFFFF">
                            <tspan x="3.92070542" y="4.0771865">$</tspan>
                        </text>
                        <circle id="椭圆形-copy-3" stroke="#FFFFFF" stroke-width="0.525" cx="6.3504" cy="2.44944" r="1"></circle>
                    </g>
                </g>
                <g id="character-1" transform="translate(54.495000, 60.165000)" fill-rule="nonzero">
                    <path d="M0,32.949602 C0.00021247966,32.469744 0.232240268,31.7056561 0.522487483,30.9142423 L0.522487483,29.8965625 L1.56703749,29.8965625 C1.56703749,30.2356511 1.4624975,31.0498364 1.74105833,31.253538 C2.01961916,31.4570325 2.26333333,33.5433176 2.26333333,33.9672819 C2.26333333,34.3912461 1.74105833,33.7977376 1.74105833,33.7977376 C1.671365,34.8831109 1.13166667,34.8154174 0.696508324,34.8154174 C0.0871166604,34.8154174 0,33.4584419 0,32.949602 Z" id="Shape" fill="#FCD8E3"></path>
                    <path d="M26.9558789,3.7063178 L25.6511111,4.79047861 L26.5831471,6.055 L27.4218969,5.06131908 C27.6703848,4.8505988 28.242072,4.42895852 28.5402987,4.42895852 C28.9130306,4.42895852 29.9381463,3.16443713 30.4041643,2.44159668 C30.8701823,1.71895596 30.1247186,0.0929144748 29.9381463,0.00263431878 C29.7517804,-0.0876458372 27.8879149,2.17075621 27.7946287,2.44159668 C27.7201236,2.65850873 27.2043668,3.3751574 26.9558789,3.7063178 Z" id="Shape" fill="#FCD8E3"></path>
                    <path d="M4.69431798,39.6300637 L2.78697503,47.3787737 C2.67645723,47.5753235 2.52181327,48.0862297 2.78697503,48.5580727 C3.05233921,49.0297101 4.1690548,48.7544169 4.69431798,48.5580727 L8.09405608,39.6300637 L10.2501653,32.7234752 L12.3230825,37.3559657 L11.3280175,47.0418018 L12.9865942,47.0418018 L16.2205556,37.3559657 L13.4011371,26.490625 C12.7100972,26.6592138 10.7806912,27.0802745 10.2501653,27.4172465 C9.71943694,27.7540128 7.26497015,27.5576686 6.10392599,27.4172465 L4.69431798,39.6300637 Z" id="Shape" fill="#293354"></path>
                    <path d="M10.9394444,49.1826782 L11.2746167,47.2734743 C12.1465146,47.5512113 12.8674009,47.1578035 13.034987,46.92625 C13.3703639,47.7594612 15.1865963,48.6041123 16.2205556,48.922313 L16.0527648,49.8771268 C15.5219731,49.9349622 14.5942132,50.0158894 13.7894315,49.8771268 C12.9846498,49.7381523 11.4982694,49.3563963 10.9394444,49.1826782 Z" id="Shape" fill="#0E1737"></path>
                    <path d="M0.166557146,23.798054 L0,30.6534375 L1.91611896,30.6534375 L3.41574338,24.6442599 L5.91511741,20.2434106 L6.41499221,22.9516415 C6.41499221,23.5610915 6.08187792,26.4215815 5.91511741,27.7758002 C6.33181532,27.8605035 7.54815023,28.0635846 9.08112675,28.1989032 C10.6141033,28.3344284 12.9967449,27.1268909 13.9964945,26.5062848 C13.9964945,25.8292787 13.58,21.9360291 13.9964945,21.3435197 C14.4131925,20.7512168 14.4131925,17.7043797 14.5797496,16.350161 C14.7129547,15.2667861 18.9120657,13.4161238 19.9949922,12.7108145 L27.16,6.02463079 C27.0932958,5.5507059 26.1323892,4.58591546 25.6603756,4.1628125 L24.660626,4.92452178 L17.8289358,9.41007424 L12.330313,11.9491052 C12.0525144,12.7391177 11.4139436,13.9972706 10.414194,14.0650332 C9.41444441,14.1327957 8.38683359,13.4725237 8.08137714,12.8800143 L3.41574338,15.8423548 L0.166557146,23.798054 Z" id="Shape" fill="#6885EF"></path>
                    <path d="M9.5620204,10.7803821 C9.5620204,11.1796906 9.45457108,12.3051436 9.32060319,12.6100553 C9.72289973,12.9981985 10.672461,13.7409894 11.2519409,13.6080219 C11.8312243,13.4748514 12.0834454,12.2773321 12.1370718,11.6953202 C11.9439774,11.2960118 12.056534,10.6417305 12.1370718,10.3646304 C12.2015021,9.96532193 12.8613235,9.36666376 13.1832786,9.1171721 C13.3441579,8.61818879 12.4590269,6.45579244 12.3784891,6.20630079 C12.2979512,5.95680913 12.2176097,4.54309075 10.5276892,4.21036754 C8.83776877,3.87784734 7.87209992,5.37479727 7.63048628,6.04004068 C7.38906907,6.7052841 7.63048628,8.61818879 8.67669301,9.61615541 C9.51369767,10.4145693 9.5620204,10.5863105 9.5620204,10.7803821 Z" id="Shape" fill="#FCD8E3"></path>
                    <path d="M7.92166667,13.2033323 L8.59239005,12.1941656 L10.6880425,12.7827094 L11.8615015,11.353125 L12.4483333,12.1941656 L11.8615015,13.8760417 L11.4424529,13.4855952 C11.3863888,13.5315783 11.2243348,13.6574163 11.0231996,13.791876 C10.8220644,13.9265411 10.5100287,13.9602073 10.379076,13.9602073 L10.2687893,14.380625 L7.92166667,13.2033323 Z" id="Shape" fill="#A4B6F5"></path>
                    <path d="M6.49685695,6.92674643 C6.6948364,8.03532496 8.11791435,9.58255726 8.80480648,10.2178125 C8.47504192,9.59418423 8.39275168,8.11037175 8.39275168,7.44636619 C8.26076538,6.68427131 8.72231504,5.74333252 8.96958817,5.36788716 C9.43133903,4.95227591 10.7556284,4.96390288 11.3600291,5.02161492 C11.6897937,5.02161492 11.9370668,4.5597072 12.0193571,4.32864765 C12.3491216,3.20294577 11.0302646,2.76978837 10.1236635,2.33684237 C9.21686129,1.90389638 7.56844087,3.72256553 7.07389463,4.06883777 C6.57934839,4.41532141 6.24958382,5.54123468 6.49685695,6.92674643 Z" id="Shape" fill="#7D7D7D"></path>
                    <path d="M3.04791093,54.4861633 C1.97652169,54.3570615 1.6993249,52.3550756 1.99974129,51.3087253 C2.30015768,50.2621729 2.47522934,49.3827053 2.69735665,48.44 C2.77317994,48.5147537 3.05839057,48.6804242 3.5940852,48.7450761 C4.1299853,48.8095259 4.50314273,48.7234581 4.62293942,48.6721407 C4.51403334,49.5449411 4.80047688,49.9730578 4.89438269,51.2640751 C4.9882885,52.5548903 4.38745571,54.647793 3.04791093,54.4861633 Z" id="Shape" fill="#0E1737"></path>
                </g>
                <g id="分组-2-copy-4" transform="translate(35.691591, 112.952779) rotate(41.000000) translate(-35.691591, -112.952779) translate(24.351591, 107.125279)">
                    <path d="M0.00457210523,7.95173433 L0,7.95173433 L0,3.50781553 L22.68,3.50781553 L22.68,7.95173433 L22.6754279,7.95173433 C22.5033229,10.2640201 17.4941585,11.655 11.34,11.655 C5.18584151,11.655 0.176677065,10.2640201 0.00457210523,7.95173433 Z" id="合并形状" fill="url(#linearGradient-1)"></path>
                    <path d="M11.34,7.46825243 C17.6029091,7.46825243 22.68,6.01567313 22.68,3.60965534 C22.68,1.20363755 17.6029091,0 11.34,0 C5.07709094,0 0,1.20363755 0,3.60965534 C0,6.01567313 5.07709094,7.46825243 11.34,7.46825243 Z" id="椭圆形" fill="url(#linearGradient-2)"></path>
                    <path d="M11.3511404,5.99723301 C16.2348136,5.99723301 19.9447236,4.79057054 19.9447236,3.65718058 C19.9447236,1.86933395 16.2348136,1.01839806 11.3511404,1.01839806 C6.46746718,1.01839806 2.61692221,2.00315045 2.5084678,3.65718058 C2.429776,4.85730346 6.46746718,5.99723301 11.3511404,5.99723301 Z" id="椭圆形-copy" fill="#FFBB59"></path>
                    <path d="M11.9467607,4.18297833 L11.9467607,4.18674757 L7.97788945,3.05330955 L11.9467607,1.92638286 L11.9467607,1.92364078 L15.841809,3.05330955 L11.9467607,4.18297833 Z" id="合并形状" fill="#FBD789"></path>
                </g>
                <path d="M148.643,20.4379998 C148.866675,20.4379998 149.048,20.6193244 149.048,20.8429998 L149.048,22.4629998 C149.048,22.6866751 148.866675,22.8679998 148.643,22.8679998 C148.419324,22.8679998 148.238,22.6866751 148.238,22.4629998 L148.238,20.8429998 C148.238,20.6193244 148.419324,20.4379998 148.643,20.4379998 Z M145.808,23.2729998 C145.808,23.0493244 145.989324,22.8679998 146.213,22.8679998 L147.833,22.8679998 C148.056675,22.8679998 148.238,23.0493244 148.238,23.2729998 C148.238,23.4966751 148.056675,23.6779998 147.833,23.6779998 L146.213,23.6779998 C145.989324,23.6779998 145.808,23.4966751 145.808,23.2729998 Z M148.643,23.6779998 C148.866675,23.6779998 149.048,23.8593244 149.048,24.0829998 L149.048,25.7029998 C149.048,25.9266751 148.866675,26.1079998 148.643,26.1079998 C148.419324,26.1079998 148.238,25.9266751 148.238,25.7029998 L148.238,24.0829998 C148.238,23.8593244 148.419324,23.6779998 148.643,23.6779998 Z M149.048,23.2729998 C149.048,23.0493244 149.229324,22.8679998 149.453,22.8679998 L151.073,22.8679998 C151.296675,22.8679998 151.478,23.0493244 151.478,23.2729998 C151.478,23.4966751 151.296675,23.6779998 151.073,23.6779998 L149.453,23.6779998 C149.229324,23.6779998 149.048,23.4966751 149.048,23.2729998 Z" id="合并形状" fill="url(#linearGradient-8)" opacity="0.521902902" transform="translate(148.643000, 23.273000) rotate(24.000000) translate(-148.643000, -23.273000) "></path>
                <path d="M43.4329998,37.4479998 C43.6566751,37.4479998 43.8379998,37.6293244 43.8379998,37.8529998 L43.8379998,39.4729998 C43.8379998,39.6966751 43.6566751,39.8779998 43.4329998,39.8779998 C43.2093244,39.8779998 43.0279998,39.6966751 43.0279998,39.4729998 L43.0279998,37.8529998 C43.0279998,37.6293244 43.2093244,37.4479998 43.4329998,37.4479998 Z M40.5979998,40.2829998 C40.5979998,40.0593244 40.7793244,39.8779998 41.0029998,39.8779998 L42.6229998,39.8779998 C42.8466751,39.8779998 43.0279998,40.0593244 43.0279998,40.2829998 C43.0279998,40.5066751 42.8466751,40.6879998 42.6229998,40.6879998 L41.0029998,40.6879998 C40.7793244,40.6879998 40.5979998,40.5066751 40.5979998,40.2829998 Z M43.4329998,40.6879998 C43.6566751,40.6879998 43.8379998,40.8693244 43.8379998,41.0929998 L43.8379998,42.7129998 C43.8379998,42.9366751 43.6566751,43.1179998 43.4329998,43.1179998 C43.2093244,43.1179998 43.0279998,42.9366751 43.0279998,42.7129998 L43.0279998,41.0929998 C43.0279998,40.8693244 43.2093244,40.6879998 43.4329998,40.6879998 Z M43.8379998,40.2829998 C43.8379998,40.0593244 44.0193244,39.8779998 44.2429998,39.8779998 L45.8629998,39.8779998 C46.0866751,39.8779998 46.2679998,40.0593244 46.2679998,40.2829998 C46.2679998,40.5066751 46.0866751,40.6879998 45.8629998,40.6879998 L44.2429998,40.6879998 C44.0193244,40.6879998 43.8379998,40.5066751 43.8379998,40.2829998 Z" id="合并形状-copy" fill="url(#linearGradient-8)" opacity="0.521902902" transform="translate(43.433000, 40.283000) rotate(24.000000) translate(-43.433000, -40.283000) "></path>
                <path d="M77.4529998,0.907999756 C77.6766751,0.907999756 77.8579998,1.08932443 77.8579998,1.31299976 L77.8579998,2.93299976 C77.8579998,3.15667508 77.6766751,3.33799976 77.4529998,3.33799976 C77.2293244,3.33799976 77.0479998,3.15667508 77.0479998,2.93299976 L77.0479998,1.31299976 C77.0479998,1.08932443 77.2293244,0.907999756 77.4529998,0.907999756 Z M74.6179998,3.74299976 C74.6179998,3.51932443 74.7993244,3.33799976 75.0229998,3.33799976 L76.6429998,3.33799976 C76.8666751,3.33799976 77.0479998,3.51932443 77.0479998,3.74299976 C77.0479998,3.96667508 76.8666751,4.14799976 76.6429998,4.14799976 L75.0229998,4.14799976 C74.7993244,4.14799976 74.6179998,3.96667508 74.6179998,3.74299976 Z M77.4529998,4.14799976 C77.6766751,4.14799976 77.8579998,4.32932443 77.8579998,4.55299976 L77.8579998,6.17299976 C77.8579998,6.39667508 77.6766751,6.57799976 77.4529998,6.57799976 C77.2293244,6.57799976 77.0479998,6.39667508 77.0479998,6.17299976 L77.0479998,4.55299976 C77.0479998,4.32932443 77.2293244,4.14799976 77.4529998,4.14799976 Z M77.8579998,3.74299976 C77.8579998,3.51932443 78.0393244,3.33799976 78.2629998,3.33799976 L79.8829998,3.33799976 C80.1066751,3.33799976 80.2879998,3.51932443 80.2879998,3.74299976 C80.2879998,3.96667508 80.1066751,4.14799976 79.8829998,4.14799976 L78.2629998,4.14799976 C78.0393244,4.14799976 77.8579998,3.96667508 77.8579998,3.74299976 Z" id="合并形状-copy-2" fill="url(#linearGradient-8)" opacity="0.521902902" transform="translate(77.453000, 3.743000) rotate(24.000000) translate(-77.453000, -3.743000) "></path>
            </g>
        </g>
    </g>
</svg>