<?xml version="1.0" encoding="UTF-8"?>
<svg width="22px" height="22px" viewBox="0 0 22 22" version="1.1" xmlns="http://www.w3.org/2000/svg" xmlns:xlink="http://www.w3.org/1999/xlink">
    <!-- Generator: Sketch 52.5 (67469) - http://www.bohemiancoding.com/sketch -->
    <title>icon-关于菲卡价5</title>
    <desc>Created with Sketch.</desc>
    <g id="菲卡时代2.0" stroke="none" stroke-width="1" fill="none" fill-rule="evenodd">
        <g id="菲卡价" transform="translate(-61.000000, -1635.000000)" fill="#000000" fill-rule="nonzero">
            <g id="icon-关于菲卡价5" transform="translate(61.000000, 1635.000000)">
                <path d="M7.33244552,18.0991283 L7.33244552,18.1272968 C7.17986582,18.1272968 7.06797405,18.1390338 7.0022474,18.1390338 L6.92478387,18.1390338 C5.29883207,18.1390338 3.98899409,16.8385853 3.9436114,15.2149809 C3.91857269,14.4176542 4.20651795,13.6461487 4.752675,13.0663458 C5.29883205,12.486543 6.03747426,12.1469553 6.83480095,12.124264 C6.84262555,12.124264 6.92243648,12.1195693 6.9294786,12.1195693 C7.55388166,12.1195693 8.15246353,12.3151842 8.66732219,12.6899826 C9.38953273,12.9450645 10.1195679,12.5882628 10.8323889,11.6320967 C11.5420801,10.6829728 11.69153,9.9302463 11.2760437,9.39582614 C11.1281588,9.28941158 10.9857511,9.16265307 10.8449083,9.01242076 C10.8198695,8.98816449 10.7971782,8.96234333 10.7752693,8.93495722 C10.3089232,8.40836166 10.0413219,7.74170577 10.0201955,7.05470593 C9.9748128,5.40684523 11.2736963,4.02971571 12.9145149,3.98355057 C12.9223395,3.98355057 12.9990206,3.98198565 13.0060627,3.98198565 C14.3863221,3.98198565 15.6069596,4.96006059 15.9074242,6.30902159 C16.1499868,7.05783577 16.7696951,10.0241415 13.7893051,14.0084276 C11.0319162,17.7008562 8.35590315,18.0991283 7.33244552,18.0991283 Z M7.23620295,16.5944578 C7.68142267,16.6046298 10.020978,16.542033 12.5819694,13.1085986 C15.1977331,9.6110026 14.602281,7.15799062 14.455961,6.70103402 C14.2892971,5.96943395 13.6860204,5.48509124 13.0029329,5.48509124 C12.140662,5.50934751 11.4974799,6.19321751 11.5193888,7.01167063 C11.5326906,7.44593591 11.7384776,7.7628322 11.9082714,7.95062258 C11.9137486,7.95688226 11.9192258,7.96314193 11.9239206,7.96940161 C12.0185982,8.07190386 12.1070162,8.14858495 12.1954342,8.20570453 C12.2509889,8.24248015 12.3026312,8.2862979 12.346449,8.33637533 C12.8073179,8.85592875 13.6993223,10.3050446 12.0342475,12.5311432 C10.9591475,13.970087 9.85666138,14.2713341 9.12193147,14.2721166 C8.74400332,14.2721166 8.36842253,14.1946531 8.00614355,14.0436383 C7.94354677,14.0178171 7.8840798,13.9826064 7.83087253,13.9403536 C7.6438646,13.7932511 7.33557538,13.6171976 6.9286962,13.6171976 C6.48269403,13.629717 6.11728521,13.7940335 5.84733654,14.0804139 C5.57660539,14.3683592 5.43419768,14.7447224 5.44593457,15.1398647 C5.46862591,15.9473634 6.11885013,16.5780261 6.92478389,16.5780261 C6.9286962,16.5780261 6.92947865,16.5788086 6.92634881,16.579591 C6.95451736,16.5748963 6.98503331,16.570984 7.0030299,16.569419 C7.08205833,16.5702015 7.16108678,16.5764612 7.23620295,16.5944578 Z M10.6907637,21.2234909 C9.27685854,21.2234909 7.90520622,20.9472825 6.61336481,20.4042553 C6.2307419,20.2422861 6.05155856,19.8025436 6.21274531,19.4199207 C6.37393206,19.0365153 6.81445702,18.8588969 7.19707996,19.0185187 C8.30269588,19.4832999 9.47795075,19.7203853 10.6907637,19.7203853 C15.6640792,19.7203853 19.7093972,15.6750673 19.7093972,10.7017518 C19.7093972,5.72921871 15.6640792,1.68311822 10.6907637,1.68311822 C5.71744816,1.68311822 1.67213015,5.72921873 1.67213015,10.7025343 C1.67213015,12.4028197 2.14786581,14.058505 3.04769475,15.4911892 C3.267566,15.8432962 3.16193391,16.3065125 2.81060939,16.5271662 C2.45928487,16.7478199 1.99528611,16.6421878 1.7746324,16.2900809 C0.723006206,14.616399 0.168242086,12.6845054 0.168242086,10.7025343 C0.168242086,4.90137609 4.88804058,0.180795126 10.6899812,0.180795126 C16.4919218,0.180795126 21.2117203,4.90059362 21.2117203,10.7025343 C21.2117203,16.5036924 16.4919218,21.2234909 10.6907637,21.2234909 Z" id="形状"></path>
            </g>
        </g>
    </g>
</svg>