<?xml version="1.0" encoding="UTF-8"?>
<svg width="36px" height="35px" viewBox="0 0 36 35" version="1.1" xmlns="http://www.w3.org/2000/svg" xmlns:xlink="http://www.w3.org/1999/xlink">
    <!-- Generator: Sketch 52.5 (67469) - http://www.bohemiancoding.com/sketch -->
    <title>icon-选中角标</title>
    <desc>Created with Sketch.</desc>
    <g id="菲卡时代2.0" stroke="none" stroke-width="1" fill="none" fill-rule="evenodd">
        <g id="添加次卡-单项有限次" transform="translate(-466.000000, -155.000000)">
            <g id="icon-选中角标" transform="translate(466.000000, 154.000000)">
                <path d="M1.92128088,14.8643106 L51.2456052,14.1886349 L29.5289277,36.7119745 C27.9955683,38.3022902 25.4633293,38.3484625 23.8730136,36.8151031 C23.8555139,36.7982302 23.8381684,36.781198 23.8209792,36.7640089 L1.92128088,14.8643106 Z" id="矩形-copy-26" fill="#3275F5" transform="translate(26.583443, 26.916557) scale(-1, 1) rotate(45.000000) translate(-26.583443, -26.916557) "></path>
                <g id="正确-copy" transform="translate(24.605738, 24.053289) rotate(-8.000000) translate(-24.605738, -24.053289) translate(16.105738, 17.553289)" fill="#FFFFFF">
                    <path d="M16.7077446,2.0491847 L6.91946717,11.5141076 C6.87005282,11.5948046 6.81048249,11.6767832 6.72936841,11.7569049 L6.2711032,12.2100018 C6.01757149,12.4596714 5.7190536,12.5710588 5.60499044,12.4577469 L0.942827478,7.64053078 C0.828115478,7.52787713 0.940313474,7.23375824 1.19381133,6.98343162 L1.65267527,6.53038458 C1.90620698,6.28005795 2.20470861,6.16868655 2.3194372,6.28132381 L5.81413958,9.89205517 L15.3311495,0.689364085 C15.5846812,0.439678418 15.9953311,0.439678418 16.2488449,0.689364085 L16.707743,1.14242718 C16.961208,1.39275381 16.961208,1.79949422 16.707743,2.04917988 L16.7077446,2.0491847 Z" id="路径"></path>
                </g>
            </g>
        </g>
    </g>
</svg>