<?xml version="1.0" encoding="UTF-8"?>
<svg width="401px" height="141px" viewBox="0 0 401 141" version="1.1" xmlns="http://www.w3.org/2000/svg" xmlns:xlink="http://www.w3.org/1999/xlink">
    <!-- Generator: Sketch 52.5 (67469) - http://www.bohemiancoding.com/sketch -->
    <title>分组 4</title>
    <desc>Created with Sketch.</desc>
    <defs>
        <path d="M-1.11022302e-16,78.0088254 C0.613808305,78.0682705 1.23829885,78.0988372 1.87142857,78.0988372 C10.656701,78.0988372 17.7785714,72.2134641 17.7785714,64.9534884 C17.7785714,57.6935127 10.656701,51.8081395 1.87142857,51.8081395 C1.23829885,51.8081395 0.613808305,51.8387063 2.22044605e-16,51.8981514 L0,4 C-2.705415e-16,1.790861 1.790861,4.05812251e-16 4,0 L389,0 C391.209139,-4.05812251e-16 393,1.790861 393,4 L393,51.8081395 C384.214728,51.8081395 377.092857,57.6935127 377.092857,64.9534884 C377.092857,72.2134641 384.214728,78.0988372 393,78.0988372 L393,129 C393,131.209139 391.209139,133 389,133 L4,133 C1.790861,133 2.705415e-16,131.209139 0,129 L0,78.0088254 Z" id="path-1"></path>
        <filter x="-1.8%" y="-3.8%" width="103.6%" height="110.5%" filterUnits="objectBoundingBox" id="filter-3">
            <feOffset dx="0" dy="2" in="SourceAlpha" result="shadowOffsetOuter1"></feOffset>
            <feGaussianBlur stdDeviation="2" in="shadowOffsetOuter1" result="shadowBlurOuter1"></feGaussianBlur>
            <feColorMatrix values="0 0 0 0 0   0 0 0 0 0   0 0 0 0 0  0 0 0 0.09 0" type="matrix" in="shadowBlurOuter1"></feColorMatrix>
        </filter>
    </defs>
    <g id="Page-1" stroke="none" stroke-width="1" fill="none" fill-rule="evenodd">
        <g id="收银-优惠方式-copy-9" transform="translate(-312.000000, -117.000000)">
            <g id="分组-2" transform="translate(242.000000, 70.000000)">
                <g id="分组" transform="translate(74.000000, 49.000000)">
                    <g id="分组-4">
                        <g id="椭圆形">
                            <mask id="mask-2" fill="white">
                                <use xlink:href="#path-1"></use>
                            </mask>
                            <g id="Mask">
                                <use fill="black" fill-opacity="1" filter="url(#filter-3)" xlink:href="#path-1"></use>
                                <use fill="#FFFFFF" fill-rule="evenodd" xlink:href="#path-1"></use>
                            </g>
                            <circle stroke="#FEF8F1" stroke-width="3" mask="url(#mask-2)" cx="379" cy="117" r="25"></circle>
                            <g id="优惠券" mask="url(#mask-2)" fill="#F5C274" fill-rule="nonzero" opacity="0.1">
                                <g transform="translate(376.798495, 115.354567) rotate(-41.000000) translate(-376.798495, -115.354567) translate(362.798495, 105.854567)" id="形状">
                                    <path d="M27.7059918,11.2870941 L27.7059918,17.4436904 C27.7059918,18.0103889 27.1421564,18.4697888 26.4466302,18.4697888 C26.4466302,18.4697888 26.4466302,18.4697888 26.4466302,18.4697888 L1.25936168,18.4697888 C0.563835586,18.4697889 1.62745788e-07,18.0103889 1.62745788e-07,17.4436904 C1.62745788e-07,17.4436904 1.62745784e-07,17.4436904 1.62745784e-07,17.4436904 L1.62745784e-07,11.2870941 C1.39105241,11.2870941 2.51872695,10.3682942 2.51872695,9.23489431 C2.51872701,8.1014974 1.3910561,7.18269454 9.92993561e-08,7.18269454 C6.14708766e-08,7.18269454 3.78279391e-08,7.18269454 -9.09494702e-13,7.18269454 L-9.09494702e-13,1.02609823 L-8.96911139e-13,1.02609838 C-1.05022532e-07,0.459399926 0.563835424,1.822407e-12 1.25936158,1.822407e-12 C1.25936159,1.8206982e-12 1.2593616,1.8189894e-12 1.25936162,1.8189894e-12 L26.4466301,1.8189894e-12 C27.1421563,-2.47693728e-08 27.7059917,0.459399926 27.7059917,1.02609838 C27.7059917,1.02609839 27.7059917,1.0260984 27.7059917,1.02609841 L27.7059917,7.18269472 L27.7059918,7.18269472 C26.3149395,7.18269464 25.187265,8.10149458 25.187265,9.2348945 C25.1872649,10.3682914 26.3149358,11.2870943 27.7059918,11.2870943 C27.7059919,11.2870943 27.7059919,11.2870943 27.7059919,11.2870943 L27.7059918,11.2870941 Z M25.1872649,12.3131925 C24.0488022,11.8001418 22.6685381,11.0233856 22.6685381,9.23489434 C22.6685381,7.44640311 24.0487985,6.66964688 25.1872649,6.15659619 L25.1872649,2.05220867 L2.51873437,2.05220867 L2.51873437,6.15659619 C3.77809595,6.66964688 5.03746122,7.55619675 5.03746122,9.23489434 C5.03746122,10.9135919 3.77809964,11.8001418 2.51873437,12.3131925 L2.51873437,16.41758 L25.1872649,16.41758 L25.1872649,12.3131925 Z M8.81556072,5.13050682 L11.3342876,5.13050682 L11.3342876,13.3393119 L8.81556072,13.3393119 L8.81556072,5.13050682 Z"></path>
                                </g>
                            </g>
                        </g>
                        <path d="M6.5,83.0585346 L6.5,123 C6.5,124.932997 8.06700338,126.5 10,126.5 L382,126.5 C383.932997,126.5 385.5,124.932997 385.5,123 L385.5,81.0706338 C377.420676,78.5547261 371.936116,72.2092613 371.936116,64.9891342 C371.936116,57.7690071 377.420676,51.4235423 385.5,48.9076346 L385.5,11 C385.5,9.06700338 383.932997,7.5 382,7.5 L10,7.5 C8.06700338,7.5 6.5,9.06700338 6.5,11 L6.5,47.422478 C16.8397021,49.1753888 24.41133,56.5572745 24.41133,65.2405063 C24.41133,73.9237381 16.8397021,81.3056238 6.5,83.0585346 Z" id="合并形状" stroke="#F5C274" opacity="0.342889695"></path>
                    </g>
                </g>
            </g>
        </g>
    </g>
</svg>