<?xml version="1.0" encoding="UTF-8"?>
<svg width="22px" height="22px" viewBox="0 0 22 22" version="1.1" xmlns="http://www.w3.org/2000/svg" xmlns:xlink="http://www.w3.org/1999/xlink">
    <!-- Generator: Sketch 52.5 (67469) - http://www.bohemiancoding.com/sketch -->
    <title>券</title>
    <desc>Created with Sketch.</desc>
    <g id="Page-1" stroke="none" stroke-width="1" fill="none" fill-rule="evenodd">
        <g id="会员信息-会员-copy-9" transform="translate(-39.000000, -317.000000)" fill="#E87856">
            <g id="分组-2" transform="translate(23.000000, 209.000000)">
                <g id="分组-3" transform="translate(16.000000, 108.000000)">
                    <g id="券">
                        <circle id="椭圆形" fill-opacity="0.3" cx="11" cy="11" r="11"></circle>
                        <path d="M12.1620632,6.58466789 C11.9856479,6.40818088 11.6996086,6.40797853 11.5229438,6.58421574 L6.58361591,11.5233175 C6.40787572,11.7001874 6.40807779,11.9858159 6.58406806,12.1624369 L7.20781421,12.785957 C7.81239567,12.4990797 8.5320698,12.6234886 9.00525967,13.0966785 C9.47844954,13.5698684 9.60285846,14.2895425 9.3159812,14.894124 L9.93950126,15.5178701 C10.1159165,15.6943571 10.4019558,15.6945595 10.5786206,15.5183223 L15.5181746,10.5792205 C15.6939148,10.4023506 15.6937127,10.1167221 15.5177224,9.94010109 L15.0407002,9.46307885 C14.4169786,9.84419675 13.6133892,9.74856324 13.0965336,9.23170759 C12.5796779,8.71485195 12.4840444,7.91126257 12.8651623,7.28754094 L12.1620632,6.58466789 Z M15.836943,9.62042836 C16.189595,9.97364189 16.1897973,10.5456564 15.8373952,10.8991193 L10.8987455,15.837995 C10.5454887,16.1908955 9.97306173,16.1906931 9.62005461,15.8375428 L8.7397112,14.9571994 C9.12797083,14.5090314 9.10393569,13.8370249 8.68465054,13.4177398 C8.26536538,12.9984546 7.59335889,12.9744195 7.1451909,13.3626791 L6.26462142,12.4821096 C5.91196943,12.1288961 5.91176716,11.5568816 6.26416926,11.2034187 L11.203045,6.26454301 C11.5563018,5.91164251 12.1287288,5.91184492 12.4817359,6.26499517 L13.4751177,7.25837702 C13.155286,7.53545565 13.0169952,7.96796522 13.1167451,8.37920103 C13.216495,8.79043684 13.5375782,9.11152006 13.948814,9.21126996 C14.3600498,9.31101986 14.7925594,9.17272911 15.069638,8.85289733 L15.8371691,9.62042836 L15.836943,9.62042836 Z M11.226557,9.30889441 L9.30829459,11.2271568 C9.22261755,11.3158646 9.22384276,11.4568702 9.31104833,11.5440758 C9.3982539,11.6312814 9.53925954,11.6325066 9.62796731,11.5468295 L11.5462297,9.62856713 C11.6319066,9.53985934 11.6306813,9.39885382 11.5434758,9.31164831 C11.4562703,9.2244428 11.3152648,9.22321751 11.226557,9.30889441 Z M12.473371,10.6653557 L10.6647559,12.4739709 C10.579079,12.5626787 10.5803043,12.7036842 10.6675098,12.7908897 C10.7547153,12.8780952 10.8957209,12.8793205 10.9844286,12.7936436 L12.7930438,10.9850285 C12.8787208,10.8963207 12.8774956,10.7553151 12.79029,10.6681095 C12.7030844,10.5809039 12.5620788,10.5796787 12.473371,10.6653557 Z" id="形状" stroke="#E87856" stroke-width="0.3" fill-rule="nonzero"></path>
                    </g>
                </g>
            </g>
        </g>
    </g>
</svg>