<?xml version="1.0" encoding="UTF-8"?>
<svg width="28px" height="28px" viewBox="0 0 28 28" version="1.1" xmlns="http://www.w3.org/2000/svg" xmlns:xlink="http://www.w3.org/1999/xlink">
    <!-- Generator: Sketch 52.5 (67469) - http://www.bohemiancoding.com/sketch -->
    <title>分组 8</title>
    <desc>Created with Sketch.</desc>
    <g id="Page-1" stroke="none" stroke-width="1" fill="none" fill-rule="evenodd">
        <g id="美容含有开单设置" transform="translate(-274.000000, -477.000000)" fill="#979797" stroke="#979797" stroke-width="0.2">
            <g id="分组-8-copy-2" transform="translate(12.000000, 400.000000)">
                <g id="分组-9" transform="translate(254.000000, 70.000000)">
                    <g id="提成设置" transform="translate(8.000000, 7.000000)">
                        <g id="连锁-提成管理-提成设置编辑" transform="translate(5.000000, 3.000000)">
                            <g id="分组" transform="translate(0.489149, 0.489149)">
                                <path d="M8.75565498,21.8990642 L2.67604912,21.8990642 C1.21304417,21.8990642 0.0219398693,20.7995934 0.0219398693,19.4429848 L0.0219398693,2.47801929 C0.0219398693,1.12436889 1.21303319,0.0219398693 2.67604912,0.0219398693 L17.4627524,0.0219398693 C18.9287134,0.0219398693 20.1198045,1.12436669 20.1198045,2.47801929 L20.1198045,7.8541877 C20.1198045,8.17929967 19.8538028,8.44530136 19.5286908,8.44530136 C19.2035789,8.44530136 18.9375772,8.17929967 18.9375772,7.8541877 L18.9375772,2.47801929 C18.9375772,1.77459502 18.275529,1.2041694 17.465704,1.2041694 L2.67603594,1.2041694 C1.86621099,1.2041694 1.20416281,1.77459502 1.20416281,2.47801929 L1.20416281,19.4459277 C1.20416281,20.1493519 1.86621099,20.7197776 2.67603594,20.7197776 L8.7556418,20.7197776 C9.08075377,20.7197776 9.34675547,20.9857793 9.34675547,21.3108912 C9.34675547,21.6360032 9.08075377,21.8990488 8.7556418,21.8990488 L8.75565498,21.8990642 Z" id="路径"></path>
                                <path d="M7.93105411,9.32903447 L4.62968577,4.60603288 C4.44348502,4.33707731 4.50850741,3.97058486 4.77450867,3.78142981 C5.04346643,3.59522906 5.40995669,3.66025145 5.59911174,3.92625271 L7.94287836,7.27786972 L10.4758022,3.72527999 C10.6649586,3.4592783 11.0344036,3.39721197 11.3004053,3.58636834 C11.566407,3.77552471 11.6284733,4.14496971 11.439317,4.41097141 L7.93106816,9.32903798 L7.93105411,9.32903447 Z" id="路径"></path>
                                <path d="M11.2590402,8.68177538 L4.75680085,8.68177538 C4.43168888,8.68177538 4.16568718,8.41577368 4.16568718,8.09066171 C4.1656872,7.76554975 4.43168888,7.49954805 4.75680085,7.49954805 L11.2590402,7.49954805 C11.5841522,7.49954805 11.8501539,7.76554975 11.8501539,8.09066171 C11.8501539,8.41577368 11.5841522,8.68177538 11.2590402,8.68177538 Z M11.2590402,11.6107369 L4.75680085,11.6107369 C4.43168888,11.6107369 4.16568718,11.3447352 4.16568718,11.0196233 C4.1656872,10.6945113 4.43168888,10.4285096 4.75680085,10.4285096 L11.2590402,10.4285096 C11.5841522,10.4285096 11.8501539,10.6945113 11.8501539,11.0196233 C11.8501539,11.3447352 11.5841522,11.6107369 11.2590402,11.6107369 Z" id="形状" fill-rule="nonzero"></path>
                                <path d="M8.00789855,15.0066949 C7.68278659,15.0066949 7.41678489,14.7406932 7.41678489,14.4155812 L7.41678489,7.98425664 C7.41678489,7.65914468 7.68278659,7.39314298 8.00789855,7.39314298 C8.33301052,7.39314298 8.59901222,7.65914468 8.59901222,7.98425664 L8.59901222,14.4155812 C8.59901222,14.7406932 8.33301052,15.0066949 8.00789855,15.0066949 Z M11.0816984,18.6302213 C11.0698761,18.6449992 11.0580539,18.6597771 11.0550982,18.6775104 L10.2216292,21.8370053 C10.1743401,22.0232061 10.2245847,22.2182737 10.3546298,22.3571845 C10.4521636,22.4576737 10.5822093,22.510874 10.7211201,22.510874 C10.7684091,22.510874 10.8127426,22.5049629 10.8570761,22.4931406 L13.8924427,21.6360253 C13.8983539,21.6360253 13.9013094,21.6389808 13.904265,21.6389808 C13.9397318,21.6389808 13.9751986,21.6271585 13.9988432,21.597603 L22.111873,13.2096989 C22.3512746,12.9614313 22.4842754,12.6185852 22.4842754,12.2491389 C22.4842754,11.8294483 22.3128525,11.4127137 22.0113845,11.0994238 L21.2458917,10.3102869 C20.9444238,9.99995308 20.5395113,9.81966182 20.1345989,9.81966182 C19.7769746,9.81966182 19.4489066,9.95561785 19.2065512,10.2068423 L11.0905565,18.603619 C11.0846453,18.6095301 11.0876009,18.6213524 11.0816898,18.6302192 L11.0816984,18.6302213 Z M21.3168341,12.3969266 L20.5099652,13.2303956 L19.2036052,11.8590133 L19.998652,11.0373662 C20.1257414,10.9073212 20.3680984,10.9250548 20.5129213,11.0757887 L21.2813679,11.8678817 C21.3611682,11.9506376 21.4084573,12.0599937 21.4084573,12.1693495 C21.4055018,12.2550611 21.3729905,12.337817 21.3168348,12.396929 L21.3168341,12.3969266 Z M12.5240197,18.7632222 L18.3789999,12.7102121 L19.6853599,14.0845505 L13.8421952,20.1257232 L12.5240109,18.7632068 L12.5240197,18.7632222 Z M11.4570503,21.2192862 L11.8796969,19.6144122 L13.0087239,20.7818615 L11.4570503,21.2192862 Z" id="形状" fill-rule="nonzero"></path>
                            </g>
                        </g>
                    </g>
                </g>
            </g>
        </g>
    </g>
</svg>