<?xml version="1.0" encoding="UTF-8"?>
<svg width="18px" height="18px" viewBox="0 0 18 18" version="1.1" xmlns="http://www.w3.org/2000/svg" xmlns:xlink="http://www.w3.org/1999/xlink">
    <!-- Generator: Sketch 52.5 (67469) - http://www.bohemiancoding.com/sketch -->
    <title>icon-删除</title>
    <desc>Created with Sketch.</desc>
    <g id="菲卡时代2.0" stroke="none" stroke-width="1" fill="none" fill-rule="evenodd">
        <g id="添加项目/服务-高级设置" transform="translate(-345.000000, -943.000000)" fill="#E94E27" fill-rule="nonzero">
            <g id="icon-删除" transform="translate(345.000000, 943.000000)">
                <path d="M9,16.7142857 C4.74642858,16.7142857 1.28571429,13.2535714 1.28571429,9 C1.28571429,4.74642858 4.74642858,1.28571429 9,1.28571429 C13.2535714,1.28571429 16.7142857,4.74642858 16.7142857,9 C16.7142857,13.2535714 13.2535714,16.7142857 9,16.7142857 M9,5.88814711e-16 C4.02942857,0 0,4.02942857 0,9 C0,13.9705714 4.02942857,18 9,18 C13.9705714,18 18,13.9705714 18,9 C18,4.02942857 13.9705714,0 9,0 M12.4285714,8.35714286 L5.57142858,8.35714286 C5.21638838,8.35714286 4.92857143,8.6449598 4.92857143,9 C4.92857143,9.3550402 5.21638838,9.64285714 5.57142858,9.64285714 L12.4285714,9.64285714 C12.7836116,9.64285714 13.0714286,9.3550402 13.0714286,9 C13.0714286,8.6449598 12.7836116,8.35714286 12.4285714,8.35714286" id="形状"></path>
            </g>
        </g>
    </g>
</svg>