<?xml version="1.0" encoding="UTF-8"?>
<svg width="18px" height="18px" viewBox="0 0 18 18" version="1.1" xmlns="http://www.w3.org/2000/svg" xmlns:xlink="http://www.w3.org/1999/xlink">
    <!-- Generator: Sketch 52.5 (67469) - http://www.bohemiancoding.com/sketch -->
    <title>删  除 1</title>
    <desc>Created with Sketch.</desc>
    <g id="Page-1" stroke="none" stroke-width="1" fill="none" fill-rule="evenodd">
        <g id="产品类别" transform="translate(-186.000000, -182.000000)">
            <g id="删--除-1" transform="translate(186.000000, 182.000000)">
                <g id="分组">
                    <path d="M9,0 C4.005,0 0,4.005 0,9 C0,13.995 4.005,18 9,18 C13.995,18 18,13.995 18,9 C18,4.005 13.995,0 9,0 Z" id="路径" fill="#666666"></path>
                    <path d="M12.762,12.762 C12.519,13.005 12.105,13.005 11.862,12.762 L9,9.9 L6.138,12.762 C5.895,13.005 5.481,13.005 5.238,12.762 C4.995,12.519 4.995,12.105 5.238,11.862 L8.1,9 L5.238,6.138 C4.995,5.895 4.995,5.481 5.238,5.238 C5.481,4.995 5.895,4.995 6.138,5.238 L9,8.1 L11.862,5.238 C12.105,4.995 12.519,4.995 12.762,5.238 C13.005,5.481 13.005,5.895 12.762,6.138 L9.9,9 L12.762,11.862 C13.095,12.105 13.095,12.555 12.762,12.762 Z" id="路径" fill="#FFFFFF"></path>
                </g>
            </g>
        </g>
    </g>
</svg>