<?xml version="1.0" encoding="UTF-8"?>
<svg width="20px" height="20px" viewBox="0 0 20 20" version="1.1" xmlns="http://www.w3.org/2000/svg" xmlns:xlink="http://www.w3.org/1999/xlink">
    <!-- Generator: Sketch 52.5 (67469) - http://www.bohemiancoding.com/sketch -->
    <title>详情</title>
    <desc>Created with Sketch.</desc>
    <defs>
        <linearGradient x1="38.28125%" y1="0%" x2="68.6962891%" y2="100%" id="linearGradient-1">
            <stop stop-color="#F5C274" offset="0%"></stop>
            <stop stop-color="#F68E53" offset="100%"></stop>
        </linearGradient>
    </defs>
    <g id="Page-1" stroke="none" stroke-width="1" fill="none" fill-rule="evenodd">
        <g id="会员-copy-8" transform="translate(-414.000000, -120.000000)">
            <g id="分组-2" transform="translate(290.000000, 83.000000)">
                <g id="详情" transform="translate(124.000000, 37.000000)">
                    <circle id="椭圆形" fill="url(#linearGradient-1)" cx="10" cy="10" r="10"></circle>
                    <path d="M12.775,5.875 L8.575,10 L12.775,14.125 C13,14.35 13,14.8 12.775,15.025 C12.55,15.25 12.1,15.25 11.875,15.025 L7.3,10.525 C7.3,10.525 7.225,10.525 7.225,10.45 C7.075,10.375 7,10.15 7,10 C7,9.85 7.075,9.625 7.225,9.55 C7.225,9.55 7.3,9.55 7.3,9.475 L11.875,4.9 C12.1,4.675 12.55,4.675 12.775,4.9 C13.075,5.2 13.075,5.575 12.775,5.875 Z" id="路径" fill="#FFFFFF" transform="translate(10.000000, 9.962500) scale(-1, 1) translate(-10.000000, -9.962500) "></path>
                </g>
            </g>
        </g>
    </g>
</svg>