<?xml version="1.0" encoding="UTF-8"?>
<svg width="18px" height="20px" viewBox="0 0 18 20" version="1.1" xmlns="http://www.w3.org/2000/svg" xmlns:xlink="http://www.w3.org/1999/xlink">
    <!-- Generator: Sketch 52.5 (67469) - http://www.bohemiancoding.com/sketch -->
    <title>icon-编辑 </title>
    <desc>Created with Sketch.</desc>
    <g id="菲卡时代2.0" stroke="none" stroke-width="1" fill="none" fill-rule="evenodd">
        <g id="添加次卡-无限次" transform="translate(-544.000000, -270.000000)" fill="#E94E27" fill-rule="nonzero">
            <g id="分组-6" transform="translate(72.000000, 256.000000)">
                <g id="icon-编辑-" transform="translate(472.000000, 14.000000)">
                    <path d="M16.8786488,2.9748369 L14.3735313,0.509775369 C14.0716647,0.230531911 13.6846813,0.0569751923 13.27247,0.0159644463 C12.84747,-0.0476777345 12.4159941,0.0809670833 12.0983653,0.36602448 L11.8345975,0.624243669 C6.74185068,5.6022837 3.22359449,9.05363605 1.93045612,10.3407389 C1.43765246,10.8219987 1.09020934,11.4283654 0.926785956,12.0923701 L0.046207418,15.61826 C-0.0879714432,16.1685645 0.074466632,16.7481129 0.476351773,17.1529338 L0.48582036,17.163582 C0.785511545,17.4736012 1.19817218,17.6536477 1.63287197,17.6640481 C1.78633205,17.6644203 1.93870854,17.6387549 2.08330616,17.5881795 C2.10494864,17.5801934 4.27866555,16.7709291 5.71383273,16.2571528 C6.35087053,16.0105007 6.93095155,15.6402239 7.41953094,15.1683729 L16.8800014,5.85917186 C17.2687253,5.47804836 17.4872268,4.96030208 17.4872268,4.42033195 C17.4872268,3.88036181 17.2687253,3.36261554 16.8800014,2.98149203 L16.8786488,2.9748369 Z M13.0844509,1.41620458 C13.17464,1.42252451 13.2614864,1.4523888 13.3360448,1.50272132 L15.8411622,3.96778285 C15.9616905,4.08014235 16.0299621,4.23632764 16.0299621,4.39970103 C16.0299621,4.56307442 15.9616905,4.71925971 15.8411622,4.83161921 L15.1080231,5.55303571 L11.9969162,2.49167419 C12.2309255,2.26273759 12.4378817,2.06175255 12.609669,1.89670524 C12.8463836,1.65845145 12.9924704,1.51470056 13.0844509,1.41620458 Z M10.9526663,3.53519916 L14.0637733,6.60321581 L6.38069174,14.1115377 L6.2914165,14.1967234 L5.54204551,12.6926632 L5.52040303,12.6553944 L5.48658665,12.6034844 C5.42625362,12.496873 5.34646662,12.4021181 5.25122465,12.3239688 C5.15986515,12.2400157 5.06068467,12.164703 4.95499316,12.0990252 L3.1600197,11.1779547 C4.80349577,9.53014362 8.65315249,5.76466896 10.9526663,3.53519916 Z M5.03615247,14.9301191 C3.75248268,15.4265921 1.9250455,16.0867814 1.62340339,16.1945945 C1.57192406,16.1795272 1.52531061,16.1515476 1.48813787,16.1134019 C1.43920296,16.0734894 1.40851937,16.0159789 1.40292059,15.9536787 L2.31325754,12.4277888 L2.31325754,12.4011683 C2.31325754,12.3812029 2.32002082,12.3625685 2.32543144,12.3426031 L4.21103279,13.3049355 L5.03615247,14.9301191 Z M17.1478272,20 L1.23248603,20 C0.761844002,20 0.380313254,19.6245698 0.380313254,19.1614532 C0.380313254,18.6983365 0.761844002,18.3229063 1.23248603,18.3229063 L17.1478272,18.3229063 C17.4522792,18.3229063 17.7336045,18.4827324 17.8858305,18.7421797 C18.0380565,19.001627 18.0380565,19.3212793 17.8858305,19.5807266 C17.7336045,19.8401739 17.4522792,20 17.1478272,20 Z" id="形状"></path>
                </g>
            </g>
        </g>
    </g>
</svg>