<?xml version="1.0" encoding="UTF-8"?>
<svg width="20px" height="20px" viewBox="0 0 20 20" version="1.1" xmlns="http://www.w3.org/2000/svg" xmlns:xlink="http://www.w3.org/1999/xlink">
    <!-- Generator: Sketch 52.5 (67469) - http://www.bohemiancoding.com/sketch -->
    <title>今日会员 copy 3</title>
    <desc>Created with Sketch.</desc>
    <g id="Page-1" stroke="none" stroke-width="1" fill="none" fill-rule="evenodd">
        <g id="今日会员-copy-3" transform="translate(-644.000000, -480.000000)" fill="#999999" fill-rule="nonzero">
            <g id="退出" transform="translate(644.000000, 480.000000)">
                <g transform="translate(2.000000, 2.000000)" id="形状">
                    <path d="M8.48994933,6.60927234 C8.6791692,6.61368111 8.86177664,6.53957973 8.9944183,6.40455989 C9.12776004,6.27547496 9.20184178,6.09703219 9.19913074,5.91146469 L9.19913074,0.712430322 L9.19913077,0.712427837 C9.20130471,0.525294807 9.12742771,0.345295476 8.99441667,0.213646593 C8.86338419,0.0756143959 8.68022674,-0.000774462535 8.48994771,0.00324810074 C8.30330942,0.000922684046 8.12431946,0.0772958042 7.99685252,0.213646588 C7.8638425,0.345295945 7.78996529,0.525296437 7.7921401,0.712427808 L7.7921401,5.91146218 L7.79214009,5.91145935 C7.79303185,6.2964766 8.10492717,6.60837549 8.48994442,6.60927032 L8.48994933,6.60927234 Z M16.3835366,6.93421178 L16.3835367,6.93421202 C16.2288181,6.3061775 15.9971714,5.69964203 15.6938522,5.12835836 L15.6938519,5.1283578 C15.3913528,4.55985157 15.0259421,4.02713005 14.6044926,3.54021562 L14.604493,3.54021601 C14.1749437,3.04480655 13.6872689,2.60295379 13.1520139,2.22421194 C12.1650101,1.62551076 11.27142,2.79285597 11.9578622,3.45979463 L11.9578624,3.45979478 C15.0359119,5.36786439 15.9843769,9.40991792 14.0763073,12.4879674 C12.1682377,15.5660169 8.12618412,16.5144818 5.04813464,14.6064122 C1.97008516,12.6983426 1.02162019,8.65628911 2.9296898,5.57823963 C3.41641497,4.79306616 4.06355127,4.11959643 4.82869493,3.60195413 C5.58092921,2.95776129 4.4899463,1.75142561 3.6581008,2.35174877 C3.15198664,2.73636923 2.68896354,3.17460783 2.27710818,3.65881787 C1.87042416,4.13561868 1.52292151,4.65987173 1.24217548,5.22015187 L1.24217541,5.220152 C0.962418839,5.78105636 0.74634095,6.37151984 0.597984235,6.98051733 L0.597984066,6.98051803 C0.190245896,8.66602682 0.332579558,10.4377808 1.00415837,12.0365796 L1.00415849,12.0365799 C1.41421424,12.9994168 2.00738212,13.8734453 2.7507113,14.6101073 L2.75071109,14.6101071 C3.49651557,15.3473501 4.37381454,15.9383697 5.33722094,16.3525925 L5.33722118,16.3525926 C7.35544228,17.2119104 9.63663244,17.2119104 11.6548535,16.3525924 C13.5976536,15.5228951 15.1452199,13.9753289 15.9749171,12.0325288 L15.974917,12.0325292 C16.4072869,11.0326574 16.6266768,9.95369574 16.6191098,8.86436634 L16.61911,8.86615797 C16.61911,8.21476337 16.539874,7.56578761 16.3831484,6.93353463 L16.3835366,6.93421178 Z"></path>
                </g>
            </g>
        </g>
    </g>
</svg>