<?xml version="1.0" encoding="UTF-8"?>
<svg width="20px" height="20px" viewBox="0 0 20 20" version="1.1" xmlns="http://www.w3.org/2000/svg" xmlns:xlink="http://www.w3.org/1999/xlink">
    <!-- Generator: Sketch 52.5 (67469) - http://www.bohemiancoding.com/sketch -->
    <title>icon-定位</title>
    <desc>Created with Sketch.</desc>
    <g id="菲卡时代2.0" stroke="none" stroke-width="1" fill="none" fill-rule="evenodd">
        <g id="门店基本设置-编辑状态" transform="translate(-544.000000, -783.000000)" fill="#3275F5" fill-rule="nonzero">
            <g id="icon-定位" transform="translate(544.000000, 783.000000)">
                <path d="M20,9.28571429 L18.5357143,9.28571429 C18.1964286,5.125 14.875,1.80357143 10.7142857,1.46428571 L10.7142857,0 L9.28571429,0 L9.28571429,1.46428571 C5.125,1.80357143 1.80357143,5.125 1.46428571,9.28571429 L0,9.28571429 L0,10.7142857 L1.46428571,10.7142857 C1.80357143,14.875 5.125,18.1964286 9.28571429,18.5357143 L9.28571429,20 L10.7142857,20 L10.7142857,18.5357143 C14.875,18.1964286 18.1964286,14.875 18.5357143,10.7142857 L20,10.7142857 L20,9.28571429 Z M10,17.1428571 C6.05357143,17.1428571 2.85714286,13.9464286 2.85714286,10 C2.85714286,6.05357143 6.05357143,2.85714286 10,2.85714286 C13.9464286,2.85714286 17.1428571,6.05357143 17.1428571,10 C17.1428571,13.9464286 13.9464286,17.1428571 10,17.1428571 Z M12.8571429,10 C12.8571429,11.5714286 11.5714286,12.8571429 10,12.8571429 C8.42857143,12.8571429 7.14285714,11.5714286 7.14285714,10 C7.14285714,8.42857143 8.42857143,7.14285714 10,7.14285714 C11.5714286,7.14285714 12.8571429,8.42857143 12.8571429,10 Z" id="形状"></path>
            </g>
        </g>
    </g>
</svg>