<?xml version="1.0" encoding="UTF-8"?>
<svg width="26px" height="26px" viewBox="0 0 26 26" version="1.1" xmlns="http://www.w3.org/2000/svg" xmlns:xlink="http://www.w3.org/1999/xlink">
    <!-- Generator: Sketch 52.5 (67469) - http://www.bohemiancoding.com/sketch -->
    <title>会员</title>
    <desc>Created with Sketch.</desc>
    <g id="Page-1" stroke="none" stroke-width="1" fill="none" fill-rule="evenodd">
        <g id="会员-copy-3" transform="translate(-69.000000, -195.000000)" fill="#A7ADC1" fill-rule="nonzero">
            <g id="导航栏" transform="translate(27.000000, 0.000000)">
                <g id="会员-未选中" transform="translate(42.000000, 195.000000)">
                    <g id="会员">
                        <path d="M23.3931042,9.11728982 C23.2773172,8.98084363 23.0091537,8.65702104 22.6557239,8.23068843 C21.5917579,6.947533 19.8115645,4.79991521 18.9919649,3.88836838 C18.653317,3.51119899 18.2320971,3.04227727 17.4161741,3.00901672 C17.3567697,3.00693795 17.175862,3 14.8882003,3 C12.2873749,3 8.61389564,3.00865294 8.61555765,3.00865294 C8.2265708,3.00865294 7.63350878,3.09972966 6.98000988,3.88901799 C6.50072026,4.46879086 5.75628904,5.35573005 5.00279229,6.25342698 C4.04287842,7.39701806 3.0688878,8.55791503 2.61107845,9.12035602 C1.81530107,10.0713738 1.79548282,11.3978458 2.55905237,12.5829866 L2.60974379,12.6522621 C3.51126053,13.7359322 5.47200905,16.0622475 7.78787461,18.8096984 L11.3875453,23.0820414 C12.0524265,23.8723691 12.5773711,23.9790367 13.0032748,23.9790367 C13.450684,23.9790367 13.9561377,23.8702903 14.6190043,23.0823792 L18.3421677,18.6628323 C20.5325008,16.0643003 22.3872078,13.8640633 23.4035043,12.6428816 C24.0821601,11.7978818 24.2754826,10.2151476 23.3931042,9.11728982 Z M22.3526582,11.7282686 C21.3454273,12.9383547 19.4927348,15.136513 17.3047436,17.7319269 L13.5812277,22.1521753 C13.2375433,22.5605005 13.1022906,22.5605005 13.0032749,22.5605005 C12.9099754,22.5605005 12.7690064,22.5605005 12.4256494,22.1521753 L8.82532398,17.8787929 C6.53665503,15.1635372 4.59501965,12.8600885 3.68174291,11.7632701 C3.27764683,11.1156249 3.26656676,10.5074766 3.65756816,10.0402699 C4.11905406,9.47367135 5.08770611,8.31934855 6.04190365,7.18233164 C6.79809488,6.28151655 7.54486802,5.39145918 8.02549228,4.81030911 C8.34265998,4.42726716 8.50679644,4.42726716 8.61721966,4.42726716 C8.61721966,4.42726716 12.2887095,4.41861422 14.8881751,4.41861422 C16.8566545,4.41861422 17.2852527,4.42381117 17.364148,4.42659155 C17.5779435,4.43524449 17.6591807,4.49100787 17.9837267,4.85292418 C18.7845405,5.74368314 20.5540063,7.87778884 21.6108962,9.15299294 C21.9690099,9.58486033 22.2408751,9.91250268 22.3462619,10.03684 C22.748696,10.5372552 22.6684912,11.3348587 22.3526582,11.7282686 Z M17.2052494,10.5042026 L12.9886693,16.0765132 L8.77752849,10.4890534 C8.73451758,10.4192323 8.72152365,10.4192323 8.66050759,10.4192323 L6.60598116,10.4192323 L6.60598116,11.3989112 L6.65531276,11.3989112 C7.04372043,11.3989112 7.18771129,11.5031622 7.34706317,11.7226039 C7.36270121,11.744639 7.3810841,11.7697403 7.41774912,11.8165389 C8.34384352,13.1158049 11.9734557,17.6674325 12.9978859,19.0850074 C14.0219887,17.6664191 17.6492841,13.1116474 18.5876926,11.7986094 C18.6103816,11.7707797 18.6280594,11.7460162 18.6436974,11.7243189 C18.8040566,11.5038378 18.9484,11.3988852 19.3350953,11.3988852 L19.3817828,11.3988852 L19.3817828,10.4175433 L17.3346095,10.4175433 C17.2769175,10.4175433 17.2595922,10.4175433 17.2052494,10.5042026 Z" id="形状"></path>
                    </g>
                </g>
            </g>
        </g>
    </g>
</svg>