<?xml version="1.0" encoding="UTF-8"?>
<svg width="280px" height="144px" viewBox="0 0 280 144" version="1.1" xmlns="http://www.w3.org/2000/svg" xmlns:xlink="http://www.w3.org/1999/xlink">
    <!-- Generator: Sketch 52.5 (67469) - http://www.bohemiancoding.com/sketch -->
    <title>11</title>
    <desc>Created with Sketch.</desc>
    <defs>
        <linearGradient x1="-23.7080558%" y1="32.514313%" x2="113.631852%" y2="79.3147662%" id="linearGradient-1">
            <stop stop-color="#FC8C89" offset="0%"></stop>
            <stop stop-color="#F9CFA3" offset="100%"></stop>
        </linearGradient>
        <rect id="path-2" x="0" y="0" width="280" height="144" rx="20"></rect>
    </defs>
    <g id="Page-1" stroke="none" stroke-width="1" fill="none" fill-rule="evenodd">
        <g id="会员-copy-7" transform="translate(-420.000000, -48.000000)">
            <g id="分组-3-copy" transform="translate(420.000000, 48.000000)">
                <g id="11">
                    <mask id="mask-3" fill="white">
                        <use xlink:href="#path-2"></use>
                    </mask>
                    <use id="Mask" fill="url(#linearGradient-1)" xlink:href="#path-2"></use>
                    <circle id="椭圆形-copy" fill="#FBCCA1" opacity="0.318080357" mask="url(#mask-3)" cx="233.5" cy="126.5" r="54.5"></circle>
                    <circle id="椭圆形" fill="#FBCEA1" opacity="0.441499256" mask="url(#mask-3)" cx="246.5" cy="-21.5" r="125.5"></circle>
                    <g id="充值" mask="url(#mask-3)" opacity="0.188988095">
                        <g transform="translate(212.000000, 12.000000)" id="钱">
                            <g>
                                <path d="M51.5282026,38.7785985 C51.6277427,38.7785985 51.7251653,38.7722449 51.8204699,38.7658912 L51.9517782,38.7574197 C52.2159745,38.7410873 52.4748985,38.8363599 52.6655047,39.0200364 C52.8587366,39.2055085 52.9680899,39.4616852 52.9683611,39.7295258 L52.9683611,48.1226965 C52.9683611,49.7365186 51.676453,51.0474859 50.088048,51.0474859 L2.89749912,51.0474859 C1.30908914,51.0474859 0.0171859999,49.7365186 0.0171859999,48.1226965 L0.0171859999,39.7358838 C0.0171859999,39.2148846 0.421700545,38.7849588 0.934229751,38.7616577 C4.09833866,38.6134063 6.57835538,35.9787662 6.57835538,32.7617318 C6.57835538,29.8221154 4.42235383,27.2700495 1.5610899,26.8274226 L1.55473626,26.8253047 L1.55473656,26.8253048 C1.35137806,26.7928962 1.14630091,26.7723882 0.940552693,26.7638864 C0.420988906,26.7400013 0.0131970045,26.3097605 0.0171558599,25.7896603 L0.0171558599,17.4028476 C0.0171558599,15.7890255 1.30906397,14.4759422 2.89746898,14.4759422 L4.40751648,14.4759422 L6.2712482,8.75343421 C6.51268622,8.01217456 7.02732996,7.40858076 7.71776029,7.05701255 C8.39805748,6.70624359 9.19198431,6.64811349 9.91611706,6.89605357 L10.5811302,7.12054848 L14.2450583,1.51238536 L14.2450584,1.5123852 C15.0920001,0.190778226 16.8499604,-0.19401059 18.1715673,0.652931122 C18.1929458,0.666631394 18.2141397,0.680617528 18.2351435,0.694885749 L38.6578201,14.4759244 L50.0880338,14.4759244 C51.6764438,14.4759244 52.9683469,15.7890076 52.9683469,17.4028298 L52.9683469,25.8002226 L52.9683469,25.8001857 C52.9680854,26.0680263 52.8587423,26.324205 52.6655169,26.509685 C52.4766775,26.6961566 52.216457,26.7919052 51.9517904,26.7723017 L51.820482,26.7638302 C51.7251774,26.7574766 51.6277553,26.7490051 51.5282147,26.7490051 C48.2645632,26.7490051 45.6108436,29.447181 45.6108436,32.761647 C45.6108436,36.0803599 48.2645433,38.7785607 51.5282147,38.7785607 L51.5282026,38.7785985 Z M9.31041309,8.7470797 C9.06907782,8.66462819 8.80460344,8.68373749 8.57762741,8.80002651 L8.57762727,8.80002658 C8.34823569,8.91726085 8.1746153,9.12057912 8.09475123,9.36550212 L6.42797876,14.4759522 L26.3402759,14.4759522 L9.31039301,8.7470862 L9.31041309,8.7470797 Z M17.1719944,2.31932921 L17.1698766,2.31721135 C16.7378318,2.0248407 16.1505781,2.13806844 15.858204,2.57011367 C15.8541331,2.57612939 15.8501317,2.5821919 15.8462006,2.58829996 L12.4703004,7.75592246 L32.4482639,14.4759428 L35.1888001,14.4759428 L17.171985,2.31932629 L17.1719944,2.31932921 Z M43.6899671,32.7617345 C43.6899671,28.5344469 46.9493816,25.067498 51.0474773,24.8154625 L51.0474773,17.402866 L51.0474773,17.4028619 C51.0510052,16.8687889 50.6221294,16.4323413 50.0880733,16.4265247 L2.89752448,16.4265247 C2.36347144,16.4323437 1.93459379,16.8687914 1.93812546,17.4028668 L1.93812546,24.91287 C5.68465302,25.537644 8.49720862,28.8966011 8.49720862,32.7617353 C8.49720862,36.7073431 5.68254693,39.9921847 1.93812546,40.6126869 L1.93812546,48.12269 C1.93812546,48.6606324 2.36805467,49.0969161 2.8975245,49.0969161 L50.0880734,49.0969161 C50.6175417,49.0969161 51.0474724,48.6606334 51.0474724,48.12269 L51.0474724,40.7143654 C46.9493766,40.4623378 43.6899621,36.991134 43.6899621,32.7617353 L43.6899671,32.7617345 Z M26.492789,46.8371292 C19.0823284,46.8371292 13.0548346,40.7122286 13.0548346,33.1831514 C13.0548346,25.6540742 19.0823284,19.5291737 26.492789,19.5291737 C33.9032495,19.5291737 39.9307433,25.6540742 39.9307433,33.1831514 C39.9307433,40.7122286 33.9032495,46.8371292 26.492789,46.8371292 Z M26.492789,21.4797916 C20.1412849,21.4797916 14.9757486,26.7300186 14.9757486,33.1832011 C14.9757486,39.6363836 20.1412353,44.8866106 26.492789,44.8866106 C32.844293,44.8866106 38.0119155,39.6363836 38.0119155,33.1832011 C38.0119155,26.7300186 32.844293,21.4797916 26.492789,21.4797916 Z M31.6392512,34.7228829 C32.0882415,34.7228829 32.4525153,35.0935117 32.4525153,35.5488531 C32.4525153,36.0041969 32.08824,36.3748233 31.6392512,36.3748233 L27.3060729,36.3748233 L27.3060729,39.5389322 C27.3060729,39.9942761 26.9417977,40.3649024 26.4928088,40.3649024 C26.0401592,40.3614071 25.6760478,39.9916286 25.6795447,39.5389769 C25.6795449,39.5389605 25.679545,39.5389441 25.6795451,39.5389277 L25.6795451,36.3748187 L21.3463669,36.3748187 C20.8937172,36.3713235 20.5296058,36.0015449 20.5331027,35.5488932 C20.5331028,35.5488768 20.533103,35.5488604 20.5331031,35.5488439 C20.5331031,35.0935001 20.8973784,34.7228737 21.3463672,34.7228737 L25.6795455,34.7228737 L25.6795455,33.0709283 L21.3463672,33.0709283 C20.8948798,33.0686027 20.5307635,32.7007148 20.5330882,32.249225 C20.5330919,32.2485071 20.5330965,32.2477893 20.5331021,32.2470714 C20.5331021,31.7896096 20.8973774,31.4211012 21.3463662,31.4211012 L24.8366311,31.4211012 L20.8889073,27.409842 C20.5716941,27.0855292 20.5716946,26.5672018 20.8889074,26.2428886 C21.1998901,25.9253229 21.7094285,25.9199856 22.0269963,26.2309684 C22.0310112,26.2349001 22.0349847,26.2388737 22.0389164,26.2428885 L26.4165709,30.6904315 L30.7963415,26.2428885 C31.1079204,25.9259073 31.6174688,25.9215278 31.9344504,26.2331067 C31.937739,26.2363392 31.9409997,26.2396 31.9442322,26.2428886 C32.2619137,26.5648061 32.2619137,27.0879229 31.9442322,27.4098419 L27.9965084,31.4211011 L31.6392613,31.4211011 C32.0882516,31.4211011 32.4525254,31.7896119 32.4525254,32.2470713 L32.4525254,32.2470741 C32.4560389,32.698554 32.0928905,33.0673966 31.6414121,33.0709134 C31.6406943,33.070919 31.6399764,33.0709236 31.6392586,33.0709273 L27.3060804,33.0709273 L27.3060804,34.7228727 L31.6392586,34.7228727 L31.6392512,34.7228829 Z" id="形状" stroke="#FFFFFF" stroke-width="0.5" fill="#FFFFFF" fill-rule="nonzero"></path>
                            </g>
                        </g>
                    </g>
                </g>
            </g>
        </g>
    </g>
</svg>