<?xml version="1.0" encoding="UTF-8"?>
<svg width="28px" height="28px" viewBox="0 0 28 28" version="1.1" xmlns="http://www.w3.org/2000/svg" xmlns:xlink="http://www.w3.org/1999/xlink">
    <!-- Generator: Sketch 52.5 (67469) - http://www.bohemiancoding.com/sketch -->
    <title>分组 8</title>
    <desc>Created with Sketch.</desc>
    <g id="Page-1" stroke="none" stroke-width="1" fill="none" fill-rule="evenodd">
        <g id="美容含有开单设置" transform="translate(-54.000000, -477.000000)" fill="#999999" fill-rule="nonzero">
            <g id="分组-8-copy-2" transform="translate(12.000000, 400.000000)">
                <g id="分组-3" transform="translate(34.000000, 70.000000)">
                    <g id="员工管理" transform="translate(8.000000, 7.000000)">
                        <g id="职位-线" transform="translate(3.000000, 5.000000)">
                            <path d="M18.7014123,2.61222385 L14.6960024,2.61222385 L14.6960024,1.30611192 C14.6960024,0.587750365 14.0951909,0 13.3608658,0 L8.02031923,0 C7.28599409,0 6.6851826,0.587750365 6.6851826,1.30611192 L6.6851826,2.61222385 L2.67023601,2.61222385 C1.20158572,2.61222385 -3.72526962e-05,3.78772458 -3.72526962e-05,5.22444769 L-3.72526962e-05,16.0465179 C-3.72526962e-05,17.483241 1.20158572,18.6587418 2.67023601,18.6587418 L18.7014123,18.6587418 C20.1700626,18.6587418 21.3716856,17.483241 21.3716856,16.0465179 L21.3716856,5.22444769 C21.3812222,3.78772458 20.1795993,2.61222385 18.7014123,2.61222385 Z M8.02031923,1.95916788 C8.02031923,1.59532242 8.32549332,1.30611192 8.68788755,1.30611192 L12.6932974,1.30611192 C13.0652284,1.30611192 13.3608658,1.60465179 13.3608658,1.95916788 L13.3608658,2.61222385 L8.02031923,2.61222385 L8.02031923,1.95916788 Z M1.33509938,5.22444769 C1.33509938,4.50608614 1.93591086,3.91833577 2.67023601,3.91833577 L18.7014123,3.91833577 C19.4357374,3.91833577 20.0365489,4.50608614 20.0365489,5.22444769 L20.0365489,8.4897275 L1.33509938,8.4897275 L1.33513663,5.22444769 L1.33509938,5.22444769 Z M11.8254586,9.80516879 C11.9303622,10.0010856 12.0257291,10.2343199 12.0257291,10.4582248 C12.0257291,11.1765863 11.4249176,11.7643367 10.6905925,11.7643367 C9.95626735,11.7643367 9.35545587,11.1765863 9.35545587,10.4582248 C9.35545587,10.2249905 9.4222127,10.0010856 9.55572636,9.80516879 L11.8254586,9.80516879 Z M18.7014123,17.3526298 L2.67023601,17.3526298 C1.93591086,17.3526298 1.33509938,16.7648795 1.33509938,16.0465179 L1.33509938,9.80516879 L8.11568614,9.80516879 C8.0489293,10.0010856 8.01078254,10.2343199 8.01078254,10.4582248 C8.01078254,11.8949479 9.21240551,13.0704486 10.6810558,13.0704486 C12.1497061,13.0704486 13.3513291,11.8949479 13.3513291,10.4582248 C13.3513291,10.2249905 13.3131823,10.0010856 13.2464255,9.80516879 L20.0270122,9.80516879 L20.0270122,16.0465179 C20.0460856,16.7648795 19.4452741,17.3526298 18.7014123,17.3526298 Z" id="形状"></path>
                        </g>
                    </g>
                </g>
            </g>
        </g>
    </g>
</svg>