<?xml version="1.0" encoding="UTF-8"?>
<svg width="22px" height="22px" viewBox="0 0 22 22" version="1.1" xmlns="http://www.w3.org/2000/svg" xmlns:xlink="http://www.w3.org/1999/xlink">
    <!-- Generator: Sketch 52.5 (67469) - http://www.bohemiancoding.com/sketch -->
    <title>icon-关于菲卡价1</title>
    <desc>Created with Sketch.</desc>
    <g id="菲卡时代2.0" stroke="none" stroke-width="1" fill="none" fill-rule="evenodd">
        <g id="菲卡价" transform="translate(-61.000000, -119.000000)" fill="#2C2C2C">
            <g id="icon-关于菲卡价1" transform="translate(72.000000, 130.000000) scale(-1, 1) translate(-72.000000, -130.000000) translate(61.000000, 119.000000)">
                <path d="M14.1209592,5.5 L12.3301004,8.57674966 C11.8522054,9.41039479 11.5607301,9.96500695 11.4537194,10.2394829 L11.4227995,10.2394829 C11.1079413,9.57152109 10.2192901,7.99220514 8.75594556,5.50000002 L7.07142857,5.5 L10.2038045,10.5166691 L7.63562666,10.5166691 L7.63562666,11.6256536 L10.6460207,11.6256536 L10.6460207,13.1532355 L7.63562666,13.1532355 L7.63562666,14.2752674 L10.6460207,14.2752674 L10.6460207,16.5 L12.1397193,16.5 L12.1397193,14.2752674 L15.0437458,14.2752674 L15.0437458,13.1532595 L12.1397193,13.1532595 L12.1397193,11.6256775 L15.0436172,11.6256775 L15.0436172,10.5166691 L12.5514272,10.5166691 L15.7142857,5.5 L14.1209592,5.5 Z" id="路径"></path>
                <path d="M3.23931939,3.20712545 C4.90857192,1.53785271 7.06094396,0.455163961 9.43900594,0.113621447 C12.3459025,-0.303696743 15.2426625,0.436897506 17.5935012,2.19777851 C19.944942,3.95926169 21.4697981,6.53081688 21.8874312,9.43831921 C22.7495442,15.442462 18.5656114,21.0263759 12.5647678,21.8890894 C10.0484315,22.250153 7.46816441,21.7229099 5.29898165,20.4058937 C4.92794185,20.1802478 4.81016658,19.6969897 5.03515398,19.3264668 C5.26224899,18.9582522 5.74333616,18.8371115 6.11445122,19.0626319 C7.97253562,20.1920156 10.1839458,20.6436084 12.3415116,20.3335806 C17.4841061,19.5959471 21.0702554,14.808606 20.3320899,9.66163158 C19.9742729,7.16961576 18.6672283,4.96584858 16.6514244,3.45653276 C14.6361474,1.94661476 12.1536332,1.31278392 9.66228717,1.67101214 C4.51417278,2.40894673 0.929604199,7.19678963 1.66902417,12.3426099 C1.86274869,13.6897607 2.33051276,14.9485401 3.06100047,16.0833936 C3.29537176,16.449074 3.18878689,16.9367732 2.82602699,17.1694446 C2.46108421,17.4043743 1.97447712,17.2987651 1.74013091,16.9344397 C0.887326512,15.6073618 0.340752861,14.1385935 0.113607659,12.5659473 C-0.303573721,9.65884647 0.436348081,6.76128028 2.19898783,4.40980072 C2.51941988,3.9804638 2.8671756,3.57930442 3.23931939,3.20712545 Z" id="路径"></path>
            </g>
        </g>
    </g>
</svg>