<?xml version="1.0" encoding="UTF-8"?>
<svg width="28px" height="28px" viewBox="0 0 28 28" version="1.1" xmlns="http://www.w3.org/2000/svg" xmlns:xlink="http://www.w3.org/1999/xlink">
    <!-- Generator: Sketch 52.5 (67469) - http://www.bohemiancoding.com/sketch -->
    <title>分组 8</title>
    <desc>Created with Sketch.</desc>
    <g id="Page-1" stroke="none" stroke-width="1" fill="none" fill-rule="evenodd">
        <g id="美容含有开单设置" transform="translate(-54.000000, -315.000000)" fill="#999999">
            <g id="分组-8-copy" transform="translate(12.000000, 238.000000)">
                <g id="分组-3" transform="translate(34.000000, 70.000000)">
                    <g id="员工管理" transform="translate(8.000000, 7.000000)">
                        <g id="产品类别" transform="translate(5.000000, 3.000000)">
                            <g id="分组" transform="translate(0.265402, 0.247706)">
                                <path d="M13.8405032,21.1607337 L2.45225469,21.1607337 C1.11006786,21.1607337 0.011916512,20.0625824 0.011916512,18.7203955 L0.011916512,4.07834978 C0.011916512,2.73616295 1.11006786,1.6380116 2.45225469,1.6380116 L2.85897865,1.6380116 C3.30637333,1.6380116 3.67242378,2.00406205 3.67242378,2.45145674 C3.67242378,2.89885142 3.30637333,3.26490187 2.85897865,3.26490187 L2.45225469,3.26490187 C2.00486001,3.26490187 1.63880956,3.63095232 1.63880956,4.078347 L1.63880956,18.7203928 C1.63880956,19.1677874 2.00486001,19.5338379 2.45225469,19.5338379 L13.8405032,19.5338379 C14.2878979,19.5338379 14.6539484,19.1677874 14.6539484,18.7203928 L14.6539484,4.078347 C14.6539484,3.63095232 14.2878979,3.26490187 13.8405032,3.26490187 L13.4337793,3.26490187 C12.9863846,3.26490187 12.6203341,2.89885142 12.6203341,2.45145674 C12.6203341,2.00406205 12.9863846,1.6380116 13.4337793,1.6380116 L13.8405032,1.6380116 C15.1826901,1.6380116 16.2808414,2.73616295 16.2808414,4.07834978 L16.2808414,18.7203955 C16.2808414,20.0625824 15.1826901,21.1607337 13.8405032,21.1607337 Z" id="路径"></path>
                                <path d="M4.48587448,9.77248518 C3.79444431,9.77248518 3.26570539,9.24374626 3.26570539,8.55231609 C3.26570539,7.86088592 3.79444431,7.332147 4.48587448,7.332147 C5.17730465,7.332147 5.70604357,7.86088592 5.70604357,8.55231609 C5.70604357,9.24374626 5.17730465,9.77248518 4.48587448,9.77248518 Z M4.48587448,8.14559213 C4.24184066,8.14559213 4.07915052,8.30828143 4.07915052,8.55231609 C4.07915052,8.7963499 4.24183982,8.95904004 4.48587448,8.95904004 C4.72990829,8.95904004 4.89259843,8.79635074 4.89259843,8.55231609 C4.89259846,8.30828227 4.72990913,8.14559213 4.48587448,8.14559213 Z M4.48587448,13.0262741 C3.79444431,13.0262741 3.26570539,12.4975351 3.26570539,11.806105 C3.26570539,11.1146748 3.79444431,10.5859359 4.48587448,10.5859359 C5.17730465,10.5859359 5.70604357,11.1146748 5.70604357,11.806105 C5.70604357,12.4975351 5.17730465,13.0262741 4.48587448,13.0262741 Z M4.48587448,11.399381 C4.24184066,11.399381 4.07915052,11.5620703 4.07915052,11.806105 C4.07915052,12.0501388 4.24183982,12.2128289 4.48587448,12.2128289 C4.72990829,12.2128289 4.89259843,12.0501396 4.89259843,11.806105 C4.89259846,11.5620711 4.72990913,11.399381 4.48587448,11.399381 Z M4.48587448,16.2800629 C3.79444431,16.2800629 3.26570539,15.751324 3.26570539,15.0598938 C3.26570539,14.3684637 3.79444431,13.8397247 4.48587448,13.8397247 C5.17730465,13.8397247 5.70604357,14.3684637 5.70604357,15.0598938 C5.70604357,15.751324 5.17730465,16.2800629 4.48587448,16.2800629 Z M4.48587448,14.6531699 C4.24184066,14.6531699 4.07915052,14.8158592 4.07915052,15.0598938 C4.07915052,15.3039277 4.24183982,15.4666178 4.48587448,15.4666178 C4.72990829,15.4666178 4.89259843,15.3039285 4.89259843,15.0598938 C4.89259846,14.81586 4.72990913,14.6531699 4.48587448,14.6531699 Z M12.2136185,9.16239924 L7.33293661,9.16239924 C7.00755689,9.16239924 6.72285068,8.87769303 6.72285068,8.55231331 C6.72285068,8.22693359 7.00755689,7.94222737 7.33293661,7.94222737 L12.2136185,7.94222737 C12.5389983,7.94222737 12.8237045,8.22693359 12.8237045,8.55231331 C12.8237045,8.87769303 12.5389983,9.16239924 12.2136185,9.16239924 Z M12.2136185,12.4161965 L7.33293661,12.4161965 C7.00755689,12.4161965 6.72285068,12.1314902 6.72285068,11.8061105 C6.72285068,11.4807308 7.00755689,11.1960246 7.33293661,11.1960246 L12.2136185,11.1960246 C12.5389983,11.1960246 12.8237045,11.4807308 12.8237045,11.8061105 C12.8237045,12.1314902 12.5389983,12.4161965 12.2136185,12.4161965 Z M12.2136185,15.6699937 L7.33293661,15.6699937 C7.00755689,15.6699937 6.72285068,15.3852875 6.72285068,15.0599077 C6.72285068,14.734528 7.00755689,14.4498218 7.33293661,14.4498218 L12.2136185,14.4498218 C12.5389983,14.4498218 12.8237045,14.734528 12.8237045,15.0599077 C12.8237045,15.3852875 12.5389983,15.6699937 12.2136185,15.6699937 Z" id="形状" fill-rule="nonzero"></path>
                                <path d="M9.77326367,4.89180326 L6.51946646,4.89180326 C5.17727962,4.89180326 4.07912828,3.79365191 4.07912828,2.45146508 C4.0791283,1.10927824 5.17727962,0.0111268971 6.51946646,0.0111268971 L9.77326367,0.0111268971 C11.1154505,0.0111268971 12.2136019,1.10927824 12.2136019,2.45146508 C12.2136018,3.79365191 11.1154505,4.89180326 9.77326367,4.89180326 Z M6.51946646,1.63800604 C6.07207177,1.63800604 5.70602132,2.00405649 5.70602132,2.45145118 C5.70602132,2.89884586 6.07207177,3.26489631 6.51946646,3.26489631 L9.77326367,3.26489631 C10.2206584,3.26489631 10.5867088,2.89884586 10.5867088,2.45145118 C10.5867088,2.00405649 10.2206584,1.63800604 9.77326367,1.63800604 L6.51946646,1.63800604 Z" id="形状" fill-rule="nonzero"></path>
                            </g>
                        </g>
                    </g>
                </g>
            </g>
        </g>
    </g>
</svg>