<?xml version="1.0" encoding="UTF-8"?>
<svg width="28px" height="28px" viewBox="0 0 28 28" version="1.1" xmlns="http://www.w3.org/2000/svg" xmlns:xlink="http://www.w3.org/1999/xlink">
    <!-- Generator: Sketch 52.5 (67469) - http://www.bohemiancoding.com/sketch -->
    <title>分组 8</title>
    <desc>Created with Sketch.</desc>
    <g id="Page-1" stroke="none" stroke-width="1" fill="none" fill-rule="evenodd">
        <g id="美容含有开单设置" transform="translate(-494.000000, -315.000000)" fill="#999999" fill-rule="nonzero">
            <g id="分组-8-copy" transform="translate(12.000000, 238.000000)">
                <g id="分组-9-copy" transform="translate(474.000000, 70.000000)">
                    <g id="提成设置" transform="translate(8.000000, 7.000000)">
                        <g id="项目" transform="translate(4.000000, 3.000000)">
                            <g id="产品">
                                <path d="M9.4180713,1.64722398 C9.69029369,1.64722398 9.95140434,1.70000192 10.1402952,1.79444648 L15.3347504,4.35278735 C15.4180839,4.39445398 15.6097508,4.50556528 15.6097508,4.66389865 C15.6097508,4.77778766 15.5041951,4.90001005 15.3264167,4.99167754 L10.0764027,7.65834276 C9.8736248,7.76112069 9.59306818,7.81945406 9.30418035,7.81945406 C9.03195796,7.81945406 8.7708473,7.76667612 8.58195646,7.67223156 L3.3875012,5.11389069 C3.30416772,5.07222406 3.11250088,4.96111276 3.11250088,4.80277939 C3.11250088,4.68889037 3.21805653,4.56666799 3.39861293,4.4750005 L8.64862685,1.80833528 C8.84862706,1.70555735 9.12918346,1.64722398 9.4180713,1.64722398 Z M9.43196019,0.30555543 C8.97640497,0.30555543 8.5375152,0.399999993 8.19584664,0.572221951 L1.74307156,3.85001092 C1.29862592,4.0750106 1.04584906,4.43056667 1.04584906,4.8194558 C1.04862685,5.20556699 1.30140385,5.55278927 1.73751569,5.76667936 L8.12362468,8.90834317 C8.44306978,9.06667676 8.85973609,9.15278838 9.29029206,9.15278838 C9.74584727,9.15278838 10.184737,9.05834382 10.5264056,8.88612186 L16.9791807,5.60833289 C17.4236263,5.38333321 17.6764032,5.02777714 17.6736252,4.63888801 C17.6708475,4.25277682 17.4180705,3.90555454 16.9819586,3.69166445 L10.5986211,0.550000636 C10.279176,0.394444986 9.86528765,0.30555543 9.43195374,0.30555543 L9.43196019,0.30555543 Z M1.94028546,8.54722908 C2.04306339,8.54722908 2.15417469,8.57778463 2.27362022,8.63611799 L6.9736335,11.1000134 C7.39029981,11.3055693 7.66807806,11.7416816 7.66807806,12.0194598 L7.66807806,18.6500183 C7.66807806,18.8277964 7.55974469,18.9333524 7.37641014,18.9333524 C7.27363221,18.9333524 7.16252091,18.9027969 7.04307538,18.8444635 L2.3430621,16.3777966 C1.92639579,16.1722407 1.64861754,15.7361285 1.64861754,15.4583502 L1.64861754,8.82779171 C1.64861754,8.65279139 1.75695091,8.54723553 1.94028546,8.54723553 L1.94028546,8.54722908 Z M1.34861797,6.78612274 C0.776396016,6.78612274 0.362505495,7.19723532 0.362505495,7.76112348 L0.362505495,15.8333497 C0.362505495,16.4583502 0.876395156,17.1805741 1.55973013,17.5166846 L7.26529927,20.5111373 L7.27918818,20.5194707 C7.51529959,20.6333597 7.74585513,20.6916931 7.96530109,20.6916931 C8.53752305,20.6916931 8.95141357,20.2805805 8.95141357,19.7166923 L8.95141357,11.6444661 C8.95141357,11.0194656 8.43752391,10.2972417 7.75418893,9.96113117 L2.04861979,6.96667847 L2.0347309,6.95834512 C1.80139743,6.8444561 1.57084188,6.78612274 1.34861799,6.78612274 Z M17.0458511,8.57779064 C17.2264068,8.57779064 17.3347411,8.68334629 17.3347411,8.85834683 L17.3347411,15.4500186 C17.3347411,15.7250189 17.0569628,16.1583528 16.6319627,16.3694649 L11.9680647,18.8166885 C11.84862,18.8722441 11.7402871,18.9027997 11.6402858,18.9027997 C11.45973,18.9027997 11.3513958,18.797244 11.3513958,18.6222435 L11.3513958,12.0278003 C11.3513958,11.7528 11.6291741,11.3194661 12.0541742,11.1083539 L16.7180722,8.66113035 C16.8347389,8.6055747 16.9458498,8.57779687 17.0458511,8.57779687 L17.0458511,8.57779064 Z M17.6514082,6.78612897 C17.4319644,6.78612897 17.1986309,6.84446234 16.9652953,6.95835135 L11.2458473,9.95834703 C10.5625123,10.2944576 10.0486226,11.0194594 10.0486226,11.641682 L10.0486226,19.7111367 C10.0486226,20.2778049 10.462511,20.6861374 11.0347351,20.6861374 C11.2541789,20.6861374 11.4875124,20.6278041 11.720848,20.5139151 L17.4402961,17.5139194 C18.123631,17.1778088 18.6375207,16.452807 18.6375207,15.8305844 L18.6375207,7.7639012 C18.6375207,7.19723296 18.2236323,6.78612252 17.6514082,6.78612252 L17.6514082,6.78612897 Z" id="形状"></path>
                            </g>
                        </g>
                    </g>
                </g>
            </g>
        </g>
    </g>
</svg>