<?xml version="1.0" encoding="UTF-8"?>
<svg width="28px" height="28px" viewBox="0 0 28 28" version="1.1" xmlns="http://www.w3.org/2000/svg" xmlns:xlink="http://www.w3.org/1999/xlink">
    <!-- Generator: Sketch 52.5 (67469) - http://www.bohemiancoding.com/sketch -->
    <title>分组 8</title>
    <desc>Created with Sketch.</desc>
    <g id="Page-1" stroke="none" stroke-width="1" fill="none" fill-rule="evenodd">
        <g id="美容含有开单设置" transform="translate(-274.000000, -315.000000)" fill="#999999" fill-rule="nonzero">
            <g id="分组-8-copy" transform="translate(12.000000, 238.000000)">
                <g id="分组-9" transform="translate(254.000000, 70.000000)">
                    <g id="提成设置" transform="translate(8.000000, 7.000000)">
                        <g id="销售" transform="translate(3.000000, 2.000000)">
                            <path d="M18.6870654,7.65297441 L18.6870654,11.388181 L20.2747126,11.388181 L20.2747126,8.80545056 L20.8040267,9.19425487 C21.1161897,9.41642845 21.5774577,9.30542422 21.8353131,8.93043051 C22.0931955,8.55552043 22.038941,8.06946717 21.7267242,7.8473489 L11.5491461,0.515686478 C11.467738,0.432440269 11.3862761,0.376814209 11.2912908,0.335136208 C10.9927583,0.154640834 10.5856647,0.265727628 10.3413046,0.598988222 L0.272374961,7.87511629 C-0.0398150078,8.09731754 -0.0940414706,8.58331548 0.163786042,8.9581979 C0.421641419,9.33305479 0.869385068,9.4442235 1.181548,9.22202226 L1.87365176,8.72213222 L1.87365176,20.6777637 C1.87365176,21.1220555 2.21294248,21.5247243 2.64710976,21.538644 C3.0949345,21.5525368 3.46135302,21.1775984 3.46135302,20.7193038 L3.46135302,7.56964117 L10.96564,2.1403389 L18.6870783,7.65296398 L18.6870654,7.65297441 Z M10.0844211,11.3947345 L7.98730969,11.3947345 C7.86519764,11.7010352 7.73717095,11.9952587 7.60333693,12.2772669 L9.89539166,12.2772669 L9.89539166,13.6433758 L8.73755749,13.6433758 L8.73755749,14.864423 L9.90722133,14.864423 L9.90722133,16.230532 L8.73755749,16.230532 L8.73755749,18.0076994 C9.09201116,17.7982081 9.44248487,17.5806019 9.78906179,17.3548792 C9.8047627,17.846571 9.84812846,18.3785114 9.9190244,18.9506983 C8.58396339,19.8090487 7.84349499,20.3369442 7.69785624,20.5344146 L6.84718407,19.3375493 C7.0834782,19.0312486 7.20163774,18.6605472 7.20163774,18.2253068 L7.20163774,16.230532 L5.97290868,16.230532 L5.97290868,14.864423 L7.20163774,14.864423 L7.20163774,13.6433758 L6.87673019,13.6433758 C6.71520445,13.9133898 6.54787179,14.1713543 6.37459789,14.4171034 C6.22487479,13.6595233 6.07923854,13.0147078 5.93744668,12.4827695 C6.59113153,11.2496451 7.06371771,9.93593425 7.35520522,8.54157514 C8.33971142,8.75114902 8.83592992,8.85590809 8.84386073,8.85590809 C8.72959902,9.26297916 8.60950252,9.65786246 8.4835203,10.0406686 L10.0844216,10.0406686 L10.0844215,11.3947281 L10.0844211,11.3947345 Z M11.147753,8.74712885 C11.6518213,9.28718448 12.1953044,9.91981226 12.7782004,10.6451782 L11.6558012,11.6123313 C11.1359504,10.903115 10.6239514,10.2543376 10.1198811,9.66592026 L11.147753,8.74712885 Z M13.1089947,8.52952142 L14.6685451,8.52952142 L14.6685451,11.8178573 L17.2559779,11.8178573 L17.2559779,18.5033637 C17.2559779,19.0473812 17.1476308,19.4624016 16.9310704,19.7485929 C16.7144307,20.0346735 16.3846303,20.1907931 15.9415903,20.217039 C15.4985232,20.2432014 14.8141901,20.2563513 13.8887783,20.2563513 C13.7942502,19.7324454 13.6603359,19.1924706 13.487087,18.6363504 C13.999007,18.6605319 14.4992034,18.672609 14.9875722,18.672609 C15.4443778,18.672609 15.6728202,18.4550016 15.6728202,18.0197889 L15.6728202,17.7538197 L11.9511606,17.7538197 L11.9511606,20.2684195 L10.3679778,20.2684195 L10.3679778,11.8178569 L13.1089947,11.8178569 L13.1089947,8.52952097 L13.1089947,8.52952142 Z M15.6727848,13.2565163 L11.9511668,13.2565163 L11.9511668,14.1753077 L15.6728264,14.1753077 L15.6728264,13.2565163 L15.6727848,13.2565163 Z M11.9511668,16.4239745 L15.6728264,16.4239745 L15.6728264,15.5172602 L11.9511668,15.5172602 L11.9511668,16.4239745 Z M16.417125,8.80757618 L17.5277216,9.67803143 C17.0078708,10.3389945 16.4446541,10.9998491 15.8382069,11.6607015 L14.8221376,10.7781691 C15.4364886,10.101167 15.9681691,9.44435734 16.417123,8.80757618 L16.417125,8.80757618 Z" id="形状"></path>
                        </g>
                    </g>
                </g>
            </g>
        </g>
    </g>
</svg>