<?xml version="1.0" encoding="UTF-8"?>
<svg width="280px" height="144px" viewBox="0 0 280 144" version="1.1" xmlns="http://www.w3.org/2000/svg" xmlns:xlink="http://www.w3.org/1999/xlink">
    <!-- Generator: Sketch 52.5 (67469) - http://www.bohemiancoding.com/sketch -->
    <title>矩形</title>
    <desc>Created with Sketch.</desc>
    <defs>
        <linearGradient x1="-23.7080558%" y1="32.514313%" x2="113.631852%" y2="79.3147662%" id="linearGradient-1">
            <stop stop-color="#7B76FF" offset="0%"></stop>
            <stop stop-color="#D7B0FE" offset="100%"></stop>
        </linearGradient>
        <rect id="path-2" x="0" y="0" width="280" height="144" rx="20"></rect>
    </defs>
    <g id="Page-1" stroke="none" stroke-width="1" fill="none" fill-rule="evenodd">
        <g id="会员-copy-7" transform="translate(-124.000000, -48.000000)">
            <g id="分组-3" transform="translate(124.000000, 48.000000)">
                <g id="矩形">
                    <mask id="mask-3" fill="white">
                        <use xlink:href="#path-2"></use>
                    </mask>
                    <use id="Mask" fill="url(#linearGradient-1)" xlink:href="#path-2"></use>
                    <rect id="矩形-copy-3" fill="#A88DF7" opacity="0.140904018" mask="url(#mask-3)" x="169" y="72" width="152" height="110" rx="20"></rect>
                    <rect fill="#D4B2FF" opacity="0.203404018" mask="url(#mask-3)" x="140" y="-16" width="152" height="110" rx="20"></rect>
                    <g id="消费" opacity="0.621233259" mask="url(#mask-3)" fill="#FFFFFF" fill-rule="nonzero">
                        <g transform="translate(210.000000, 13.000000)" id="形状" opacity="0.183733259">
                            <path d="M34.148447,26.517318 C35.1944063,26.517318 36.0398918,25.6699743 36.0398918,24.6259611 C36.0398918,23.5816787 35.1944011,22.7342471 34.148447,22.7342471 L28.4092235,22.7342471 L28.4092235,22.6569192 L35.4195168,15.3345777 C36.1402762,14.5780691 36.1287083,13.380542 35.3721137,12.6601397 C34.619135,11.9411504 33.4314108,11.9677177 32.7069455,12.7261688 L26.7011173,19.0383002 L20.3415757,12.6921121 C19.6000717,11.9527302 18.4046667,11.9563481 17.6668737,12.6959079 C16.9291688,13.4357298 16.8933265,14.6329049 17.6328,15.3706098 L24.6261167,22.3826629 L24.6261167,22.7341698 L19.0231717,22.7341697 C17.9788893,22.7341697 17.1314577,23.5816014 17.1314577,24.6258838 C17.1314577,25.6699022 17.9788893,26.5172406 19.0231717,26.5172406 L24.6261167,26.5172406 L24.6261167,30.3006635 L19.0231717,30.3006635 C17.9788893,30.3006635 17.1314577,31.1460611 17.1314577,32.1920204 C17.1314577,33.2379797 17.9788893,34.0837344 19.0231717,34.0837344 L24.6261167,34.0837344 L24.6261167,39.7073826 C24.6261167,40.7533419 25.4735484,41.5988274 26.5174736,41.5988274 C27.561756,41.5988274 28.4091876,40.7533367 28.4091876,39.7073826 L28.4091876,34.0837344 L34.1484111,34.0837344 C35.1943704,34.0837344 36.039856,33.2379797 36.039856,32.1920204 C36.039856,31.1460611 35.1943652,30.3006635 34.1484111,30.3006635 L28.4091876,30.3006635 L28.4091876,26.5172406 L34.1484111,26.5172406 L34.1484111,26.5173289 L34.148447,26.517318 Z M52.9645558,25.1435967 L52.9645558,26.4601152 L49.2160902,26.4601152 C49.2161785,26.4792706 49.2167964,26.4982495 49.2167964,26.5174049 C49.2167964,39.0330796 39.0363333,49.2147848 26.5210209,49.2166999 C14.0174576,49.2185536 3.81851697,39.0208648 3.81862049,26.5173014 C3.81862049,14.0008503 14.0010503,3.8184205 26.5175532,3.8184205 C26.5249682,3.8184205 26.5323832,3.81868534 26.5397982,3.81868534 L26.5397982,0.035614437 C26.5397099,0.035526138 26.5396217,0.0354378908 26.5395334,0.0353495919 C11.9278201,0.0233443533 0.0372251937,11.9055519 0.0355171839,26.5142115 C0.03383997,41.1261318 11.9057195,52.9998536 26.5176916,52.9997501 C41.1206578,52.9996618 52.9998659,41.1204384 52.9998659,26.5173687 C52.9998659,26.0565782 52.9878607,25.5985267 52.9644681,25.1435595 L52.9645558,25.1435967 Z M51.1010032,10.7996787 L37.1679391,10.7996787 C36.1191538,10.7996787 35.2689894,9.94951421 35.2689894,8.90072891 C35.2689894,7.85194361 36.1191538,7.00177914 37.1679391,7.00177914 L51.1009515,7.00177914 C52.1497368,7.00177914 52.9999012,7.85194361 52.9999012,8.90072891 C52.9999895,9.94951421 52.1497368,10.7996787 51.1010394,10.7996787 L51.1010032,10.7996787 Z M42.2355525,15.8319155 L42.2355525,1.89890319 C42.2355525,0.850117884 43.0857169,-4.65820849e-05 44.1344142,-4.65820849e-05 C45.1831995,-4.65820849e-05 46.033364,0.850117884 46.033364,1.89890319 L46.033364,15.8319155 C46.033364,16.8807008 45.1831995,17.7308653 44.1344142,17.7308653 C43.0857169,17.7308653 42.2355525,16.8807008 42.2355525,15.8319155 Z M27.1886072,3.81585952 L26.5397032,3.81586469 L26.5397032,0.0356145922 L27.1886072,0.0356145922 C28.2325376,0.0356145922 29.0787323,0.881897218 29.0787323,1.92573964 C29.0788205,2.96958207 28.2325376,3.81586469 27.1886072,3.81586469 L27.1886072,3.81585952 Z M51.0902893,24.5401258 C50.0551888,24.5401258 49.2160539,25.3792607 49.2160539,26.4143612 L49.2160539,26.4600872 L52.9645195,26.4600872 L52.9645195,26.4143613 C52.9645195,25.3792607 52.1253847,24.5401259 51.0902842,24.5401259 L51.0902893,24.5401258 Z"></path>
                        </g>
                    </g>
                </g>
            </g>
        </g>
    </g>
</svg>