<?xml version="1.0" encoding="UTF-8"?>
<svg width="36px" height="36px" viewBox="0 0 36 36" version="1.1" xmlns="http://www.w3.org/2000/svg" xmlns:xlink="http://www.w3.org/1999/xlink">
    <!-- Generator: Sketch 52.5 (67469) - http://www.bohemiancoding.com/sketch -->
    <title>icon-推荐</title>
    <desc>Created with Sketch.</desc>
    <g id="菲卡时代2.0" stroke="none" stroke-width="1" fill="none" fill-rule="evenodd">
        <g id="使用卡项-默认推荐卡项" transform="translate(-10.000000, -74.000000)" fill="#E94E27" fill-rule="nonzero">
            <g id="icon-推荐" transform="translate(28.000000, 92.000000) rotate(-360.000000) translate(-28.000000, -92.000000) translate(10.000000, 74.000000)">
                <path d="M6,14.5110659 L7.51821086,13 L8.656869,14.1332994 L7.13865814,15.6443653 L6,14.5110659 Z M7.64702875,16.1022641 L9.1652396,14.5919613 L10.3038977,15.7252607 L8.78568689,17.2363266 L7.64702875,16.1022641 Z M9.28869009,17.8140422 L10.806901,16.3022132 L12,17.4889341 L10.4817891,19 L9.28869009,17.8140422 Z" id="形状"></path>
                <path d="M11.925,0 L0,12.15 L0,36 L36,0 L11.925,0 Z M10.65,6.3 L11.175,5.77500001 L11.85,6.45000001 L13.875,4.42500001 L13.2,3.75000001 L13.725,3.22499999 L14.4,3.89999999 L16.275,2.025 L16.8,2.54999999 L14.925,4.42500001 L15.45,4.95 L14.925,5.47499999 L14.4,4.95 L12.375,6.975 L12.75,7.35000001 L12.225,7.875 L11.775,7.49999999 L9.82500001,9.45 L9.29999999,8.92500001 L11.25,6.975 L10.65,6.3 Z M6.075,10.8 L7.65,11.025 L7.425,11.85 C6.975,11.7 6.45000001,11.625 5.92499999,11.55 L6.075,10.8 Z M9,21.975 C8.775,22.2 8.55,22.5 8.25000001,22.725 C8.02500001,22.575 7.80000001,22.35 7.57500001,22.2 C7.80000001,21.975 8.02500001,21.825 8.17499999,21.675 C8.325,21.525 8.325,21.3 8.17499999,21.15 L6.22500001,19.2 C6.00000001,19.575 5.77500001,19.95 5.625,20.325 L4.95,19.8 C5.175,19.425 5.4,19.05 5.625,18.6 L3.89999999,16.875 L2.99999999,17.7 L2.475,17.175 L3.375,16.275 L2.025,14.925 L2.54999999,14.4 L3.89999999,15.75 L4.725,14.925 L5.24999999,15.45 L4.42500001,16.275 L6.00000001,17.85 C6.22500001,17.475 6.45000001,17.1 6.59999999,16.8 C6.82499999,17.025 7.04999999,17.175 7.2,17.325 L6.525,18.45 L8.70000001,20.625 C9.30000002,21.15 9.37500001,21.6 9,21.975 Z M11.475,19.8 L10.95,20.325 L6.3,15.675 C6.37499999,15.975 6.37499999,16.35 6.45000001,16.65 L5.625,16.65 C5.47499999,15.3 5.175,13.875 4.57499999,12.3 L5.24999999,12 C5.47499999,12.6 5.625,13.125 5.77500001,13.725 L9.37500001,10.125 L9.9,10.65 L8.1,12.45 L9.225,13.575 L10.95,11.85 L11.475,12.375 L9.74999999,13.95 L10.875,15.075 L12.6,13.35 L13.125,13.875 L11.4,15.6 L12.525,16.725 L14.475,14.775 L14.925,15.225 L10.95,19.2 L11.475,19.8 Z M16.95,14.1 L14.1,11.25 C14.175,12 14.175,12.675 14.1,13.35 C13.8,13.275 13.5,13.275 13.275,13.2 C13.425,11.85 13.275,10.5 12.975,9.07499999 L11.25,10.8 L10.725,10.275 L12.75,8.25000001 C12.675,8.1 12.675,7.95000002 12.6,7.72499999 L13.2,7.12500001 C13.275,7.27500002 13.35,7.425 13.35,7.65 L17.625,3.375 L18.15,3.89999999 L13.65,8.39999999 C13.8,8.92499998 13.875,9.37499998 14.025,9.9 L17.625,13.5 L16.95,14.1 Z M19.95,11.1 L18.675,12.375 C18.45,12.225 18.225,12.075 18,11.85 C18.45,11.475 18.9,11.025 19.275,10.725 C19.5,10.5 19.5,10.2 19.275,9.97499999 L18.375,9 L16.2,11.175 L15.675,10.65 L17.85,8.47500001 L17.475,8.1 L17.85,6.37499999 L15,9.225 L14.475,8.70000001 L18.225,4.95 L18.75,5.47499999 L18.225,7.80000001 L18.375,7.94999999 L20.25,6.075 L20.775,6.59999999 L18.9,8.47500001 L19.875,9.45 C20.475,9.97499999 20.475,10.575 19.95,11.1 Z" id="形状"></path>
            </g>
        </g>
    </g>
</svg>