<?xml version="1.0" encoding="UTF-8"?>
<svg width="22px" height="22px" viewBox="0 0 22 22" version="1.1" xmlns="http://www.w3.org/2000/svg" xmlns:xlink="http://www.w3.org/1999/xlink">
    <!-- Generator: Sketch 52.5 (67469) - http://www.bohemiancoding.com/sketch -->
    <title>icon-关于菲卡价3</title>
    <desc>Created with Sketch.</desc>
    <g id="菲卡时代2.0" stroke="none" stroke-width="1" fill="none" fill-rule="evenodd">
        <g id="菲卡价" transform="translate(-61.000000, -1245.000000)" fill="#2C2C2C" fill-rule="nonzero">
            <g id="icon-关于菲卡价3" transform="translate(61.000000, 1245.000000)">
                <path d="M11.0052399,21.9890376 C9.52285625,21.9890376 8.08337805,21.6994258 6.7297108,21.1244926 C5.42109426,20.5710122 4.24548464,19.7794065 3.2393516,18.7689829 C2.228928,17.7607045 1.43732227,16.5872402 0.883841822,15.2764784 C0.311053922,13.9206658 0.02144208,12.4833329 0.0214420585,11.0009493 C0.0214420371,9.51856561 0.31319919,8.07908741 0.883841822,6.72542013 C1.43732227,5.4232394 2.228928,4.24548453 3.2393516,3.2372062 C4.2497752,2.22892788 5.42109426,1.43517687 6.7297108,0.885986983 C8.08337807,0.313199083 9.52285628,0.0214419512 11.0052399,0.0214419512 C12.4876235,0.0214419512 13.9271018,0.311053815 15.280769,0.885986983 C16.5893856,1.43946743 17.7649952,2.2289279 18.7711282,3.2372062 C19.7815518,4.24548451 20.5731576,5.41894887 21.126638,6.72971069 C21.6994259,8.08552324 21.9890378,9.52285617 21.9890378,11.0052398 C21.9890378,12.9939079 21.4505742,14.9418158 20.4337148,16.640872 C20.2470761,16.9519366 19.8480553,17.0506192 19.539136,16.8661257 C19.2302167,16.6794869 19.1315341,16.2804662 19.3138823,15.9694016 C20.2084612,14.4741463 20.6825665,12.7579279 20.6847118,11.0073851 C20.6847118,9.70091382 20.4294243,8.43520274 19.9252851,7.24243093 C19.4383082,6.08827405 18.7389491,5.05639773 17.8508061,4.16610944 C16.9626631,3.27582114 15.9243509,2.5786074 14.7723393,2.09163043 C13.5774223,1.58749126 12.3117112,1.33220378 11.0030946,1.33220378 C9.69447808,1.33220378 8.42876702,1.58749126 7.23384994,2.09163043 C6.0839836,2.5786074 5.04996201,3.27796641 4.16181899,4.16610944 C3.27367596,5.05425246 2.57431695,6.08827405 2.08733997,7.24243093 C1.58320081,8.43520272 1.32791332,9.70305907 1.32791335,11.0073851 C1.32791335,12.3138564 1.58320083,13.5795674 2.08733997,14.7723392 C2.57431695,15.9264961 3.27367596,16.9583724 4.16181899,17.8486607 C5.04996201,18.7368038 6.08827416,19.4361628 7.24028577,19.9231397 C8.43305756,20.4294242 9.70091391,20.6825664 11.0095305,20.6825664 C12.9595836,20.6825664 14.8388428,20.1054879 16.4456523,19.013544 C16.7438453,18.8118883 17.1493018,18.8869729 17.3531028,19.1851658 C17.5547584,19.4833588 17.4796739,19.8909606 17.1814809,20.0926163 C15.3537083,21.3347294 13.2191617,21.9890377 11.0052399,21.9890376 Z M11.6932504,15.2708792 L8.21790814,15.2708792 C7.85750227,15.2708792 7.56574514,14.9791221 7.56574514,14.6187162 C7.56574514,14.2583104 7.85750227,13.9665532 8.21790814,13.9665532 L11.6932504,13.9665532 C12.2982174,13.9665532 12.8667148,13.7327185 13.2914788,13.3079544 C13.7140976,12.8831903 13.9479323,12.3168383 13.9479324,11.7161618 C13.9479324,11.1090496 13.7162429,10.5448428 13.2914788,10.1200787 C12.86886,9.69745993 12.3067985,9.46577044 11.7104126,9.46577044 L8.21361758,9.46577044 C7.85321171,9.46577044 7.56145458,9.17401331 7.5614546,8.81360744 C7.56145462,8.45320157 7.85321173,8.16144444 8.21361758,8.16144444 L11.7082673,8.16144444 C12.656478,8.16144444 13.5467663,8.52828613 14.2139462,9.19975659 C14.8811261,9.86908178 15.2522584,10.7615153 15.2522584,11.7183071 C15.2522584,12.6686631 14.8832714,13.5632419 14.2139462,14.2347123 C13.5424758,14.9018922 12.6478969,15.2708792 11.6932504,15.2708792 Z M8.79713184,6.48813148 L8.79713184,11.1347928 L6.47594644,8.8093169 L8.79713184,6.48813148 Z" id="形状"></path>
            </g>
        </g>
    </g>
</svg>