<?xml version="1.0" encoding="UTF-8"?>
<svg width="28px" height="28px" viewBox="0 0 28 28" version="1.1" xmlns="http://www.w3.org/2000/svg" xmlns:xlink="http://www.w3.org/1999/xlink">
    <!-- Generator: Sketch 52.5 (67469) - http://www.bohemiancoding.com/sketch -->
    <title>分组 8</title>
    <desc>Created with Sketch.</desc>
    <g id="Page-1" stroke="none" stroke-width="1" fill="none" fill-rule="evenodd">
        <g id="会员-copy-8" transform="translate(-606.000000, -593.000000)" fill="#999999" fill-rule="nonzero">
            <g id="分组-8" transform="translate(124.000000, 516.000000)">
                <g id="分组-10" transform="translate(474.000000, 70.000000)">
                    <g id="报表" transform="translate(8.000000, 7.000000)">
                        <g transform="translate(3.000000, 5.000000)" id="形状">
                            <path d="M21.3125248,16.6120217 L2.0611274,16.6120217 C1.68162696,16.6120217 1.3736266,16.3287713 1.3736266,15.9781459 L1.3736266,0.752753203 C1.3736266,0.402127795 1.06700124,0.118877466 0.6875008,0.118877466 C0.308000358,0.118877466 6.10623374e-16,0.402127795 6.10623374e-16,0.752753203 L6.10623374e-16,16.6120217 C6.10623374e-16,17.3118975 0.616000717,17.8825231 1.3736266,17.8825231 L21.3125248,17.8825231 C21.6920252,17.8825231 22.0000256,17.5992728 22.0000256,17.2472724 C22.0000256,16.895272 21.6934002,16.6120217 21.3125248,16.6120217 Z M3.434754,11.5382658 L4.79875558,11.5382658 C5.03525586,11.5451408 5.27038113,11.4392656 5.40375629,11.2412654 L6.86538299,9.07976289 L8.95126042,13.4041429 C9.03926052,13.5883931 9.21251072,13.7148933 9.40913595,13.7616433 C9.76663636,13.8523934 10.1406368,13.6653932 10.2492619,13.3353928 L13.0680152,4.81863293 L15.1222676,11.0295152 C15.1868927,11.3210155 15.461893,11.5382658 15.7946434,11.5382658 L19.2293974,11.5382658 C19.2885224,11.5382658 19.3448975,11.5313907 19.4012726,11.5176407 C19.6350228,11.9081412 20.0846484,12.1735165 20.603024,12.1735165 C21.3620249,12.1735165 21.9766506,11.6056408 21.9766506,10.90439 C21.9766506,10.2017642 21.3620249,9.63388854 20.603024,9.63388854 C20.0860234,9.63388854 19.6363978,9.89926385 19.4012726,10.2897643 C19.3448975,10.2760143 19.2885224,10.2691393 19.2293974,10.2691393 L16.307519,10.2691393 L13.726641,2.4687552 C13.6166408,2.13462981 13.2330154,1.94487959 12.870015,2.04800471 C12.7448898,2.08375475 12.6362647,2.15112983 12.5565146,2.23637993 C12.4891395,2.30238001 12.4382645,2.3835051 12.4066394,2.47563021 L9.46963602,11.3567655 L7.61200886,7.50263606 C7.57900882,7.42426097 7.53088376,7.35001088 7.46350868,7.28813581 C7.46075868,7.2840108 7.45663368,7.2812608 7.45388367,7.2798858 L7.44150866,7.26751078 C7.24763343,7.09701059 6.95063309,7.03926052 6.68800778,7.14926065 C6.53950761,7.20976072 6.42538248,7.31426084 6.3566324,7.43938598 L4.44125517,10.2691393 L3.434754,10.2691393 C3.05525356,10.2691393 2.7486282,10.5537646 2.7486282,10.90439 C2.7486282,11.2536404 3.05662856,11.5382658 3.434754,11.5382658 Z"></path>
                        </g>
                    </g>
                </g>
            </g>
        </g>
    </g>
</svg>