<?xml version="1.0" encoding="UTF-8"?>
<svg width="22px" height="22px" viewBox="0 0 22 22" version="1.1" xmlns="http://www.w3.org/2000/svg" xmlns:xlink="http://www.w3.org/1999/xlink">
    <!-- Generator: Sketch 52.5 (67469) - http://www.bohemiancoding.com/sketch -->
    <title>icon-关于菲卡价2</title>
    <desc>Created with Sketch.</desc>
    <g id="菲卡时代2.0" stroke="none" stroke-width="1" fill="none" fill-rule="evenodd">
        <g id="菲卡价" transform="translate(-61.000000, -279.000000)" fill="#000000" fill-rule="nonzero">
            <g id="icon-关于菲卡价2" transform="translate(61.000000, 279.000000)">
                <path d="M11.029488,1.94952242 L15.371766,8.73160507 L11.029488,11.8131193 L6.68720996,8.73160507 L11.029488,1.94952242 Z M21.425719,4.75590144 C21.3914306,4.75039873 21.3571423,4.76002847 21.3242255,4.75865278 C21.1431295,4.72489143 20.95612,4.76607837 20.8057855,4.87283391 L16.4923096,7.93646432 L11.606904,0.306965288 L11.6014179,0.300086919 C11.5726156,0.258816639 11.5300981,0.225800415 11.4916951,0.190032818 C11.4642644,0.162519309 11.4409483,0.128127398 11.4080315,0.107492258 L11.4011738,0.0992382025 C11.3696286,0.0786030626 11.3325971,0.0744760346 11.3024234,0.0607192962 C11.2557912,0.0400841563 11.2105305,0.0153219885 11.1597838,0.00569224582 C11.1186377,-0.00256181012 11.0774917,0.00294090459 11.0349741,0.00156521785 C10.988342,0.00156521785 10.9430813,-0.00393749686 10.8964491,0.00569224582 C10.8484455,0.0153219885 10.8045563,0.0400841563 10.7592957,0.0607192962 C10.7250074,0.0744760669 10.6893475,0.0786030948 10.6578022,0.0992382025 L10.6509445,0.106116604 C10.6166561,0.128127431 10.5919685,0.163894996 10.5617948,0.192784191 C10.5261349,0.228551756 10.4849888,0.258816639 10.4575581,0.300086919 L10.452072,0.306965288 L5.56666635,7.93646432 L1.25319053,4.87283391 C1.10159562,4.76662581 0.913427288,4.72689179 0.732007459,4.76277981 C0.677146071,4.7572771 0.627770831,4.7462717 0.574280988,4.75590144 C0.394737369,4.78557379 0.234312136,4.88560272 0.128328551,5.03396335 C0.0223449651,5.18232398 -0.0205067244,5.3668513 0.0092087896,5.54691513 L1.9526731,17.3543422 C1.9567877,17.384607 1.97324611,17.4107449 1.98284686,17.4396341 C1.99381913,17.4754017 2.00341988,17.5097936 2.01987829,17.5441854 C2.04268888,17.5883639 2.0702863,17.6298851 2.10217036,17.6679963 C2.12411492,17.6955098 2.14194485,17.7230233 2.16663247,17.7436585 C2.20743184,17.7794973 2.25259513,17.8100052 2.30104283,17.8344531 C2.327102,17.8495855 2.34904653,17.8674693 2.37647724,17.8784747 C2.45615468,17.911289 2.54133938,17.9285642 2.62746804,17.9293747 L19.372532,17.9293747 C19.4591227,17.9287393 19.5447893,17.9114608 19.6248943,17.8784747 C19.652325,17.8674693 19.6742695,17.8509612 19.7003287,17.8344531 C19.7487764,17.8100052 19.7939397,17.7794973 19.8347391,17.7436585 C19.8594267,17.7216476 19.8758851,17.6941341 19.8978297,17.6679963 C19.9297137,17.6298851 19.9573112,17.5883639 19.9801217,17.5441854 C19.9979517,17.5097935 20.0075524,17.4754017 20.0185247,17.4396341 C20.0281254,17.4121206 20.0445838,17.384607 20.0486984,17.3543422 L20.5205063,14.4888091 C20.5679055,14.1213976 20.3166717,13.7823373 19.9522583,13.7219126 C19.5878449,13.6614879 19.2411852,13.9014093 19.1681733,14.2645739 L18.7910014,16.5536987 L3.20899865,16.5536987 L1.60430336,6.80978569 L10.631743,13.2176845 C10.6440868,13.2273142 10.6591737,13.2231872 10.6728891,13.2314412 C10.7826118,13.300225 10.9019353,13.3442467 11.0281165,13.3442467 C11.1546603,13.3403926 11.2776461,13.3013374 11.3833439,13.2314412 C11.3956877,13.2231872 11.4107746,13.2273142 11.4244899,13.2176845 L20.3860959,6.85518299 L19.8470829,10.1361702 C19.7975165,10.382716 19.8860597,10.636739 20.0779824,10.7986012 C20.2699051,10.9604634 20.5346028,11.0043539 20.7682504,10.913057 C21.0018979,10.8217602 21.1672374,10.6098343 21.1994158,10.3604054 L21.9907912,5.54691513 C22.0205067,5.3668513 21.977655,5.18232398 21.8716714,5.03396335 C21.7656879,4.88560272 21.6052626,4.78557379 21.425719,4.75590144 Z M19.9444618,20.624324 L2.11451417,20.624324 C1.73577539,20.624324 1.42874695,20.9322796 1.42874695,21.312162 C1.42874695,21.6920444 1.73577539,22 2.11451417,22 L19.9444618,22 C20.3232006,22 20.630229,21.6920444 20.630229,21.312162 C20.630229,20.9322796 20.3232006,20.624324 19.9444618,20.624324 Z" id="形状"></path>
            </g>
        </g>
    </g>
</svg>