<?xml version="1.0" encoding="UTF-8"?>
<svg width="54px" height="54px" viewBox="0 0 54 54" version="1.1" xmlns="http://www.w3.org/2000/svg" xmlns:xlink="http://www.w3.org/1999/xlink">
    <!-- Generator: Sketch 52.5 (67469) - http://www.bohemiancoding.com/sketch -->
    <title>二维码设置</title>
    <desc>Created with Sketch.</desc>
    <g id="Page-1" stroke="none" stroke-width="1" fill="none" fill-rule="evenodd">
        <g id="会员-copy-2" transform="translate(-440.000000, -59.000000)">
            <g id="充值-copy" transform="translate(423.000000, 41.000000)">
                <g id="二维码设置" transform="translate(17.000000, 18.000000)">
                    <rect id="矩形" fill="#99ED87" x="0" y="0" width="54" height="54" rx="16"></rect>
                    <g id="二维码" transform="translate(18.000000, 18.000000)" fill="#FFFFFF">
                        <rect id="矩形" opacity="0" x="0" y="0" width="18" height="18"></rect>
                        <path d="M4.83837246,0.28907652 L1.67677833,0.28907652 C0.75662898,0.28907652 0.0107078555,1.03501535 0.0107078555,1.95514699 L0.0107078555,5.11674112 C0.0107078555,6.03685506 0.756646682,6.78281159 1.67677833,6.78281159 L4.83837246,6.78281159 C5.7585041,6.78281159 6.50444293,6.03685506 6.50444293,5.11674112 L6.50444293,1.95514699 C6.50442523,1.03499766 5.75850408,0.28907652 4.83837246,0.28907652 Z M4.73341783,4.59529543 C4.73341783,4.82532834 4.54694198,5.0118219 4.31690906,5.0118219 L2.1982417,5.0118219 C1.96819109,5.0118219 1.78171523,4.82532834 1.78171523,4.59529543 L1.78171523,2.47662809 C1.78171523,2.24654208 1.96820879,2.06010162 2.1982417,2.06010162 L4.31690906,2.06010162 C4.54695968,2.06010162 4.73341783,2.24654208 4.73341783,2.47662809 L4.73341783,4.59529543 Z M16.0547821,0.28907652 L12.8932234,0.28907652 C11.973074,0.28907652 11.2271706,1.03501535 11.2271706,1.95514699 L11.2271706,5.11674112 C11.2271706,6.03685506 11.973074,6.78281159 12.8932234,6.78281159 L16.0547821,6.78281159 C16.9749314,6.78281159 17.7208526,6.03685506 17.7208526,5.11674112 L17.7208526,1.95514699 C17.7208526,1.03499766 16.9749491,0.28907652 16.0547821,0.28907652 Z M15.9498983,4.59529543 C15.9498983,4.82532834 15.7634047,5.0118219 15.5333718,5.0118219 L13.4147045,5.0118219 C13.1846539,5.0118219 12.998178,4.82532834 12.998178,4.59529543 L12.998178,2.47662809 C12.998178,2.24654208 13.1846539,2.06010162 13.4147045,2.06010162 L15.5333541,2.06010162 C15.763387,2.06010162 15.9498806,2.24654208 15.9498806,2.47662809 L15.9498806,4.59529543 L15.9498983,4.59529543 Z M4.83837246,11.5055393 L1.67677833,11.5055393 C0.75662898,11.5055393 0.0107078555,12.2514604 0.0107078555,13.1716097 L0.0107078555,16.3332039 C0.0107078555,17.2533178 0.756646682,17.9992743 1.67677833,17.9992743 L4.83837246,17.9992743 C5.7585041,17.9992743 6.50444293,17.2533355 6.50444293,16.3332039 L6.50444293,13.171592 C6.50442523,12.2514427 5.75850408,11.5055393 4.83837246,11.5055393 Z M4.73341783,15.8117228 C4.73341783,16.0417557 4.54694198,16.2282316 4.31690906,16.2282316 L2.1982417,16.2282316 C1.96819109,16.2282316 1.78171523,16.0417557 1.78171523,15.8117228 L1.78171523,13.6930731 C1.78171523,13.4630048 1.96820879,13.2765467 2.1982417,13.2765467 L4.31690906,13.2765467 C4.54695968,13.2765467 4.73341783,13.4630048 4.73341783,13.6930731 L4.73341783,15.8117228 Z M16.0547821,11.5055393 L12.8932234,11.5055393 C11.973074,11.5055393 11.2271706,12.2514604 11.2271706,13.1716097 L11.2271706,16.3332039 C11.2271706,17.2533178 11.973074,17.9992743 12.8932234,17.9992743 L16.0547821,17.9992743 C16.9749314,17.9992743 17.7208526,17.2533355 17.7208526,16.3332039 L17.7208526,13.171592 C17.7208526,12.2514427 16.9749491,11.5055393 16.0547821,11.5055393 Z M15.9498983,15.8117228 C15.9498983,16.0417557 15.7634047,16.2282316 15.5333718,16.2282316 L13.4147045,16.2282316 C13.1846539,16.2282316 12.998178,16.0417557 12.998178,15.8117228 L12.998178,13.6930731 C12.998178,13.4630048 13.1846539,13.2765467 13.4147045,13.2765467 L15.5333541,13.2765467 C15.763387,13.2765467 15.9498806,13.4630048 15.9498806,13.6930731 L15.9498806,15.8117228 L15.9498983,15.8117228 Z M12.998178,7.96350679 L10.0464931,7.96350679 L10.0464931,1.46973632 C10.0464931,0.817654869 9.51786165,0.28907652 8.86578021,0.28907652 C8.21371646,0.28907652 7.68512041,0.81767257 7.68512041,1.46973632 L7.68512041,7.96348909 L1.19142074,7.96348909 C0.539356992,7.96348909 0.0107432402,8.49208514 0.0107432402,9.14414889 C0.0107432402,9.79619493 0.539356992,10.3248618 1.19142074,10.3248618 L12.998178,10.3248618 C13.6502417,10.3248618 14.1788378,9.79619493 14.1788378,9.14414889 C14.1788378,8.49208514 13.6502417,7.96350679 12.998178,7.96350679 Z M10.0464931,16.8185792 C10.0464931,17.4706429 9.51786165,17.9992567 8.86578021,17.9992567 C8.21371646,17.9992567 7.68512041,17.4706429 7.68512041,16.8185792 L7.68512041,12.6862522 C7.68512041,12.034153 8.21373416,11.5055393 8.86578021,11.5055393 C9.51786165,11.5055393 10.0464931,12.034153 10.0464931,12.6862522 L10.0464931,16.8185792 Z M17.7208526,9.14416659 C17.7208526,9.79621263 17.1922919,10.3248795 16.5402105,10.3248795 C15.8880936,10.3248795 15.359533,9.79621263 15.359533,9.14416659 C15.359533,8.49208514 15.8880936,7.96350679 16.5402105,7.96350679 C17.1922919,7.96350679 17.7208526,8.49208514 17.7208526,9.14416659 Z" id="形状" fill-rule="nonzero"></path>
                    </g>
                </g>
            </g>
        </g>
    </g>
</svg>