<?xml version="1.0" encoding="UTF-8"?>
<svg width="24px" height="24px" viewBox="0 0 24 24" version="1.1" xmlns="http://www.w3.org/2000/svg" xmlns:xlink="http://www.w3.org/1999/xlink">
    <!-- Generator: Sketch 52.5 (67469) - http://www.bohemiancoding.com/sketch -->
    <title>会员信息-会员 copy 35</title>
    <desc>Created with Sketch.</desc>
    <g id="Page-1" stroke="none" stroke-width="1" fill="none" fill-rule="evenodd">
        <g id="会员信息-会员-copy-35" transform="translate(-980.000000, -23.000000)" fill="#000000">
            <g id="分组" transform="translate(980.000000, 23.000000)">
                <g id="打勾" transform="translate(2.000000, 5.000000)">
                    <path d="M8.3391056,10.7592049 L2.71689469,5.13699402 C2.23652327,4.66684342 1.46747664,4.6701119 0.991114171,5.14432732 L0.563336413,5.57210508 C0.0847553574,6.04621883 0.081133096,6.81852965 0.555246652,7.29711216 C0.555905431,7.29777715 0.556564975,7.29844138 0.557225289,7.29910485 L7.25866671,14.0005463 L7.47255487,14.2144344 C7.95288765,14.6947672 8.72899833,14.6911005 9.21055285,14.2095455 L20.4317572,2.98834115 C20.9145349,2.50556346 20.9145349,1.7294542 20.4366461,1.25034317 L20.0088684,0.822565414 C19.5286874,0.344315199 18.751726,0.345882125 18.2734772,0.826062374 C18.2730154,0.82652598 18.2725541,0.826989953 18.2720931,0.827454297 L8.33910461,10.7592253 L8.3391056,10.7592049 Z" id="路径"></path>
                </g>
            </g>
        </g>
    </g>
</svg>