<?xml version="1.0" encoding="UTF-8"?>
<svg width="22px" height="22px" viewBox="0 0 22 22" version="1.1" xmlns="http://www.w3.org/2000/svg" xmlns:xlink="http://www.w3.org/1999/xlink">
    <!-- Generator: Sketch 52.5 (67469) - http://www.bohemiancoding.com/sketch -->
    <title>配置</title>
    <desc>Created with Sketch.</desc>
    <g id="Page-1" stroke="none" stroke-width="1" fill="none" fill-rule="evenodd">
        <g id="会员信息-会员-copy-2" transform="translate(-44.000000, -104.000000)" fill="#F5C274">
            <g id="分组-2" transform="translate(28.000000, 84.000000)">
                <g id="配置" transform="translate(16.000000, 20.000000)">
                    <circle id="椭圆形" fill-opacity="0.3" cx="11" cy="11" r="11"></circle>
                    <path d="M11.4194372,9.28043326 C10.4738265,9.28043326 9.7072201,10.0469849 9.7072201,10.9925774 C9.7072201,11.9381881 10.4738265,12.7047215 11.4194372,12.7047215 C12.3650297,12.7047215 13.1315813,11.9381881 13.1315813,10.9925774 C13.1315813,10.0469849 12.3650297,9.28043326 11.4194372,9.28043326 Z M11.4194372,11.8486494 C10.9466045,11.8486494 10.5632922,11.4653554 10.5632922,10.9925774 C10.5632922,10.5197447 10.9465862,10.1365053 11.4194372,10.1365053 C11.8922152,10.1365053 12.2755092,10.5197447 12.2755092,10.9925774 C12.2755092,11.4653554 11.8922152,11.8486494 11.4194372,11.8486494 Z M15.9824426,11.6499787 L15.6727972,11.471248 C15.708682,11.1549255 15.7095395,10.8335861 15.6737094,10.5134142 L15.9824426,10.3351761 C16.8013346,9.86234335 17.0819,8.8151898 16.609122,7.99627957 C16.1363076,7.17740582 15.0891905,6.89676743 14.2702255,7.36960015 L13.9614923,7.54783828 C13.7021622,7.35666558 13.4234394,7.19674384 13.1315631,7.06971496 L13.1315631,6.71214411 C13.1315631,5.76655164 12.3649567,5 11.419346,5 C10.4737352,5 9.70720186,5.76655164 9.70720186,6.71214411 L9.70720186,7.06936834 C9.56231269,7.13283717 9.41937557,7.20464324 9.2791932,7.28562574 C9.13901083,7.36660823 9.00530487,7.45443202 8.87792938,7.54822139 L8.56852112,7.36960015 C7.74957441,6.89676743 6.70247559,7.17733284 6.22964287,7.99627957 C5.75690135,8.8151898 6.03744853,9.86234334 6.85635876,10.3351213 L7.16598593,10.5139432 C7.13011939,10.8302475 7.12926194,11.1515322 7.16507376,11.471777 L6.85634052,11.6499969 C6.03744854,12.1228297 5.75688312,13.1699467 6.22966111,13.9888934 C6.70249383,14.8077672 7.74959265,15.0883508 8.56853936,14.6155728 L8.87729085,14.437353 C9.13662094,14.6285074 9.41534377,14.7883562 9.7072201,14.9154763 L9.7072201,15.2729559 C9.7072201,16.2185666 10.4738265,16.985173 11.4194372,16.985173 C12.3650297,16.985173 13.1315813,16.2185666 13.1315813,15.2729559 L13.1315813,14.9157317 C13.2764705,14.8523358 13.4194076,14.7804568 13.5596447,14.6995473 C13.6998271,14.6185648 13.8335513,14.530741 13.9609085,14.4369516 L14.2702255,14.6155728 C15.0891905,15.0884056 16.1362893,14.8077672 16.609122,13.9888934 C17.0819,13.1699285 16.8013529,12.1228114 15.9824426,11.6499787 Z M15.8677646,13.5607935 C15.6313117,13.9703034 15.1077623,14.1105405 14.6983072,13.8741788 L13.9569314,13.4461155 L13.8634157,13.3921332 C13.6511354,13.608117 13.4065825,13.7993626 13.1315813,13.9581715 C12.8564889,14.1169074 12.5686079,14.2330632 12.2755092,14.3089376 L12.2755092,14.4169021 L12.2755092,15.1875038 L12.2755092,15.2729741 C12.2755092,15.7458069 11.8922152,16.1291192 11.4193642,16.1291192 C10.9465862,16.1291192 10.5632921,15.7458251 10.5632921,15.2729741 L10.5632921,15.1863179 L10.5632921,14.4169021 L10.5632921,14.3080254 C9.96999816,14.1547808 9.41777011,13.8434934 8.97531267,13.3922244 L8.88185168,13.4461519 L8.14047594,13.8742153 C7.73102083,14.110577 7.20741668,13.9702851 6.97101856,13.56083 C6.73463869,13.1513749 6.87494876,12.6278255 7.28440387,12.3913909 L7.35863631,12.3485736 L8.11922236,11.9094 C7.94963161,11.3006174 7.95616275,10.6667683 8.1200798,10.0762838 L8.02576136,10.0218455 L7.28438562,9.5937821 C6.87487577,9.35740222 6.73462042,8.83377985 6.97100031,8.42432472 C7.20738019,8.01488785 7.73100257,7.87457778 8.14045769,8.11103063 L8.21448945,8.1537567 L8.97534915,8.59307628 C9.18761124,8.37709255 9.4321824,8.18581037 9.70718358,8.02703798 C9.98220301,7.86830206 10.270084,7.75210977 10.5632556,7.67627192 L10.5632556,7.56823444 L10.5632557,6.7977057 L10.5632557,6.7121441 C10.5632557,6.23938435 10.9465497,5.85607204 11.4193277,5.85607204 C11.8921604,5.85607204 12.2753998,6.23938436 12.2753998,6.7121441 L12.2753998,6.79881855 L12.2753998,7.56823441 L12.2753998,7.67718405 C12.8687485,7.83037397 13.4209948,8.14173427 13.863434,8.59298503 L14.4310412,8.26524215 L14.6982707,8.11099411 C15.1077258,7.87461423 15.6312752,8.01485133 15.8676551,8.4242882 C16.1041079,8.83379805 15.9637979,9.35734746 15.5543428,9.59374558 L15.1935246,9.80208533 L14.812967,10.021809 L14.719506,10.0757183 C14.889115,10.6845556 14.8825656,11.3184412 14.7185939,11.9089074 L15.4792529,12.3480263 L15.5543427,12.3913544 C15.9638344,12.627789 16.1041444,13.1513567 15.8677646,13.5607935 Z M7.78026768,8.79362608 C7.74606078,8.83146291 7.71257112,8.86968287 7.68026768,8.90817646 L7.78026768,8.79362608 Z M15.1923831,13.0768506 L15.0923831,13.1916199 C15.1265798,13.1537101 15.1600326,13.1154719 15.1923831,13.0768506 Z M11.351517,6.75822679 L11.4838547,6.75822679 C11.4397603,6.75214889 11.3956478,6.75261639 11.351517,6.75822679 Z M11.4873209,15.3153 L11.3548555,15.3153 C11.3989681,15.3209103 11.4431536,15.3209103 11.4873209,15.3153 Z" id="形状" fill-rule="nonzero"></path>
                </g>
            </g>
        </g>
    </g>
</svg>