<?xml version="1.0" encoding="UTF-8"?>
<svg width="167px" height="132px" viewBox="0 0 167 132" version="1.1" xmlns="http://www.w3.org/2000/svg" xmlns:xlink="http://www.w3.org/1999/xlink">
    <!-- Generator: Sketch 52.5 (67469) - http://www.bohemiancoding.com/sketch -->
    <title>分组 9</title>
    <desc>Created with Sketch.</desc>
    <defs>
        <linearGradient x1="50%" y1="0%" x2="50%" y2="100%" id="linearGradient-1">
            <stop stop-color="#FFDC7A" offset="0%"></stop>
            <stop stop-color="#FFC530" offset="100%"></stop>
        </linearGradient>
        <rect id="path-2" x="41.9503546" y="10.8349515" width="86.2978723" height="102.330097" rx="4.8"></rect>
        <filter x="-25.5%" y="-19.5%" width="151.0%" height="143.0%" filterUnits="objectBoundingBox" id="filter-3">
            <feMorphology radius="2" operator="dilate" in="SourceAlpha" result="shadowSpreadOuter1"></feMorphology>
            <feOffset dx="0" dy="2" in="shadowSpreadOuter1" result="shadowOffsetOuter1"></feOffset>
            <feGaussianBlur stdDeviation="5" in="shadowOffsetOuter1" result="shadowBlurOuter1"></feGaussianBlur>
            <feColorMatrix values="0 0 0 0 1   0 0 0 0 0.776470588   0 0 0 0 0.207843137  0 0 0 0.3 0" type="matrix" in="shadowBlurOuter1"></feColorMatrix>
        </filter>
        <path d="M80.5504082,7.22330097 C81.4152681,3.06935584 84.4655539,0 88.0957447,0 C91.7259355,0 94.7762212,3.06935584 95.6410812,7.22330097 L105.469504,7.22330097 C108.12047,7.22330097 110.269504,9.37233417 110.269504,12.023301 L110.269504,22.8815534 C110.269504,24.2070368 109.194987,25.2815534 107.869504,25.2815534 L65.9248227,25.2815534 C64.5993393,25.2815534 63.5248227,24.2070368 63.5248227,22.8815534 L63.5248227,12.023301 C63.5248227,9.37233417 65.6738559,7.22330097 68.3248227,7.22330097 L80.5504082,7.22330097 Z" id="path-4"></path>
        <filter x="-18.2%" y="-25.7%" width="136.4%" height="167.2%" filterUnits="objectBoundingBox" id="filter-5">
            <feOffset dx="0" dy="2" in="SourceAlpha" result="shadowOffsetOuter1"></feOffset>
            <feGaussianBlur stdDeviation="2.5" in="shadowOffsetOuter1" result="shadowBlurOuter1"></feGaussianBlur>
            <feColorMatrix values="0 0 0 0 1   0 0 0 0 0.747867315   0 0 0 0 0.0969065657  0 0 0 1 0" type="matrix" in="shadowBlurOuter1"></feColorMatrix>
        </filter>
        <linearGradient x1="50%" y1="0%" x2="50%" y2="100%" id="linearGradient-6">
            <stop stop-color="#FFFFFF" offset="0%"></stop>
            <stop stop-color="#FFE79D" offset="100%"></stop>
        </linearGradient>
    </defs>
    <g id="Page-1" stroke="none" stroke-width="1" fill="none" fill-rule="evenodd">
        <g id="会员信息-会员-copy-38" transform="translate(-429.000000, -248.000000)">
            <g id="分组-9" transform="translate(429.000000, 251.000000)">
                <g id="分组-8">
                    <g id="分组-7">
                        <g id="矩形">
                            <use fill="black" fill-opacity="1" filter="url(#filter-3)" xlink:href="#path-2"></use>
                            <use fill="url(#linearGradient-1)" fill-rule="evenodd" xlink:href="#path-2"></use>
                        </g>
                        <g id="合并形状">
                            <use fill="black" fill-opacity="1" filter="url(#filter-5)" xlink:href="#path-4"></use>
                            <use fill="#FFC531" fill-rule="evenodd" xlink:href="#path-4"></use>
                        </g>
                        <rect id="矩形" fill="#FFFFFF" x="59.929078" y="49.3592233" width="50.3404255" height="8.42718447" rx="1.2"></rect>
                        <rect id="矩形-copy-5" fill="#FFFFFF" opacity="0.570242746" x="59.929078" y="71.0291262" width="27.5673759" height="8.42718447" rx="1.2"></rect>
                        <g id="分组-6" transform="translate(101.879433, 81.864078)">
                            <ellipse id="椭圆形" fill="url(#linearGradient-6)" cx="20.9751773" cy="21.0679612" rx="20.9751773" ry="21.0679612"></ellipse>
                            <path d="M31.0676005,15.2863743 L29.2682314,13.3457377 C29.1408714,13.2083787 28.9335031,13.2083787 28.806143,13.3457377 L17.6441765,25.3840245 L11.9456301,19.2380881 C11.81827,19.1007291 11.6109017,19.1007291 11.4835416,19.2380881 L9.68417253,21.1787248 C9.55681247,21.3160838 9.55681247,21.5397325 9.68417253,21.6770915 L17.4008861,29.9996402 C17.4678318,30.0718418 17.5560041,30.101779 17.6441765,30.096496 C17.7323488,30.100018 17.8205212,30.0718418 17.8874668,29.9996402 L31.0676005,15.7847411 C31.1949606,15.6473821 31.1949606,15.4237334 31.0676005,15.2863743 Z" id="路径" fill="#FFC531"></path>
                        </g>
                        <path d="M4.79432624,69.8252427 C5.48014445,71.6343528 6.07176202,72.8511687 6.56917895,73.4756902 C7.06659588,74.1002118 8.07308706,74.8898685 9.58865248,75.8446602 C8.23947107,76.7403515 7.28467653,77.5400014 6.72426885,78.2436097 C6.16386117,78.947218 5.52054697,80.1540407 4.79432624,81.8640777 C4.17324342,80.2280774 3.55301387,79.0212548 2.93363761,78.2436097 C2.31426136,77.4659646 1.33638215,76.6663148 -1.77635684e-15,75.8446602 C1.40652272,75.1050873 2.38440193,74.3905101 2.93363761,73.7009285 C3.4828733,73.011347 4.10310284,71.7194517 4.79432624,69.8252427 Z" id="多边形" fill="#517BF4"></path>
                        <path d="M13.4241135,0 C14.3156771,2.35184313 15.08478,3.93370372 15.731422,4.74558177 C16.378064,5.55745981 17.6865025,6.58401346 19.6567376,7.82524272 C17.9028018,8.98964147 16.6615688,10.0291862 15.9330389,10.943877 C15.2045089,11.8585679 14.3682004,13.4274373 13.4241135,15.6504854 C12.6167058,13.5236851 11.8104074,11.9548157 11.0052183,10.943877 C10.2000291,9.93293843 8.92878616,8.89339365 7.19148936,7.82524272 C9.0199689,6.86379795 10.2912119,5.93484756 11.0052183,5.03839155 C11.7192247,4.14193554 12.5255231,2.46247169 13.4241135,0 Z" id="多边形-copy-2" fill="#FFC632"></path>
                        <path d="M161.794326,16 C162.480144,17.8091101 163.071762,19.0259259 163.569179,19.6504475 C164.066596,20.2749691 165.073087,21.0646257 166.588652,22.0194175 C165.239471,22.9151088 164.284677,23.7147587 163.724269,24.418367 C163.163861,25.1219753 162.520547,26.3287979 161.794326,28.038835 C161.173243,26.4028347 160.553014,25.1960121 159.933638,24.418367 C159.314261,23.6407219 158.336382,22.841072 157,22.0194175 C158.406523,21.2798446 159.384402,20.5652674 159.933638,19.8756858 C160.482873,19.1861043 161.103103,17.894209 161.794326,16 Z" id="多边形-copy" fill="#517BF4"></path>
                    </g>
                </g>
            </g>
        </g>
    </g>
</svg>