<?xml version="1.0" encoding="UTF-8"?>
<svg width="22px" height="22px" viewBox="0 0 22 22" version="1.1" xmlns="http://www.w3.org/2000/svg" xmlns:xlink="http://www.w3.org/1999/xlink">
    <!-- Generator: Sketch 52.5 (67469) - http://www.bohemiancoding.com/sketch -->
    <title>时间</title>
    <desc>Created with Sketch.</desc>
    <g id="Page-1" stroke="none" stroke-width="1" fill="none" fill-rule="evenodd">
        <g id="会员信息-会员-copy-2" transform="translate(-44.000000, -305.000000)" fill="#3275F5">
            <g id="分组-2-copy" transform="translate(28.000000, 284.000000)">
                <g id="时间" transform="translate(16.000000, 21.000000)">
                    <circle id="椭圆形" fill-opacity="0.3" cx="11" cy="11" r="11"></circle>
                    <path d="M10.9941406,5.55078125 C7.98456641,5.55078125 5.54492188,7.99069531 5.54492188,11 C5.54492188,14.0098437 7.98456641,16.4492188 10.9941406,16.4492188 C14.0037148,16.4492188 16.4433594,14.0098437 16.4433594,11 C16.4433594,7.99068359 14.0037148,5.55078125 10.9941406,5.55078125 Z M10.9941406,15.6318359 C8.43610156,15.6318359 6.36230469,13.5580391 6.36230469,11 C6.36230469,8.44194922 8.43610156,6.36816406 10.9941406,6.36816406 C13.5521914,6.36816406 15.6259766,8.44194922 15.6259766,11 C15.6259766,13.5580391 13.5521914,15.6318359 10.9941406,15.6318359 Z M14.1133437,11.0005273 L11.3972422,11.0005273 L11.3972422,7.86722656 C11.3972422,7.64106641 11.2141836,7.45853516 10.9885508,7.45853516 C10.7626602,7.45853516 10.5798594,7.64106641 10.5798594,7.86722656 L10.5798594,11.4092188 C10.5798594,11.6348516 10.7626602,11.8179102 10.9885508,11.8179102 C11.0102773,11.8179102 11.031582,11.8161875 11.0523711,11.8129062 C11.0731836,11.8161758 11.0945234,11.8179102 11.1162617,11.8179102 L14.113332,11.8179102 C14.3389648,11.8179102 14.5220234,11.6348516 14.5220234,11.4092188 C14.5220352,11.1830586 14.3389766,11.0005273 14.1133437,11.0005273 Z" id="形状" fill-rule="nonzero"></path>
                </g>
            </g>
        </g>
    </g>
</svg>