<?xml version="1.0" encoding="UTF-8"?>
<svg width="20px" height="20px" viewBox="0 0 20 20" version="1.1" xmlns="http://www.w3.org/2000/svg" xmlns:xlink="http://www.w3.org/1999/xlink">
    <!-- Generator: Sketch 52.5 (67469) - http://www.bohemiancoding.com/sketch -->
    <title>icon-提示</title>
    <desc>Created with Sketch.</desc>
    <g id="菲卡时代2.0" stroke="none" stroke-width="1" fill="none" fill-rule="evenodd">
        <g id="卡项-单项有限次卡权益-菲卡价" transform="translate(-30.000000, -877.000000)" fill="#E94E27" fill-rule="nonzero">
            <g id="icon-提示" transform="translate(30.000000, 877.000000)">
                <path d="M3.6666407,3.05716365 C3.40628336,2.79678031 2.98405768,2.79678031 2.72398643,3.05716365 C2.46352506,3.31744297 2.46352506,3.73953861 2.72398643,4.000026 L3.6666407,4.94268027 C3.92702404,5.20306361 4.34893766,5.20306361 4.60939902,4.94268027 C4.86967834,4.68240096 4.86967834,4.26040934 4.60939902,4.000026 L3.6666407,3.05716365 Z M16.3332293,3.05716365 L15.390471,4.000026 C15.1301916,4.26040934 15.1301916,4.68240096 15.390471,4.94268027 C15.6505422,5.20306361 16.0727419,5.20306361 16.3332293,4.94268027 L17.2757795,4.000026 C17.5362669,3.73953863 17.5362669,3.31754699 17.2757795,3.05716365 C17.0155262,2.79688434 16.5936126,2.79688434 16.3332293,3.05716365 Z M2.00005205,8.33325527 L0.666796758,8.33325527 C0.298613867,8.33325527 5.20703125e-05,8.63173904 5.20703125e-05,8.99979189 C5.20703125e-05,9.36805279 0.298535859,9.66653658 0.666796758,9.66653658 L2.00005207,9.66653658 C2.36823494,9.66653658 2.66669273,9.36805279 2.66669273,8.99979189 C2.66669271,8.63173904 2.36823494,8.33325527 2.00005205,8.33325527 Z M19.3330992,8.33325527 L17.9998179,8.33325527 C17.631661,8.33325527 17.3330732,8.63173906 17.3330732,8.99979189 C17.3330732,9.36805279 17.631635,9.66653658 17.9998179,9.66653658 L19.3330992,9.66653658 C19.7012561,9.66653658 19.9999479,9.36805279 19.9999479,8.99979189 C19.9999479,8.63173904 19.7012561,8.33325527 19.3330992,8.33325527 Z M9.33325531,0.666640664 L9.33325531,1.99992197 C9.33325531,2.36818287 9.6317391,2.66653662 9.99989598,2.66653662 C10.3679488,2.66653662 10.6666407,2.36818287 10.6666407,1.99992197 L10.6666407,0.666640664 C10.6666407,0.298483789 10.3679488,0 9.99989598,0 C9.6317391,0 9.33325531,0.298483789 9.33325531,0.666640664 Z M5.33333336,9.99984391 C5.33333336,7.42258975 7.42253779,5.33328129 9.99989598,5.33328129 C12.5772542,5.33328129 14.6665626,7.42258975 14.6665626,9.99984391 C14.6665626,12.5772021 12.5772542,14.6665886 9.99989598,14.6665886 C7.42253779,14.6665886 5.33333336,12.5771761 5.33333336,9.99984391 Z M4.00007805,9.99984391 C4.00007805,13.3138279 6.68612,16.0000779 9.99989596,16.0000779 C13.3136719,16.0000779 15.9998179,13.3138279 15.9998179,9.99984391 C15.9998179,6.68606795 13.3136719,4.000026 9.99989596,4.000026 C6.68612,4.000026 4.00007805,6.68606795 4.00007805,9.99984391 Z M8.66661467,19.3332552 C8.66661467,19.701204 8.96509846,19.9999999 9.33325533,19.9999999 L10.6666407,19.9999999 C11.0347975,19.9999999 11.3332813,19.70123 11.3332813,19.3332552 C11.3332813,18.9648903 11.0347975,18.6666146 10.6666407,18.6666146 L9.33325533,18.6666146 C8.96509844,18.6666146 8.66661467,18.9648903 8.66661467,19.3332552 Z M7.33335936,17.3333332 C7.33335936,17.701204 7.63181713,17.9999739 7.99989598,17.9999739 L11.999896,17.9999739 C12.3680528,17.9999739 12.6665366,17.701204 12.6665366,17.3333332 C12.6665366,16.9648643 12.3680528,16.6664845 11.999896,16.6664845 L7.99989598,16.6664845 C7.63171311,16.6665105 7.33335936,16.9648643 7.33335936,17.3333332 Z" id="形状"></path>
            </g>
        </g>
    </g>
</svg>