<?xml version="1.0" encoding="UTF-8"?>
<svg width="6px" height="11px" viewBox="0 0 6 11" version="1.1" xmlns="http://www.w3.org/2000/svg" xmlns:xlink="http://www.w3.org/1999/xlink">
    <!-- Generator: Sketch 52.5 (67469) - http://www.bohemiancoding.com/sketch -->
    <title>下降 </title>
    <desc>Created with Sketch.</desc>
    <g id="Page-1" stroke="none" stroke-width="1" fill="none" fill-rule="evenodd">
        <g id="会员-copy-7" transform="translate(-688.000000, -302.000000)" fill="#3CBE74">
            <g id="分组-2-copy-2" transform="translate(626.000000, 269.000000)">
                <g id="下降-" transform="translate(62.000000, 33.000000)">
                    <g id="分组" transform="translate(3.210940, 5.199034) scale(1, -1) translate(-3.210940, -5.199034) translate(0.210940, 0.199034)">
                        <path d="M3.41241022,0.0003498888 L2.37291856,0.0003498888 C2.22939514,0.000349125603 2.11304613,0.125007493 2.11304518,0.278782597 C2.11304518,0.279074001 2.1130456,0.279365404 2.11304646,0.279656805 L2.11304646,6.6827753 C2.11304646,6.83639388 2.2295406,6.96208274 2.37373339,6.96208274 L3.41240387,6.96208274 C3.55592634,6.96256555 3.6726401,6.83829781 3.6730908,6.68452373 C3.67309251,6.68394092 3.67309251,6.6833581 3.6730908,6.6827753 L3.6730908,0.278787198 L3.6730908,0.27878583 C3.6730908,0.125010726 3.55674179,0.000351075274 3.41321836,0.000351075274 C3.41294638,0.000351075274 3.41267441,0.000351532738 3.41240243,0.000352447667 L3.41241022,0.0003498888 Z" id="路径"></path>
                        <path d="M3.1093656,9.67657376 L5.74230269,5.44506772 C5.8219382,5.31713527 5.78970005,5.14425747 5.67029672,5.05893371 C5.62745855,5.02832222 5.57709845,5.01203592 5.52560645,5.0121414 L0.260553449,5.0121414 C0.117030009,5.0118473 0.000459473669,5.13626803 0.000184473349,5.29004314 C8.59926787e-05,5.34521262 0.0152865743,5.39916957 0.0438572933,5.44506843 L2.67679438,9.67657447 C2.77944016,9.84241358 3.00672602,9.84241358 3.10855635,9.67657447 L3.1093656,9.67657376 Z" id="路径"></path>
                    </g>
                </g>
            </g>
        </g>
    </g>
</svg>