<?xml version="1.0" encoding="UTF-8"?>
<svg width="22px" height="22px" viewBox="0 0 22 22" version="1.1" xmlns="http://www.w3.org/2000/svg" xmlns:xlink="http://www.w3.org/1999/xlink">
    <!-- Generator: Sketch 52.5 (67469) - http://www.bohemiancoding.com/sketch -->
    <title>icon-上传图片</title>
    <desc>Created with Sketch.</desc>
    <g id="菲卡时代2.0" stroke="none" stroke-width="1" fill="none" fill-rule="evenodd">
        <g id="添加项目/服务-高级设置" transform="translate(-443.000000, -986.000000)" fill="#CCCCCC" fill-rule="nonzero">
            <g id="分组-9" transform="translate(374.000000, 952.000000)">
                <g id="icon-上传图片" transform="translate(69.000000, 34.000000)">
                    <path d="M11.4745942,22 L2.60523078,22 C1.16945915,22 0,20.8305263 0,19.3947368 L0,2.60526316 C0,1.16947368 1.16945915,0 2.60523078,0 L19.3944958,0 C20.8302675,0 21.9997266,1.16947368 21.9997266,2.60526316 L21.9997266,11.385 C21.9997266,11.8655263 21.6118367,12.2534211 21.1313164,12.2534211 C20.650796,12.2534211 20.2629061,11.8655263 20.2629061,11.385 L20.2629061,2.60526316 C20.2629061,2.12763158 19.8721215,1.73684211 19.3944958,1.73684211 L2.60523078,1.73684211 C2.12760514,1.73684211 1.73682052,2.12763158 1.73682052,2.60526316 L1.73682052,19.3947368 C1.73682052,19.8723684 2.12760514,20.2631579 2.60523078,20.2631579 L11.4745942,20.2631579 C11.9551146,20.2631579 12.3430045,20.6510526 12.3430045,21.1315789 C12.3430045,21.6121053 11.9551146,22 11.4745942,22 Z M20.9055297,18.4452632 L14.2303495,18.4452632 C13.7498291,18.4452632 13.3619392,18.0573684 13.3619392,17.5768421 C13.3619392,17.0963158 13.7498291,16.7084211 14.2303495,16.7084211 L20.9084244,16.7084211 C21.3889447,16.7084211 21.7768346,17.0963158 21.7768346,17.5768421 C21.7768346,18.0573684 21.38605,18.4452632 20.9055297,18.4452632 Z M17.5679396,21.7828947 C17.0874192,21.7828947 16.6995293,21.395 16.6995293,20.9144737 L16.6995293,14.2392105 C16.6995293,13.7586842 17.0874192,13.3707895 17.5679396,13.3707895 C18.0484599,13.3707895 18.4363498,13.7586842 18.4363498,14.2392105 L18.4363498,20.9173684 C18.4363498,21.395 18.0484599,21.7828947 17.5679396,21.7828947 Z M5.89940037,8.80578947 C4.59678498,8.80578947 3.53442976,7.74631579 3.53442976,6.44078947 C3.53442976,5.13815789 4.59389028,4.07578947 5.89940037,4.07578947 C7.20491047,4.07578947 8.26437098,5.13526316 8.26437098,6.44078947 C8.26437098,7.74342105 7.20201577,8.80578947 5.89940037,8.80578947 Z M5.89940037,5.40736842 C5.3291443,5.40736842 4.86599216,5.87052632 4.86599216,6.44078947 C4.86599216,7.01105263 5.3291443,7.47421053 5.89940037,7.47421053 C6.46965644,7.47421053 6.93280858,7.01105263 6.93280858,6.44078947 C6.93280858,5.87052632 6.46965644,5.40736842 5.89940037,5.40736842 Z M0.955251287,16.0165789 C0.69762291,16.0165789 0.442889233,15.9036842 0.272101882,15.6836842 C-0.023157607,15.3073684 0.0405258122,14.7602632 0.419731626,14.465 L5.12651524,10.7684211 C5.50282635,10.4731579 6.04992482,10.5368421 6.34518431,10.9160526 C6.6404438,11.2923684 6.57676038,11.8394737 6.19755456,12.1347368 L1.49077095,15.8313158 C1.3315624,15.9557895 1.14340684,16.0165789 0.955251287,16.0165789 Z M10.4932907,15.6257895 C10.3138192,15.6257895 10.131453,15.5707895 9.9751392,15.455 L5.3349337,12.0015789 C4.94993849,11.715 4.87178156,11.1707895 5.15546225,10.7857895 C5.43914294,10.4007895 5.9862414,10.3226316 6.37123662,10.6063158 L11.0114421,14.0597368 C11.3964373,14.3463158 11.4745942,14.8905263 11.1909136,15.2755263 C11.0201262,15.5042105 10.7596031,15.6257895 10.4932907,15.6257895 Z M10.4932907,15.6257895 C10.2443464,15.6257895 9.9954021,15.5186842 9.82461475,15.3102632 C9.51777646,14.9397368 9.56988108,14.3926316 9.94040279,14.0886842 L20.5784285,5.28868421 C20.9489502,4.98184211 21.4960487,5.03394737 21.7999923,5.40447368 C22.1068305,5.775 22.0547259,6.32210526 21.6842042,6.62605263 L11.0461785,15.4260526 C10.88697,15.5621053 10.6901303,15.6257895 10.4932907,15.6257895 Z" id="形状"></path>
                </g>
            </g>
        </g>
    </g>
</svg>