<?xml version="1.0" encoding="UTF-8"?>
<svg width="170px" height="170px" viewBox="0 0 170 170" version="1.1" xmlns="http://www.w3.org/2000/svg" xmlns:xlink="http://www.w3.org/1999/xlink">
    <!-- Generator: Sketch 52.5 (67469) - http://www.bohemiancoding.com/sketch -->
    <title>折扣</title>
    <desc>Created with Sketch.</desc>
    <defs>
        <linearGradient x1="58.9250059%" y1="91.6289933%" x2="58.9250059%" y2="0%" id="linearGradient-1">
            <stop stop-color="#FABC36" offset="0%"></stop>
            <stop stop-color="#FE9318" offset="100%"></stop>
        </linearGradient>
        <linearGradient x1="9.30275695%" y1="5.46472322%" x2="95.8052618%" y2="87.1717862%" id="linearGradient-2">
            <stop stop-color="#FDD234" offset="0%"></stop>
            <stop stop-color="#FFB641" offset="100%"></stop>
        </linearGradient>
        <linearGradient x1="50%" y1="0%" x2="50%" y2="100%" id="linearGradient-3">
            <stop stop-color="#FFCF32" offset="0%"></stop>
            <stop stop-color="#FF9525" offset="100%"></stop>
        </linearGradient>
        <linearGradient x1="50%" y1="0%" x2="50%" y2="100%" id="linearGradient-4">
            <stop stop-color="#FAD961" offset="0%"></stop>
            <stop stop-color="#F76B1C" offset="100%"></stop>
        </linearGradient>
        <linearGradient x1="0%" y1="55.8771307%" x2="100%" y2="55.8771307%" id="linearGradient-5">
            <stop stop-color="#FFE8A1" offset="0%"></stop>
            <stop stop-color="#FFC530" offset="100%"></stop>
        </linearGradient>
        <filter x="0.0%" y="0.0%" width="100.0%" height="100.0%" filterUnits="objectBoundingBox" id="filter-6">
            <feGaussianBlur stdDeviation="0 0" in="SourceGraphic"></feGaussianBlur>
        </filter>
        <linearGradient x1="0%" y1="44.8697917%" x2="100%" y2="44.8697917%" id="linearGradient-7">
            <stop stop-color="#FFEBC6" offset="0%"></stop>
            <stop stop-color="#FFD969" offset="100%"></stop>
        </linearGradient>
        <filter x="0.0%" y="0.0%" width="100.0%" height="100.0%" filterUnits="objectBoundingBox" id="filter-8">
            <feGaussianBlur stdDeviation="0 0" in="SourceGraphic"></feGaussianBlur>
        </filter>
        <filter x="-0.0%" y="0.0%" width="100.0%" height="100.0%" filterUnits="objectBoundingBox" id="filter-9">
            <feGaussianBlur stdDeviation="0 0" in="SourceGraphic"></feGaussianBlur>
        </filter>
        <filter x="-0.0%" y="0.0%" width="100.0%" height="100.0%" filterUnits="objectBoundingBox" id="filter-10">
            <feGaussianBlur stdDeviation="0 0" in="SourceGraphic"></feGaussianBlur>
        </filter>
        <filter x="-39.2%" y="-74.8%" width="186.2%" height="261.9%" filterUnits="objectBoundingBox" id="filter-11">
            <feOffset dx="0" dy="1" in="SourceAlpha" result="shadowOffsetOuter1"></feOffset>
            <feGaussianBlur stdDeviation="0.5" in="shadowOffsetOuter1" result="shadowBlurOuter1"></feGaussianBlur>
            <feColorMatrix values="0 0 0 0 1   0 0 0 0 0.6   0 0 0 0 0.149019608  0 0 0 0.313660553 0" type="matrix" in="shadowBlurOuter1" result="shadowMatrixOuter1"></feColorMatrix>
            <feMerge>
                <feMergeNode in="shadowMatrixOuter1"></feMergeNode>
                <feMergeNode in="SourceGraphic"></feMergeNode>
            </feMerge>
        </filter>
        <filter x="0.0%" y="0.0%" width="100.0%" height="100.0%" filterUnits="objectBoundingBox" id="filter-12">
            <feGaussianBlur stdDeviation="0 0" in="SourceGraphic"></feGaussianBlur>
        </filter>
        <filter x="0.0%" y="0.0%" width="100.0%" height="100.0%" filterUnits="objectBoundingBox" id="filter-13">
            <feGaussianBlur stdDeviation="0 0" in="SourceGraphic"></feGaussianBlur>
        </filter>
        <filter x="-0.0%" y="0.0%" width="100.0%" height="100.0%" filterUnits="objectBoundingBox" id="filter-14">
            <feGaussianBlur stdDeviation="0 0" in="SourceGraphic"></feGaussianBlur>
        </filter>
        <filter x="-0.0%" y="0.0%" width="100.0%" height="100.0%" filterUnits="objectBoundingBox" id="filter-15">
            <feGaussianBlur stdDeviation="0 0" in="SourceGraphic"></feGaussianBlur>
        </filter>
        <filter x="0.0%" y="0.0%" width="100.0%" height="100.0%" filterUnits="objectBoundingBox" id="filter-16">
            <feGaussianBlur stdDeviation="0 0" in="SourceGraphic"></feGaussianBlur>
        </filter>
        <filter x="0.0%" y="0.0%" width="100.0%" height="100.0%" filterUnits="objectBoundingBox" id="filter-17">
            <feGaussianBlur stdDeviation="0 0" in="SourceGraphic"></feGaussianBlur>
        </filter>
        <filter x="-0.0%" y="0.0%" width="100.0%" height="100.0%" filterUnits="objectBoundingBox" id="filter-18">
            <feGaussianBlur stdDeviation="0 0" in="SourceGraphic"></feGaussianBlur>
        </filter>
        <filter x="-0.0%" y="0.0%" width="100.0%" height="100.0%" filterUnits="objectBoundingBox" id="filter-19">
            <feGaussianBlur stdDeviation="0 0" in="SourceGraphic"></feGaussianBlur>
        </filter>
        <filter x="0.0%" y="0.0%" width="100.0%" height="100.0%" filterUnits="objectBoundingBox" id="filter-20">
            <feGaussianBlur stdDeviation="0 0" in="SourceGraphic"></feGaussianBlur>
        </filter>
        <filter x="0.0%" y="0.0%" width="100.0%" height="100.0%" filterUnits="objectBoundingBox" id="filter-21">
            <feGaussianBlur stdDeviation="0 0" in="SourceGraphic"></feGaussianBlur>
        </filter>
        <filter x="0.0%" y="0.0%" width="100.0%" height="100.0%" filterUnits="objectBoundingBox" id="filter-22">
            <feGaussianBlur stdDeviation="0 0" in="SourceGraphic"></feGaussianBlur>
        </filter>
        <filter x="-0.0%" y="0.0%" width="100.0%" height="100.0%" filterUnits="objectBoundingBox" id="filter-23">
            <feGaussianBlur stdDeviation="0 0" in="SourceGraphic"></feGaussianBlur>
        </filter>
    </defs>
    <g id="Page-1" stroke="none" stroke-width="1" fill="none" fill-rule="evenodd">
        <g id="会员-copy" transform="translate(-586.000000, -56.000000)">
            <g id="折扣" transform="translate(576.000000, 41.000000)">
                <g transform="translate(10.000000, 15.000000)" id="会员折扣">
                    <g transform="translate(3.000000, 25.000000)">
                        <path d="M104.733,110.2304 C115.71187,110.816272 124.29787,110.816272 130.491,110.2304 C136.271881,109.683527 144.450666,111.416247 155.027355,115.42856 L153.333,112.42974 L155.690385,111.451333 C147.196872,108.745427 139.526077,107.392474 132.678,107.392474 C125.829923,107.392474 121.293923,106.505982 119.07,104.733 L104.733,110.2304 Z" id="路径-15" fill="#FD9E20" opacity="0.15"></path>
                        <path d="M9.77106598,70.6304058 C14.1390745,65.9958301 19.6748375,64.8598526 26.378355,67.2224732 C32.7916328,69.4828004 30.0183716,83.0493907 30.0183716,83.5160504 C30.0183716,83.98271 27.0820821,91.47169 38.9753184,89.3516099 C50.8685547,87.2315298 60.9613604,92.6011417 63.2768609,100.44857 C63.2768609,100.44857 61.2513467,99.5380323 57.2003184,97.7169561 C55.9079571,101.271543 55.2617764,103.630352 55.2617764,104.793382 C55.2617764,106.537927 53.9023765,95.7068668 47.7233184,94.6546578 C41.5442603,93.6024488 29.2894161,95.9720316 24.3953184,90.1567847 C22.4076543,87.7950098 24.2301543,81.2970142 22.4076543,76.1605543 C21.3969197,73.3119408 17.1847236,71.468558 9.77106598,70.6304058 Z" id="路径-12-copy" fill="#FFAE2E" transform="translate(36.523963, 85.504498) rotate(167.000000) translate(-36.523963, -85.504498) "></path>
                        <g id="分组-6" transform="translate(19.197000, 42.525000)">
                            <polygon id="路径-9" fill="#5D83F3" points="0.243 16.038 0.243 57.5845928 63.0808066 77.0440518 63.0808066 35.5088496"></polygon>
                            <polygon id="路径-9-copy" fill="#5D83F3" points="118.341 16.1027842 118.341 54.9049482 62.937 77.0440518 62.937 35.5088496"></polygon>
                            <polygon id="路径-10" fill="#517BF4" points="0.228405762 16.1145308 62.8996245 35.5818208 118.341 16.1145308 65.7801 0"></polygon>
                            <polygon id="路径-10-copy" fill="#3655D0" points="9.72 15.8856504 63.3015 33.2228936 111.78 15.8856504 65.853 2.187"></polygon>
                        </g>
                        <g id="分组-7" transform="translate(104.733000, 76.788000)">
                            <path d="M0.243,33.3987363 C2.28904102,31.69477 7.75262549,29.2749741 4.617,23.3418823 C1.48137451,17.4087905 1.22650928,3.24419238 8.262,4.22307422 C12.9523271,4.87566211 14.8963271,5.66208984 14.094,6.58235742 C13.7873913,11.067658 14.6375353,15.4154358 16.6444321,19.6256909 C18.534564,23.5909856 16.9757588,27.2709966 14.6927197,28.6417266 C8.87667111,32.133665 -0.270228559,33.8261589 0.243,33.3987363 Z" id="路径-11" fill="url(#linearGradient-1)"></path>
                            <path d="M5.01234961,5.14993697 C10.4429778,-0.113072924 16.000614,-1.18171858 21.6852583,1.944 C26.487,4.58425195 25.3900591,16.2931412 25.3900591,16.5497476 C25.3900591,16.806354 24.3,24.4000239 34.5502524,23.0827538 C44.8005048,21.7654836 56.5362944,26.3322855 58.8517949,34.1797142 C58.8517949,34.1797142 56.8262807,33.2691761 52.7752524,31.4481 C51.4828911,35.0026869 50.8367104,37.3614955 50.8367104,38.5245257 C50.8367104,40.2690711 49.4773105,29.4380106 43.2982524,28.3858016 C37.1191943,27.3335926 24.8643501,29.7031754 19.9702524,23.8879286 C17.9825883,21.5261537 19.8050883,15.0281581 17.9825883,9.8916981 C16.9718537,7.04308464 12.6484408,5.46249759 5.01234961,5.14993697 Z" id="路径-12" fill="url(#linearGradient-2)"></path>
                        </g>
                        <g id="character-1" transform="translate(38.637000, 50.544000) scale(-1, 1) translate(-38.637000, -50.544000) translate(24.543000, 25.272000)">
                            <path d="M0,30.5606878 C0.000196019527,30.1156206 0.214249343,29.4069306 0.482012017,28.6728959 L0.482012017,27.729 L1.44564401,27.729 C1.44564401,28.043504 1.3492024,28.7986591 1.606184,28.9875919 C1.8631656,29.1763327 2.088,31.1113578 2.088,31.5045838 C2.088,31.8978098 1.606184,31.3473318 1.606184,31.3473318 C1.5418896,32.3540134 1.044,32.2912278 0.642552009,32.2912278 C0.080368006,32.2912278 0,31.0326358 0,30.5606878 Z" id="Shape" fill="#FCD8E3" fill-rule="nonzero"></path>
                            <path d="M24.8676915,3.43760211 L23.664,4.44315902 L24.5238341,5.616 L25.2976085,4.694363 C25.5268469,4.49892038 26.0542473,4.10784988 26.3293713,4.10784988 C26.6732288,4.10784988 27.618932,2.9350089 28.048849,2.26457588 C28.4787661,1.5943281 27.7910511,0.0861779836 27.618932,0.00244332523 C27.4470033,-0.0812913331 25.7275256,2.0133719 25.641466,2.26457588 C25.5727326,2.46576136 25.0969298,3.13045152 24.8676915,3.43760211 Z" id="Shape" fill="#FCD8E3" fill-rule="nonzero"></path>
                            <path d="M14.5026161,36.0368799 C13.3098548,36.3927271 12.1832251,36.7312034 11.122727,37.0523088 L11.368452,34.647581 L9.45611714,30.3509557 L7.46703495,36.7568023 L6.85964322,38.3604501 C5.68097604,38.7280015 4.62501073,39.0633225 3.6917473,39.3664132 L4.33066389,36.7568023 L5.63107399,25.4294395 C6.7021757,25.5596807 8.96650265,25.7417896 9.45611714,25.4294395 C9.94554489,25.1168987 11.7254859,24.7263657 12.3629931,24.57 L14.964,34.647581 L14.5026161,36.0368799 Z" id="合并形状" fill="#293354" fill-rule="nonzero"></path>
                            <path d="M0.153654487,22.0726459 L0,28.431 L1.76768324,28.431 L3.15113646,22.8575002 L5.45689182,18.7757216 L5.91804289,21.2876001 C5.91804289,21.8528637 5.61073392,24.5059623 5.45689182,25.7619974 C5.84130945,25.8405594 6.96341871,26.0289168 8.37764035,26.1544245 C9.79186199,26.2801238 11.9899279,25.1601353 12.91223,24.5845244 C12.91223,23.9566027 12.528,20.3456217 12.91223,19.7960704 C13.2966477,19.2467108 13.2966477,16.4207756 13.4503021,15.1647406 C13.5731882,14.1599125 17.4470073,12.4434271 18.4460429,11.7892542 L25.056,5.58783262 C24.9944632,5.14826826 24.107995,4.25342712 23.6725468,3.861 L22.7502446,4.56748379 L16.4477841,8.72782443 L11.3751223,11.0827704 C11.1188439,11.8155054 10.5297412,12.9824396 9.60743908,13.0452892 C8.68513694,13.1081389 7.7371319,12.495738 7.45533821,11.9461867 L3.15113646,14.6937514 L0.153654487,22.0726459 Z" id="Shape" fill="#6885EF" fill-rule="nonzero"></path>
                            <path d="M8.82128068,9.99878217 C8.82128068,10.3691399 8.72215512,11.4129953 8.5985653,11.6958002 C8.96969719,12.0558023 9.84569893,12.7447393 10.3802883,12.6214122 C10.9146965,12.4978969 11.1473788,11.3872001 11.196851,10.8473853 C11.0187149,10.4770276 11.1527298,9.88808695 11.196851,9.61317328 C11.2562901,9.24281551 11.7564497,8.75452958 12.0007158,8.39387556 C12.3969534,7.80883858 12.2794123,5.57926303 12.2051134,5.34786003 C12.1308145,5.11645703 11.2711498,4.21370729 9.71214219,3.9051072 C8.15313455,3.5966954 7.26227304,4.98511337 7.03937644,5.60212526 C6.81666107,6.21913716 7.03937644,7.99335231 8.00453682,8.91896429 C8.77670136,9.65949153 8.82128068,9.81878115 8.82128068,9.99878217 Z" id="Shape" fill="#FCD8E3" fill-rule="nonzero"></path>
                            <path d="M7.308,12.2460635 L7.92676454,11.3100635 L9.86007341,11.8559365 L10.9426282,10.53 L11.484,11.3100635 L10.9426282,12.87 L10.5560419,12.5078617 C10.5043209,12.550511 10.3548208,12.6672254 10.1692669,12.7919365 C9.98371306,12.9168381 9.69584975,12.9480635 9.57504154,12.9480635 L9.47329838,13.338 L7.308,12.2460635 Z" id="Shape" fill="#A4B6F5" fill-rule="nonzero"></path>
                            <path d="M7.33079678,8.23954849 C7.05119529,7.6700361 6.49199231,5.13645241 6.75007417,3.9335838 C7.07271492,2.42975982 10.5572043,1.40460576 10.3635276,0.584323699 C11.073368,0.926094658 12.557454,2.59381624 12.557454,4.6169669 C12.557454,6.57293862 12.3645459,7.22042941 12.2770839,7.69814644 C12.266939,7.8514034 12.2523364,7.98861999 12.2348132,8.10280834 C12.2348132,7.96352714 12.2514141,7.8380629 12.2770839,7.69814644 C12.3411817,6.7203194 12.2191346,5.08976065 11.4605677,4.6169669 C10.3635276,3.9335838 9.07311833,3.7501519 7.91167311,4.6169669 C7.00830974,5.29129752 7.15879345,7.68560002 7.33079678,8.23954849 Z" id="Shape" fill="#7D7D7D" fill-rule="nonzero"></path>
                            <path d="M9.00853608,8.03445087 C9.00853608,8.27648567 9.3337989,8.47269364 9.73503093,8.47269364 C10.136263,8.47269364 10.4615258,8.27648567 10.4615258,8.03445087" id="路径" fill="#D14B42"></path>
                        </g>
                        <path d="M116.271694,63.7319875 L82.377,75.746707 L48.1634504,64.6618672 C48.454484,60.3815811 48.6,56.0404415 48.6,51.6384492 C48.6,38.7917175 47.0852264,25.2233705 44.0556792,10.9334082 C43.6938436,9.22667496 44.7840978,7.5497681 46.4908308,7.18793171 C46.6601296,7.15203948 46.8320915,7.13012012 47.0049807,7.12239492 L108.206627,4.38772674 C109.726069,4.31983347 111.078183,5.34432433 111.423931,6.82546386 C114.424954,19.6814846 116.082644,33.171149 116.397,47.294457 C116.51982,52.8124839 116.478052,58.2916607 116.271694,63.7319875 Z" id="合并形状" fill="url(#linearGradient-3)"></path>
                        <g id="分组-9" transform="translate(106.985044, 10.419128) rotate(-8.000000) translate(-106.985044, -10.419128) translate(103.485044, 6.919128)">
                            <circle id="椭圆形" fill="#FFFFFF" cx="3.159" cy="3.159" r="3.159"></circle>
                            <text id="折" font-family="PingFangSC-Medium, PingFang SC" font-size="3.402" font-weight="400" fill="#FF9B26">
                                <tspan x="1.458" y="4.729">折</tspan>
                            </text>
                        </g>
                        <ellipse id="椭圆形" fill="#F7F8FA" cx="63.423" cy="118.341" rx="5.832" ry="1.458"></ellipse>
                        <rect id="矩形" fill="#FFFFFF" opacity="0.648251488" transform="translate(78.975000, 57.751276) rotate(-2.000000) translate(-78.975000, -57.751276) " x="69.255" y="56.7792764" width="19.44" height="1.944" rx="0.972"></rect>
                        <rect id="矩形-copy-5" fill="#FFFFFF" opacity="0.648251488" transform="translate(85.289299, 62.337291) rotate(-2.000000) translate(-85.289299, -62.337291) " x="69.4942993" y="61.3652909" width="31.59" height="1.944" rx="0.972"></rect>
                        <path d="M36.421457,14.308457 C36.5940065,14.308457 36.7338855,14.448336 36.7338855,14.6208855 L36.7338855,15.8705998 C36.7338855,16.0431493 36.5940065,16.1830284 36.421457,16.1830284 C36.2489074,16.1830284 36.1090284,16.0431493 36.1090284,15.8705998 L36.1090284,14.6208855 C36.1090284,14.448336 36.2489074,14.308457 36.421457,14.308457 Z M34.234457,16.495457 C34.234457,16.3229074 34.374336,16.1830284 34.5468855,16.1830284 L35.7965998,16.1830284 C35.9691493,16.1830284 36.1090284,16.3229074 36.1090284,16.495457 C36.1090284,16.6680065 35.9691493,16.8078855 35.7965998,16.8078855 L34.5468855,16.8078855 C34.374336,16.8078855 34.234457,16.6680065 34.234457,16.495457 Z M36.421457,16.8078855 C36.5940065,16.8078855 36.7338855,16.9477646 36.7338855,17.1203141 L36.7338855,18.3700284 C36.7338855,18.5425779 36.5940065,18.682457 36.421457,18.682457 C36.2489074,18.682457 36.1090284,18.5425779 36.1090284,18.3700284 L36.1090284,17.1203141 C36.1090284,16.9477646 36.2489074,16.8078855 36.421457,16.8078855 Z M36.7338855,16.495457 C36.7338855,16.3229074 36.8737646,16.1830284 37.0463141,16.1830284 L38.2960284,16.1830284 C38.4685779,16.1830284 38.608457,16.3229074 38.608457,16.495457 C38.608457,16.6680065 38.4685779,16.8078855 38.2960284,16.8078855 L37.0463141,16.8078855 C36.8737646,16.8078855 36.7338855,16.6680065 36.7338855,16.495457 Z" id="合并形状-copy-2" fill="url(#linearGradient-4)" opacity="0.521902902" transform="translate(36.421457, 16.495457) rotate(24.000000) translate(-36.421457, -16.495457) "></path>
                        <path d="M147.229457,42.496457 C147.402006,42.496457 147.541886,42.636336 147.541886,42.8088855 L147.541886,44.0585998 C147.541886,44.2311493 147.402006,44.3710284 147.229457,44.3710284 C147.056907,44.3710284 146.917028,44.2311493 146.917028,44.0585998 L146.917028,42.8088855 C146.917028,42.636336 147.056907,42.496457 147.229457,42.496457 Z M145.042457,44.683457 C145.042457,44.5109074 145.182336,44.3710284 145.354886,44.3710284 L146.6046,44.3710284 C146.777149,44.3710284 146.917028,44.5109074 146.917028,44.683457 C146.917028,44.8560065 146.777149,44.9958855 146.6046,44.9958855 L145.354886,44.9958855 C145.182336,44.9958855 145.042457,44.8560065 145.042457,44.683457 Z M147.229457,44.9958855 C147.402006,44.9958855 147.541886,45.1357646 147.541886,45.3083141 L147.541886,46.5580284 C147.541886,46.7305779 147.402006,46.870457 147.229457,46.870457 C147.056907,46.870457 146.917028,46.7305779 146.917028,46.5580284 L146.917028,45.3083141 C146.917028,45.1357646 147.056907,44.9958855 147.229457,44.9958855 Z M147.541886,44.683457 C147.541886,44.5109074 147.681765,44.3710284 147.854314,44.3710284 L149.104028,44.3710284 C149.276578,44.3710284 149.416457,44.5109074 149.416457,44.683457 C149.416457,44.8560065 149.276578,44.9958855 149.104028,44.9958855 L147.854314,44.9958855 C147.681765,44.9958855 147.541886,44.8560065 147.541886,44.683457 Z" id="合并形状-copy-4" fill="url(#linearGradient-4)" opacity="0.521902902" transform="translate(147.229457, 44.683457) rotate(24.000000) translate(-147.229457, -44.683457) "></path>
                        <path d="M119.284457,0.700456954 C119.457006,0.700456954 119.596886,0.84033599 119.596886,1.01288553 L119.596886,2.26259981 C119.596886,2.43514935 119.457006,2.57502838 119.284457,2.57502838 C119.111907,2.57502838 118.972028,2.43514935 118.972028,2.26259981 L118.972028,1.01288553 C118.972028,0.84033599 119.111907,0.700456954 119.284457,0.700456954 Z M117.097457,2.88745695 C117.097457,2.71490742 117.237336,2.57502838 117.409886,2.57502838 L118.6596,2.57502838 C118.832149,2.57502838 118.972028,2.71490742 118.972028,2.88745695 C118.972028,3.06000649 118.832149,3.19988553 118.6596,3.19988553 L117.409886,3.19988553 C117.237336,3.19988553 117.097457,3.06000649 117.097457,2.88745695 Z M119.284457,3.19988553 C119.457006,3.19988553 119.596886,3.33976456 119.596886,3.5123141 L119.596886,4.76202838 C119.596886,4.93457792 119.457006,5.07445695 119.284457,5.07445695 C119.111907,5.07445695 118.972028,4.93457792 118.972028,4.76202838 L118.972028,3.5123141 C118.972028,3.33976456 119.111907,3.19988553 119.284457,3.19988553 Z M119.596886,2.88745695 C119.596886,2.71490742 119.736765,2.57502838 119.909314,2.57502838 L121.159028,2.57502838 C121.331578,2.57502838 121.471457,2.71490742 121.471457,2.88745695 C121.471457,3.06000649 121.331578,3.19988553 121.159028,3.19988553 L119.909314,3.19988553 C119.736765,3.19988553 119.596886,3.06000649 119.596886,2.88745695 Z" id="合并形状-copy-3" fill="url(#linearGradient-4)" opacity="0.521902902" transform="translate(119.284457, 2.887457) rotate(24.000000) translate(-119.284457, -2.887457) "></path>
                        <path d="M6.04645695,33.262457 C6.21900649,33.262457 6.35888553,33.402336 6.35888553,33.5748855 L6.35888553,34.8245998 C6.35888553,34.9971493 6.21900649,35.1370284 6.04645695,35.1370284 C5.87390742,35.1370284 5.73402838,34.9971493 5.73402838,34.8245998 L5.73402838,33.5748855 C5.73402838,33.402336 5.87390742,33.262457 6.04645695,33.262457 Z M3.85945695,35.449457 C3.85945695,35.2769074 3.99933599,35.1370284 4.17188553,35.1370284 L5.42159981,35.1370284 C5.59414935,35.1370284 5.73402838,35.2769074 5.73402838,35.449457 C5.73402838,35.6220065 5.59414935,35.7618855 5.42159981,35.7618855 L4.17188553,35.7618855 C3.99933599,35.7618855 3.85945695,35.6220065 3.85945695,35.449457 Z M6.04645695,35.7618855 C6.21900649,35.7618855 6.35888553,35.9017646 6.35888553,36.0743141 L6.35888553,37.3240284 C6.35888553,37.4965779 6.21900649,37.636457 6.04645695,37.636457 C5.87390742,37.636457 5.73402838,37.4965779 5.73402838,37.3240284 L5.73402838,36.0743141 C5.73402838,35.9017646 5.87390742,35.7618855 6.04645695,35.7618855 Z M6.35888553,35.449457 C6.35888553,35.2769074 6.49876456,35.1370284 6.6713141,35.1370284 L7.92102838,35.1370284 C8.09357792,35.1370284 8.23345695,35.2769074 8.23345695,35.449457 C8.23345695,35.6220065 8.09357792,35.7618855 7.92102838,35.7618855 L6.6713141,35.7618855 C6.49876456,35.7618855 6.35888553,35.6220065 6.35888553,35.449457 Z" id="合并形状-copy-5" fill="url(#linearGradient-4)" opacity="0.521902902" transform="translate(6.046457, 35.449457) rotate(24.000000) translate(-6.046457, -35.449457) "></path>
                        <g id="分组-2-copy-5" transform="translate(138.768929, 29.422208) scale(-1, 1) rotate(41.000000) translate(-138.768929, -29.422208) translate(133.665929, 26.749208)">
                            <path d="M0.00205744735,3.64735922 L0,3.64735922 L0,1.60899029 L10.206,1.60899029 L10.206,3.64735922 L10.2039426,3.64735922 C10.1264953,4.70797522 7.87237132,5.346 5.103,5.346 C2.33362868,5.346 0.0795046794,4.70797522 0.00205744735,3.64735922 Z" id="合并形状" fill="url(#linearGradient-5)" filter="url(#filter-6)"></path>
                            <path d="M5.103,3.42559223 C7.92130908,3.42559223 10.206,2.75931262 10.206,1.65570291 C10.206,0.552093209 7.92130908,0 5.103,0 C2.28469092,0 0,0.552093209 0,1.65570291 C0,2.75931262 2.28469092,3.42559223 5.103,3.42559223 Z" id="椭圆形" fill="url(#linearGradient-7)" filter="url(#filter-8)"></path>
                            <path d="M5.10801318,2.75085437 C7.30566613,2.75085437 8.97512563,2.19737367 8.97512563,1.67750214 C8.97512563,0.857439665 7.30566613,0.467126214 5.10801318,0.467126214 C2.91036023,0.467126214 1.177615,0.918819591 1.12881051,1.67750214 C1.0933992,2.22798321 2.91036023,2.75085437 5.10801318,2.75085437 Z" id="椭圆形-copy" fill="#FFBB59" filter="url(#filter-9)"></path>
                            <path d="M5.3760423,1.91867886 L5.3760423,1.92040777 L3.59005025,1.40051419 L5.3760423,0.883600509 L5.3760423,0.882349515 L7.12881407,1.40051419 L5.3760423,1.91867886 Z" id="合并形状" fill="#FBD789" filter="url(#filter-10)"></path>
                        </g>
                        <g id="分组-2-copy-11" filter="url(#filter-11)" transform="translate(70.485929, 6.580208) scale(-1, 1) rotate(41.000000) translate(-70.485929, -6.580208) translate(65.382929, 3.907208)">
                            <path d="M0.00205744735,3.64735922 L0,3.64735922 L0,1.60899029 L10.206,1.60899029 L10.206,3.64735922 L10.2039426,3.64735922 C10.1264953,4.70797522 7.87237132,5.346 5.103,5.346 C2.33362868,5.346 0.0795046794,4.70797522 0.00205744735,3.64735922 Z" id="合并形状" fill="url(#linearGradient-5)" filter="url(#filter-12)"></path>
                            <path d="M5.103,3.42559223 C7.92130908,3.42559223 10.206,2.75931262 10.206,1.65570291 C10.206,0.552093209 7.92130908,0 5.103,0 C2.28469092,0 0,0.552093209 0,1.65570291 C0,2.75931262 2.28469092,3.42559223 5.103,3.42559223 Z" id="椭圆形" fill="url(#linearGradient-7)" filter="url(#filter-13)"></path>
                            <path d="M5.10801318,2.75085437 C7.30566613,2.75085437 8.97512563,2.19737367 8.97512563,1.67750214 C8.97512563,0.857439665 7.30566613,0.467126214 5.10801318,0.467126214 C2.91036023,0.467126214 1.177615,0.918819591 1.12881051,1.67750214 C1.0933992,2.22798321 2.91036023,2.75085437 5.10801318,2.75085437 Z" id="椭圆形-copy" fill="#FFBB59" filter="url(#filter-14)"></path>
                            <path d="M5.3760423,1.91867886 L5.3760423,1.92040777 L3.59005025,1.40051419 L5.3760423,0.883600509 L5.3760423,0.882349515 L7.12881407,1.40051419 L5.3760423,1.91867886 Z" id="合并形状" fill="#FBD789" filter="url(#filter-15)"></path>
                        </g>
                        <g id="分组-2-copy-10" transform="translate(64.896929, 114.472208) scale(-1, 1) rotate(41.000000) translate(-64.896929, -114.472208) translate(59.793929, 111.799208)">
                            <path d="M0.00205744735,3.64735922 L0,3.64735922 L0,1.60899029 L10.206,1.60899029 L10.206,3.64735922 L10.2039426,3.64735922 C10.1264953,4.70797522 7.87237132,5.346 5.103,5.346 C2.33362868,5.346 0.0795046794,4.70797522 0.00205744735,3.64735922 Z" id="合并形状" fill="url(#linearGradient-5)" filter="url(#filter-16)"></path>
                            <path d="M5.103,3.42559223 C7.92130908,3.42559223 10.206,2.75931262 10.206,1.65570291 C10.206,0.552093209 7.92130908,0 5.103,0 C2.28469092,0 0,0.552093209 0,1.65570291 C0,2.75931262 2.28469092,3.42559223 5.103,3.42559223 Z" id="椭圆形" fill="url(#linearGradient-7)" filter="url(#filter-17)"></path>
                            <path d="M5.10801318,2.75085437 C7.30566613,2.75085437 8.97512563,2.19737367 8.97512563,1.67750214 C8.97512563,0.857439665 7.30566613,0.467126214 5.10801318,0.467126214 C2.91036023,0.467126214 1.177615,0.918819591 1.12881051,1.67750214 C1.0933992,2.22798321 2.91036023,2.75085437 5.10801318,2.75085437 Z" id="椭圆形-copy" fill="#FFBB59" filter="url(#filter-18)"></path>
                            <path d="M5.3760423,1.91867886 L5.3760423,1.92040777 L3.59005025,1.40051419 L5.3760423,0.883600509 L5.3760423,0.882349515 L7.12881407,1.40051419 L5.3760423,1.91867886 Z" id="合并形状" fill="#FBD789" filter="url(#filter-19)"></path>
                        </g>
                        <g id="分组-2-copy-9" transform="translate(13.047961, 56.613305) scale(-1, 1) rotate(-37.000000) translate(-13.047961, -56.613305) translate(1.505461, 50.538305)">
                            <path d="M0.00465374996,8.28945278 L0,8.28945278 L0,3.65679612 L23.085,3.65679612 L23.085,8.28945278 L23.0803463,8.28945278 C22.905168,10.6999437 17.8065542,12.15 11.5425,12.15 C5.27844583,12.15 0.179832013,10.6999437 0.00465374996,8.28945278 Z" id="合并形状" fill="url(#linearGradient-5)" filter="url(#filter-20)"></path>
                            <path d="M11.5425,7.78543689 C17.9172467,7.78543689 23.085,6.27116504 23.085,3.76296117 C23.085,1.25475729 17.9172467,0 11.5425,0 C5.16775328,0 0,1.25475729 0,3.76296117 C0,6.27116504 5.16775328,7.78543689 11.5425,7.78543689 Z" id="椭圆形" fill="url(#linearGradient-7)" filter="url(#filter-21)"></path>
                            <path d="M11.5538393,6.25194175 C16.524721,6.25194175 20.3008794,4.99403107 20.3008794,3.81250485 C20.3008794,1.94872651 16.524721,1.06165049 11.5538393,1.06165049 C6.58295766,1.06165049 2.66365297,2.08822634 2.55326187,3.81250485 C2.47316485,5.06359821 6.58295766,6.25194175 11.5538393,6.25194175 Z" id="椭圆形-copy" fill="#FFBB59" filter="url(#filter-22)"></path>
                            <path d="M12.1600957,4.36063378 L12.1600957,4.36456311 L8.12035176,3.18298679 L12.1600957,2.00818297 L12.1600957,2.00533981 L16.1246985,3.18298679 L12.1600957,4.36063378 Z" id="合并形状" fill="#FBD789" filter="url(#filter-23)"></path>
                        </g>
                        <g id="会员1" transform="translate(82.147953, 32.575953) rotate(-2.000000) translate(-82.147953, -32.575953) translate(67.567953, 17.995953)">
                            <rect id="矩形" fill="#2E2E2E" opacity="0" x="0" y="0" width="29.16" height="29.16"></rect>
                            <path d="M23.6323369,5.21479763 C23.4624622,4.57867156 22.9691304,4.30192336 22.3234719,4.39689223 C21.6094605,4.50234224 21.2777696,4.95668898 21.3377134,5.66987018 C21.3646925,5.99164953 21.4208113,6.2851211 21.064594,6.49814057 C19.8769304,7.20847648 18.7017928,7.9389327 17.5218375,8.66172405 C17.0121548,8.02490119 16.516458,7.37631972 15.9901323,6.75401365 C15.5747011,6.2636072 15.1539267,5.84459437 15.605038,5.11068316 C15.8767851,4.66745632 15.5823218,4.21162886 15.1923223,3.9077923 C14.7919282,3.59637797 14.345839,3.55189851 13.8944065,3.82728214 C13.4500108,4.09787525 13.1340869,4.58273627 13.355146,4.98787106 C13.8727999,5.93889549 13.2075786,6.41141724 12.7348899,6.99539897 C12.3107577,7.5199199 11.8893701,8.04711191 11.4662599,8.57293933 C10.0512012,8.11783772 8.99875416,7.05863414 7.73330675,6.35584694 C7.43750038,6.19148777 7.56208883,5.93889549 7.57674631,5.69690049 C7.62378451,4.93378149 7.24312834,4.46146297 6.49440043,4.3781946 C5.84658126,4.30671389 5.37427213,4.63769688 5.25739199,5.28973333 C5.12375212,6.02843509 5.44233301,6.570231 6.21009814,6.68950099 C6.692831,6.76585933 6.84635482,7.01482242 6.9645781,7.4296254 C7.35133668,8.79211392 7.80125083,10.1378501 8.16689917,11.5065518 C8.2966849,11.9927484 8.46396105,12.2307368 9.00570335,12.2182233 C10.7540004,12.1766182 12.5036407,12.1745277 14.2522881,12.1572237 C16.1748105,12.1766182 18.0985593,12.1704631 20.0202349,12.2293432 C20.5960222,12.2466182 20.7550937,11.9608695 20.8783099,11.5161329 C21.2484255,10.187846 21.6260743,8.86214299 22.0087451,7.53716585 C22.1243698,7.1361248 22.2264465,6.77753089 22.7716634,6.66380628 C23.5097632,6.50853461 23.8285776,5.94943469 23.6323369,5.21479763 Z M6.28723963,20.7888824 L4.20225877,14.9847765 L1.701,14.9847765 L1.701,15.5653322 L5.70327681,25.515 L6.95380399,25.515 L11.081662,15.6486877 L11.081662,14.9847765 L8.49628339,14.9847765 L6.28723963,20.7888824 Z M16.0009648,17.3898033 L17.084683,17.3898033 L17.084683,14.9847765 L12.2905234,14.9847765 L12.2905234,17.3898033 L13.4996185,17.3898033 L13.4996185,23.1100893 L12.2905234,23.1100893 L12.2905234,25.515 L17.2929534,25.515 L17.2929534,23.1516073 L16.0009648,23.0690938 L16.0009648,17.3898033 Z M24.6728419,14.9847765 L19.5444804,14.9847765 L19.5444804,25.515 L21.9210923,25.515 L21.9210923,22.9033991 L24.4642212,22.7785837 C24.4642212,22.7785837 27.216,22.3228433 27.216,18.8403798 C27.216,15.3580324 24.6728419,14.9847765 24.6728419,14.9847765 Z M24.0057812,20.2499608 L22.0461479,20.2499608 L22.0461479,17.4306826 L23.8802292,17.4306826 C23.8802292,17.4306826 24.8395049,17.8040256 24.8395049,18.8404088 C24.8395049,19.876792 24.0057812,20.2499608 24.0057812,20.2499608 Z" id="形状" stroke="#FFFFFF" stroke-width="0.5" fill="#FFFFFF" fill-rule="nonzero"></path>
                        </g>
                    </g>
                </g>
            </g>
        </g>
    </g>
</svg>