<?xml version="1.0" encoding="UTF-8"?>
<svg width="170px" height="170px" viewBox="0 0 170 170" version="1.1" xmlns="http://www.w3.org/2000/svg" xmlns:xlink="http://www.w3.org/1999/xlink">
    <!-- Generator: Sketch 52.5 (67469) - http://www.bohemiancoding.com/sketch -->
    <title>会员 copy</title>
    <desc>Created with Sketch.</desc>
    <defs>
        <linearGradient x1="0%" y1="55.8771307%" x2="100%" y2="55.8771307%" id="linearGradient-1">
            <stop stop-color="#FFE8A1" offset="0%"></stop>
            <stop stop-color="#FFC530" offset="100%"></stop>
        </linearGradient>
        <linearGradient x1="0%" y1="44.8697917%" x2="100%" y2="44.8697917%" id="linearGradient-2">
            <stop stop-color="#FFEBC6" offset="0%"></stop>
            <stop stop-color="#FFD969" offset="100%"></stop>
        </linearGradient>
        <rect id="path-3" x="0" y="0" width="9.12912" height="11.72528" rx="0.57456"></rect>
        <ellipse id="path-5" cx="4.56456" cy="0.86184" rx="5.62856" ry="3.3516"></ellipse>
        <filter x="-13.3%" y="-22.4%" width="126.6%" height="144.8%" filterUnits="objectBoundingBox" id="filter-6">
            <feOffset dx="0" dy="0" in="SourceAlpha" result="shadowOffsetOuter1"></feOffset>
            <feGaussianBlur stdDeviation="0.5" in="shadowOffsetOuter1" result="shadowBlurOuter1"></feGaussianBlur>
            <feColorMatrix values="0 0 0 0 0.822624362   0 0 0 0 0.223283363   0 0 0 0 0.00517710645  0 0 0 0.345391757 0" type="matrix" in="shadowBlurOuter1"></feColorMatrix>
        </filter>
        <filter x="0.0%" y="0.0%" width="100.0%" height="100.0%" filterUnits="objectBoundingBox" id="filter-7">
            <feGaussianBlur stdDeviation="0 0" in="SourceGraphic"></feGaussianBlur>
        </filter>
        <filter x="0.0%" y="0.0%" width="100.0%" height="100.0%" filterUnits="objectBoundingBox" id="filter-8">
            <feGaussianBlur stdDeviation="0 0" in="SourceGraphic"></feGaussianBlur>
        </filter>
        <filter x="0.0%" y="0.0%" width="100.0%" height="100.0%" filterUnits="objectBoundingBox" id="filter-9">
            <feGaussianBlur stdDeviation="0 0" in="SourceGraphic"></feGaussianBlur>
        </filter>
        <filter x="-0.0%" y="0.0%" width="100.0%" height="100.0%" filterUnits="objectBoundingBox" id="filter-10">
            <feGaussianBlur stdDeviation="0 0" in="SourceGraphic"></feGaussianBlur>
        </filter>
        <filter x="0.0%" y="0.0%" width="100.0%" height="100.0%" filterUnits="objectBoundingBox" id="filter-11">
            <feGaussianBlur stdDeviation="0 0" in="SourceGraphic"></feGaussianBlur>
        </filter>
        <filter x="0.0%" y="0.0%" width="100.0%" height="100.0%" filterUnits="objectBoundingBox" id="filter-12">
            <feGaussianBlur stdDeviation="0 0" in="SourceGraphic"></feGaussianBlur>
        </filter>
        <filter x="0.0%" y="0.0%" width="100.0%" height="100.0%" filterUnits="objectBoundingBox" id="filter-13">
            <feGaussianBlur stdDeviation="0 0" in="SourceGraphic"></feGaussianBlur>
        </filter>
        <filter x="-0.0%" y="0.0%" width="100.0%" height="100.0%" filterUnits="objectBoundingBox" id="filter-14">
            <feGaussianBlur stdDeviation="0 0" in="SourceGraphic"></feGaussianBlur>
        </filter>
        <filter x="0.0%" y="0.0%" width="100.0%" height="100.0%" filterUnits="objectBoundingBox" id="filter-15">
            <feGaussianBlur stdDeviation="0 0" in="SourceGraphic"></feGaussianBlur>
        </filter>
        <filter x="0.0%" y="0.0%" width="100.0%" height="100.0%" filterUnits="objectBoundingBox" id="filter-16">
            <feGaussianBlur stdDeviation="0 0" in="SourceGraphic"></feGaussianBlur>
        </filter>
        <filter x="0.0%" y="0.0%" width="100.0%" height="100.0%" filterUnits="objectBoundingBox" id="filter-17">
            <feGaussianBlur stdDeviation="0 0" in="SourceGraphic"></feGaussianBlur>
        </filter>
        <filter x="-0.0%" y="0.0%" width="100.0%" height="100.0%" filterUnits="objectBoundingBox" id="filter-18">
            <feGaussianBlur stdDeviation="0 0" in="SourceGraphic"></feGaussianBlur>
        </filter>
        <filter x="0.0%" y="0.0%" width="100.0%" height="100.0%" filterUnits="objectBoundingBox" id="filter-19">
            <feGaussianBlur stdDeviation="0 0" in="SourceGraphic"></feGaussianBlur>
        </filter>
        <filter x="0.0%" y="0.0%" width="100.0%" height="100.0%" filterUnits="objectBoundingBox" id="filter-20">
            <feGaussianBlur stdDeviation="0 0" in="SourceGraphic"></feGaussianBlur>
        </filter>
        <filter x="-0.0%" y="0.0%" width="100.0%" height="100.0%" filterUnits="objectBoundingBox" id="filter-21">
            <feGaussianBlur stdDeviation="0 0" in="SourceGraphic"></feGaussianBlur>
        </filter>
        <filter x="-0.0%" y="-0.0%" width="100.0%" height="100.0%" filterUnits="objectBoundingBox" id="filter-22">
            <feGaussianBlur stdDeviation="0 0" in="SourceGraphic"></feGaussianBlur>
        </filter>
        <filter x="0.0%" y="0.0%" width="100.0%" height="100.0%" filterUnits="objectBoundingBox" id="filter-23">
            <feGaussianBlur stdDeviation="0 0" in="SourceGraphic"></feGaussianBlur>
        </filter>
        <filter x="0.0%" y="0.0%" width="100.0%" height="100.0%" filterUnits="objectBoundingBox" id="filter-24">
            <feGaussianBlur stdDeviation="0 0" in="SourceGraphic"></feGaussianBlur>
        </filter>
        <filter x="-0.0%" y="0.0%" width="100.0%" height="100.0%" filterUnits="objectBoundingBox" id="filter-25">
            <feGaussianBlur stdDeviation="0 0" in="SourceGraphic"></feGaussianBlur>
        </filter>
        <filter x="-0.0%" y="-0.0%" width="100.0%" height="100.0%" filterUnits="objectBoundingBox" id="filter-26">
            <feGaussianBlur stdDeviation="0 0" in="SourceGraphic"></feGaussianBlur>
        </filter>
        <filter x="0.0%" y="0.0%" width="100.0%" height="100.0%" filterUnits="objectBoundingBox" id="filter-27">
            <feGaussianBlur stdDeviation="0 0" in="SourceGraphic"></feGaussianBlur>
        </filter>
        <filter x="0.0%" y="0.0%" width="100.0%" height="100.0%" filterUnits="objectBoundingBox" id="filter-28">
            <feGaussianBlur stdDeviation="0 0" in="SourceGraphic"></feGaussianBlur>
        </filter>
        <filter x="-0.0%" y="0.0%" width="100.0%" height="100.0%" filterUnits="objectBoundingBox" id="filter-29">
            <feGaussianBlur stdDeviation="0 0" in="SourceGraphic"></feGaussianBlur>
        </filter>
        <filter x="-0.0%" y="-0.0%" width="100.0%" height="100.0%" filterUnits="objectBoundingBox" id="filter-30">
            <feGaussianBlur stdDeviation="0 0" in="SourceGraphic"></feGaussianBlur>
        </filter>
        <filter x="0.0%" y="0.0%" width="100.0%" height="100.0%" filterUnits="objectBoundingBox" id="filter-31">
            <feGaussianBlur stdDeviation="0 0" in="SourceGraphic"></feGaussianBlur>
        </filter>
        <filter x="0.0%" y="0.0%" width="100.0%" height="100.0%" filterUnits="objectBoundingBox" id="filter-32">
            <feGaussianBlur stdDeviation="0 0" in="SourceGraphic"></feGaussianBlur>
        </filter>
        <filter x="-0.0%" y="0.0%" width="100.0%" height="100.0%" filterUnits="objectBoundingBox" id="filter-33">
            <feGaussianBlur stdDeviation="0 0" in="SourceGraphic"></feGaussianBlur>
        </filter>
        <filter x="-0.0%" y="-0.0%" width="100.0%" height="100.0%" filterUnits="objectBoundingBox" id="filter-34">
            <feGaussianBlur stdDeviation="0 0" in="SourceGraphic"></feGaussianBlur>
        </filter>
        <filter x="0.0%" y="0.0%" width="100.0%" height="100.0%" filterUnits="objectBoundingBox" id="filter-35">
            <feGaussianBlur stdDeviation="0 0" in="SourceGraphic"></feGaussianBlur>
        </filter>
        <filter x="0.0%" y="0.0%" width="100.0%" height="100.0%" filterUnits="objectBoundingBox" id="filter-36">
            <feGaussianBlur stdDeviation="0 0" in="SourceGraphic"></feGaussianBlur>
        </filter>
        <filter x="-0.0%" y="0.0%" width="100.0%" height="100.0%" filterUnits="objectBoundingBox" id="filter-37">
            <feGaussianBlur stdDeviation="0 0" in="SourceGraphic"></feGaussianBlur>
        </filter>
        <filter x="-0.0%" y="-0.0%" width="100.0%" height="100.0%" filterUnits="objectBoundingBox" id="filter-38">
            <feGaussianBlur stdDeviation="0 0" in="SourceGraphic"></feGaussianBlur>
        </filter>
        <linearGradient x1="-8.13843665%" y1="84.8409149%" x2="98.8462606%" y2="35.3465759%" id="linearGradient-39">
            <stop stop-color="#FFDB00" offset="0%"></stop>
            <stop stop-color="#FFB400" offset="100%"></stop>
        </linearGradient>
        <linearGradient x1="50%" y1="0%" x2="50%" y2="100%" id="linearGradient-40">
            <stop stop-color="#FAD961" offset="0%"></stop>
            <stop stop-color="#F76B1C" offset="100%"></stop>
        </linearGradient>
    </defs>
    <g id="Page-1" stroke="none" stroke-width="1" fill="none" fill-rule="evenodd">
        <g id="会员-copy" transform="translate(-586.000000, -276.000000)">
            <g id="红包" transform="translate(576.000000, 261.000000)">
                <g transform="translate(10.000000, 15.000000)" id="分组-2">
                    <g transform="translate(12.000000, 22.000000)">
                        <g id="分组" transform="translate(0.000000, 86.450000)">
                            <rect id="矩形" x="0.505224422" y="33.6068293" width="144.491551" height="5.52112195"></rect>
                            <path d="M3.13669307,34.6175349 L3.13669307,34.5670244 L143.561429,34.5670244 L143.561429,34.5681698 C144.385209,34.5578118 144.840122,34.6177031 144.926167,34.7478436 C145.075207,34.9732621 145.170569,35.7484948 145.212254,37.0735416 C145.212924,37.0948626 145.21326,37.1161928 145.21326,37.1375244 C145.21326,38.2613676 144.302206,39.1724228 143.178363,39.1724233 L139.376492,39.1724287 C139.230691,39.1724287 139.088471,39.1570946 138.951357,39.1279512 L6.52772231,39.1279512 C6.39060864,39.1570946 6.24838879,39.1724287 6.10258749,39.1724287 L2.30071704,39.1724233 C1.17687386,39.1724228 0.265819342,38.2613676 0.265819806,37.1375244 C0.265819815,37.1161928 0.266155247,37.0948626 0.266825979,37.0735416 C0.308510266,35.7484948 0.40387251,34.9732621 0.552912713,34.7478436 C0.67473895,34.5635853 1.53599907,34.5201491 3.13669307,34.6175349 Z" id="合并形状" fill="#3655D0"></path>
                            <g id="分组-3" transform="translate(72.767220, 18.417063) scale(-1, 1) rotate(90.000000) translate(-72.767220, -18.417063) translate(54.413220, -54.333937)">
                                <path d="M2.1595952,12.4219565 L34.5897173,0.297863092 C35.6874675,-0.129611297 36.5773699,1.56494075 36.5773699,4.08376343 L36.5773699,141.385798 C36.5773699,143.90462 35.6874675,145.599172 34.5897173,145.171698 L2.1595952,133.047604 C1.06184495,132.654285 0.171942554,130.673944 0.171942554,128.623378 L0.171942554,16.846183 C0.171942554,14.7956166 1.06184495,12.8152762 2.1595952,12.4219565 Z" id="矩形" fill="#517BF4"></path>
                                <path d="M18.1654296,137.173726 C19.3787325,137.615861 20.3623089,135.909964 20.3623089,133.362295 C20.3623089,130.814626 19.3787325,128.440758 18.1654296,128.061148 C16.9521267,127.682679 15.9685504,129.391392 15.9685504,131.876631 C15.9685504,134.36187 16.9521267,136.732921 18.1654296,137.173726 Z" id="椭圆形" fill="#FFFFFF"></path>
                                <path d="M2.60147082,21.8554038 L33.9854599,12.0073829 C34.1010126,11.969706 34.1946865,12.15146 34.1946865,12.4133513 L34.1946865,131.199483 C34.1946865,131.461375 34.1010126,131.643964 33.9854599,131.607317 L2.60147082,122.028578 C2.48591816,121.994689 2.39224422,121.789824 2.39224422,121.570991 L2.39224422,22.3147156 C2.39224422,22.0958824 2.48591816,21.8902457 2.60147082,21.8554038 Z" id="矩形" fill="#FFFFFF"></path>
                                <path d="M11.1107598,13.3081003 L18.7475305,10.6536055 C19.007524,10.5623525 19.2182904,10.9397637 19.2182904,11.4966294 C19.2182904,12.0534952 19.007524,12.5765852 18.7475305,12.6649329 L11.1107598,15.2349185 C10.8507664,15.3215609 10.64,14.9615787 10.64,14.4309267 C10.64,13.9002747 10.8507664,13.3975917 11.1107598,13.3081003 Z" id="矩形" fill="#FFFFFF"></path>
                                <path d="M21.0050665,11.7123252 C21.2939481,11.616977 21.528133,11.0633633 21.528133,10.4758568 C21.528133,9.88835041 21.2939481,9.49227159 21.0050665,9.59112523 C20.7161848,9.68990726 20.482,10.2433607 20.482,10.827363 C20.482,11.4113653 20.7161848,11.8076043 21.0050665,11.7123252 Z" id="椭圆形" fill="#FFFFFF"></path>
                            </g>
                        </g>
                        <g id="分组-13" transform="translate(47.880000, 7.182000)">
                            <path d="M0.0439894198,22.1312 C1.00305563,10.5211039 17.5313789,0 38.5168,0 C59.5179147,0 77.2594736,10.2357931 78.265411,22.1312 L78.3104,22.1312 L78.3104,101.9312 L0,101.9312 L0,22.1312 L0.0439894198,22.1312 Z" id="合并形状" fill="#FFA373"></path>
                            <rect id="矩形" fill="#FFFFFF" x="5.7456" y="14.896" width="67.6704" height="68.096" rx="2.3408"></rect>
                            <text id="$" opacity="0.06" transform="translate(13.546176, 24.720698) rotate(14.000000) translate(-13.546176, -24.720698) " font-family="PingFangSC-Medium, PingFang SC" font-size="25.536" font-weight="400" fill="#FF7E3B">
                                <tspan x="5.54617623" y="33.7206982">$</tspan>
                            </text>
                            <text id="$-copy" opacity="0.06" transform="translate(39.294976, 19.400698) rotate(14.000000) translate(-39.294976, -19.400698) " font-family="PingFangSC-Medium, PingFang SC" font-size="25.536" font-weight="400" fill="#FF7E3B">
                                <tspan x="31.2949762" y="28.4006982">$</tspan>
                            </text>
                            <text id="$-copy-2" opacity="0.06" transform="translate(66.746176, 29.615098) rotate(14.000000) translate(-66.746176, -29.615098) " font-family="PingFangSC-Medium, PingFang SC" font-size="25.536" font-weight="400" fill="#FF7E3B">
                                <tspan x="58.7461762" y="38.6150982">$</tspan>
                            </text>
                            <text id="$-copy-3" opacity="0.06" transform="translate(45.040576, 59.194298) rotate(14.000000) translate(-45.040576, -59.194298) " font-family="PingFangSC-Medium, PingFang SC" font-size="25.536" font-weight="400" fill="#FF7E3B">
                                <tspan x="37.0405762" y="68.1942982">$</tspan>
                            </text>
                            <text id="$-copy-4" opacity="0.06" transform="translate(19.504576, 53.661498) rotate(14.000000) translate(-19.504576, -53.661498) " font-family="PingFangSC-Medium, PingFang SC" font-size="25.536" font-weight="400" fill="#FF7E3B">
                                <tspan x="11.5045762" y="62.6614982">$</tspan>
                            </text>
                            <text id="$$$" font-family="PingFangSC-Medium, PingFang SC" font-size="12.768" font-weight="400" fill="#FF7E3B">
                                <tspan x="28.0896" y="43.3664">$$$</tspan>
                            </text>
                            <rect id="矩形-copy-10" stroke="#FFE585" stroke-width="0.5" x="7.698" y="16.8484" width="63.7656" height="64.1912" rx="1.064"></rect>
                            <g id="分组-2-copy-18" transform="translate(58.732800, 54.689600)">
                                <path d="M0.00343190121,9.43701324 L0,9.43701324 L0,4.16302913 L17.024,4.16302913 L17.024,9.43701324 L17.0205681,9.43701324 C16.8913831,12.1812034 13.1314177,13.832 8.512,13.832 C3.89258227,13.832 0.132616859,12.1812034 0.00343190121,9.43701324 Z" id="合并形状" fill="url(#linearGradient-1)"></path>
                                <path d="M8.512,8.8632233 C13.2130478,8.8632233 17.024,7.13932138 17.024,4.28389126 C17.024,1.42846114 13.2130478,0 8.512,0 C3.81095221,0 0,1.42846114 0,4.28389126 C0,7.13932138 3.81095221,8.8632233 8.512,8.8632233 Z" id="椭圆形" fill="url(#linearGradient-2)"></path>
                                <path d="M8.52036217,7.11743689 C12.1861317,7.11743689 14.9708543,5.68538582 14.9708543,4.34029359 C14.9708543,2.21850083 12.1861317,1.20862136 8.52036217,1.20862136 C4.85459265,1.20862136 1.96430705,2.37731249 1.88289929,4.34029359 C1.82383186,5.76458357 4.85459265,7.11743689 8.52036217,7.11743689 Z" id="椭圆形-copy" fill="#FFBB59"></path>
                                <path d="M8.96744505,4.96430341 L8.96744505,4.9687767 L5.98834171,3.62362744 L8.96744505,2.28619998 L8.96744505,2.28295146 L11.8911357,3.62362744 L8.96744505,4.96430341 Z" id="合并形状" fill="#FBD789"></path>
                            </g>
                            <g id="分组-2-copy-7" transform="translate(44.688000, 58.732800)">
                                <path d="M0.00343190121,9.43701324 L0,9.43701324 L0,4.16302913 L17.024,4.16302913 L17.024,9.43701324 L17.0205681,9.43701324 C16.8913831,12.1812034 13.1314177,13.832 8.512,13.832 C3.89258227,13.832 0.132616859,12.1812034 0.00343190121,9.43701324 Z" id="合并形状" fill="url(#linearGradient-1)"></path>
                                <path d="M8.512,8.8632233 C13.2130478,8.8632233 17.024,7.13932138 17.024,4.28389126 C17.024,1.42846114 13.2130478,0 8.512,0 C3.81095221,0 0,1.42846114 0,4.28389126 C0,7.13932138 3.81095221,8.8632233 8.512,8.8632233 Z" id="椭圆形" fill="url(#linearGradient-2)"></path>
                                <path d="M8.52036217,7.11743689 C12.1861317,7.11743689 14.9708543,5.68538582 14.9708543,4.34029359 C14.9708543,2.21850083 12.1861317,1.20862136 8.52036217,1.20862136 C4.85459265,1.20862136 1.96430705,2.37731249 1.88289929,4.34029359 C1.82383186,5.76458357 4.85459265,7.11743689 8.52036217,7.11743689 Z" id="椭圆形-copy" fill="#FFBB59"></path>
                                <path d="M8.96744505,4.96430341 L8.96744505,4.9687767 L5.98834171,3.62362744 L8.96744505,2.28619998 L8.96744505,2.28295146 L11.8911357,3.62362744 L8.96744505,4.96430341 Z" id="合并形状" fill="#FBD789"></path>
                            </g>
                            <g id="分组-2-copy-15" transform="translate(24.472000, 55.753600)">
                                <path d="M0.00343190121,9.43701324 L0,9.43701324 L0,4.16302913 L17.024,4.16302913 L17.024,9.43701324 L17.0205681,9.43701324 C16.8913831,12.1812034 13.1314177,13.832 8.512,13.832 C3.89258227,13.832 0.132616859,12.1812034 0.00343190121,9.43701324 Z" id="合并形状" fill="url(#linearGradient-1)"></path>
                                <path d="M8.512,8.8632233 C13.2130478,8.8632233 17.024,7.13932138 17.024,4.28389126 C17.024,1.42846114 13.2130478,0 8.512,0 C3.81095221,0 0,1.42846114 0,4.28389126 C0,7.13932138 3.81095221,8.8632233 8.512,8.8632233 Z" id="椭圆形" fill="url(#linearGradient-2)"></path>
                                <path d="M8.52036217,7.11743689 C12.1861317,7.11743689 14.9708543,5.68538582 14.9708543,4.34029359 C14.9708543,2.21850083 12.1861317,1.20862136 8.52036217,1.20862136 C4.85459265,1.20862136 1.96430705,2.37731249 1.88289929,4.34029359 C1.82383186,5.76458357 4.85459265,7.11743689 8.52036217,7.11743689 Z" id="椭圆形-copy" fill="#FFBB59"></path>
                                <path d="M8.96744505,4.96430341 L8.96744505,4.9687767 L5.98834171,3.62362744 L8.96744505,2.28619998 L8.96744505,2.28295146 L11.8911357,3.62362744 L8.96744505,4.96430341 Z" id="合并形状" fill="#FBD789"></path>
                            </g>
                            <g id="分组-2-copy-12" transform="translate(31.068800, 60.435200)">
                                <path d="M0.00343190121,9.43701324 L0,9.43701324 L0,4.16302913 L17.024,4.16302913 L17.024,9.43701324 L17.0205681,9.43701324 C16.8913831,12.1812034 13.1314177,13.832 8.512,13.832 C3.89258227,13.832 0.132616859,12.1812034 0.00343190121,9.43701324 Z" id="合并形状" fill="url(#linearGradient-1)"></path>
                                <path d="M8.512,8.8632233 C13.2130478,8.8632233 17.024,7.13932138 17.024,4.28389126 C17.024,1.42846114 13.2130478,0 8.512,0 C3.81095221,0 0,1.42846114 0,4.28389126 C0,7.13932138 3.81095221,8.8632233 8.512,8.8632233 Z" id="椭圆形" fill="url(#linearGradient-2)"></path>
                                <path d="M8.52036217,7.11743689 C12.1861317,7.11743689 14.9708543,5.68538582 14.9708543,4.34029359 C14.9708543,2.21850083 12.1861317,1.20862136 8.52036217,1.20862136 C4.85459265,1.20862136 1.96430705,2.37731249 1.88289929,4.34029359 C1.82383186,5.76458357 4.85459265,7.11743689 8.52036217,7.11743689 Z" id="椭圆形-copy" fill="#FFBB59"></path>
                                <path d="M8.96744505,4.96430341 L8.96744505,4.9687767 L5.98834171,3.62362744 L8.96744505,2.28619998 L8.96744505,2.28295146 L11.8911357,3.62362744 L8.96744505,4.96430341 Z" id="合并形状" fill="#FBD789"></path>
                            </g>
                            <g id="分组-2-copy-14" transform="translate(7.448000, 55.753600)">
                                <path d="M0.00343190121,9.43701324 L0,9.43701324 L0,4.16302913 L17.024,4.16302913 L17.024,9.43701324 L17.0205681,9.43701324 C16.8913831,12.1812034 13.1314177,13.832 8.512,13.832 C3.89258227,13.832 0.132616859,12.1812034 0.00343190121,9.43701324 Z" id="合并形状" fill="url(#linearGradient-1)"></path>
                                <path d="M8.512,8.8632233 C13.2130478,8.8632233 17.024,7.13932138 17.024,4.28389126 C17.024,1.42846114 13.2130478,0 8.512,0 C3.81095221,0 0,1.42846114 0,4.28389126 C0,7.13932138 3.81095221,8.8632233 8.512,8.8632233 Z" id="椭圆形" fill="url(#linearGradient-2)"></path>
                                <path d="M8.52036217,7.11743689 C12.1861317,7.11743689 14.9708543,5.68538582 14.9708543,4.34029359 C14.9708543,2.21850083 12.1861317,1.20862136 8.52036217,1.20862136 C4.85459265,1.20862136 1.96430705,2.37731249 1.88289929,4.34029359 C1.82383186,5.76458357 4.85459265,7.11743689 8.52036217,7.11743689 Z" id="椭圆形-copy" fill="#FFBB59"></path>
                                <path d="M8.96744505,4.96430341 L8.96744505,4.9687767 L5.98834171,3.62362744 L8.96744505,2.28619998 L8.96744505,2.28295146 L11.8911357,3.62362744 L8.96744505,4.96430341 Z" id="合并形状" fill="#FBD789"></path>
                            </g>
                            <g id="分组-2-copy-13" transform="translate(14.683200, 58.732800)">
                                <path d="M0.00343190121,9.43701324 L0,9.43701324 L0,4.16302913 L17.024,4.16302913 L17.024,9.43701324 L17.0205681,9.43701324 C16.8913831,12.1812034 13.1314177,13.832 8.512,13.832 C3.89258227,13.832 0.132616859,12.1812034 0.00343190121,9.43701324 Z" id="合并形状" fill="url(#linearGradient-1)"></path>
                                <path d="M8.512,8.8632233 C13.2130478,8.8632233 17.024,7.13932138 17.024,4.28389126 C17.024,1.42846114 13.2130478,0 8.512,0 C3.81095221,0 0,1.42846114 0,4.28389126 C0,7.13932138 3.81095221,8.8632233 8.512,8.8632233 Z" id="椭圆形" fill="url(#linearGradient-2)"></path>
                                <path d="M8.52036217,7.11743689 C12.1861317,7.11743689 14.9708543,5.68538582 14.9708543,4.34029359 C14.9708543,2.21850083 12.1861317,1.20862136 8.52036217,1.20862136 C4.85459265,1.20862136 1.96430705,2.37731249 1.88289929,4.34029359 C1.82383186,5.76458357 4.85459265,7.11743689 8.52036217,7.11743689 Z" id="椭圆形-copy" fill="#FFBB59"></path>
                                <path d="M8.96744505,4.96430341 L8.96744505,4.9687767 L5.98834171,3.62362744 L8.96744505,2.28619998 L8.96744505,2.28295146 L11.8911357,3.62362744 L8.96744505,4.96430341 Z" id="合并形状" fill="#FBD789"></path>
                            </g>
                            <path d="M3.59155258,56.392 C9.92774193,63.5203413 23.9308467,68.7344 39.7936,68.7344 C55.5648989,68.7344 68.8188007,63.4286983 74.8385021,56.392 L78.3104,56.392 L78.3104,102.3568 L0,102.3568 L0,56.392 L3.59155258,56.392 Z" id="合并形状" fill="#F57030"></path>
                            <polyline id="路径" stroke="#3F3F3F" stroke-width="0.5" opacity="0.328194754" points="75.7568 56.392 75.7568 99.8032 2.128 99.8032 2.128 56.392 2.128 56.392"></polyline>
                        </g>
                        <g id="分组-14" transform="translate(17.822000, 57.456000)">
                            <g id="character" transform="translate(3.990000, 0.000000)" fill-rule="nonzero">
                                <path d="M0.378627016,24.3716452 C0.513667803,24.7713442 2.09441423,25.5928531 2.57261246,25.7038334 L3.5008042,24.8712689 C3.47281315,24.4271353 2.85957413,23.3726104 2.65701295,23.0396696 C2.40381148,22.6233874 1.13801777,22.1237636 0.378627016,22.6233874 C-0.380763738,23.1227985 0.209826033,23.8722341 0.378627016,24.3716452 Z" id="Shape" fill="#FCD8E3"></path>
                                <path d="M23.6953847,4.31972545 L23.5317118,6.64371988 L24.893017,6.64371988 C24.893017,6.39497104 24.9282729,4.57570288 25.1013473,4.31972545 C25.3177971,3.99975366 25.7502695,2.82701985 25.8583876,1.54755791 C25.9667194,0.268095964 24.776993,0.161367832 24.3443069,0.161367832 C23.9116209,0.161367832 23.2626986,1.22758612 23.1545805,1.97404522 C23.0680433,2.57104242 23.4789348,3.78651 23.6953847,4.31972545 Z" id="Shape" fill="#FCD8E3"></path>
                                <path d="M14.9628183,16.6296035 C14.9628183,16.9657334 15.0771329,18.0859535 14.6194472,18.8700439 C15.0390993,19.1687551 15.5920828,19.318217 16.1412201,19.318217 C16.6905712,19.318217 17.5142772,18.9142659 17.8576484,18.6155547 L17.2112902,16.6296035 C17.6001734,16.2222508 18.0864912,15.1139365 18.0864912,14.6130372 C18.0864912,14.0528208 18.0864912,12.4844275 17.8576484,11.9244237 C17.6288055,11.3642073 16.8277487,10.8039909 15.9123773,10.8039909 C14.9972195,10.8039909 14.3104773,11.2521641 14.0816345,11.9244237 C13.8527916,12.5964708 13.738477,13.7169035 13.8527916,14.6130372 C13.944457,15.3299441 14.6957282,16.2560551 14.9628183,16.6296035 Z" id="Shape" fill="#FCD8E3"></path>
                                <path d="M16.0444267,15.5448886 C15.7527642,15.5448886 15.0720048,16.2222508 14.974784,16.3189864 C14.974784,16.6091934 15.9472058,17.7702339 16.2388683,17.7702339 C16.5307444,17.7702339 17.2112902,16.5124577 17.2112902,16.3189864 C17.2112902,16.1255151 16.3360891,15.5448886 16.0444267,15.5448886 Z" id="Shape" fill="#EFC9E3"></path>
                                <path d="M12.8357123,48.7307466 L12.1549529,46.602137 L13.3218164,45.2476252 C13.4515153,45.7959356 13.7301438,47.5116648 13.8079205,48.0533844 C13.8856971,48.5953167 13.2245955,48.7951662 12.8357123,48.7307466 Z" id="Shape" fill="#FCD8E3"></path>
                                <path d="M18.0864912,53.4716442 L18.2809329,50.0852584 L20.1283421,50.0852584 C19.9663786,50.9881954 19.3505755,53.4716442 19.1561339,53.7618512 C18.978145,54.0273959 18.2159765,53.6327995 18.0864912,53.4716442 Z" id="Shape" fill="#FCD8E3"></path>
                                <path d="M9.52956338,38.2815948 C9.1406801,37.4301085 11.7660696,33.8632203 13.0301539,31.6057715 L20.4202182,31.2186162 L22.2676275,41.7645037 L20.0311213,51.2462989 C19.7394588,51.7299772 17.8920496,51.5365059 17.9892704,50.7626206 C18.067047,50.1432998 18.3781537,43.667326 18.6698161,41.7645037 L15.849985,36.2497208 L13.516258,38.5718018 L13.516258,46.4086657 C13.3218164,46.9892922 12.5438361,47.0860279 12.1549529,46.9892922 C11.7658559,46.8925565 10.0156675,39.3458997 9.52956338,38.2815948 Z" id="Shape" fill="#293354"></path>
                                <path d="M8.16825823,29.9608401 C7.54604498,30.0382286 4.14908544,27.6066556 2.528596,26.3811956 C2.13949905,25.2201551 3.14439908,24.6072125 3.69545951,24.4460572 L8.16825823,26.9616095 C8.4276562,26.2198278 9.02401511,24.5234458 9.33512174,23.6719594 C9.72400502,22.6078671 11.7660696,20.3825218 12.3493945,19.8018953 C12.7384914,19.4149526 13.9051413,18.6731709 14.5859007,18.3506478 C14.8775631,18.4473835 15.1692256,18.8345387 16.2388683,18.8345387 C17.5029526,18.8345387 17.8920496,17.9637052 17.8920496,17.9637052 C17.8920496,17.9637052 18.9616923,17.9637052 19.3505755,17.7702339 C19.7394588,17.5767626 22.1704067,13.2228076 22.3648483,12.9326006 C22.4620691,12.0617671 23.434491,6.25677725 23.434491,6.25677725 C23.434491,6.25677725 23.7261534,6.45024856 24.2122575,6.45024856 C24.7957961,6.45024856 25.0874586,6.25677725 25.0874586,6.25677725 C25.0874586,6.25677725 25.379121,12.9326006 25.0874586,13.8034341 C24.7957961,14.674055 21.4896472,20.7694645 20.7118807,21.8337693 C19.9339005,22.8980741 19.7394588,29.0902192 20.517439,31.4120876 C19.0586994,33.0570189 18.0347826,33.0570189 16.2388683,33.0570189 C14.2942382,33.0570189 13.2893382,32.1217659 12.9329331,31.7025071 C13.516258,30.2512597 12.9329331,24.4460572 12.9329331,24.4460572 C11.6038924,26.2521438 8.79068515,29.8834516 8.16825823,29.9608401 Z" id="Shape" fill="#6386FF"></path>
                                <path d="M17.7593592,56.696237 C17.5696183,56.2125587 17.8822207,53.9540469 18.0324322,53.3846885 L18.2260191,53.4023347 L19.2920294,53.5156537 L19.7146729,56.696237 C19.670229,57.1777892 19.251218,58.095396 18.7089181,58.0458589 C18.0311501,57.9839906 17.9965352,57.3006754 17.7593592,56.696237 Z" id="Shape" fill="#2B3A7C"></path>
                                <path d="M13.4438231,48.4658398 C13.1002384,48.6946036 12.9233178,48.6548464 12.8778057,48.6063722 C12.7280215,49.2886244 11.8154278,50.6320807 11.3096659,51.145949 C11.3763316,51.278615 11.6312425,51.5499001 11.7406426,51.6661955 C11.8771791,51.8114052 12.7263121,51.6007129 13.3021585,51.0993883 C13.7628356,50.6984137 14.4844064,49.5516178 14.7873935,49.0283948 L13.8098435,47.9270966 C13.830997,48.0115011 13.7874079,48.2372885 13.4438231,48.4658398 Z" id="Shape" fill="#2B3A7C"></path>
                                <path d="M13.6938195,10.1268413 C13.4604896,10.8233381 13.6134788,13.2228076 13.8079205,14.1903768 C13.8079205,12.1585027 14.7634622,10.9974623 16.1247674,10.9974623 C17.2138542,10.9974623 17.7623506,12.3521867 17.9892704,13.1260719 C17.9243141,12.7714454 18.0499533,12.1198085 18.3610599,11.5780888 C18.6723802,11.0361565 18.2315746,9.5462148 17.9721766,8.8690652 C17.9721766,9.10123077 17.5832933,9.35274348 17.3888517,9.44947914 C17.544405,8.90775946 17.0647111,8.44980648 16.8053131,8.28843865 C16.7080923,9.06253651 15.444008,9.73968611 15.7356704,9.44947914 C15.9692141,9.21731356 15.6384496,8.57885823 15.444008,8.28843865 C15.3467871,8.77232954 13.985482,9.25600782 13.6938195,10.1268413 Z" id="Shape" fill="#7D7D7D"></path>
                            </g>
                            <g id="分组-12" transform="translate(0.000000, 12.768000)">
                                <g id="椭圆形">
                                    <mask id="mask-4" fill="white">
                                        <use xlink:href="#path-3"></use>
                                    </mask>
                                    <use id="Mask" fill="#FF7E3B" xlink:href="#path-3"></use>
                                    <g mask="url(#mask-4)">
                                        <use fill="black" fill-opacity="1" filter="url(#filter-6)" xlink:href="#path-5"></use>
                                        <use fill="#FF7E3B" fill-rule="evenodd" xlink:href="#path-5"></use>
                                    </g>
                                </g>
                                <circle id="椭圆形" stroke="#FFB558" stroke-width="0.5" fill="#FFE585" cx="4.5752" cy="4.21344" r="1.04272"></circle>
                                <text id="$" font-family="PingFangSC-Medium, PingFang SC" font-size="1.2768" font-weight="400" fill="#FF7E3B">
                                    <tspan x="4.21344" y="4.31968">$</tspan>
                                </text>
                            </g>
                        </g>
                        <g id="分组-2-copy-5" transform="translate(58.715402, 102.395474) scale(-1, 1) rotate(41.000000) translate(-58.715402, -102.395474) translate(54.193402, 100.001474)">
                            <path d="M0.00182319752,3.26665843 L0,3.26665843 L0,1.44104854 L9.044,1.44104854 L9.044,3.26665843 L9.0421768,3.26665843 C8.97354729,4.2165704 6.97606567,4.788 4.522,4.788 C2.06793433,4.788 0.0704527063,4.2165704 0.00182319752,3.26665843 Z" id="合并形状" fill="url(#linearGradient-1)" filter="url(#filter-7)"></path>
                            <path d="M4.522,3.06803883 C7.01943164,3.06803883 9.044,2.47130356 9.044,1.48288544 C9.044,0.494467318 7.01943164,0 4.522,0 C2.02456836,0 0,0.494467318 0,1.48288544 C0,2.47130356 2.02456836,3.06803883 4.522,3.06803883 Z" id="椭圆形" fill="url(#linearGradient-2)" filter="url(#filter-8)"></path>
                            <path d="M4.5264424,2.46372816 C6.47388247,2.46372816 7.95326633,1.96801817 7.95326633,1.50240932 C7.95326633,0.767942595 6.47388247,0.418368932 4.5264424,0.418368932 C2.57900234,0.418368932 1.04353812,0.822915862 1.00029025,1.50240932 C0.968910675,1.99543277 2.57900234,2.46372816 4.5264424,2.46372816 Z" id="椭圆形-copy" fill="#FFBB59" filter="url(#filter-9)"></path>
                            <path d="M4.76395518,1.71841272 L4.76395518,1.71996117 L3.18130653,1.25433257 L4.76395518,0.791372846 L4.76395518,0.790252427 L6.31716583,1.25433257 L4.76395518,1.71841272 Z" id="合并形状" fill="#FBD789" filter="url(#filter-10)"></path>
                        </g>
                        <g id="分组-2-copy-6" transform="translate(135.855402, 53.717474) scale(-1, 1) rotate(41.000000) translate(-135.855402, -53.717474) translate(131.333402, 51.323474)">
                            <path d="M0.00182319752,3.26665843 L0,3.26665843 L0,1.44104854 L9.044,1.44104854 L9.044,3.26665843 L9.0421768,3.26665843 C8.97354729,4.2165704 6.97606567,4.788 4.522,4.788 C2.06793433,4.788 0.0704527063,4.2165704 0.00182319752,3.26665843 Z" id="合并形状" fill="url(#linearGradient-1)" filter="url(#filter-11)"></path>
                            <path d="M4.522,3.06803883 C7.01943164,3.06803883 9.044,2.47130356 9.044,1.48288544 C9.044,0.494467318 7.01943164,0 4.522,0 C2.02456836,0 0,0.494467318 0,1.48288544 C0,2.47130356 2.02456836,3.06803883 4.522,3.06803883 Z" id="椭圆形" fill="url(#linearGradient-2)" filter="url(#filter-12)"></path>
                            <path d="M4.5264424,2.46372816 C6.47388247,2.46372816 7.95326633,1.96801817 7.95326633,1.50240932 C7.95326633,0.767942595 6.47388247,0.418368932 4.5264424,0.418368932 C2.57900234,0.418368932 1.04353812,0.822915862 1.00029025,1.50240932 C0.968910675,1.99543277 2.57900234,2.46372816 4.5264424,2.46372816 Z" id="椭圆形-copy" fill="#FFBB59" filter="url(#filter-13)"></path>
                            <path d="M4.76395518,1.71841272 L4.76395518,1.71996117 L3.18130653,1.25433257 L4.76395518,0.791372846 L4.76395518,0.790252427 L6.31716583,1.25433257 L4.76395518,1.71841272 Z" id="合并形状" fill="#FBD789" filter="url(#filter-14)"></path>
                        </g>
                        <g id="分组-2-copy-8" transform="translate(85.679103, 7.160210) scale(-1, 1) rotate(41.000000) translate(-85.679103, -7.160210) translate(78.896103, 3.569210)">
                            <path d="M0.00273479628,4.89998764 L0,4.89998764 L0,2.16157282 L13.566,2.16157282 L13.566,4.89998764 L13.5632652,4.89998764 C13.4603209,6.3248556 10.4640985,7.182 6.783,7.182 C3.1019015,7.182 0.105679059,6.3248556 0.00273479628,4.89998764 Z" id="合并形状" fill="url(#linearGradient-1)" filter="url(#filter-15)"></path>
                            <path d="M6.783,4.60205825 C10.5291475,4.60205825 13.566,3.70695533 13.566,2.22432816 C13.566,0.741700978 10.5291475,0 6.783,0 C3.03685254,0 0,0.741700978 0,2.22432816 C0,3.70695533 3.03685254,4.60205825 6.783,4.60205825 Z" id="椭圆形" fill="url(#linearGradient-2)" filter="url(#filter-16)"></path>
                            <path d="M6.78966361,3.69559223 C9.7108237,3.69559223 11.9298995,2.95202725 11.9298995,2.25361398 C11.9298995,1.15191389 9.7108237,0.627553398 6.78966361,0.627553398 C3.86850351,0.627553398 1.56530718,1.23437379 1.50043537,2.25361398 C1.45336601,2.99314916 3.86850351,3.69559223 6.78966361,3.69559223 Z" id="椭圆形-copy" fill="#FFBB59" filter="url(#filter-17)"></path>
                            <path d="M7.14593277,2.57761908 L7.14593277,2.57994175 L4.7719598,1.88149886 L7.14593277,1.18705927 L7.14593277,1.18537864 L9.47574874,1.88149886 L7.14593277,2.57761908 Z" id="合并形状" fill="#FBD789" filter="url(#filter-18)"></path>
                        </g>
                        <g id="分组-2-copy-9" transform="translate(16.959480, 112.649699) scale(-1, 1) rotate(1.000000) translate(-16.959480, -112.649699) translate(9.378480, 108.659699)">
                            <path d="M0.00305653701,5.44443071 L0,5.44443071 L0,2.40174757 L15.162,2.40174757 L15.162,5.44443071 L15.1589435,5.44443071 C15.0438881,7.02761734 11.6951689,7.98 7.581,7.98 C3.46683109,7.98 0.11811189,7.02761734 0.00305653701,5.44443071 Z" id="合并形状" fill="url(#linearGradient-1)" filter="url(#filter-19)"></path>
                            <path d="M7.581,5.11339806 C11.7678707,5.11339806 15.162,4.11883926 15.162,2.47147573 C15.162,0.824112197 11.7678707,0 7.581,0 C3.39412931,0 0,0.824112197 0,2.47147573 C0,4.11883926 3.39412931,5.11339806 7.581,5.11339806 Z" id="椭圆形" fill="url(#linearGradient-2)" filter="url(#filter-20)"></path>
                            <path d="M7.58844756,4.10621359 C10.8532735,4.10621359 13.3334171,3.28003028 13.3334171,2.50401553 C13.3334171,1.27990433 10.8532735,0.697281553 7.58844756,0.697281553 C4.32362157,0.697281553 1.74946096,1.37152644 1.67695718,2.50401553 C1.62435025,3.32572129 4.32362157,4.10621359 7.58844756,4.10621359 Z" id="椭圆形-copy" fill="#FFBB59" filter="url(#filter-21)"></path>
                            <path d="M7.98663074,2.8640212 L7.98663074,2.86660194 L5.33336683,2.09055429 L7.98663074,1.31895474 L7.98663074,1.31708738 L10.5905427,2.09055429 L7.98663074,2.8640212 Z" id="合并形状" fill="#FBD789" filter="url(#filter-22)"></path>
                        </g>
                        <g id="分组-2-copy-10" transform="translate(16.959480, 109.457699) scale(-1, 1) rotate(1.000000) translate(-16.959480, -109.457699) translate(9.378480, 105.467699)">
                            <path d="M0.00305653701,5.44443071 L0,5.44443071 L0,2.40174757 L15.162,2.40174757 L15.162,5.44443071 L15.1589435,5.44443071 C15.0438881,7.02761734 11.6951689,7.98 7.581,7.98 C3.46683109,7.98 0.11811189,7.02761734 0.00305653701,5.44443071 Z" id="合并形状" fill="url(#linearGradient-1)" filter="url(#filter-23)"></path>
                            <path d="M7.581,5.11339806 C11.7678707,5.11339806 15.162,4.11883926 15.162,2.47147573 C15.162,0.824112197 11.7678707,0 7.581,0 C3.39412931,0 0,0.824112197 0,2.47147573 C0,4.11883926 3.39412931,5.11339806 7.581,5.11339806 Z" id="椭圆形" fill="url(#linearGradient-2)" filter="url(#filter-24)"></path>
                            <path d="M7.58844756,4.10621359 C10.8532735,4.10621359 13.3334171,3.28003028 13.3334171,2.50401553 C13.3334171,1.27990433 10.8532735,0.697281553 7.58844756,0.697281553 C4.32362157,0.697281553 1.74946096,1.37152644 1.67695718,2.50401553 C1.62435025,3.32572129 4.32362157,4.10621359 7.58844756,4.10621359 Z" id="椭圆形-copy" fill="#FFBB59" filter="url(#filter-25)"></path>
                            <path d="M7.98663074,2.8640212 L7.98663074,2.86660194 L5.33336683,2.09055429 L7.98663074,1.31895474 L7.98663074,1.31708738 L10.5905427,2.09055429 L7.98663074,2.8640212 Z" id="合并形状" fill="#FBD789" filter="url(#filter-26)"></path>
                        </g>
                        <g id="分组-2-copy-11" transform="translate(16.959480, 106.265699) scale(-1, 1) rotate(1.000000) translate(-16.959480, -106.265699) translate(9.378480, 102.275699)">
                            <path d="M0.00305653701,5.44443071 L0,5.44443071 L0,2.40174757 L15.162,2.40174757 L15.162,5.44443071 L15.1589435,5.44443071 C15.0438881,7.02761734 11.6951689,7.98 7.581,7.98 C3.46683109,7.98 0.11811189,7.02761734 0.00305653701,5.44443071 Z" id="合并形状" fill="url(#linearGradient-1)" filter="url(#filter-27)"></path>
                            <path d="M7.581,5.11339806 C11.7678707,5.11339806 15.162,4.11883926 15.162,2.47147573 C15.162,0.824112197 11.7678707,0 7.581,0 C3.39412931,0 0,0.824112197 0,2.47147573 C0,4.11883926 3.39412931,5.11339806 7.581,5.11339806 Z" id="椭圆形" fill="url(#linearGradient-2)" filter="url(#filter-28)"></path>
                            <path d="M7.58844756,4.10621359 C10.8532735,4.10621359 13.3334171,3.28003028 13.3334171,2.50401553 C13.3334171,1.27990433 10.8532735,0.697281553 7.58844756,0.697281553 C4.32362157,0.697281553 1.74946096,1.37152644 1.67695718,2.50401553 C1.62435025,3.32572129 4.32362157,4.10621359 7.58844756,4.10621359 Z" id="椭圆形-copy" fill="#FFBB59" filter="url(#filter-29)"></path>
                            <path d="M7.98663074,2.8640212 L7.98663074,2.86660194 L5.33336683,2.09055429 L7.98663074,1.31895474 L7.98663074,1.31708738 L10.5905427,2.09055429 L7.98663074,2.8640212 Z" id="合并形状" fill="#FBD789" filter="url(#filter-30)"></path>
                        </g>
                        <g id="分组-2-copy-16" transform="translate(16.959480, 103.073699) scale(-1, 1) rotate(1.000000) translate(-16.959480, -103.073699) translate(9.378480, 99.083699)">
                            <path d="M0.00305653701,5.44443071 L0,5.44443071 L0,2.40174757 L15.162,2.40174757 L15.162,5.44443071 L15.1589435,5.44443071 C15.0438881,7.02761734 11.6951689,7.98 7.581,7.98 C3.46683109,7.98 0.11811189,7.02761734 0.00305653701,5.44443071 Z" id="合并形状" fill="url(#linearGradient-1)" filter="url(#filter-31)"></path>
                            <path d="M7.581,5.11339806 C11.7678707,5.11339806 15.162,4.11883926 15.162,2.47147573 C15.162,0.824112197 11.7678707,0 7.581,0 C3.39412931,0 0,0.824112197 0,2.47147573 C0,4.11883926 3.39412931,5.11339806 7.581,5.11339806 Z" id="椭圆形" fill="url(#linearGradient-2)" filter="url(#filter-32)"></path>
                            <path d="M7.58844756,4.10621359 C10.8532735,4.10621359 13.3334171,3.28003028 13.3334171,2.50401553 C13.3334171,1.27990433 10.8532735,0.697281553 7.58844756,0.697281553 C4.32362157,0.697281553 1.74946096,1.37152644 1.67695718,2.50401553 C1.62435025,3.32572129 4.32362157,4.10621359 7.58844756,4.10621359 Z" id="椭圆形-copy" fill="#FFBB59" filter="url(#filter-33)"></path>
                            <path d="M7.98663074,2.8640212 L7.98663074,2.86660194 L5.33336683,2.09055429 L7.98663074,1.31895474 L7.98663074,1.31708738 L10.5905427,2.09055429 L7.98663074,2.8640212 Z" id="合并形状" fill="#FBD789" filter="url(#filter-34)"></path>
                        </g>
                        <g id="分组-2-copy-17" transform="translate(16.959480, 99.881699) scale(-1, 1) rotate(1.000000) translate(-16.959480, -99.881699) translate(9.378480, 95.891699)">
                            <path d="M0.00305653701,5.44443071 L0,5.44443071 L0,2.40174757 L15.162,2.40174757 L15.162,5.44443071 L15.1589435,5.44443071 C15.0438881,7.02761734 11.6951689,7.98 7.581,7.98 C3.46683109,7.98 0.11811189,7.02761734 0.00305653701,5.44443071 Z" id="合并形状" fill="url(#linearGradient-1)" filter="url(#filter-35)"></path>
                            <path d="M7.581,5.11339806 C11.7678707,5.11339806 15.162,4.11883926 15.162,2.47147573 C15.162,0.824112197 11.7678707,0 7.581,0 C3.39412931,0 0,0.824112197 0,2.47147573 C0,4.11883926 3.39412931,5.11339806 7.581,5.11339806 Z" id="椭圆形" fill="url(#linearGradient-2)" filter="url(#filter-36)"></path>
                            <path d="M7.58844756,4.10621359 C10.8532735,4.10621359 13.3334171,3.28003028 13.3334171,2.50401553 C13.3334171,1.27990433 10.8532735,0.697281553 7.58844756,0.697281553 C4.32362157,0.697281553 1.74946096,1.37152644 1.67695718,2.50401553 C1.62435025,3.32572129 4.32362157,4.10621359 7.58844756,4.10621359 Z" id="椭圆形-copy" fill="#FFBB59" filter="url(#filter-37)"></path>
                            <path d="M7.98663074,2.8640212 L7.98663074,2.86660194 L5.33336683,2.09055429 L7.98663074,1.31895474 L7.98663074,1.31708738 L10.5905427,2.09055429 L7.98663074,2.8640212 Z" id="合并形状" fill="#FBD789" filter="url(#filter-38)"></path>
                        </g>
                        <g id="分组-4" transform="translate(119.966000, 107.730000)">
                            <path d="M4.61852778e-13,9.4157616 L3.74845219,15.8444496 C7.85429113,14.8567948 11.3342516,13.540414 14.1883336,11.8953072 C17.0424156,10.2502004 19.4420946,8.17752844 21.3873705,5.6772912 L15.61952,0 C13.6345518,2.38670968 11.3678417,4.34819368 8.8193896,5.884452 C6.27093749,7.42071032 3.33114096,8.59781352 4.61852778e-13,9.4157616 Z" id="路径-6" fill="url(#linearGradient-39)"></path>
                            <path d="M0.868854978,9.6891032 L4.2491904,15.0770928 C7.78316,14.1548176 10.8451747,12.95154 13.4352344,11.46726 C16.0252941,9.98298 18.3675483,8.0950184 20.4619968,5.8033752 L15.6893184,0.988988 C13.3209394,3.42846161 11.1111269,5.27147482 9.05988088,6.51802763 C7.00863484,7.76458044 4.27829288,8.82160563 0.868854978,9.6891032 Z" id="路径-6-copy" stroke="#FFFFFF" stroke-width="0.5" stroke-dasharray="0.2179071746766567,0.2179071746766567"></path>
                            <circle id="椭圆形" stroke="#FFFFFF" stroke-width="0.6537216" cx="6.1014016" cy="11.1132672" r="1.5253504"></circle>
                            <text id="$" transform="translate(11.421823, 8.711090) rotate(-31.000000) translate(-11.421823, -8.711090) " font-family="PingFangSC-Medium, PingFang SC" font-size="5.0118656" font-weight="400" fill="#FFFFFF">
                                <tspan x="9.42182298" y="10.2110898">$</tspan>
                            </text>
                            <circle id="椭圆形-copy-3" stroke="#FFFFFF" stroke-width="0.6537216" cx="15.253504" cy="5.8834944" r="1.5253504"></circle>
                        </g>
                        <g id="分组-4-copy" transform="translate(32.452000, 30.590000)">
                            <path d="M4.61852778e-13,7.53260928 L2.99876175,12.6755597 C6.2834329,11.8854358 9.06740128,10.8323312 11.3506669,9.51624576 C13.6339325,8.20016035 15.5536757,6.54202275 17.1098964,4.54183296 L12.495616,0 C10.9076415,1.90936775 9.09427337,3.47855495 7.05551168,4.7075616 C5.01674999,5.93656825 2.66491277,6.87825081 4.61852778e-13,7.53260928 Z" id="路径-6" fill="url(#linearGradient-39)"></path>
                            <path d="M0.695083983,7.75128256 L3.39935232,12.0616742 C6.226528,11.3238541 8.67613973,10.361232 10.7481875,9.173808 C12.8202353,7.986384 14.6940386,6.47601472 16.3695974,4.64270016 L12.5514547,0.7911904 C10.6567515,2.74276929 8.88890153,4.21717986 7.2479047,5.2144221 C5.60690788,6.21166435 3.4226343,7.0572845 0.695083983,7.75128256 Z" id="路径-6-copy" stroke="#FFFFFF" stroke-width="0.5" stroke-dasharray="0.174325742572546,0.174325742572546"></path>
                            <circle id="椭圆形" stroke="#FFFFFF" stroke-width="0.52297728" cx="4.88112128" cy="8.89061376" r="1.22028032"></circle>
                            <text id="$" transform="translate(8.897230, 6.763225) rotate(-31.000000) translate(-8.897230, -6.763225) " font-family="PingFangSC-Medium, PingFang SC" font-size="4.00949248" font-weight="400" fill="#FFFFFF">
                                <tspan x="7.39723024" y="8.26322542">$</tspan>
                            </text>
                            <circle id="椭圆形-copy-3" stroke="#FFFFFF" stroke-width="0.52297728" cx="12.2028032" cy="4.70679552" r="1.22028032"></circle>
                        </g>
                        <path d="M119.402755,5.28875535 C119.591637,5.28875535 119.744755,5.44187396 119.744755,5.63075535 L119.744755,6.99875535 C119.744755,7.18763673 119.591637,7.34075535 119.402755,7.34075535 C119.213874,7.34075535 119.060755,7.18763673 119.060755,6.99875535 L119.060755,5.63075535 C119.060755,5.44187396 119.213874,5.28875535 119.402755,5.28875535 Z M117.008755,7.68275535 C117.008755,7.49387396 117.161874,7.34075535 117.350755,7.34075535 L118.718755,7.34075535 C118.907637,7.34075535 119.060755,7.49387396 119.060755,7.68275535 C119.060755,7.87163673 118.907637,8.02475535 118.718755,8.02475535 L117.350755,8.02475535 C117.161874,8.02475535 117.008755,7.87163673 117.008755,7.68275535 Z M119.402755,8.02475535 C119.591637,8.02475535 119.744755,8.17787396 119.744755,8.36675535 L119.744755,9.73475535 C119.744755,9.92363673 119.591637,10.0767553 119.402755,10.0767553 C119.213874,10.0767553 119.060755,9.92363673 119.060755,9.73475535 L119.060755,8.36675535 C119.060755,8.17787396 119.213874,8.02475535 119.402755,8.02475535 Z M119.744755,7.68275535 C119.744755,7.49387396 119.897874,7.34075535 120.086755,7.34075535 L121.454755,7.34075535 C121.643637,7.34075535 121.796755,7.49387396 121.796755,7.68275535 C121.796755,7.87163673 121.643637,8.02475535 121.454755,8.02475535 L120.086755,8.02475535 C119.897874,8.02475535 119.744755,7.87163673 119.744755,7.68275535 Z" id="合并形状" fill="url(#linearGradient-40)" opacity="0.521902902" transform="translate(119.402755, 7.682755) rotate(24.000000) translate(-119.402755, -7.682755) "></path>
                        <path d="M35.3467553,11.9387553 C35.5356367,11.9387553 35.6887553,12.091874 35.6887553,12.2807553 L35.6887553,13.6487553 C35.6887553,13.8376367 35.5356367,13.9907553 35.3467553,13.9907553 C35.157874,13.9907553 35.0047553,13.8376367 35.0047553,13.6487553 L35.0047553,12.2807553 C35.0047553,12.091874 35.157874,11.9387553 35.3467553,11.9387553 Z M32.9527553,14.3327553 C32.9527553,14.143874 33.105874,13.9907553 33.2947553,13.9907553 L34.6627553,13.9907553 C34.8516367,13.9907553 35.0047553,14.143874 35.0047553,14.3327553 C35.0047553,14.5216367 34.8516367,14.6747553 34.6627553,14.6747553 L33.2947553,14.6747553 C33.105874,14.6747553 32.9527553,14.5216367 32.9527553,14.3327553 Z M35.3467553,14.6747553 C35.5356367,14.6747553 35.6887553,14.827874 35.6887553,15.0167553 L35.6887553,16.3847553 C35.6887553,16.5736367 35.5356367,16.7267553 35.3467553,16.7267553 C35.157874,16.7267553 35.0047553,16.5736367 35.0047553,16.3847553 L35.0047553,15.0167553 C35.0047553,14.827874 35.157874,14.6747553 35.3467553,14.6747553 Z M35.6887553,14.3327553 C35.6887553,14.143874 35.841874,13.9907553 36.0307553,13.9907553 L37.3987553,13.9907553 C37.5876367,13.9907553 37.7407553,14.143874 37.7407553,14.3327553 C37.7407553,14.5216367 37.5876367,14.6747553 37.3987553,14.6747553 L36.0307553,14.6747553 C35.841874,14.6747553 35.6887553,14.5216367 35.6887553,14.3327553 Z" id="合并形状-copy" fill="url(#linearGradient-40)" opacity="0.521902902" transform="translate(35.346755, 14.332755) rotate(24.000000) translate(-35.346755, -14.332755) "></path>
                        <path d="M16.9927553,59.2867553 C17.1816367,59.2867553 17.3347553,59.439874 17.3347553,59.6287553 L17.3347553,60.9967553 C17.3347553,61.1856367 17.1816367,61.3387553 16.9927553,61.3387553 C16.803874,61.3387553 16.6507553,61.1856367 16.6507553,60.9967553 L16.6507553,59.6287553 C16.6507553,59.439874 16.803874,59.2867553 16.9927553,59.2867553 Z M14.5987553,61.6807553 C14.5987553,61.491874 14.751874,61.3387553 14.9407553,61.3387553 L16.3087553,61.3387553 C16.4976367,61.3387553 16.6507553,61.491874 16.6507553,61.6807553 C16.6507553,61.8696367 16.4976367,62.0227553 16.3087553,62.0227553 L14.9407553,62.0227553 C14.751874,62.0227553 14.5987553,61.8696367 14.5987553,61.6807553 Z M16.9927553,62.0227553 C17.1816367,62.0227553 17.3347553,62.175874 17.3347553,62.3647553 L17.3347553,63.7327553 C17.3347553,63.9216367 17.1816367,64.0747553 16.9927553,64.0747553 C16.803874,64.0747553 16.6507553,63.9216367 16.6507553,63.7327553 L16.6507553,62.3647553 C16.6507553,62.175874 16.803874,62.0227553 16.9927553,62.0227553 Z M17.3347553,61.6807553 C17.3347553,61.491874 17.487874,61.3387553 17.6767553,61.3387553 L19.0447553,61.3387553 C19.2336367,61.3387553 19.3867553,61.491874 19.3867553,61.6807553 C19.3867553,61.8696367 19.2336367,62.0227553 19.0447553,62.0227553 L17.6767553,62.0227553 C17.487874,62.0227553 17.3347553,61.8696367 17.3347553,61.6807553 Z" id="合并形状-copy-2" fill="url(#linearGradient-40)" opacity="0.521902902" transform="translate(16.992755, 61.680755) rotate(24.000000) translate(-16.992755, -61.680755) "></path>
                    </g>
                </g>
            </g>
        </g>
    </g>
</svg>