<?xml version="1.0" encoding="UTF-8"?>
<svg width="40px" height="40px" viewBox="0 0 40 40" version="1.1" xmlns="http://www.w3.org/2000/svg" xmlns:xlink="http://www.w3.org/1999/xlink">
    <!-- Generator: Sketch 52.5 (67469) - http://www.bohemiancoding.com/sketch -->
    <title>等待审核</title>
    <desc>Created with Sketch.</desc>
    <defs>
        <linearGradient x1="0%" y1="0%" x2="71.8112047%" y2="79.7792758%" id="linearGradient-1">
            <stop stop-color="#81C4FF" offset="0%"></stop>
            <stop stop-color="#4D85FF" offset="100%"></stop>
        </linearGradient>
    </defs>
    <g id="赣州国旅项目" stroke="none" stroke-width="1" fill="none" fill-rule="evenodd">
        <g id="旅游产品-状态进度" transform="translate(-165.000000, -137.000000)">
            <g id="等待审核" transform="translate(165.000000, 137.000000)">
                <circle id="椭圆形-copy-21" fill="#E7EFFF" cx="20" cy="20" r="20"></circle>
                <circle id="椭圆形-copy-25" fill="#4D85FF" opacity="0.360560826" cx="20" cy="20" r="16"></circle>
                <circle id="椭圆形-copy-29" fill="url(#linearGradient-1)" cx="20" cy="20" r="14"></circle>
                <g id="分组-copy-2" transform="translate(12.000000, 12.000000)" fill="#FFFFFF">
                    <path d="M6.19905366,16 L2.45026347,16 C1.09850522,16 0,14.934375 0,13.625 L0,2.375 C0,1.065625 1.09850522,0 2.45026347,0 L12.5497365,0 C13.9014948,0 15,1.065625 15,2.375 L15,5 C15,5.2765625 14.76933,5.5 14.4838155,5.5 C14.1983009,5.5 13.9676309,5.2765625 13.9676309,5 L13.9676309,2.375 C13.9676309,1.6171875 13.3320787,1 12.5497365,1 L2.45026347,1 C1.66792128,1 1.03236907,1.6171875 1.03236907,2.375 L1.03236907,13.625 C1.03236907,14.3828125 1.66792128,15 2.45026347,15 L6.19905366,15 C6.48456823,15 6.7152382,15.2234375 6.7152382,15.5 C6.7152382,15.7765625 6.48295516,16 6.19905366,16 Z" id="路径"></path>
                    <path d="M11.15428,5.00026048 L4.48126332,5.00026048 C4.21656849,5.00026048 4,4.77520188 4,4.50013024 C4,4.22505861 4.21656849,4 4.48126332,4 L11.152776,4 C11.4174709,4 11.6340394,4.22505861 11.6340394,4.50013024 C11.6355433,4.77520188 11.4189748,5.00026048 11.15428,5.00026048 Z M7.33876426,8.48554311 L4.48126332,8.48554311 C4.21656849,8.48554311 4,8.2604845 4,7.98541287 C4,7.71034123 4.21656849,7.48528263 4.48126332,7.48528263 L7.33876426,7.48528263 C7.60345908,7.48528263 7.82002757,7.71034123 7.82002757,7.98541287 C7.82002757,8.2604845 7.60345908,8.48554311 7.33876426,8.48554311 Z M5.90249405,11.9958322 L4.48126332,11.9958322 C4.21656849,11.9958322 4,11.7707736 4,11.495702 C4,11.2206304 4.21656849,10.9955718 4.48126332,10.9955718 L5.90249405,10.9955718 C6.16718887,10.9955718 6.38375736,11.2206304 6.38375736,11.495702 C6.38375736,11.7707736 6.16718887,11.9958322 5.90249405,11.9958322 Z M11.9122697,8.49804637 C12.7469608,8.49804637 13.5320216,8.83563428 14.1215691,9.44985673 C14.7126206,10.0640792 15.0374734,10.8799166 15.0374734,11.7488929 C15.0374734,12.6178692 14.7126206,13.4321438 14.1215691,14.0463662 C13.5320216,14.6605887 12.7469608,14.9981766 11.9122697,14.9981766 C11.0775786,14.9981766 10.2925179,14.6605887 9.7029703,14.0463662 C9.11191879,13.4321438 8.78706605,12.6163063 8.78706605,11.74733 C8.78706605,10.8783537 9.11191879,10.0625163 9.7029703,9.44829383 C10.2925179,8.83563428 11.0775786,8.49804637 11.9122697,8.49804637 Z M11.9122697,7.49778588 C9.65484397,7.49778588 7.82453942,9.40140662 7.82453942,11.7488929 C7.82453942,14.0963793 9.65484397,16 11.9122697,16 C14.1696955,16 16,14.0963793 16,11.7488929 C16,9.40140662 14.1696955,7.49778588 11.9122697,7.49778588 Z" id="形状" fill-rule="nonzero"></path>
                    <g id="分组-2" transform="translate(9.600000, 11.500000)">
                        <circle id="椭圆形" cx="0.6" cy="0.6" r="1"></circle>
                        <circle id="椭圆形-copy-6" cx="2.4" cy="0.6" r="1"></circle>
                        <circle id="椭圆形-copy-7" cx="4.2" cy="0.6" r="1"></circle>
                    </g>
                </g>
            </g>
        </g>
    </g>
</svg>