<?xml version="1.0" encoding="UTF-8"?>
<svg width="30px" height="30px" viewBox="0 0 30 30" version="1.1" xmlns="http://www.w3.org/2000/svg" xmlns:xlink="http://www.w3.org/1999/xlink">
    <!-- Generator: Sketch 52.5 (67469) - http://www.bohemiancoding.com/sketch -->
    <title>等待出行-灰</title>
    <desc>Created with Sketch.</desc>
    <g id="赣州国旅项目" stroke="none" stroke-width="1" fill="none" fill-rule="evenodd">
        <g id="旅游产品-状态进度" transform="translate(-247.000000, -47.000000)">
            <g id="等待出行-灰" transform="translate(248.000000, 48.000000)">
                <g id="带出行-copy" transform="translate(7.000000, 6.000000)" fill="#999999" fill-rule="nonzero">
                    <path d="M12.544,3.32075472 L10.64,3.32075472 L10.64,1.3081761 C10.64,0.603773585 9.856,0 8.96,0 L5.04,0 C4.144,0 3.36,0.603773585 3.36,1.3081761 L3.36,3.32075472 L1.456,3.32075472 C0.672,3.32075472 0,4.02515723 0,4.83018868 L0,14.591195 C0,15.3962264 0.672,16 1.456,16 L12.544,16 C13.328,16 14,15.3962264 14,14.591195 L14,4.83018868 C14,4.02515723 13.44,3.32075472 12.544,3.32075472 Z M4.48,1.3081761 C4.48,1.10691824 4.704,0.905660377 5.04,0.905660377 L8.96,0.905660377 C9.296,0.905660377 9.52,1.10691824 9.52,1.3081761 L9.52,3.32075472 L4.48,3.32075472 L4.48,1.3081761 Z M13.104,14.490566 C13.104,14.7924528 12.88,14.9937107 12.656,14.9937107 L1.456,14.9937107 C1.232,14.9937107 1.008,14.7924528 1.008,14.490566 L1.008,4.83018868 C1.008,4.52830189 1.232,4.32704403 1.456,4.32704403 L12.544,4.32704403 C12.768,4.32704403 12.992,4.52830189 12.992,4.83018868 L12.992,14.490566 L13.104,14.490566 Z" id="形状"></path>
                    <path d="M4.86858974,7 C4.53205128,7 4.30769231,7.1875 4.30769231,7.46875 L4.30769231,12.53125 C4.30769231,12.8125 4.53205128,13 4.86858974,13 C5.20512821,13 5.42948718,12.8125 5.42948718,12.53125 L5.42948718,7.46875 C5.42948718,7.1875 5.20512821,7 4.86858974,7 Z M9.13141026,7 C8.79487179,7 8.57051282,7.1875 8.57051282,7.46875 L8.57051282,12.53125 C8.57051282,12.8125 8.79487179,13 9.13141026,13 C9.46794872,13 9.69230769,12.8125 9.69230769,12.53125 L9.69230769,7.46875 C9.69230769,7.1875 9.46794872,7 9.13141026,7 Z" id="形状"></path>
                </g>
                <circle id="椭圆形-copy-16" stroke="#999999" cx="14" cy="14" r="14"></circle>
            </g>
        </g>
    </g>
</svg>