<?xml version="1.0" encoding="UTF-8"?>
<svg width="40px" height="40px" viewBox="0 0 40 40" version="1.1" xmlns="http://www.w3.org/2000/svg" xmlns:xlink="http://www.w3.org/1999/xlink">
    <!-- Generator: Sketch 52.5 (67469) - http://www.bohemiancoding.com/sketch -->
    <title>交易完成</title>
    <desc>Created with Sketch.</desc>
    <defs>
        <linearGradient x1="0%" y1="0%" x2="71.8112047%" y2="79.7792758%" id="linearGradient-1">
            <stop stop-color="#81C4FF" offset="0%"></stop>
            <stop stop-color="#4D85FF" offset="100%"></stop>
        </linearGradient>
    </defs>
    <g id="赣州国旅项目" stroke="none" stroke-width="1" fill="none" fill-rule="evenodd">
        <g id="旅游产品-状态进度" transform="translate(-315.000000, -327.000000)">
            <g id="交易完成" transform="translate(315.000000, 327.000000)">
                <circle id="椭圆形-copy-23" fill="#E7EFFF" cx="20" cy="20" r="20"></circle>
                <circle id="椭圆形-copy-27" fill="#4D85FF" opacity="0.360560826" cx="20" cy="20" r="16"></circle>
                <circle id="椭圆形-copy-31" fill="url(#linearGradient-1)" cx="20" cy="20" r="14"></circle>
                <g id="分组-8-copy" transform="translate(12.000000, 12.000000)" fill="#FFFFFF">
                    <path d="M13.8696821,0 L12.8044963,0 C12.5098792,0 12.1699419,0.175561909 12.1699419,0.460901931 C12.1699419,0.746224647 12.5098792,1.03156467 12.8044963,1.03156467 L13.8696821,1.03156467 C14.5042186,1.03156467 14.93485,1.44859343 14.93485,2.06312934 L14.93485,13.9369053 C14.93485,14.5514412 14.5042186,14.9684699 13.8696821,14.9684699 L2.40225708,14.9684699 C1.76770265,14.9684699 1.06516791,14.5514412 1.06516791,13.9369053 L1.06516791,2.06314665 C1.06516791,1.44861074 1.49578139,1.03158198 2.13033581,1.03158198 L3.46742498,1.03158198 C3.76202422,1.03158198 3.87536049,0.746241954 3.87536049,0.460919238 C3.87536049,0.175579216 3.76204209,1.73069705e-05 3.46742498,1.73069705e-05 L2.13035368,1.73069705e-05 C0.634572297,-2.45946843e-16 0,0.899875931 0,2.08507458 L0,13.8271964 C0,15.1001587 0.793193033,16 2.2436006,16 L13.75631,16 C15.206807,16 16,15.253758 16,13.8271964 L16,2.08507458 C16.0000179,0.899875931 15.2521272,4.91893686e-16 13.8696999,4.91893686e-16 L13.8696821,0 Z" id="路径-copy" fill-rule="nonzero"></path>
                    <path d="M12.8549595,5.14951768 C12.6600125,4.95016077 12.341859,4.95016077 12.1484716,5.14951768 L6.70711167,10.7588424 L3.85152838,7.65273312 C3.65658141,7.45337621 3.33842795,7.45337621 3.14504055,7.65273312 C2.95165315,7.85369775 2.95165315,8.18167203 3.14504055,8.38102894 L6.35464754,11.8504823 C6.45134124,11.9501608 6.57922645,12 6.70711167,12 C6.83499688,12 6.9628821,11.9501608 7.06113537,11.8504823 L12.8549595,5.8778135 C13.0483468,5.67684887 13.0483468,5.35048232 12.8549595,5.14951768 Z" id="路径"></path>
                    <path d="M5.91910447,1.1 L10.1064044,1.1 C10.5915561,1.1 11,0.845116404 11,0.549994711 C11,0.254894174 10.5915158,-4.5519144e-14 10.0808754,-4.5519144e-14 L5.9191246,-4.5519144e-14 C5.40848417,-4.5519144e-14 5,0.254883596 5,0.549994711 C5,0.845116404 5.40846403,1.1 5.9191246,1.1 L5.91910447,1.1 Z" id="路径-copy-2" fill-rule="nonzero"></path>
                </g>
            </g>
        </g>
    </g>
</svg>