<?xml version="1.0" encoding="UTF-8"?>
<svg width="40px" height="40px" viewBox="0 0 40 40" version="1.1" xmlns="http://www.w3.org/2000/svg" xmlns:xlink="http://www.w3.org/1999/xlink">
    <!-- Generator: Sketch 52.5 (67469) - http://www.bohemiancoding.com/sketch -->
    <title>提交订单</title>
    <desc>Created with Sketch.</desc>
    <defs>
        <linearGradient x1="0%" y1="0%" x2="71.8112047%" y2="79.7792758%" id="linearGradient-1">
            <stop stop-color="#81C4FF" offset="0%"></stop>
            <stop stop-color="#4D85FF" offset="100%"></stop>
        </linearGradient>
    </defs>
    <g id="赣州国旅项目" stroke="none" stroke-width="1" fill="none" fill-rule="evenodd">
        <g id="旅游产品-状态进度" transform="translate(-19.000000, -137.000000)">
            <g id="提交订单" transform="translate(19.000000, 137.000000)">
                <circle id="椭圆形-copy" fill="#E7EFFF" cx="20" cy="20" r="20"></circle>
                <circle id="椭圆形-copy-12" fill="#4D85FF" opacity="0.360560826" cx="20" cy="20" r="16"></circle>
                <circle id="椭圆形-copy-14" fill="url(#linearGradient-1)" cx="20" cy="20" r="14"></circle>
                <g id="分组-3-copy" transform="translate(13.000000, 13.000000)" fill="#FFFFFF" fill-rule="nonzero">
                    <path d="M12.1359718,0 L11.2039342,0 C10.9461443,0 10.6486991,0.15361667 10.6486991,0.40328919 C10.6486991,0.652946566 10.9461443,0.902619085 11.2039342,0.902619085 L12.1359718,0.902619085 C12.6911913,0.902619085 13.0679937,1.26751925 13.0679937,1.80523817 L13.0679937,12.1947921 C13.0679937,12.732511 12.6911913,13.0974112 12.1359718,13.0974112 L2.10197494,13.0974112 C1.54673982,13.0974112 0.932021918,12.732511 0.932021918,12.1947921 L0.932021918,1.80525331 C0.932021918,1.26753439 1.30880871,0.902634229 1.86404384,0.902634229 L3.03399686,0.902634229 C3.29177119,0.902634229 3.39094043,0.652961709 3.39094043,0.403304333 C3.39094043,0.153631814 3.29178683,1.51435992e-05 3.03399686,1.51435992e-05 L1.86405947,1.51435992e-05 C0.55525076,-2.15203488e-16 0,0.787391439 0,1.82444025 L0,12.0987968 C0,13.2126388 0.694043904,14 1.96315052,14 L12.0367713,14 C13.3059561,14 14,13.3470383 14,12.0987968 L14,1.82444025 C14.0000156,0.787391439 13.3456113,4.30406976e-16 12.1359874,4.30406976e-16 L12.1359718,0 Z" id="路径"></path>
                    <g id="分组" transform="translate(2.625000, 3.937500)">
                        <path d="M1.21680443e-13,0.446843181 C1.21680443e-13,0.688864888 0.218166059,0.893612961 0.475877845,0.893612961 L7.47589348,0.893612961 C7.73368345,0.893612961 7.95184951,0.688864888 7.95184951,0.446843181 C7.95184951,0.204806795 7.73368345,-1.33226763e-15 7.47589348,-1.33226763e-15 L0.475877845,-1.33226763e-15 C0.218166059,-1.33226763e-15 1.23013726e-13,0.204806795 1.23013726e-13,0.446843181 Z" id="路径"></path>
                        <path d="M7.45608153,2.625 L0.475877845,2.625 C0.218166059,2.625 1.25233157e-13,2.82980679 1.25233157e-13,3.07184318 C1.25233157e-13,3.31380617 0.218166059,3.51861296 0.475877845,3.51861296 L7.47589348,3.51861296 C7.73368345,3.51861296 7.95184951,3.31380617 7.95184951,3.07184318 C7.93203756,2.811192 7.7138715,2.625 7.45606589,2.625 L7.45608153,2.625 Z" id="路径"></path>
                        <path d="M7.45608153,5.25 L0.475877845,5.25 C0.218166059,5.25 1.25233157e-13,5.45482148 1.25233157e-13,5.69685786 C1.25233157e-13,5.93886489 0.218166059,6.14361296 0.475877845,6.14361296 L7.47589348,6.14361296 C7.73368345,6.14361296 7.95184951,5.93886489 7.95184951,5.69685786 C7.93203756,5.436192 7.7138715,5.25 7.45606589,5.25 L7.45608153,5.25 Z" id="路径"></path>
                    </g>
                    <path d="M5.17921641,0.9625 L8.84310385,0.9625 C9.26761159,0.9625 9.625,0.739476854 9.625,0.481245372 C9.625,0.223032402 9.26757636,-4.5519144e-14 8.82076597,-4.5519144e-14 L5.17923403,-4.5519144e-14 C4.73242364,-4.5519144e-14 4.375,0.223023146 4.375,0.481245372 C4.375,0.739476854 4.73240603,0.9625 5.17923403,0.9625 L5.17921641,0.9625 Z" id="路径"></path>
                </g>
            </g>
        </g>
    </g>
</svg>