<?xml version="1.0" encoding="UTF-8"?>
<svg width="40px" height="40px" viewBox="0 0 40 40" version="1.1" xmlns="http://www.w3.org/2000/svg" xmlns:xlink="http://www.w3.org/1999/xlink">
    <!-- Generator: Sketch 52.5 (67469) - http://www.bohemiancoding.com/sketch -->
    <title>等待付款</title>
    <desc>Created with Sketch.</desc>
    <defs>
        <linearGradient x1="0%" y1="0%" x2="71.8112047%" y2="79.7792758%" id="linearGradient-1">
            <stop stop-color="#81C4FF" offset="0%"></stop>
            <stop stop-color="#4D85FF" offset="100%"></stop>
        </linearGradient>
    </defs>
    <g id="赣州国旅项目" stroke="none" stroke-width="1" fill="none" fill-rule="evenodd">
        <g id="旅游产品-状态进度" transform="translate(-92.000000, -137.000000)">
            <g id="等待付款" transform="translate(92.000000, 137.000000)">
                <circle id="椭圆形-copy-11" fill="#E7EFFF" cx="20" cy="20" r="20"></circle>
                <circle id="椭圆形-copy-13" fill="#4D85FF" opacity="0.360560826" cx="20" cy="20" r="16"></circle>
                <circle id="椭圆形-copy-15" fill="url(#linearGradient-1)" cx="20" cy="20" r="14"></circle>
                <g id="待支付-copy" transform="translate(12.000000, 12.000000)" fill="#FFFFFF" fill-rule="nonzero">
                    <path d="M7.9887601,16 C5.85879873,16 3.85528626,15.167955 2.34351949,13.6556571 C0.831752711,12.1433591 0,10.1363317 0,8.00281097 C0,3.58959944 3.5883386,0 7.99999999,0 C12.4116614,0 16,3.58959944 16,8.00281097 C16,8.30358399 15.7555321,8.54532678 15.4548648,8.54532678 C15.3087461,8.54532678 15.1710573,8.48910752 15.0698981,8.3851019 C14.965929,8.28109628 14.9097295,8.1433591 14.9097295,8.00000001 C14.9097295,4.18833451 11.8103267,1.08784259 7.99999999,1.08784259 C4.18967333,1.08784259 1.09027045,4.18833451 1.09027046,8.00000001 C1.09027048,11.8116655 4.18967335,14.9121574 7.99719002,14.9121574 C8.29785739,14.9121574 8.54232524,15.1567112 8.54232526,15.4546732 C8.54232526,15.7554463 8.29785739,16 7.99719002,16 L7.9887601,16 Z M12.0482907,15.5127679 L12.0482907,14.1942801 L10.8523984,14.1942801 C10.610049,14.1942801 10.4152635,13.9822497 10.4152635,13.7239138 C10.4152635,13.4655779 10.6123139,13.2535475 10.8523984,13.2535475 L12.0482907,13.2535475 L12.0482907,12.778307 L10.8501334,12.7758699 C10.607784,12.7758699 10.4129985,12.5638395 10.4129985,12.3055036 C10.4129985,12.0447306 10.610049,11.8327002 10.8501334,11.8327002 L11.6541898,11.8327002 L10.5013315,10.2217566 C10.4311181,10.1218342 10.3994088,9.99510341 10.4152635,9.87324687 C10.4311181,9.75139031 10.4922717,9.63684516 10.5851345,9.56129409 C10.6621428,9.49792868 10.7550056,9.46380886 10.8523984,9.46380886 C10.8727829,9.46380886 10.8909025,9.46624599 10.911287,9.46868312 C11.0245344,9.48574304 11.1309869,9.55154557 11.2012003,9.65146794 L12.4899555,11.4525077 L13.7787107,9.65146794 C13.8625138,9.53448565 13.9893509,9.46624599 14.1275127,9.46624599 C14.2249054,9.46624599 14.3177683,9.50036583 14.3947765,9.56373122 C14.5872971,9.72214473 14.6212713,10.0194747 14.4763146,10.2266309 L13.3234563,11.8375744 L14.1275127,11.8375744 C14.3698621,11.8375744 14.5669125,12.0496048 14.5669125,12.3103778 C14.5669126,12.5711508 14.3698621,12.7831812 14.1275127,12.7831813 L12.9293554,12.7831813 L12.9293554,13.2584218 L14.1252477,13.2584218 C14.3675971,13.2584218 14.5646476,13.4704522 14.5646476,13.7287881 C14.5646476,13.9871239 14.3675971,14.1991543 14.1252477,14.1991544 L12.9293554,14.1991544 L12.9293554,15.5176422 C12.9248255,15.7711038 12.727775,15.9831342 12.4854256,15.9831342 C12.2430762,15.9831342 12.0482907,15.7711038 12.0482907,15.5127679 Z M4.34703197,9.63527759 C3.90586583,9.63527759 3.77660696,9.38229094 3.74007727,9.23049895 C3.66982788,8.93815883 3.84685634,8.64300774 4.13347382,8.57273367 L4.1587636,8.56711174 L7.67404286,8.56711174 L7.73305234,5.3626142 L7.73586231,5.34574842 C7.78644187,5.08713985 8.0112399,4.90161631 8.27256761,4.90161631 C8.30347734,4.90161631 8.33438706,4.90442727 8.36529681,4.9100492 C8.65472427,4.96345749 8.85142255,5.23612088 8.80927291,5.528461 L8.7081138,9.13492622 L8.70530382,9.14898104 C8.66596416,9.3626142 8.50579557,9.53127197 8.29785739,9.5818693 L8.27537759,9.58749122 L4.34703197,9.63527759 Z" id="形状"></path>
                </g>
            </g>
        </g>
    </g>
</svg>