<?xml version="1.0" encoding="UTF-8"?>
<svg width="40px" height="40px" viewBox="0 0 40 40" version="1.1" xmlns="http://www.w3.org/2000/svg" xmlns:xlink="http://www.w3.org/1999/xlink">
    <!-- Generator: Sketch 52.5 (67469) - http://www.bohemiancoding.com/sketch -->
    <title>等待收货</title>
    <desc>Created with Sketch.</desc>
    <defs>
        <linearGradient x1="0%" y1="0%" x2="71.8112047%" y2="79.7792758%" id="linearGradient-1">
            <stop stop-color="#81C4FF" offset="0%"></stop>
            <stop stop-color="#4D85FF" offset="100%"></stop>
        </linearGradient>
    </defs>
    <g id="赣州国旅项目" stroke="none" stroke-width="1" fill="none" fill-rule="evenodd">
        <g id="其他产品-状态进度-" transform="translate(-243.000000, -232.000000)">
            <g id="等待收货" transform="translate(243.000000, 232.000000)">
                <circle id="椭圆形-copy-14" fill="#E7EFFF" cx="20" cy="20" r="20"></circle>
                <circle id="椭圆形-copy-15" fill="#4D85FF" opacity="0.360560826" cx="20" cy="20" r="16"></circle>
                <circle id="椭圆形-copy-16" fill="url(#linearGradient-1)" cx="20" cy="20" r="14"></circle>
                <g id="分组-2" transform="translate(12.000000, 12.000000)">
                    <path d="M1.00000022,13.0725887 L1,12.9999976 L0.963704656,13.0362931 L0.927411511,13 L0.927411511,13.0725865 L0.5,13.5 L0.927411511,13.5 L0.927411511,13.5713938 C0.927411511,14.0975068 1.35796654,14.5350985 1.89111589,14.5350985 L9.24600194,14.5350985 C9.23503442,14.5350985 9.22610884,14.5262734 9.2259846,14.5153066 C9.22598296,14.5151323 9.22598296,14.5151323 9.22598263,14.514958 C9.22598264,14.4979637 9.2397593,14.484187 9.25675368,14.484187 L1.90186762,14.4841844 C1.66180338,14.48466 1.43238698,14.3898992 1.26333752,14.2208496 C1.09428798,14.0518 0.99952719,13.8223832 1.00000178,13.5833113 L1.00000152,13.5 L1.42741151,13.5 L1.00000022,13.0725887 Z M14.9222145,4.84855796 C14.8448716,4.45855304 14.7169393,4.0586255 14.571103,3.78931458 L13.2874951,1.31906013 C13.0589521,0.877564932 12.4408506,0.5 11.9413939,0.5 L4.06934448,0.5 C3.57492837,0.5 2.95681381,0.872441106 2.72076481,1.31303447 L1.4355974,3.73206826 C1.28228515,4.01508458 1.1461882,4.44270712 1.06845606,4.84855796 L14.9222145,4.84855796 Z M1.00987696,12.5158128 L1.01047775,12.9439223 L0.974933267,12.9795167 L0.937883552,12.942519 L0.937284757,12.5158128 L1.00987696,12.5158128 Z" id="形状" stroke="#FFFFFF" fill-rule="nonzero"></path>
                    <path d="M5,6.5 L10.7268962,6.5" id="直线-2-copy-2" stroke="#FFFFFF" stroke-linecap="round"></path>
                    <path d="M9.5,11.2511071 C9.5,13.3267992 11.1109833,15.0022141 13.0877303,15.0022141 C15.0644773,15.0022141 16.6754606,13.3267992 16.6754606,11.2511071 C16.6754606,9.1754149 15.0644773,7.5 13.0877303,7.5 C11.1109833,7.5 9.5,9.1754149 9.5,11.2511071 Z" id="路径-copy-4" stroke="#FFFFFF" fill-rule="nonzero"></path>
                    <circle id="椭圆形" fill="#FFFFFF" cx="11.3" cy="11.1" r="1"></circle>
                    <circle id="椭圆形-copy-6" fill="#FFFFFF" cx="13.1" cy="11.1" r="1"></circle>
                    <circle id="椭圆形-copy-7" fill="#FFFFFF" cx="14.9" cy="11.1" r="1"></circle>
                </g>
            </g>
        </g>
    </g>
</svg>