<?xml version="1.0" encoding="UTF-8"?>
<svg width="30px" height="30px" viewBox="0 0 30 30" version="1.1" xmlns="http://www.w3.org/2000/svg" xmlns:xlink="http://www.w3.org/1999/xlink">
    <!-- Generator: Sketch 52.5 (67469) - http://www.bohemiancoding.com/sketch -->
    <title>等待发货-灰</title>
    <desc>Created with Sketch.</desc>
    <g id="赣州国旅项目" stroke="none" stroke-width="1" fill="none" fill-rule="evenodd">
        <g id="其他产品-状态进度-" transform="translate(-173.000000, -47.000000)">
            <g id="等待发货-灰" transform="translate(174.000000, 48.000000)">
                <circle id="椭圆形-copy-2" stroke="#999999" cx="14" cy="14" r="14"></circle>
                <g id="分组-5" transform="translate(7.000000, 7.000000)" stroke="#979797">
                    <path d="M0.43,5.5 L5.72689619,5.5" id="直线-2" stroke-linecap="round"></path>
                    <path d="M0.429353808,7.46875 L3.34960309,7.46875" id="直线-2-copy" stroke-linecap="round"></path>
                    <path d="M1.81897973,11.9886925 C0.9905526,11.9886925 0.318979725,11.3171196 0.318979725,10.4886925 L0.318979725,9.48816391 M0.318979725,3.32075472 L0.318979725,2.07488108 C0.318979725,1.24645396 0.9905526,0.574881081 1.81897973,0.574881081 L10.4277556,0.574881081 C11.2561827,0.574881081 11.9277556,1.24645396 11.9277556,2.07488108 L11.9277556,4.26665005 C11.9277556,4.63325941 12.1283632,4.97047835 12.4505331,5.14543257 L14.9623395,6.5094679 C15.2845094,6.68442212 15.485117,7.02164106 15.485117,7.38825042 L15.485117,10.9886925 C15.485117,11.5409772 15.0374018,11.9886925 14.485117,11.9886925 C14.068394,11.9886925 13.7558517,11.9886925 13.5474901,11.9886925 M9.71490764,11.9886925 C8.9116363,11.9886925 7.5116363,11.9886925 5.51490764,11.9886925" id="形状" stroke-linecap="round" stroke-linejoin="round"></path>
                    <circle id="椭圆形" cx="3.75" cy="11.75" r="1.75"></circle>
                    <circle id="椭圆形-copy" cx="11.75" cy="11.75" r="1.75"></circle>
                </g>
            </g>
        </g>
    </g>
</svg>