<?xml version="1.0" encoding="UTF-8"?>
<svg width="40px" height="40px" viewBox="0 0 40 40" version="1.1" xmlns="http://www.w3.org/2000/svg" xmlns:xlink="http://www.w3.org/1999/xlink">
    <!-- Generator: Sketch 52.5 (67469) - http://www.bohemiancoding.com/sketch -->
    <title>等待提货</title>
    <desc>Created with Sketch.</desc>
    <defs>
        <linearGradient x1="0%" y1="0%" x2="71.8112047%" y2="79.7792758%" id="linearGradient-1">
            <stop stop-color="#81C4FF" offset="0%"></stop>
            <stop stop-color="#4D85FF" offset="100%"></stop>
        </linearGradient>
    </defs>
    <g id="赣州国旅项目" stroke="none" stroke-width="1" fill="none" fill-rule="evenodd">
        <g id="其他产品-状态进度-" transform="translate(-218.000000, -856.000000)">
            <g id="等待提货" transform="translate(218.000000, 856.000000)">
                <circle id="椭圆形-copy-11" fill="#E7EFFF" cx="20" cy="20" r="20"></circle>
                <circle id="椭圆形-copy-12" fill="#4D85FF" opacity="0.360560826" cx="20" cy="20" r="16"></circle>
                <circle id="椭圆形-copy-13" fill="url(#linearGradient-1)" cx="20" cy="20" r="14"></circle>
                <g id="分组-2" transform="translate(13.000000, 12.000000)">
                    <path d="M13.5,7.29454602 C13.5,6.74506905 13.5,6.31934027 13.5,5.22038634 C13.5,4.47884696 12.98,3.83 12.148,3.83 L1.852,3.83 C1.124,3.83 0.5,4.47884696 0.5,5.22038634 L0.5,14.2115514 C0.5,14.9530907 1.124,15.5092453 1.852,15.5092453 C4.90957619,15.5092453 6.62149782,15.5092453 8.15028592,15.5092453" id="路径" stroke="#FFFFFF" stroke-linecap="round" fill-rule="nonzero"></path>
                    <path d="M4,5.91509434 L4,2.40251572 C4,1.43968535 4.46689235,0.5 5.33840909,0.5 L8.70159091,0.5 C9.57310765,0.5 10.04,1.43968535 10.04,2.40251572 L10.04,5.91509434" id="路径" stroke="#FFFFFF" stroke-linecap="round" fill-rule="nonzero"></path>
                    <path d="M8.5,12.2511071 C8.5,14.3267992 10.1109833,16.0022141 12.0877303,16.0022141 C14.0644773,16.0022141 15.6754606,14.3267992 15.6754606,12.2511071 C15.6754606,10.1754149 14.0644773,8.5 12.0877303,8.5 C10.1109833,8.5 8.5,10.1754149 8.5,12.2511071 Z" id="路径-copy-5" stroke="#FFFFFF" fill-rule="nonzero"></path>
                    <circle id="椭圆形" fill="#FFFFFF" cx="10.3" cy="12.3" r="1"></circle>
                    <circle id="椭圆形-copy-6" fill="#FFFFFF" cx="12.1" cy="12.3" r="1"></circle>
                    <circle id="椭圆形-copy-7" fill="#FFFFFF" cx="13.9" cy="12.3" r="1"></circle>
                </g>
            </g>
        </g>
    </g>
</svg>