<?xml version="1.0" encoding="UTF-8"?>
<svg width="16px" height="16px" viewBox="0 0 16 16" version="1.1" xmlns="http://www.w3.org/2000/svg" xmlns:xlink="http://www.w3.org/1999/xlink">
    <!-- Generator: Sketch 52.5 (67469) - http://www.bohemiancoding.com/sketch -->
    <title>收银</title>
    <desc>Created with Sketch.</desc>
    <g id="Page-1" stroke="none" stroke-width="1" fill="none" fill-rule="evenodd">
        <g id="会员信息-1" transform="translate(-955.000000, -184.000000)" fill="#FFFFFF" stroke="#FFFFFF" stroke-width="0.3">
            <g id="个人信息" transform="translate(0.000000, 62.000000)">
                <g id="收银" transform="translate(942.000000, 114.000000)">
                    <g id="收银图标" transform="translate(13.000000, 8.000000)">
                        <path d="M13.9839108,7.98061306 L13.9839108,7.69288679 C13.9892073,7.79589743 13.9919254,7.8996076 13.9919254,8.00393735 C13.9919254,11.3102911 11.3022965,13.99992 7.99596271,13.99994 C4.68759036,13.99996 1.99962025,11.3115702 2,8.00321783 C2.00037975,4.69560496 4.69258699,2.00529643 8.00089939,2.00801459 L8.14786044,2.00807456 C8.38422129,2.00807456 8.57581229,2.19968554 8.57581229,2.43602641 C8.57583227,2.67236728 8.38422129,2.86397825 8.14786044,2.86397825 L8.00095936,2.86397825 C7.99928048,2.86461784 7.99760162,2.86455787 7.99592274,2.86455787 C5.16199092,2.86455787 2.85654325,5.17000554 2.85654325,8.00391737 C2.85652327,10.8349112 5.16570842,13.1438165 7.99670223,13.1433968 C10.8303542,13.1429571 13.1353622,10.8376693 13.1353622,8.00393735 C13.1353622,7.99960027 13.1352223,7.99530316 13.1352023,7.99096609 L13.1352023,7.98061305 C13.1352023,7.74625086 13.3251944,7.55625879 13.5595566,7.55625879 C13.7939188,7.55625879 13.9839108,7.74625086 13.9839108,7.98061306 Z M12.4145875,4.44521355 L12.4145875,5.58458637 C12.4145875,5.82204649 12.2220971,6.01453687 11.984637,6.01453687 C11.7471969,6.01453688 11.5547065,5.82204649 11.5547065,5.58458637 L11.5547065,4.44521355 L10.4073191,4.44521355 C10.169859,4.44521355 9.97736858,4.25272316 9.97736858,4.01526305 C9.97736858,3.77780294 10.169859,3.58531256 10.4073191,3.58531256 L11.5547065,3.58531256 L11.5547065,2.4299505 C11.5547065,2.19249039 11.7471969,2 11.984637,2 C12.2220971,2 12.4145875,2.19249039 12.4145875,2.4299505 L12.4145875,3.58531256 L13.561955,3.58531256 C13.7994151,3.58531256 13.9919054,3.77780295 13.9919054,4.01526305 C13.9919254,4.25272317 13.7994151,4.44521355 13.5619749,4.44521355 L12.4145875,4.44521355 Z M9.7236594,8.00391737 L9.7236594,8.00389738 L8.42421437,8.00389738 L8.42421437,8.86052059 L9.72365941,8.86052059 C9.96047995,8.86052059 10.1519111,9.05193171 10.1519111,9.28875225 C10.1519111,9.52557279 9.96047995,9.71706385 9.72365941,9.71706385 L8.42421437,9.71706385 L8.42421437,10.9903465 C8.42421437,11.227167 8.23234355,11.4185981 7.99590276,11.4185981 C7.75954191,11.4185981 7.5676711,11.227167 7.5676711,10.9903465 L7.5676711,9.71706385 L6.29908528,9.71706385 C6.06264448,9.71706385 5.87077367,9.52557279 5.87077367,9.28875225 C5.87077367,9.05193171 6.06264448,8.86052059 6.29908528,8.86052059 L7.5676711,8.86052059 L7.5676711,8.00389738 L6.29908528,8.00389738 C6.06264448,8.00389738 5.87077367,7.81204655 5.87077367,7.57566571 C5.87077367,7.33922492 6.06264448,7.14735411 6.29908528,7.14735411 L7.5676711,7.14735412 L7.5676711,7.06776771 L5.98427725,5.48013671 C5.81684998,5.31310918 5.82496453,5.04205169 5.99199206,4.87454448 C6.15903958,4.70709723 6.42969733,4.70627778 6.59758429,4.87368506 L8.03747477,6.31055756 L9.39727917,4.88139986 C9.56130873,4.70967549 9.83022765,4.70365954 10.0007129,4.86644993 C10.1720175,5.02956009 10.1746357,5.30069752 10.0114456,5.4719822 L8.42421436,7.12986589 L8.42421436,7.1473741 L9.7236594,7.1473741 C9.96047994,7.1473741 10.151911,7.33924491 10.151911,7.57568571 C10.151911,7.81206655 9.96047994,8.00391737 9.7236594,8.00391737 Z" id="合并形状"></path>
                    </g>
                </g>
            </g>
        </g>
    </g>
</svg>