<?xml version="1.0" encoding="UTF-8"?>
<svg width="40px" height="40px" viewBox="0 0 40 40" version="1.1" xmlns="http://www.w3.org/2000/svg" xmlns:xlink="http://www.w3.org/1999/xlink">
    <!-- Generator: Sketch 52.5 (67469) - http://www.bohemiancoding.com/sketch -->
    <title>等待入住</title>
    <desc>Created with Sketch.</desc>
    <defs>
        <linearGradient x1="0%" y1="0%" x2="71.8112047%" y2="79.7792758%" id="linearGradient-1">
            <stop stop-color="#81C4FF" offset="0%"></stop>
            <stop stop-color="#4D85FF" offset="100%"></stop>
        </linearGradient>
    </defs>
    <g id="赣州国旅项目" stroke="none" stroke-width="1" fill="none" fill-rule="evenodd">
        <g id="酒店产品-状态进度" transform="translate(-241.000000, -232.000000)">
            <g id="等待入住" transform="translate(241.000000, 232.000000)">
                <circle id="椭圆形-copy-19" fill="#E7EFFF" cx="20" cy="20" r="20"></circle>
                <circle id="椭圆形-copy-22" fill="#4D85FF" opacity="0.360560826" cx="20" cy="20" r="16"></circle>
                <g id="分组-6" transform="translate(6.000000, 6.000000)">
                    <circle id="椭圆形-copy-25" fill="url(#linearGradient-1)" cx="14" cy="14" r="14"></circle>
                    <g id="分组-5" transform="translate(6.000000, 7.000000)" stroke="#FFFFFF">
                        <path d="M2,6.5 L2,2.33333333 C2,1.32081129 2.67157288,0.5 3.5,0.5 L12.5,0.5 C13.3284271,0.5 14,1.32081129 14,2.33333333 L14,6.5" id="路径"></path>
                        <rect id="矩形-copy-2" x="8" y="4" width="4.5" height="2" rx="0.7"></rect>
                        <rect id="矩形-copy-3" x="3.5" y="4" width="4.5" height="2" rx="0.7"></rect>
                        <path d="M4,6 L12.0185505,6 C13.9442875,6 15.5082674,7.55569055 15.5185011,9.48140031 L15.5425142,14 L15.4938627,13 L0.57631395,13 L0.549001298,14 L0.5,14 L0.5,9.5 C0.5,7.56700338 2.06700338,6 4,6 Z" id="矩形-copy" stroke-linecap="round" stroke-linejoin="round"></path>
                    </g>
                </g>
            </g>
        </g>
    </g>
</svg>