<?xml version="1.0" encoding="UTF-8"?>
<svg width="30px" height="30px" viewBox="0 0 30 30" version="1.1" xmlns="http://www.w3.org/2000/svg" xmlns:xlink="http://www.w3.org/1999/xlink">
    <!-- Generator: Sketch 52.5 (67469) - http://www.bohemiancoding.com/sketch -->
    <title>等待入住-灰</title>
    <desc>Created with Sketch.</desc>
    <g id="赣州国旅项目" stroke="none" stroke-width="1" fill="none" fill-rule="evenodd">
        <g id="酒店产品-状态进度" transform="translate(-246.000000, -47.000000)" stroke="#999999">
            <g id="等待入住-灰" transform="translate(247.000000, 48.000000)">
                <circle id="椭圆形-copy-21" cx="14" cy="14" r="14"></circle>
                <path d="M8,13.5 L8,9.33333333 C8,8.32081129 8.67157288,7.5 9.5,7.5 L18.5,7.5 C19.3284271,7.5 20,8.32081129 20,9.33333333 L20,13.5" id="路径"></path>
                <rect id="矩形-copy-2" x="14" y="11" width="4.5" height="2" rx="0.7"></rect>
                <rect id="矩形-copy-3" x="9.5" y="11" width="4.5" height="2" rx="0.7"></rect>
                <path d="M10,13 L18,13 C19.9329966,13 21.5,14.5670034 21.5,16.5 L21.5,21 L21.5425142,21 L21.4938627,20 L6.57631395,20 L6.5490013,21 L6.5,21 L6.5,16.5 C6.5,14.5670034 8.06700338,13 10,13 Z" id="矩形-copy" stroke-linecap="round" stroke-linejoin="round"></path>
            </g>
        </g>
    </g>
</svg>