<?xml version="1.0" encoding="UTF-8"?>
<svg width="13px" height="11px" viewBox="0 0 13 11" version="1.1" xmlns="http://www.w3.org/2000/svg" xmlns:xlink="http://www.w3.org/1999/xlink">
    <!-- Generator: Sketch 52.5 (67469) - http://www.bohemiancoding.com/sketch -->
    <title>项目</title>
    <desc>Created with Sketch.</desc>
    <g id="Page-1" stroke="none" stroke-width="1" fill="none" fill-rule="evenodd">
        <g id="今日会员-768*1024" transform="translate(-137.000000, -291.000000)" fill="#D9D9DA" fill-rule="nonzero">
            <g id="22" transform="translate(123.000000, 137.000000)">
                <g id="分组-13" transform="translate(12.000000, 123.000000)">
                    <g id="分组" transform="translate(0.000000, 26.000000)">
                        <g id="项目" transform="translate(1.000000, 3.000000)">
                            <path d="M13.9915405,12.073558 L13.9915405,4.39418986 C13.9915405,3.47283474 13.085988,3.54045714 13.085988,3.54045714 L7.98440995,3.54045714 C7.69301929,3.54045714 7.51370197,3.40521235 7.51370197,3.40521235 C7.51370197,3.40521235 7.29852117,3.06287398 6.89954011,2.51766843 C6.53642252,1.90484048 6.06571453,2.00627407 6.06571453,2.00627407 L2.1207333,2.00627407 C1,2.00627407 1,2.99947798 1,2.99947798 L1,12.0059356 C1,13.1301579 1.90555251,12.9949131 1.90555251,12.9949131 L13.1980613,12.9949131 C14.1394773,12.9949131 13.9915405,12.073558 13.9915405,12.073558 Z M4.29495592,10.1294142 C3.89597486,10.1294142 3.60906713,9.85469818 3.60906713,9.48277501 C3.60906713,9.10662544 3.9004578,8.83613587 4.29495592,8.83613587 C4.68945404,8.83613587 4.9808447,9.14466304 4.9808447,9.48277501 C4.9808447,9.82088699 4.68945404,10.1294142 4.29495592,10.1294142 Z M4.29495592,7.70768717 C3.89597486,7.70768717 3.60906713,7.43297119 3.60906713,7.06104802 C3.60906713,6.71870965 3.9004578,6.41440888 4.29495592,6.41440888 C4.68945404,6.41440888 4.9808447,6.72293605 4.9808447,7.06104802 C4.9808447,7.39916 4.68945404,7.70768717 4.29495592,7.70768717 Z M11.0238387,10.095603 L6.67987639,10.095603 C6.3167588,10.095603 6.02985107,9.82088699 6.02985107,9.48277501 C6.02985107,9.14466304 6.32124174,8.86994707 6.67987639,8.86994707 L11.0238387,8.86994707 C11.3869563,8.86994707 11.673864,9.14466305 11.673864,9.48277501 C11.673864,9.82088698 11.3869563,10.095603 11.0238387,10.095603 Z M11.0238387,7.67387598 L6.67987639,7.67387598 C6.3167588,7.67387598 6.02985107,7.39916 6.02985107,7.06104802 C6.02985107,6.72293605 6.32124174,6.44822008 6.67987639,6.44822008 L11.0238387,6.44822008 C11.3869563,6.44822008 11.673864,6.72293606 11.673864,7.06104802 C11.673864,7.39915999 11.3869563,7.67387597 11.0238387,7.67387598 Z" id="形状"></path>
                        </g>
                    </g>
                </g>
            </g>
        </g>
    </g>
</svg>