<?xml version="1.0" encoding="UTF-8"?>
<svg width="28px" height="28px" viewBox="0 0 28 28" version="1.1" xmlns="http://www.w3.org/2000/svg" xmlns:xlink="http://www.w3.org/1999/xlink">
    <!-- Generator: Sketch 52.5 (67469) - http://www.bohemiancoding.com/sketch -->
    <title>分组 8</title>
    <desc>Created with Sketch.</desc>
    <g id="Page-1" stroke="none" stroke-width="1" fill="none" fill-rule="evenodd">
        <g id="会员-copy-2" transform="translate(-166.000000, -496.000000)" fill="#999999" fill-rule="nonzero">
            <g id="分组-8-copy" transform="translate(124.000000, 419.000000)">
                <g id="分组-3" transform="translate(34.000000, 70.000000)">
                    <g id="提现" transform="translate(8.000000, 7.000000)">
                        <g transform="translate(4.000000, 4.000000)" id="形状">
                            <path d="M17.347348,15.2433459 L16.069347,13.9653449 C15.8088531,13.7050343 15.8087031,13.2828382 16.0690136,13.0223442 C16.3293242,12.7618502 16.7515204,12.7617002 17.0120144,13.0220108 L19.4720163,15.4820127 C19.731827,15.7422692 19.731827,16.1637571 19.4720163,16.4240135 L17.0986811,18.7973488 C16.8383705,19.0578427 16.4161743,19.0579927 16.1556803,18.7976821 C15.8951864,18.5373715 15.8950364,18.1151753 16.155347,17.8546813 L17.433348,16.5766803 L13.4133448,16.5766803 C13.0451549,16.5766803 12.7466776,16.278203 12.7466776,15.9100131 C12.7466776,15.5418232 13.0451549,15.2433459 13.4133448,15.2433459 L17.3473479,15.2433459 Z M8.45134089,7.04867271 L6.70867283,5.02733776 C6.46824552,4.74843332 6.49943512,4.3274309 6.77833951,4.08700362 C7.0572439,3.84657634 7.47824632,3.87776595 7.7186736,4.15667034 L9.89334201,6.67933903 L12.0680104,4.15667034 C12.3084376,3.87776601 12.7294401,3.8465764 13.0083444,4.08700368 C13.2872488,4.32743096 13.3184384,4.74843338 13.0780112,5.02733777 L11.3353431,7.04867272 L13.675345,7.04867272 C14.0435348,7.0486727 14.3420121,7.34715004 14.3420121,7.71533992 C14.3420122,8.08352979 14.0435348,8.38200712 13.6753449,8.38200712 L10.5553425,8.38200712 L10.5553425,10.6113422 L14.558679,10.6113422 C14.9268688,10.6113422 15.2253462,10.9098196 15.2253462,11.2780094 C15.2253462,11.6461993 14.9268688,11.9446766 14.558679,11.9446766 L10.5553424,11.9446766 L10.5553424,15.7253463 C10.5553424,16.0935362 10.2568651,16.3920135 9.88867522,16.3920135 C9.52048535,16.3920135 9.22200802,16.0935362 9.22200802,15.7253463 L9.22200802,11.9446766 L5.22200482,11.9446766 C4.85381492,11.9446766 4.5553376,11.6461993 4.5553376,11.2780094 C4.55533761,10.9098196 4.85381492,10.6113422 5.2220048,10.6113422 L9.222008,10.6113422 L9.222008,8.38200712 L6.11133884,8.38200712 C5.74314893,8.3820071 5.44467161,8.08352979 5.44467161,7.71533992 C5.44467163,7.34715004 5.74314893,7.04867272 6.11133881,7.04867272 L8.45134068,7.04867272 L8.45134089,7.04867271 Z M19.6080165,11.2466761 L19.6080165,11.2466758 C19.5676998,11.6128407 19.2381808,11.876993 18.8720159,11.8366763 C18.505851,11.7963596 18.2416988,11.4668406 18.2820155,11.1006757 L18.2820157,11.1006733 C18.3162089,10.7905147 18.3333456,10.4787144 18.3333489,10.1666767 C18.3333489,5.50267294 14.5526792,1.72200325 9.88867547,1.72200325 C5.2253384,1.72200325 1.44466871,5.50267294 1.44466871,10.1666767 C1.44466871,14.8306804 5.22467174,18.6113501 9.88867547,18.6113501 C10.7780095,18.6113501 11.6473435,18.4740166 12.4753442,18.2080164 C12.8258611,18.0951661 13.2014948,18.2878332 13.3143449,18.6383501 C13.4271952,18.9888671 13.2345281,19.3645007 12.8840112,19.4773508 C11.9240104,19.785351 10.9173429,19.9440178 9.88867545,19.9440178 C4.48867113,19.9440178 0.111334295,15.566681 0.111334295,10.1666767 C0.111334295,4.76667236 4.48867113,0.388668853 9.88867545,0.388668853 C15.2886798,0.388666726 19.6666833,4.76667236 19.6666833,10.1666767 C19.6666833,10.5293436 19.6466833,10.8893439 19.6080166,11.2466775 L19.6080165,11.2466761 Z"></path>
                        </g>
                    </g>
                </g>
            </g>
        </g>
    </g>
</svg>