<?xml version="1.0" encoding="UTF-8"?>
<svg width="28px" height="28px" viewBox="0 0 28 28" version="1.1" xmlns="http://www.w3.org/2000/svg" xmlns:xlink="http://www.w3.org/1999/xlink">
    <!-- Generator: Sketch 52.5 (67469) - http://www.bohemiancoding.com/sketch -->
    <title>分组 8</title>
    <desc>Created with Sketch.</desc>
    <g id="Page-1" stroke="none" stroke-width="1" fill="none" fill-rule="evenodd">
        <g id="会员-copy-8" transform="translate(-166.000000, -593.000000)" fill="#999999" fill-rule="nonzero">
            <g id="分组-8" transform="translate(124.000000, 516.000000)">
                <g id="分组-3" transform="translate(34.000000, 70.000000)">
                    <g id="快捷收银" transform="translate(8.000000, 7.000000)">
                        <g id="收银" transform="translate(3.000000, 3.000000)">
                            <path d="M13.5746298,8.27751248 L12.4990729,8.27751248 L13.81663,6.84231636 C14.0552692,6.54317712 14.0552692,6.12303775 13.75613,5.88439858 C13.4569907,5.58525934 13.0368513,5.64575941 12.7982122,5.88439858 L11.0000156,7.8573731 L9.26568029,5.88103747 C9.02704113,5.58189823 8.60690175,5.58189823 8.30776251,5.8205374 C8.00862327,6.11967663 8.00862327,6.53981601 8.24726244,6.83895525 L9.56481953,8.33465143 L8.36826258,8.33465143 C8.00862327,8.33465143 7.70948404,8.63379067 7.70948404,8.99342998 C7.70948404,9.35306928 8.00862327,9.65220852 8.36826258,9.65220852 L10.2840981,9.65220852 L10.2840981,10.4286261 L8.96654106,10.4286261 C8.60690175,10.4286261 8.30776251,10.7277653 8.30776251,11.0874046 C8.30776251,11.4470439 8.60690175,11.7461832 8.96654106,11.7461832 L10.2840981,11.7461832 L10.2840981,12.704101 C10.2840981,13.0637403 10.5832374,13.3628795 10.9428767,13.3628795 C11.302516,13.3628795 11.6016552,13.0637403 11.6016552,12.704101 L11.6016552,11.6856831 L12.9158512,11.6856831 C13.2754905,11.6856831 13.5746298,11.3865439 13.5746298,11.0269046 C13.5746298,10.6672653 13.2754905,10.368126 12.9158512,10.368126 L11.5982941,10.368126 L11.5982941,9.64884741 L13.5141297,9.64884741 C13.873769,9.64884741 14.1729082,9.34970817 14.1729082,8.99006886 C14.2905473,8.57665171 13.991408,8.27751248 13.5746298,8.27751248 Z M18.7809969,0.916670578 L3.21903437,0.916670578 C1.90147728,0.916670578 0.825920472,1.99222738 0.825920472,3.30978447 L0.825920472,14.3207973 C0.825920472,15.6383544 1.90147728,16.7139112 3.21903437,16.7139112 L7.47084487,16.7139112 L7.47084487,19.7658036 L2.50311687,19.7658036 C2.14347756,19.7658036 1.84433832,20.0649429 1.84433832,20.4245822 C1.84433832,20.7842215 2.14347756,21.0833607 2.50311687,21.0833607 L19.4969144,21.0833607 C19.8565537,21.0833607 20.155693,20.7842215 20.155693,20.4245822 C20.155693,20.0649429 19.8565537,19.7658036 19.4969144,19.7658036 L14.5291864,19.7658036 L14.5291864,16.7139112 L18.7776358,16.7139112 C20.0951929,16.7139112 21.1707497,15.6383544 21.1707497,14.3207973 L21.1707497,3.30978447 C21.1741108,1.99222738 20.0951929,0.916670578 18.7809969,0.916670578 Z M13.1544904,16.9559115 L13.1544904,19.7691647 L8.78504084,19.7691647 L8.78504084,16.9559115 L13.1544904,16.9559115 Z M19.7960537,14.3207973 C19.7960537,14.8585757 19.3187753,15.3392151 18.7776358,15.3392151 L3.21903437,15.3392151 C2.68125596,15.3392151 2.20061652,14.8619368 2.20061652,14.3207973 L2.20061652,3.30978447 C2.20061652,2.77200607 2.62075589,2.29136662 3.21903437,2.29136662 L18.7776358,2.29136662 C19.3154142,2.29136662 19.7960537,2.76864496 19.7960537,3.30978447 L19.7960537,14.3207973 Z" id="形状"></path>
                        </g>
                    </g>
                </g>
            </g>
        </g>
    </g>
</svg>