<?xml version="1.0" encoding="UTF-8"?>
<svg width="28px" height="28px" viewBox="0 0 28 28" version="1.1" xmlns="http://www.w3.org/2000/svg" xmlns:xlink="http://www.w3.org/1999/xlink">
    <!-- Generator: Sketch 52.5 (67469) - http://www.bohemiancoding.com/sketch -->
    <title>分组 8</title>
    <desc>Created with Sketch.</desc>
    <g id="Page-1" stroke="none" stroke-width="1" fill="none" fill-rule="evenodd">
        <g id="商家配置1" transform="translate(-166.000000, -592.000000)" fill="#999999" fill-rule="nonzero">
            <g id="分组-8-copy-2" transform="translate(124.000000, 515.000000)">
                <g id="分组-3" transform="translate(34.000000, 70.000000)">
                    <g id="提现" transform="translate(8.000000, 7.000000)">
                        <g id="开单" transform="translate(4.000000, 5.000000)">
                            <path d="M18.5817536,0 L1.3272104,0 C0.597210711,0 -6.2431901e-05,0.604461993 -6.2431901e-05,1.34331049 L-6.2431901e-05,5.37213287 C-6.2431901e-05,6.11098136 0.597210711,6.71544336 1.3272104,6.71544336 L1.99084682,6.71544336 L1.99084682,17.4591656 C1.99084682,18.1985668 2.58811996,18.8030288 3.31811965,18.8030288 L16.590848,18.8030288 C17.3208477,18.8030288 17.9181208,18.1985668 17.9181208,17.4597183 L17.9181208,6.71544519 L18.5817573,6.71544519 C19.3117569,6.71544519 19.9090301,6.1109832 19.9090301,5.3721347 L19.9090301,1.34386319 C19.9090301,0.604461993 19.3117569,2.08755453e-15 18.5817573,2.08755453e-15 L18.5817536,0 Z M16.590837,17.4597054 L3.31810864,17.4597054 L3.31810864,4.02937325 L16.590837,4.02937325 L16.590837,17.4591546 L16.590837,17.4597054 Z M18.5817536,5.37213654 L17.9181172,5.37213654 L17.9181172,2.68607745 L1.99085784,2.68607745 L1.99085784,5.37213654 L1.32722142,5.37213654 L1.32722142,1.34386503 L18.5817646,1.34386503 L18.5817646,5.37268741 L18.5817536,5.37213654 Z M6.08327262,6.08333321 L14.3787278,6.08333321 L14.3787278,7.4266437 L6.08327262,7.4266437 L6.08327262,6.08333321 Z M6.08327262,10.1127065 L14.3787278,10.1127065 L14.3787278,11.4554624 L6.08327262,11.4554624 L6.08327262,10.1127065 Z M6.08327262,14.1415288 L14.3787278,14.1415288 L14.3787278,15.4848393 L6.08327262,15.4848393 L6.08327262,14.1415288 Z" id="形状"></path>
                        </g>
                    </g>
                </g>
            </g>
        </g>
    </g>
</svg>