<?xml version="1.0" encoding="UTF-8"?>
<svg width="28px" height="28px" viewBox="0 0 28 28" version="1.1" xmlns="http://www.w3.org/2000/svg" xmlns:xlink="http://www.w3.org/1999/xlink">
    <!-- Generator: Sketch 52.5 (67469) - http://www.bohemiancoding.com/sketch -->
    <title>分组 8</title>
    <desc>Created with Sketch.</desc>
    <g id="Page-1" stroke="none" stroke-width="1" fill="none" fill-rule="evenodd">
        <g id="会员-copy-2" transform="translate(-165.000000, -108.000000)" fill="#999999" fill-rule="nonzero">
            <g id="分组-8" transform="translate(123.000000, 31.000000)">
                <g id="分组-3" transform="translate(34.000000, 70.000000)">
                    <g id="基本信息" transform="translate(8.000000, 7.000000)">
                        <g id="店铺" transform="translate(4.000000, 4.000000)">
                            <path d="M7.60760749,18.7880513 L7.60760749,15.9068028 C7.60760749,15.9068028 7.60760749,14.5235738 8.99079542,14.5235738 L11.7572205,14.5235738 C13.1404495,14.5235738 13.1404495,15.9068028 13.1404495,15.9068028 L13.1404495,19.3647931 L17.2900462,19.3648443 L17.2900461,12.328493 C16.9841964,12.401377 16.6708408,12.4380567 16.356429,12.4377771 C15.2443096,12.4377771 14.1806091,11.9716176 13.3755535,11.1582871 C12.5909627,11.9737012 11.5111041,12.4388702 10.3795637,12.4488636 C9.26471466,12.4488636 8.19820668,11.9799745 7.39046453,11.1638303 C6.58406359,11.9813198 5.51621235,12.4488636 4.40273938,12.4488636 L4.40273951,12.4488636 C4.08450506,12.4489745 3.76737803,12.4113745 3.45799066,12.3368498 L3.45799066,19.3648443 L7.60758728,19.3648443 L7.60758728,18.7880573 L7.60760749,18.7880513 Z M11.7572451,15.9068028 L8.99082003,15.9068028 L8.99082003,19.3647931 L11.7572451,19.3647931 L11.7572451,15.9068028 Z M2.07479831,11.7156983 C0.829917274,10.8608722 0,9.34214183 0,7.61452068 C-1.09287706e-16,7.34063852 0.0276359501,7.1940157 0.0802621344,7.05293819 L2.43306468,0.853398747 C2.54507889,0.383166364 3.01812454,0 3.55757497,0 L17.1738144,0 C17.7146492,3.64292354e-17 18.1863089,0.383166364 18.3232295,0.932275987 L20.6663728,7.05017373 C20.7203008,7.19267981 20.7479788,7.34064673 20.7479788,7.49004016 C20.7479788,9.29789002 19.9180574,10.8429073 18.6731805,11.7060412 L18.6731805,19.3648362 C18.6731805,19.3648362 18.6731805,20.7480652 17.2899926,20.7480652 L3.45799015,20.7480652 C2.07480221,20.7480232 2.07480221,19.3647931 2.07480221,19.3647931 L2.07480221,11.7156983 L2.07479831,11.7156983 Z M7.39045001,8.81652598 L7.96723701,9.68932924 C8.53709441,10.5510439 9.43896137,11.0655876 10.3795533,11.0655876 C11.3256454,11.0655876 12.2288577,10.5483143 12.7959916,9.68239965 L13.3713923,8.8027078 L13.950993,9.68105433 C14.5180777,10.5414257 15.4185174,11.05454 16.3563776,11.05454 C18.014791,11.05454 19.3647952,9.5122974 19.3647952,7.61595007 L17.0202778,1.38322895 L3.70698009,1.38322895 L1.37353695,7.54400858 C1.38323896,9.51784272 2.73740445,11.0655937 4.40279047,11.0655937 C5.34338239,11.0655937 6.24520629,10.5510521 6.81367121,9.6893354 L7.39045821,8.81653213 L7.39045001,8.81652598 Z" id="形状"></path>
                        </g>
                    </g>
                </g>
            </g>
        </g>
    </g>
</svg>