<?xml version="1.0" encoding="UTF-8"?>
<svg width="200px" height="47px" viewBox="0 0 200 47" version="1.1" xmlns="http://www.w3.org/2000/svg" xmlns:xlink="http://www.w3.org/1999/xlink">
    <!-- Generator: Sketch 52.5 (67469) - http://www.bohemiancoding.com/sketch -->
    <title>logo</title>
    <desc>Created with Sketch.</desc>
    <defs>
        <linearGradient x1="10.867644%" y1="50.1813362%" x2="116.765406%" y2="50.8347665%" id="linearGradient-1">
            <stop stop-color="#0057F7" offset="0%"></stop>
            <stop stop-color="#317EF6" offset="72%"></stop>
        </linearGradient>
        <linearGradient x1="-9.98716963%" y1="88.4735373%" x2="93.5194528%" y2="11.6133916%" id="linearGradient-2">
            <stop stop-color="#F90100" offset="0%"></stop>
            <stop stop-color="#FF3D3A" offset="72%"></stop>
            <stop stop-color="#FF3F3B" offset="100%"></stop>
        </linearGradient>
        <linearGradient x1="1648.37103%" y1="-1665.44527%" x2="1794.77457%" y2="-1665.44527%" id="linearGradient-3">
            <stop stop-color="#F90100" offset="0%"></stop>
            <stop stop-color="#FF3D3A" offset="72%"></stop>
            <stop stop-color="#FF3F3B" offset="100%"></stop>
        </linearGradient>
        <linearGradient x1="0.000286932341%" y1="50.0373681%" x2="100%" y2="50.0373681%" id="linearGradient-4">
            <stop stop-color="#F90100" offset="0%"></stop>
            <stop stop-color="#FF3D3A" offset="72%"></stop>
            <stop stop-color="#FF3F3B" offset="100%"></stop>
        </linearGradient>
        <linearGradient x1="99.9997131%" y1="50.0373681%" x2="-2.38336502e-12%" y2="50.0373681%" id="linearGradient-5">
            <stop stop-color="#F90100" offset="0%"></stop>
            <stop stop-color="#FF3D3A" offset="72%"></stop>
            <stop stop-color="#FF3F3B" offset="100%"></stop>
        </linearGradient>
        <linearGradient x1="-0.602098558%" y1="49.9777481%" x2="100%" y2="49.9777481%" id="linearGradient-6">
            <stop stop-color="#FF161B" offset="31%"></stop>
            <stop stop-color="#FF3D3A" offset="100%"></stop>
        </linearGradient>
        <linearGradient x1="99.9999049%" y1="50.0752516%" x2="0.209643407%" y2="50.0752516%" id="linearGradient-7">
            <stop stop-color="#F90100" offset="0%"></stop>
            <stop stop-color="#FF3D3A" offset="72%"></stop>
            <stop stop-color="#FF3F3B" offset="100%"></stop>
        </linearGradient>
        <linearGradient x1="100.602099%" y1="49.9777481%" x2="6.36244685e-14%" y2="49.9777481%" id="linearGradient-8">
            <stop stop-color="#FF161B" offset="31%"></stop>
            <stop stop-color="#FF3D3A" offset="100%"></stop>
        </linearGradient>
        <linearGradient x1="9.50794718e-05%" y1="50.0752516%" x2="100%" y2="50.0752516%" id="linearGradient-9">
            <stop stop-color="#F90100" offset="0%"></stop>
            <stop stop-color="#FF3D3A" offset="72%"></stop>
            <stop stop-color="#FF3F3B" offset="100%"></stop>
        </linearGradient>
    </defs>
    <g id="Page-1" stroke="none" stroke-width="1" fill="none" fill-rule="evenodd">
        <g id="登录-copy-6" transform="translate(-412.000000, -190.000000)">
            <g id="logo" transform="translate(412.000000, 190.000000)">
                <path d="M10.9076958,12.8163936 L30.2945571,12.8163622 L30.2945571,16.2227196 C30.2945571,17.1261334 29.9356773,17.9925458 29.2968673,18.6313558 C28.6580572,19.2701659 27.7916449,19.6290456 26.888231,19.6290456 L7.48677118,19.6290456 L7.48677118,16.2227196 C7.48676286,15.3167707 7.84764588,14.4481386 8.4896168,13.8089073 C9.13158772,13.1696759 10.0017552,12.8125109 10.9076958,12.8163936 Z" id="路径" fill="#FF3F3B" transform="translate(18.890664, 16.222704) rotate(-45.000000) translate(-18.890664, -16.222704) "></path>
                <path d="M18.865064,20.7677318 L38.2519253,20.7677004 L38.2519253,24.1740578 C38.2519253,26.0553197 36.7268612,27.5803838 34.8455993,27.5803838 L15.4441394,27.5803838 L15.4441394,24.1740578 C15.4441311,23.2681089 15.8050141,22.3994768 16.446985,21.7602455 C17.088956,21.1210141 17.9591234,20.7638491 18.865064,20.7677318 Z" id="路径" fill="#FF3F3B" transform="translate(26.848032, 24.174042) rotate(-45.000000) translate(-26.848032, -24.174042) "></path>
                <path d="M29.1483551,34.3897543 L29.1483551,34.3897543 C31.0376796,34.3897543 32.5692797,35.9213544 32.5692797,37.8106788 L32.5692797,37.8106788 C32.5692797,39.7000033 31.0376796,41.2316034 29.1483551,41.2316034 L29.1483551,41.2316034 C27.2590306,41.2316034 25.7274305,39.7000033 25.7274305,37.8106788 L25.7274305,37.8106788 C25.7274305,35.9213544 27.2590306,34.3897543 29.1483551,34.3897543 Z" id="矩形" fill="#3472FC" transform="translate(29.148355, 37.810679) rotate(-45.000000) translate(-29.148355, -37.810679) "></path>
                <path d="M27.8053528,40.3892944 C28.1611168,40.7454577 28.5869807,41.0238435 29.0559611,41.2068127 C30.4632793,41.2603684 31.7584502,40.4423395 32.3147824,39.1485438 C32.8711145,37.8547481 32.5738836,36.3519864 31.56691,35.3673966 C30.9040507,34.7011741 29.9953918,34.3384149 29.0559611,34.3649635 C27.9025206,34.8199493 27.0558766,35.8253645 26.8038484,37.0394151 C26.5518201,38.2534656 26.9283189,39.5127966 27.8053528,40.3892944 Z" id="路径" fill="url(#linearGradient-1)"></path>
                <path d="M12.8564477,26.3114355 L13.2603406,26.7153285 L26.9683698,13.0072993 C27.6147309,12.3675167 27.978411,11.4958275 27.978411,10.5863747 C27.978411,9.67692188 27.6147309,8.8052327 26.9683698,8.16545012 L24.5352798,5.7323601 L13.1046229,17.1922141 C12.2545422,20.1624403 12.1691721,23.299371 12.8564477,26.3114355 Z" id="路径" fill="url(#linearGradient-2)"></path>
                <path d="M20.8126521,34.2676399 L21.216545,34.6715328 L34.9245742,20.9586375 C35.5694348,20.3190432 35.9321597,19.4484004 35.9321597,18.540146 C35.9321597,17.6318916 35.5694348,16.7612488 34.9245742,16.1216545 L32.4914842,13.6885645 L21.0608273,25.1484185 C20.2107466,28.1186447 20.1253765,31.2555753 20.8126521,34.2676399 Z" id="路径" fill="url(#linearGradient-3)"></path>
                <path d="M1.37226277,11.3625304 C0.813259231,11.3625304 0.360097324,10.9093685 0.360097324,10.350365 L0.360097324,6.32603406 C0.362780614,3.06181297 3.00828499,0.416308595 6.27250608,0.413625304 L10.2822384,0.413625304 C10.8153651,0.450568765 11.2289626,0.893818707 11.2289626,1.42822384 C11.2289626,1.96262898 10.8153651,2.40587892 10.2822384,2.44282238 L6.27250608,2.44282238 C4.12249246,2.44282238 2.37956204,4.1857528 2.37956204,6.33576642 L2.37956204,10.3454988 C2.37958759,10.903411 1.93014941,11.3571915 1.37226277,11.3625304 Z" id="路径" fill="#FF3F3B"></path>
                <path d="M1.37226277,11.3625304 C1.93205895,11.3625368 2.38661595,10.9101547 2.3892944,10.350365 L2.3892944,6.32603406 C2.38980565,5.82496417 2.48901793,5.32890274 2.68126521,4.86618005 C1.19748746,6.26264063 0.357361656,8.21060529 0.360097324,10.2481752 C0.360097324,10.3163017 0.360097324,10.3844282 0.360097324,10.4476886 C0.41039049,10.9683726 0.849161083,11.3649537 1.37226277,11.3625304 Z" id="路径" fill="url(#linearGradient-4)"></path>
                <path d="M45.0900243,11.3625304 C45.3584673,11.3625304 45.6159155,11.2558919 45.8057334,11.066074 C45.9955512,10.8762562 46.1021898,10.6188079 46.1021898,10.350365 L46.1021898,6.32603406 C46.0995065,3.06181297 43.4540021,0.416308595 40.189781,0.413625304 L36.1800487,0.413625304 C35.646922,0.450568765 35.2333245,0.893818707 35.2333245,1.42822384 C35.2333245,1.96262898 35.646922,2.40587892 36.1800487,2.44282238 L40.189781,2.44282238 C42.3397946,2.44282238 44.0827251,4.1857528 44.0827251,6.33576642 L44.0827251,10.3454988 C44.0826995,10.903411 44.5321377,11.3571915 45.0900243,11.3625304 Z" id="路径" fill="#FF3F3B"></path>
                <path d="M45.0900243,11.3625304 C44.5302282,11.3625368 44.0756712,10.9101547 44.0729927,10.350365 L44.0729927,6.32603406 C44.0724815,5.82496417 43.9732692,5.32890274 43.7810219,4.86618005 C45.2647996,6.26264063 46.1049254,8.21060529 46.1021898,10.2481752 C46.1021898,10.3163017 46.1021898,10.3844282 46.1021898,10.4476886 C46.0518966,10.9683726 45.613126,11.3649537 45.0900243,11.3625304 Z" id="路径" fill="url(#linearGradient-5)"></path>
                <path d="M45.0900243,35.2360097 C45.3584673,35.2360097 45.6159155,35.3426483 45.8057334,35.5324661 C45.9955512,35.722284 46.1021898,35.9797322 46.1021898,36.2481752 L46.1021898,40.2579075 C46.0995065,43.5221286 43.4540021,46.167633 40.189781,46.1703163 L36.1800487,46.1703163 C35.646922,46.1333728 35.2333245,45.6901229 35.2333245,45.1557178 C35.2333245,44.6213126 35.646922,44.1780627 36.1800487,44.1411192 L40.189781,44.1411192 C42.3397946,44.1411192 44.0827251,42.3981888 44.0827251,40.2481752 L44.0827251,36.2384428 C44.0906276,35.6862288 44.5377785,35.2412381 45.0900243,35.2360097 Z" id="路径" fill="url(#linearGradient-6)"></path>
                <path d="M45.0900243,35.2360097 C44.5302282,35.2360033 44.0756712,35.6883854 44.0729927,36.2481752 L44.0729927,40.2579075 C44.0721016,40.7589396 43.9729039,41.2549277 43.7810219,41.7177616 C45.263828,40.32062 46.1037633,38.373097 46.1021898,36.3357664 C46.1021898,36.2676399 46.1021898,36.1995134 46.1021898,36.1313869 C46.0426154,35.6184237 45.6064238,35.2325619 45.0900243,35.2360097 Z" id="路径" fill="url(#linearGradient-7)"></path>
                <path d="M1.37226277,35.2360097 C0.813259231,35.2360097 0.360097324,35.6891716 0.360097324,36.2481752 L0.360097324,40.2579075 C0.362780614,43.5221286 3.00828499,46.167633 6.27250608,46.1703163 L10.2822384,46.1703163 C10.8153651,46.1333728 11.2289626,45.6901229 11.2289626,45.1557178 C11.2289626,44.6213126 10.8153651,44.1780627 10.2822384,44.1411192 L6.27250608,44.1411192 C4.12249246,44.1411192 2.37956204,42.3981888 2.37956204,40.2481752 L2.37956204,36.2384428 C2.37165946,35.6862288 1.92450857,35.2412381 1.37226277,35.2360097 Z" id="路径" fill="url(#linearGradient-8)"></path>
                <path d="M1.37226277,35.2360097 C1.93205895,35.2360033 2.38661595,35.6883854 2.3892944,36.2481752 L2.3892944,40.2579075 C2.39018554,40.7589396 2.48938317,41.2549277 2.68126521,41.7177616 C1.19845909,40.32062 0.358523777,38.373097 0.360097324,36.3357664 C0.360097324,36.2676399 0.360097324,36.1995134 0.360097324,36.1313869 C0.419671696,35.6184237 0.855863306,35.2325619 1.37226277,35.2360097 Z" id="路径" fill="url(#linearGradient-9)"></path>
                <path d="M110.107056,16.3892944 L124.345499,16.3892944 L124.345499,13.8150852 L110.107056,13.8150852 C110.107056,12.0386364 108.66696,10.5985401 106.890511,10.5985401 L104.944039,10.5985401 L104.944039,21.5377129 L98.296837,21.5377129 L98.296837,24.1119221 L104.973236,24.1119221 L104.973236,37.892944 L110.121655,37.892944 L110.121655,24.1119221 L128.86618,24.1119221 L128.86618,21.5377129 L110.107056,21.5377129 L110.107056,16.3892944 Z" id="路径" fill="#FF3F3B"></path>
                <path d="M116.540146,26.0437956 L121.270073,36.9245742 C121.519782,37.5104889 122.093041,37.8926617 122.729927,37.8978102 L124.248175,37.8978102 L119.099757,26.0486618 L116.540146,26.0437956 Z" id="路径" fill="#FF3F3B"></path>
                <path d="M198.676399,13.8150852 L198.676399,16.3892944 L189.153285,16.3892944 L199.639903,37.9562044 L195.907543,37.9124088 C194.689088,37.8997328 193.582747,37.1986109 193.051095,36.1021898 L183.454988,16.3892944 L179.367397,16.3892944 L179.367397,13.8150852 L182.218978,13.8150852 L180.656934,10.5985401 L186.335766,10.5985401 L187.89781,13.8150852 L198.676399,13.8150852 Z" id="路径" fill="#FF3F3B"></path>
                <path d="M173.172749,12.0681265 L168.107056,13.8150852 L168.107056,16.3892944 L172.287105,15.0997567 L172.287105,37.9708029 L177.435523,37.9708029 L177.435523,15.1094891 C177.435434,14.0701867 176.933184,13.094971 176.087143,12.4913457 C175.241102,11.8877203 174.155538,11.7300781 173.172749,12.0681265 Z" id="路径" fill="#FF3F3B"></path>
                <path d="M158.452555,10.5985401 L156.506083,10.5985401 L156.506083,13.8150852 L148.476886,13.8150852 L148.476886,16.3892944 L156.520681,16.3892944 L156.520681,37.892944 L161.6691,37.892944 L161.6691,16.3892944 L163.615572,16.3892944 L163.615572,13.8150852 L161.6691,13.8150852 C161.6691,12.0386364 160.229004,10.5985401 158.452555,10.5985401 Z" id="路径" fill="#FF3F3B"></path>
                <path d="M148.476886,20.8953771 L153.206813,31.7761557 C153.456521,32.3620704 154.029781,32.7442432 154.666667,32.7493917 L156.20438,32.7493917 L151.055961,20.9002433 L148.476886,20.8953771 Z" id="路径" fill="#FF3F3B"></path>
                <path d="M143.649635,10.5985401 L133.333333,10.5985401 L133.333333,37.892944 L146.851582,37.892944 L146.851582,13.8150852 C146.8516,12.0443219 145.42038,10.6065769 143.649635,10.5985401 Z M141.703163,13.1727494 L141.703163,23.1435523 L138.481752,23.1435523 L138.481752,13.1727494 L141.703163,13.1727494 Z M138.481752,35.3187348 L138.481752,25.7177616 L141.703163,25.7177616 L141.703163,35.3187348 L138.481752,35.3187348 Z" id="形状" fill="#FF3F3B" fill-rule="nonzero"></path>
                <polygon id="路径" fill="#FF3F3B" points="72.2189781 21.5377129 63.5279805 21.5377129 63.5279805 24.1119221 72.2189781 24.1119221 72.2189781 26.3649635 63.5279805 26.3649635 63.5279805 28.9391727 72.2189781 28.9391727 72.2189781 32.4768856 63.5279805 32.4768856 63.5279805 35.0510949 72.2189781 35.0510949 72.2189781 37.892944 77.3673966 37.892944 77.3673966 19.2846715 72.2189781 19.2846715"></polygon>
                <polygon id="路径" fill="#FF3F3B" points="84.7688564 19.2846715 79.620438 19.2846715 79.620438 37.892944 84.7688564 37.892944 84.7688564 35.0510949 93.7761557 35.0510949 93.7761557 32.4768856 84.7688564 32.4768856 84.7688564 28.9391727 93.7761557 28.9391727 93.7761557 26.3649635 84.7688564 26.3649635 84.7688564 24.1119221 93.7761557 24.1119221 93.7761557 21.5377129 84.7688564 21.5377129"></polygon>
                <path d="M88.6277372,13.8150852 C88.6277372,12.0386364 87.187641,10.5985401 85.4111922,10.5985401 L83.4647202,10.5985401 L83.4647202,13.8150852 L73.4890511,13.8150852 C73.4890511,12.9620044 73.1501661,12.1438636 72.5469469,11.5406444 C71.9437277,10.9374252 71.1255869,10.5985401 70.2725061,10.5985401 L68.3260341,10.5985401 L68.3260341,13.8150852 L63.4987835,13.8150852 L63.4987835,16.3892944 L68.3260341,16.3892944 L68.3260341,18.0048662 L73.4744526,18.0048662 L73.4744526,16.3990268 L83.4501217,16.3990268 L83.4501217,18.0048662 L88.5985401,18.0048662 L88.5985401,16.3990268 L93.7469586,16.3990268 L93.7469586,13.8248175 L88.6277372,13.8150852 Z" id="路径" fill="#FF3F3B"></path>
                <rect id="矩形" fill="#3472FC" x="192.574209" y="6.2189781" width="5.83941606" height="5.83941606" rx="2.91970803"></rect>
            </g>
        </g>
    </g>
</svg>