<?xml version="1.0" encoding="UTF-8"?>
<svg width="28px" height="28px" viewBox="0 0 28 28" version="1.1" xmlns="http://www.w3.org/2000/svg" xmlns:xlink="http://www.w3.org/1999/xlink">
    <!-- Generator: Sketch 52.5 (67469) - http://www.bohemiancoding.com/sketch -->
    <title>分组 8</title>
    <desc>Created with Sketch.</desc>
    <g id="Page-1" stroke="none" stroke-width="1" fill="none" fill-rule="evenodd">
        <g id="会员-copy-10" transform="translate(-386.000000, -474.000000)" fill="#999999" fill-rule="nonzero">
            <g id="分组-8" transform="translate(124.000000, 397.000000)">
                <g id="分组-9" transform="translate(254.000000, 70.000000)">
                    <g id="会员充值" transform="translate(8.000000, 7.000000)">
                        <g id="分组" transform="translate(3.000000, 3.000000)">
                            <path d="M10.97638,21.967799 C9.49395636,21.967799 8.05665,21.6777596 6.7031328,21.1041261 C5.39688128,20.551977 4.2216846,19.7592027 3.21406624,18.7515843 C2.20644788,17.7461144 1.41582196,16.5709177 0.86152444,15.2646662 C0.2900394,13.911149 -1.52655844e-16,12.4738426 -1.52655844e-16,10.991419 C-1.52655844e-16,9.50899544 0.2900394,8.07168908 0.86367288,6.71817188 C1.41582196,5.41192036 2.20859632,4.23672368 3.21621468,3.22910532 C4.2216846,2.22148696 5.39688128,1.43086104 6.7031328,0.87871196 C8.05665,0.30507848 9.49395636,0.01503908 10.97638,0.01503908 C12.0097796,0.01503908 13.032437,0.15898456 14.0164226,0.44257864 C14.3816574,0.5478522 14.5922045,0.92812608 14.4869309,1.29336088 C14.3816574,1.65859568 14.0013835,1.8691428 13.6361487,1.76386924 C12.7767727,1.5146502 11.8808732,1.39004068 10.97638,1.39004068 C5.6826238,1.39004068 1.3750016,5.69766288 1.3750016,10.991419 C1.3750016,16.2851752 5.6826238,20.5927974 10.97638,20.5927974 C16.2701361,20.5927974 20.5777583,16.2851752 20.5777583,10.991419 C20.5777583,10.8066532 20.5734614,10.6218874 20.5627192,10.43927 C20.5412348,10.0611445 20.8312742,9.73458164 21.2093997,9.71309724 C21.5875251,9.69161284 21.914088,9.98165224 21.9355724,10.3597777 C21.948463,10.5681764 21.9527599,10.7787235 21.9527599,10.9892706 C21.9527599,12.4716942 21.6627205,13.9090006 21.089087,15.2625178 C20.536938,16.5687693 19.7441636,17.743966 18.7365452,18.7515843 C17.7289269,19.7592027 16.5558786,20.5498286 15.2474787,21.1041261 C13.8961099,21.6777596 12.4566551,21.967799 10.97638,21.967799 Z" id="路径"></path>
                            <path d="M14.3988449,12.0226702 L7.43789928,12.0226702 C7.0576254,12.0226702 6.75039848,11.7154433 6.75039848,11.3351694 C6.75039848,10.9548956 7.0576254,10.6476686 7.43789928,10.6476686 L14.3988449,10.6476686 C14.7791188,10.6476686 15.0863457,10.9548956 15.0863457,11.3351694 C15.0863457,11.7154433 14.7769703,12.0226702 14.3988449,12.0226702 Z" id="路径"></path>
                            <path d="M10.9183721,16.8609571 C10.5380982,16.8609571 10.2308713,16.5537302 10.2308713,16.1734563 L10.2308713,9.71309724 C10.2308713,9.33282336 10.5380982,9.02559644 10.9183721,9.02559644 C11.298646,9.02559644 11.6058729,9.33282336 11.6058729,9.71309724 L11.6058729,16.1734563 C11.6058729,16.5537302 11.298646,16.8609571 10.9183721,16.8609571 Z" id="路径"></path>
                            <path d="M13.7650551,14.6416186 L8.06954064,14.6416186 C7.68926676,14.6416186 7.38203984,14.3343917 7.38203984,13.9541178 C7.38203984,13.5738439 7.68926676,13.266617 8.06954064,13.266617 L13.7650551,13.266617 C14.145329,13.266617 14.4525559,13.5738439 14.4525559,13.9541178 C14.4525559,14.3343917 14.145329,14.6416186 13.7650551,14.6416186 Z M10.9527471,10.3082151 C10.776575,10.3082151 10.600403,10.2416135 10.4671997,10.1062618 L7.680673,7.31973508 C7.412118,7.05118008 7.412118,6.61504676 7.680673,6.34649176 C7.949228,6.07793676 8.38536132,6.07793676 8.65391632,6.34649176 L11.440443,9.13301844 C11.708998,9.40157344 11.708998,9.83770676 11.440443,10.1062618 C11.3050913,10.2416135 11.1289192,10.3082151 10.9527471,10.3082151 Z" id="形状"></path>
                            <path d="M10.9591924,10.3082151 C10.7830204,10.3082151 10.6068483,10.2416135 10.473645,10.1062618 C10.20509,9.83770676 10.20509,9.40157344 10.473645,9.13301844 L13.2601717,6.34649176 C13.5287267,6.07793676 13.96486,6.07793676 14.233415,6.34649176 C14.50197,6.61504676 14.50197,7.05118008 14.233415,7.31973508 L11.4447399,10.1084102 C11.3115366,10.2416135 11.1353645,10.3082151 10.9591924,10.3082151 Z M20.3693596,5.6503972 L16.5021676,5.6503972 C16.1218938,5.6503972 15.8146668,5.34317028 15.8146668,4.9628964 C15.8146668,4.58262252 16.1218938,4.2753956 16.5021676,4.2753956 L20.3693596,4.2753956 C20.7496335,4.2753956 21.0568604,4.58262252 21.0568604,4.9628964 C21.0568604,5.34317028 20.7496335,5.6503972 20.3693596,5.6503972 Z" id="形状"></path>
                            <path d="M18.4357636,7.5839932 C18.0554898,7.5839932 17.7482628,7.27676628 17.7482628,6.8964924 L17.7482628,3.0293004 C17.7482628,2.64902652 18.0554898,2.3417996 18.4357636,2.3417996 C18.8160375,2.3417996 19.1232644,2.64902652 19.1232644,3.0293004 L19.1232644,6.8964924 C19.1232644,7.27676628 18.8160375,7.5839932 18.4357636,7.5839932 Z" id="路径"></path>
                        </g>
                    </g>
                </g>
            </g>
        </g>
    </g>
</svg>