<?xml version="1.0" encoding="UTF-8"?>
<svg width="28px" height="28px" viewBox="0 0 28 28" version="1.1" xmlns="http://www.w3.org/2000/svg" xmlns:xlink="http://www.w3.org/1999/xlink">
    <!-- Generator: Sketch 52.5 (67469) - http://www.bohemiancoding.com/sketch -->
    <title>分组 8</title>
    <desc>Created with Sketch.</desc>
    <g id="Page-1" stroke="none" stroke-width="1" fill="none" fill-rule="evenodd">
        <g id="美容含有开单设置" transform="translate(-274.000000, -153.000000)" fill="#999999" fill-rule="nonzero">
            <g id="分组-8" transform="translate(12.000000, 76.000000)">
                <g id="分组-9" transform="translate(254.000000, 70.000000)">
                    <g id="提成设置" transform="translate(8.000000, 7.000000)">
                        <g id="项目" transform="translate(3.000000, 3.000000)">
                            <path d="M11.0000128,17.1254301 L2.28013937,13.1277418 C1.9077073,13.0208999 1.4441384,12.7568996 0.853295915,12.4206043 C0.468209435,12.2205884 0.318179573,11.7462691 0.51819504,11.3611827 C0.718210937,10.9760963 1.1925302,10.8260665 1.57761659,11.0260819 C1.59584906,11.035552 1.61370307,11.0457335 1.63113745,11.0566031 C1.89200103,11.2043298 2.20470648,11.3614667 2.4482966,11.4777403 L11.0000116,15.3984499 L19.1510211,11.6631722 L19.8644536,11.3064452 L20.4097277,11.0361714 C20.7921671,10.8311385 21.2684075,10.9749549 21.4734396,11.3573933 C21.6784725,11.7398328 21.5346561,12.2160732 21.1522177,12.4211053 C21.1380432,12.4287045 21.1236387,12.4358668 21.1090244,12.4425819 L20.5653187,12.7128556 L20.5653197,12.7128551 C20.3067893,12.8443123 20.0464306,12.9721417 19.7843188,13.0963087 L19.7843188,13.097877 L11.0000136,17.1254286 L11.0000128,17.1254301 Z M11.0000128,21.6778885 L2.26286591,17.6723155 C1.97841246,17.5780205 1.55259165,17.3721784 0.85327443,16.9730198 C0.475750581,16.7582185 0.343836365,16.2780424 0.558637396,15.9005185 C0.773438642,15.5229946 1.25361477,15.3910804 1.63113864,15.6058815 C1.9014124,15.7598816 2.22829754,15.9217236 2.47657127,16.039587 L11.0000128,19.9493396 L19.1510223,16.212472 L19.8644548,15.855745 L20.4097289,15.5854713 C20.792252,15.3805944 21.2684323,15.5246045 21.4733097,15.9071272 C21.6781866,16.2896505 21.5341765,16.7658307 21.1516538,16.9707081 C21.1376616,16.9782023 21.1234455,16.9852707 21.1090251,16.9919037 L20.5653194,17.2637458 L20.5653212,17.2637449 C20.3067908,17.3951948 20.0464299,17.5230186 19.7843202,17.647177 L19.7843202,17.6487453 L11.0000151,21.6778868 L11.0000128,21.6778885 Z M10.9843077,12.3247194 C10.5254439,12.3247194 10.1215801,12.1644458 9.75387463,11.9915823 L1.48813845,8.29714637 C0.918952148,8.001637 0.556692937,7.41876952 0.543705617,6.7775762 C0.515432147,6.08614375 0.837569241,5.43871136 1.38443316,5.08830079 L9.72244286,0.705547647 C10.7815808,0.177547033 11.4447183,0.204273627 12.3263092,0.724410951 L20.5731606,5.05368943 C21.1467296,5.36798471 21.4814565,6.01382726 21.4578882,6.74928124 C21.4343198,7.44855549 21.0823194,8.04098782 20.5385922,8.29241976 L12.2477192,11.9978342 C11.7920136,12.1958559 11.4085815,12.3246979 10.9843076,12.3246979 L10.9843077,12.3247194 Z M11.0503078,1.9077073 C10.9041494,1.9077073 10.7093074,1.97057065 10.4374438,2.10570753 L2.17329745,6.44757586 C2.1289917,6.52935618 2.10831168,6.6218506 2.11357085,6.71471284 C2.11670757,6.80743951 2.14816073,6.87187123 2.1764342,6.88600796 L10.4075805,10.5647173 C11.0078546,10.8444442 11.0110128,10.8224442 11.6144452,10.5600122 L19.8864548,6.86243958 C19.9115916,6.80430279 19.9005915,6.5088708 19.8220231,6.43500744 L11.5625818,2.09786567 C11.2703081,1.92657055 11.1367181,1.90772873 11.0503078,1.90772873 L11.0503078,1.9077073 Z" id="形状"></path>
                        </g>
                    </g>
                </g>
            </g>
        </g>
    </g>
</svg>