<?xml version="1.0" encoding="UTF-8"?>
<svg width="28px" height="28px" viewBox="0 0 28 28" version="1.1" xmlns="http://www.w3.org/2000/svg" xmlns:xlink="http://www.w3.org/1999/xlink">
    <!-- Generator: Sketch 52.5 (67469) - http://www.bohemiancoding.com/sketch -->
    <title>分组 8</title>
    <desc>Created with Sketch.</desc>
    <g id="Page-1" stroke="none" stroke-width="1" fill="none" fill-rule="evenodd">
        <g id="美容含有开单设置" transform="translate(-54.000000, -153.000000)" fill="#999999" fill-rule="nonzero">
            <g id="分组-8" transform="translate(12.000000, 76.000000)">
                <g id="分组-3" transform="translate(34.000000, 70.000000)">
                    <g id="员工管理" transform="translate(8.000000, 7.000000)">
                        <g id="项目" transform="translate(4.000000, 5.000000)">
                            <g id="分组" transform="translate(0.294204, 0.085117)">
                                <path d="M15.9935867,4.74304993 L8.48419182,4.74304993 C7.1807344,4.74304993 6.12007558,3.68227916 6.12007558,2.37889298 C6.12007558,1.07543556 7.18074255,0.0148174515 8.48419182,0.0148174515 L15.9935867,0.0148174515 C17.2970441,0.0148174515 18.3576418,1.07544167 18.3576418,2.37889298 C18.3576418,3.68230969 17.297038,4.74304993 15.9935867,4.74304993 Z M8.48419182,1.12732718 C7.79401407,1.12732718 7.23257513,1.6887254 7.23257513,2.37888281 C7.23257513,3.06899747 7.79401407,3.63045879 8.48419182,3.63045879 L15.9935867,3.63045879 C16.6837644,3.63045879 17.2451423,3.06899747 17.2451423,2.37888281 C17.2451423,1.68870505 16.6837644,1.12732718 15.9935867,1.12732718 L8.48419182,1.12732718 Z" id="形状"></path>
                                <path d="M15.9935867,17.8149934 L8.48419182,17.8149934 C7.1807344,17.8149934 6.12007558,16.7540985 6.12007558,15.4509382 C6.12007558,14.1472304 7.18074255,13.086883 8.48419182,13.086883 L15.9935867,13.086883 C17.2970441,13.086883 18.3576418,14.1472365 18.3576418,15.4509382 C18.3576418,16.7541046 17.297038,17.8149934 15.9935867,17.8149934 Z M8.48419182,14.1993724 C7.79401407,14.1993724 7.23257513,14.7604999 7.23257513,15.450928 C7.23257513,16.140772 7.79401407,16.7024837 8.48419182,16.7024837 L15.9935867,16.7024837 C16.6837644,16.7024837 17.2451423,16.140774 17.2451423,15.450928 C17.2451423,14.7605203 16.6837644,14.1993724 15.9935867,14.1993724 L8.48419182,14.1993724 Z" id="形状"></path>
                                <path d="M15.9935867,11.4181083 L8.48419182,11.4181083 C7.1807344,11.4181083 6.12007558,10.3572133 6.12007558,9.05407345 C6.12007558,7.75034329 7.18074255,6.68995721 8.48419182,6.68995721 L15.9935867,6.68995721 C17.2970441,6.68995721 18.3576418,7.75035347 18.3576418,9.05407345 C18.3576418,10.3572195 17.297038,11.4181083 15.9935867,11.4181083 Z M8.48419182,7.80246693 C7.79401407,7.80246693 7.23257513,8.36359446 7.23257513,9.05404292 C7.23257513,9.74388687 7.79401407,10.3055762 8.48419182,10.3055762 L15.9935867,10.3055762 C16.6837644,10.3055762 17.2451423,9.74386652 17.2451423,9.05404292 C17.2451423,8.36361481 16.6837644,7.80246693 15.9935867,7.80246693 L8.48419182,7.80246693 Z" id="形状"></path>
                                <path d="M2.64351068,4.74304993 L2.36539445,4.74304993 C1.06193703,4.74304993 0.00133926965,3.68227916 0.00133926965,2.37889298 C0.00133926965,1.07543556 1.06194314,0.0148174515 2.36539445,0.0148174515 L2.64351068,0.0148174515 C3.9469681,0.0148174515 5.00756586,1.07544167 5.00756586,2.37889298 C5.00756586,3.68230969 3.94696199,4.74304993 2.64351068,4.74304993 Z M2.36539445,1.12732718 C1.67521669,1.12732718 1.11381846,1.6887254 1.11381846,2.37888281 C1.11381846,3.06899747 1.67521669,3.63045879 2.36539445,3.63045879 L2.64351068,3.63045879 C3.33368844,3.63045879 3.89508667,3.06899747 3.89508667,2.37888281 C3.89508667,1.68870505 3.33368844,1.12732718 2.64351068,1.12732718 L2.36539445,1.12732718 Z" id="形状"></path>
                                <path d="M2.64351068,17.8149934 L2.36539445,17.8149934 C1.06193703,17.8149934 0.00133926965,16.7540985 0.00133926965,15.4509382 C0.00133926965,14.1472304 1.06194314,13.086883 2.36539445,13.086883 L2.64351068,13.086883 C3.9469681,13.086883 5.00756586,14.1472365 5.00756586,15.4509382 C5.00756586,16.7541046 3.94696199,17.8149934 2.64351068,17.8149934 Z M2.36539445,14.1993724 C1.67521669,14.1993724 1.11381846,14.7604999 1.11381846,15.450928 C1.11381846,16.140772 1.67521669,16.7024837 2.36539445,16.7024837 L2.64351068,16.7024837 C3.33368844,16.7024837 3.89508667,16.140774 3.89508667,15.450928 C3.89508667,14.7605203 3.33368844,14.1993724 2.64351068,14.1993724 L2.36539445,14.1993724 Z" id="形状"></path>
                                <path d="M2.64351068,11.4181083 L2.36539445,11.4181083 C1.06193703,11.4181083 0.00133926965,10.3572133 0.00133926965,9.05407345 C0.00133926965,7.75034329 1.06194314,6.68995721 2.36539445,6.68995721 L2.64351068,6.68995721 C3.9469681,6.68995721 5.00756586,7.75035347 5.00756586,9.05407345 C5.00756586,10.3572195 3.94696199,11.4181083 2.64351068,11.4181083 Z M2.36539445,7.80246693 C1.67521669,7.80246693 1.11381846,8.36359446 1.11381846,9.05404292 C1.11381846,9.74388687 1.67521669,10.3055762 2.36539445,10.3055762 L2.64351068,10.3055762 C3.33368844,10.3055762 3.89508667,9.74386652 3.89508667,9.05404292 C3.89508667,8.36361481 3.33368844,7.80246693 2.64351068,7.80246693 L2.36539445,7.80246693 Z" id="形状"></path>
                            </g>
                        </g>
                    </g>
                </g>
            </g>
        </g>
    </g>
</svg>