<?xml version="1.0" encoding="UTF-8"?>
<svg width="20px" height="24px" viewBox="0 0 20 24" version="1.1" xmlns="http://www.w3.org/2000/svg" xmlns:xlink="http://www.w3.org/1999/xlink">
    <!-- Generator: Sketch 52.5 (67469) - http://www.bohemiancoding.com/sketch -->
    <title>标签</title>
    <desc>Created with Sketch.</desc>
    <defs>
        <linearGradient x1="50%" y1="2.54696532%" x2="50%" y2="100%" id="linearGradient-1">
            <stop stop-color="#FACE00" offset="0%"></stop>
            <stop stop-color="#F9B900" offset="100%"></stop>
        </linearGradient>
    </defs>
    <g id="Page-1" stroke="none" stroke-width="1" fill="none" fill-rule="evenodd">
        <g id="今日会员-768*1024" transform="translate(-680.000000, -137.000000)" fill="url(#linearGradient-1)">
            <g id="分组-6--copy" transform="translate(423.000000, 137.000000)">
                <g id="分组-6">
                    <g id="矩形">
                        <g id="标签" transform="translate(257.510972, 0.297030)">
                            <path d="M17.8125,0 L1.1875,0 C0.53164375,0 0,0.514855 0,1.15 L0,21.85 C6.46245553e-05,22.0499547 0.0539692673,22.246437 0.15639375,22.420055 C0.48165,22.971595 1.20709375,23.1633 1.7765,22.8482 L9.5,18.5725 L17.2235,22.8482 C17.4028523,22.9475636 17.605873,22.999887 17.8125,23 C18.4683562,23 19,22.485145 19,21.85 L19,1.15 C19,0.514855 18.4683562,0 17.8125,0 Z" id="路径"></path>
                        </g>
                    </g>
                </g>
            </g>
        </g>
    </g>
</svg>