<?xml version="1.0" encoding="UTF-8"?>
<svg width="28px" height="28px" viewBox="0 0 28 28" version="1.1" xmlns="http://www.w3.org/2000/svg" xmlns:xlink="http://www.w3.org/1999/xlink">
    <!-- Generator: Sketch 52.5 (67469) - http://www.bohemiancoding.com/sketch -->
    <title>分组 8</title>
    <desc>Created with Sketch.</desc>
    <g id="Page-1" stroke="none" stroke-width="1" fill="none" fill-rule="evenodd">
        <g id="会员-copy-2" transform="translate(-825.000000, -108.000000)" fill="#999999" fill-rule="nonzero">
            <g id="分组-8" transform="translate(123.000000, 31.000000)">
                <g id="分组-10-copy" transform="translate(694.000000, 70.000000)">
                    <g id="充值金额预设" transform="translate(8.000000, 7.000000)">
                        <g id="充值" transform="translate(3.000000, 3.000000)">
                            <path d="M11.0000128,17.18752 C10.8625126,17.18752 10.5875123,17.0500198 10.4500122,16.9125197 L5.36250624,10.7250125 C5.08750592,10.5875123 5.08750592,10.1750118 5.22500608,10.0375117 L6.73750784,7.15000832 C6.875008,6.875008 7.01250816,6.73750784 7.28750848,6.73750784 L14.7125171,6.73750784 C14.9875174,6.73750784 15.2625178,6.875008 15.2625178,7.15000832 L16.7750195,10.0375117 C16.9125197,10.312512 16.9125197,10.5875123 16.6375194,10.7250125 L11.4125133,16.9125197 C11.4125133,17.0500198 11.137513,17.18752 11.0000128,17.18752 Z M6.60000768,10.1750118 L11.0000128,15.4000179 L15.4000179,10.1750118 L14.3000166,8.11250944 L7.70000896,8.11250944 L6.60000768,10.1750118 Z M11.0000128,22.0000256 C4.95000576,22.0000256 0,17.0500198 0,11.0000128 C0,4.95000576 4.95000576,0 11.0000128,0 C17.0500198,0 22.0000256,4.95000576 22.0000256,11.0000128 C22.0000256,11.4125133 21.7250253,11.6875136 21.3125248,11.6875136 C20.9000243,11.6875136 20.625024,11.4125133 20.625024,11.0000128 C20.625024,5.63750656 16.362519,1.3750016 11.0000128,1.3750016 C5.63750656,1.3750016 1.3750016,5.63750656 1.3750016,11.0000128 C1.3750016,16.362519 5.63750656,20.625024 11.0000128,20.625024 C11.4125133,20.625024 11.6875136,20.9000243 11.6875136,21.3125248 C11.6875136,21.7250253 11.4125133,22.0000256 11.0000128,22.0000256 Z M21.3125248,18.5625216 L14.4375168,18.5625216 C14.0250163,18.5625216 13.750016,18.2875213 13.750016,17.8750208 C13.750016,17.4625203 14.0250163,17.18752 14.4375168,17.18752 L21.3125248,17.18752 C21.7250253,17.18752 22.0000256,17.4625203 22.0000256,17.8750208 C22.0000256,18.2875213 21.7250253,18.5625216 21.3125248,18.5625216 Z M17.8750208,22.0000256 C17.4625203,22.0000256 17.18752,21.7250253 17.18752,21.3125248 L17.18752,14.4375168 C17.18752,14.0250163 17.4625203,13.750016 17.8750208,13.750016 C18.2875213,13.750016 18.5625216,14.0250163 18.5625216,14.4375168 L18.5625216,21.3125248 C18.5625216,21.7250253 18.2875213,22.0000256 17.8750208,22.0000256 Z" id="形状"></path>
                        </g>
                    </g>
                </g>
            </g>
        </g>
    </g>
</svg>