<?xml version="1.0" encoding="UTF-8"?>
<svg width="28px" height="28px" viewBox="0 0 28 28" version="1.1" xmlns="http://www.w3.org/2000/svg" xmlns:xlink="http://www.w3.org/1999/xlink">
    <!-- Generator: Sketch 52.5 (67469) - http://www.bohemiancoding.com/sketch -->
    <title>分组 8</title>
    <desc>Created with Sketch.</desc>
    <g id="Page-1" stroke="none" stroke-width="1" fill="none" fill-rule="evenodd">
        <g id="会员-copy-8" transform="translate(-386.000000, -593.000000)" fill="#999999" fill-rule="nonzero">
            <g id="分组-8" transform="translate(124.000000, 516.000000)">
                <g id="分组-9" transform="translate(254.000000, 70.000000)">
                    <g id="明细记录" transform="translate(8.000000, 7.000000)">
                        <g id="记录" transform="translate(3.000000, 3.000000)">
                            <path d="M5.53300644,7.09500826 L16.4230191,7.09500826 C16.8520196,7.09500826 17.20402,6.74300785 17.20402,6.31400735 C17.20402,5.88500685 16.8520196,5.53300644 16.4230191,5.53300644 L5.53300644,5.53300644 C5.10400594,5.53300644 4.75200553,5.88500685 4.75200553,6.31400735 C4.75200553,6.74300785 5.10400594,7.09500826 5.53300644,7.09500826 M16.4230191,10.1860119 L5.53300644,10.1860119 C5.10400594,10.1860119 4.75200553,10.5380123 4.75200553,10.9670128 C4.75200553,11.3960133 5.10400594,11.7480137 5.53300644,11.7480137 L16.4230191,11.7480137 C16.8520196,11.7480137 17.20402,11.3960133 17.20402,10.9670128 C17.19302,10.5380123 16.8520196,10.1860119 16.4230191,10.1860119 M16.4230191,14.8610173 L5.53300644,14.8610173 C5.10400594,14.8610173 4.75200553,15.2130177 4.75200553,15.6420182 C4.75200553,16.0710187 5.10400594,16.4230191 5.53300644,16.4230191 L16.4230191,16.4230191 C16.8520196,16.4230191 17.20402,16.0710187 17.20402,15.6420182 C17.19302,15.2020177 16.8520196,14.8610173 16.4230191,14.8610173 M8.71201014,2.42000282 L12.5950147,2.42000282 C13.2440154,2.42000282 13.761016,1.8920022 13.761016,1.25400146 C13.761016,0.605000704 13.2330154,0.0880001024 12.5950147,0.0880001024 L8.71201014,0.0880001024 C8.06300938,0.0880001024 7.54600878,0.616000717 7.54600878,1.25400146 C7.54600878,1.90300221 8.06300938,2.42000282 8.71201014,2.42000282 M18.7550218,0.869001011 L17.9740209,0.869001011 C17.5450204,0.869001011 17.19302,1.22100142 17.19302,1.65000192 C17.19302,2.07900242 17.5450204,2.43100283 17.9740209,2.43100283 L18.7550218,2.43100283 C19.6130228,2.43100283 20.3060236,3.12400364 20.3060236,3.98200463 L20.3060236,18.7550218 C20.3060236,19.6130228 19.6130228,20.3060236 18.7550218,20.3060236 L3.20100372,20.3060236 C2.34300273,20.3060236 1.65000192,19.6130228 1.65000192,18.7550218 L1.65000192,3.98200463 C1.65000192,3.12400364 2.34300273,2.43100283 3.20100372,2.43100283 L3.98200463,2.43100283 C4.41100513,2.43100283 4.76300554,2.07900242 4.76300554,1.65000192 C4.76300554,1.22100142 4.41100513,0.869001011 3.98200463,0.869001011 L3.20100372,0.869001011 C1.48500173,0.869001011 0.0880001024,2.25500262 0.0880001024,3.98200463 L0.0880001024,18.7550218 C0.0880001024,20.4710238 1.48500173,21.8680254 3.20100372,21.8680254 L18.7550218,21.8680254 C20.4710238,21.8680254 21.8680254,20.4710238 21.8680254,18.7550218 L21.8680254,3.98200463 C21.8680254,2.25500262 20.4710238,0.869001011 18.7550218,0.869001011" id="形状"></path>
                        </g>
                    </g>
                </g>
            </g>
        </g>
    </g>
</svg>