<?xml version="1.0" encoding="UTF-8"?>
<svg width="280px" height="144px" viewBox="0 0 280 144" version="1.1" xmlns="http://www.w3.org/2000/svg" xmlns:xlink="http://www.w3.org/1999/xlink">
    <!-- Generator: Sketch 52.5 (67469) - http://www.bohemiancoding.com/sketch -->
    <title>22</title>
    <desc>Created with Sketch.</desc>
    <defs>
        <linearGradient x1="-23.7080558%" y1="32.514313%" x2="113.631852%" y2="79.3147662%" id="linearGradient-1">
            <stop stop-color="#FB83CB" offset="0%"></stop>
            <stop stop-color="#FE95A7" offset="100%"></stop>
        </linearGradient>
        <rect id="path-2" x="0" y="0" width="280" height="144" rx="20"></rect>
    </defs>
    <g id="Page-1" stroke="none" stroke-width="1" fill="none" fill-rule="evenodd">
        <g id="会员-copy-7" transform="translate(-716.000000, -48.000000)">
            <g id="分组-3-copy-2" transform="translate(716.000000, 48.000000)">
                <g id="22">
                    <mask id="mask-3" fill="white">
                        <use xlink:href="#path-2"></use>
                    </mask>
                    <use id="Mask" fill="url(#linearGradient-1)" xlink:href="#path-2"></use>
                    <g id="三角形-(1)" mask="url(#mask-3)" fill="#FFFFFF">
                        <g transform="translate(247.761030, 69.633382) rotate(-83.000000) translate(-247.761030, -69.633382) translate(121.761030, -35.366618)">
                            <path d="M81.4506021,118.351153 L142.223122,32.226153 C148.777815,23.126153 165.043163,23.126153 171.516934,32.226153 L232.53222,118.351153 C239.086913,127.451153 234.393429,142.401153 221.364966,142.401153 L92.4560119,142.401153 C79.4275489,142.401153 74.8959095,127.369903 81.4506021,118.351153 Z" id="路径" opacity="0.082307" transform="translate(156.973426, 83.901153) rotate(-22.000000) translate(-156.973426, -83.901153) "></path>
                            <path d="M7.77991011,149.821094 L68.5524303,63.6960937 C75.1071229,54.5960937 91.3724711,54.5960937 97.8462416,63.6960937 L158.861528,149.821094 C165.416221,158.921094 160.722737,173.871094 147.694274,173.871094 L18.7853199,173.871094 C5.75685684,173.871094 1.22521752,158.839844 7.77991011,149.821094 Z" id="路径-copy" opacity="0.0592" transform="translate(83.302734, 115.371094) rotate(69.000000) translate(-83.302734, -115.371094) "></path>
                        </g>
                    </g>
                    <g id="充值" mask="url(#mask-3)">
                        <g transform="translate(221.000000, 13.000000)" id="币堆">
                            <g>
                                <path d="M51.2150827,24.0746263 C51.2150827,19.9709942 44.4870769,16.8248788 35.6995217,16.8248788 C34.1891597,16.8248788 32.6787925,16.9616665 31.031122,17.0984543 L31.031122,7.2497475 C31.031122,3.14611538 24.3031162,0 15.515561,0 C6.72800588,-5.15625599e-08 0,3.00933022 0,7.2497475 L0,28.8621945 C9.19404512e-16,32.9658266 6.72800588,36.111942 15.515561,36.111942 C17.025923,36.111942 18.5362902,35.9751543 20.1839607,35.8383665 L20.1839607,38.7109065 C20.1839607,42.8145386 26.9119666,45.960654 35.6995217,45.960654 C44.4870769,45.960654 51.2150827,42.8145386 51.2150827,38.7109065 L51.2150827,24.074616 L51.2150827,24.0746263 Z M32.4042015,19.2870581 C33.5026485,19.1502703 34.6010954,19.1502703 35.6995424,19.1502703 C43.2513784,19.1502703 49.0181888,21.7492348 49.0181888,24.0746289 C49.0181888,26.4000178 43.3886402,28.9989874 35.6995424,28.9989874 C34.6010954,28.9989874 33.6399569,28.9989874 32.5415099,28.8621997 C26.5000722,28.3150487 22.3808702,26.1264449 22.3808702,24.0746315 C22.3808702,23.801056 22.5181761,23.5274805 22.5181761,23.253905 C23.4793146,21.6124522 27.323879,19.8342142 32.4041885,19.2870632 L32.4042015,19.2870581 Z M15.5155558,2.1886038 C23.0673918,2.1886038 28.8342022,4.78756823 28.8342022,7.11296234 C28.8342022,9.4383513 23.2046537,12.0373209 15.5155558,12.0373209 C7.82640628,12.0373208 2.33417137,9.57514161 2.33417137,7.24975265 C2.33417137,4.9243637 7.96371991,2.18860895 15.5155558,2.18860895 L15.5155558,2.1886038 Z M2.33417137,11.0797938 C5.08028882,13.1316073 9.8860073,14.3626995 15.6528177,14.3626995 C21.4196799,14.3626995 26.2253466,12.9948222 28.9714641,11.0797938 L28.9714641,14.3626995 C28.9714641,16.6880885 23.3419155,19.2870581 15.6528177,19.2870581 C7.96366815,19.2870581 2.33417137,16.6880936 2.33417137,14.3626995 L2.33417137,11.0797938 Z M20.1839089,31.3243893 L20.1839089,33.3762027 C18.6735469,33.6497782 17.1631797,33.6497782 15.5155093,33.6497782 C7.96367333,33.6497782 2.19686291,31.0508138 2.19686291,28.7254197 L2.19686291,25.3057288 C4.94298036,27.3575423 9.74869884,28.7254197 15.5155093,28.7254197 C17.0258713,28.7254197 18.5362385,28.5886319 20.1839089,28.4518442 L20.1839089,31.3243841 L20.1839089,31.3243893 Z M20.1839089,24.0746418 L20.1839089,26.1264552 C18.6735469,26.4000307 17.0258765,26.5368185 15.5155093,26.5368185 C7.96367333,26.5368185 2.19686291,23.937854 2.19686291,21.6124599 L2.19686291,18.1927691 C4.94298036,20.2445825 9.74869884,21.6124599 15.5155093,21.6124599 C17.5750948,21.6124599 19.497377,21.4756722 21.556947,21.065309 C20.7331117,21.8860354 20.1838882,22.9803373 20.1838882,24.0746392 L20.1839089,24.0746418 Z M22.3808029,27.9046984 C24.5776969,29.5461513 28.1476651,30.7772383 32.5414427,31.0508138 C33.5025812,31.1876015 34.6010282,31.1876015 35.5621719,31.1876015 C41.329034,31.1876015 46.1347008,29.8197242 48.8808182,27.9046958 L48.8808182,31.1876015 C48.8808182,33.5129905 43.2512697,36.1119601 35.5621719,36.1119601 C34.6010333,36.1119601 33.5025863,36.1119601 32.5414427,35.9751723 C26.500005,35.4280214 22.2434893,33.2394176 22.2434893,31.1876041 L22.2434893,27.9046958 L22.3808029,27.9046984 Z M48.8808337,38.437331 C48.8808337,40.7627199 43.2512852,43.3616895 35.5621874,43.3616895 C27.8730378,43.3616895 22.243541,40.7627251 22.243541,38.437331 L22.243541,35.1544253 L22.3808469,35.1544253 C25.1269643,37.0694536 29.7953692,38.437331 35.5622314,38.437331 C41.3290936,38.437331 46.1347603,37.0694536 48.8808777,35.1544253 L48.8808777,38.437331 L48.8808337,38.437331 Z" id="形状" fill="#FDA7C5" fill-rule="nonzero"></path>
                            </g>
                        </g>
                    </g>
                </g>
            </g>
        </g>
    </g>
</svg>