<?xml version="1.0" encoding="UTF-8"?>
<svg width="28px" height="28px" viewBox="0 0 28 28" version="1.1" xmlns="http://www.w3.org/2000/svg" xmlns:xlink="http://www.w3.org/1999/xlink">
    <!-- Generator: Sketch 52.5 (67469) - http://www.bohemiancoding.com/sketch -->
    <title>分组 8</title>
    <desc>Created with Sketch.</desc>
    <g id="Page-1" stroke="none" stroke-width="1" fill="none" fill-rule="evenodd">
        <g id="会员-copy-2" transform="translate(-165.000000, -190.000000)" fill="#999999" fill-rule="nonzero">
            <g id="分组-8" transform="translate(123.000000, 31.000000)">
                <g id="分组-3-copy-3" transform="translate(34.000000, 152.000000)">
                    <g id="续费" transform="translate(8.000000, 7.000000)">
                        <g id="续费管理" transform="translate(3.000000, 3.000000)">
                            <path d="M10.4772257,14.1369398 C10.8756079,14.1369398 11.1974647,13.815083 11.1974647,13.4167009 L11.1974647,11.7781573 L13.8555965,11.7781573 C14.2539786,11.7781573 14.5758354,11.4563005 14.5758354,11.0579184 C14.5758354,10.6595362 14.2539786,10.3376794 13.8555965,10.3376794 L11.1974647,10.3376794 L11.1974647,9.04350011 L13.139859,9.04350011 C13.5382412,9.04350011 13.860098,8.72164333 13.860098,8.32326117 C13.860098,7.92487901 13.5382412,7.60302224 13.139859,7.60302224 L11.3617692,7.60302224 L13.0948441,4.07160072 C13.2704023,3.713732 13.1218531,3.28383939 12.7662351,3.10828115 C12.4083664,2.93272291 11.9784738,3.08127219 11.8029155,3.43689016 L10.4772257,6.13553541 L9.15828819,3.43689016 C8.98272995,3.07902144 8.55058659,2.93272291 8.19496861,3.10828115 C7.83709989,3.28383939 7.69080136,3.71598275 7.8663596,4.07160072 L9.59043155,7.60302224 L7.81234168,7.60302224 C7.41395952,7.60302224 7.09210275,7.92487901 7.09210275,8.32326117 C7.09210275,8.72164333 7.41395952,9.04350011 7.81234168,9.04350011 L9.75473605,9.04350011 L9.75473605,10.3376794 L7.10110573,10.3376794 C6.70272357,10.3376794 6.3808668,10.6595362 6.3808668,11.0579184 C6.3808668,11.4563005 6.70272357,11.7781573 7.10110573,11.7781573 L9.75473605,11.7781573 L9.75473605,13.4167009 C9.7569868,13.815083 10.0788436,14.1369398 10.4772257,14.1369398 Z M21.5959143,16.3809342 C21.4901292,16.1311014 21.3730903,15.88577 21.242547,15.6471908 C21.0264754,15.2645639 20.7518843,14.9224504 20.3872633,14.6658653 C19.9236095,14.3372563 19.403687,14.2224682 18.8455018,14.3192503 C18.2175435,14.4272861 17.6818658,14.7378892 17.1799493,15.1182654 C16.9346179,15.3095788 16.6757821,15.4851371 16.4101939,15.6449401 C15.867764,15.9577939 15.2735669,16.1468566 14.677119,16.3269163 C14.4655488,16.3899372 14.2494771,16.4394537 14.0334055,16.4957223 C13.9478771,16.0523252 13.7047965,15.7664804 13.2816561,15.6314356 C12.8922769,15.5076445 12.4893933,15.4851371 12.0865096,15.4468744 C11.6903782,15.4108624 11.291996,15.3951072 10.8936139,15.3635967 C10.5515004,15.3365878 10.2251421,15.2330534 9.94830027,15.0304862 C9.51840765,14.7176325 9.10201952,14.3822712 8.69238363,14.0446592 C8.20847309,13.646277 7.69305211,13.3019128 7.10560723,13.0745874 C6.49565488,12.838259 5.84969059,12.7054649 5.19472331,12.6807067 C4.98090237,12.6717037 4.76257995,12.7099664 4.54650827,12.7302231 C4.08735595,12.7752381 3.65746333,12.9192859 3.23882445,13.1038471 C2.40379744,13.4729695 1.67905701,14.0041458 1.01958824,14.6276026 C0.78325984,14.8526773 0.558185173,15.0912564 0.32410752,15.3185818 C0.12154032,15.4716326 0,15.7124625 0,15.9712983 C0,16.4236984 0.366871707,16.7883194 0.81702104,16.7883194 C1.12312259,16.7883194 1.38871069,16.6217641 1.52825699,16.374182 L1.53050773,16.3764327 C1.84111077,15.8249998 2.2282392,15.4468744 2.48707507,15.2285519 C2.90121245,14.872934 3.36486627,14.5825877 3.86678277,14.366516 C4.51724856,14.0851726 5.18797107,14.0244025 5.88120104,14.1774533 C6.49565488,14.3124981 7.0560908,14.5510772 7.54900432,14.9449579 C7.97214469,15.2848206 8.38853283,15.6314356 8.81392395,15.9667969 C9.2168076,16.2841521 9.66245544,16.5227313 10.1621212,16.6532746 C10.8350945,16.8310836 11.5260737,16.8198298 12.2125514,16.8670955 C12.3588499,16.8783493 12.5051485,16.9031075 12.6491963,16.9211134 C12.6266888,17.4500389 12.4173694,17.7966539 11.9357096,18.0397345 C11.328008,18.3435853 10.6707899,18.4471197 9.99781669,18.3120749 C9.5544196,18.2197943 9.10652101,18.1185107 8.68112989,17.9632091 C7.95413872,17.697621 7.24065203,17.3982717 6.52941608,17.0921702 C6.18505184,16.9436209 5.7731652,17.0449045 5.59760696,17.3239971 C5.36352931,17.6953703 5.51432933,18.1792808 5.87895029,18.3458361 C6.20530856,18.4943854 6.52716533,18.6586899 6.86027584,18.7937347 C7.67954763,19.1245944 8.50107016,19.4464512 9.37210912,19.6220094 C9.89653309,19.7277945 10.4209571,19.8088214 10.9611363,19.750302 C11.4675543,19.6985348 11.9627185,19.5679915 12.4286231,19.3631736 C13.0363247,19.093084 13.5157337,18.6856988 13.8105815,18.080248 C13.8398413,18.0307315 13.8871069,17.9924689 13.9433756,17.9767136 C14.4407906,17.8371673 14.9427071,17.7201285 15.4333699,17.564827 C15.8362535,17.4365344 16.2301342,17.2722299 16.6217641,17.1146777 C17.0966717,16.9188627 17.5400688,16.6532746 17.9384509,16.3269163 C18.1950361,16.1198476 18.4606242,15.9240327 18.7622242,15.7912386 C19.0638243,15.6584446 19.3519198,15.6449401 19.6152572,15.858761 C19.750302,15.9667969 19.8560871,16.1130954 19.9776274,16.2436387 C19.8718423,16.374182 19.7840632,16.4844686 19.6917826,16.5880029 C19.4239437,16.889603 19.1606064,17.1979553 18.8770123,17.4838001 C18.4066062,17.9542062 17.9339494,18.4201107 17.4387852,18.8635078 C17.0831672,19.1831138 16.693788,19.4689587 16.3111611,19.7548035 C15.7597282,20.1621886 15.1565281,20.4952991 14.5195667,20.7428813 C13.9456263,20.9702067 13.3401755,20.9814604 12.7369754,21.0084694 C12.4443783,21.0219739 12.1495305,21.0264754 11.8546827,21.0354783 L10.812587,21.0624873 L9.8920316,21.0894963 L8.87694485,21.1165052 L7.95413872,21.1435142 L6.95255645,21.1705231 L6.01849659,21.1975321 L5.01691432,21.2245411 L4.08285445,21.25155 C3.70022752,21.2628038 3.31534984,21.269556 2.93272291,21.278559 C2.44206013,21.287562 1.95139736,21.2898127 1.46073459,21.3078187 C1.22440619,21.3168217 1.01958824,21.411353 0.882292693,21.6206725 C0.785510587,21.7647203 0.778758347,21.9245233 0.781009093,22.0910785 C0.787761333,22.4039323 1.07585691,22.7055324 1.38871069,22.7010309 C1.76683613,22.6942786 2.14721232,22.6830249 2.52533776,22.6740219 C2.86520051,22.6650189 3.20281251,22.6560159 3.54042451,22.647013 L4.46097989,22.620004 L5.46256216,22.592995 C5.7731652,22.5839921 6.08601899,22.5727383 6.39662203,22.5659861 C6.78825195,22.5569831 7.18213261,22.5502309 7.57376253,22.5389771 C7.8325984,22.5322249 8.08918352,22.5187204 8.34801939,22.5119682 C8.69913587,22.5029652 9.05250309,22.4962129 9.40361957,22.4849592 C9.69846739,22.4759562 9.99106445,22.4669532 10.2859123,22.4579502 L11.3145035,22.4309413 L12.2215544,22.4039323 C12.5951783,22.3949293 12.971053,22.3926786 13.344677,22.3746726 C13.6350233,22.3589174 13.9298711,22.3499144 14.2134652,22.2891442 C14.9494594,22.1293412 15.6381878,21.8389949 16.2864029,21.4496157 C16.7658119,21.1637709 17.2339672,20.8599201 17.6616091,20.5020514 C18.0824987,20.1509349 18.5123913,19.8110722 18.9085227,19.4329467 C19.599502,18.7712272 20.274726,18.089251 20.8891798,17.3532568 C21.1142545,17.0854179 21.3483321,16.8265821 21.5711561,16.5564925 C21.6049173,16.5047253 21.6139202,16.4394537 21.5959143,16.3809342 Z M2.48032283,11.9964797 C2.54559448,11.9964797 2.61086613,11.9874767 2.67613779,11.9694708 C3.05876472,11.8614349 3.28158864,11.4653035 3.17580355,11.0804258 C2.98899157,10.4164556 2.89446021,9.7232256 2.89446021,9.02549413 C2.89446021,6.99982213 3.68447229,5.09343971 5.11594717,3.66196483 C6.54742205,2.23048995 8.45380448,1.44047787 10.4794765,1.44047787 C12.5051485,1.44047787 14.4115309,2.23048995 15.8430058,3.66196483 C17.2744807,5.09343971 18.0644927,6.99982213 18.0644927,9.02549413 C18.0644927,10.2116376 17.7989046,11.3460139 17.2744807,12.3993634 C17.0966717,12.7549814 17.2429702,13.1871247 17.5985882,13.3649337 C17.7021225,13.4167009 17.8101584,13.4414591 17.9181942,13.4414591 C18.1837823,13.4414591 18.4381167,13.2951606 18.5641585,13.0408262 C19.1876153,11.7871603 19.5049706,10.4367123 19.5049706,9.02549413 C19.5049706,7.80784019 19.2663915,6.62394744 18.7959854,5.51207859 C18.3413346,4.43622168 17.6908688,3.47065136 16.862594,2.64237659 C16.0343193,1.81410181 15.0687489,1.16363603 13.992892,0.7089852 C12.8787724,0.238579147 11.6971304,0 10.4794765,0 C9.26182253,0 8.07792979,0.238579147 6.96381019,0.7089852 C5.88795328,1.16363603 4.92238296,1.81410181 4.09410819,2.64237659 C3.26583341,3.47065136 2.61536763,4.43622168 2.1607168,5.51207859 C1.69031075,6.62619819 1.4517316,7.80784019 1.4517316,9.02549413 C1.4517316,9.85601965 1.56426893,10.6775422 1.78709285,11.469805 C1.87487197,11.7871603 2.16521829,11.9964797 2.48032283,11.9964797 Z" id="形状"></path>
                        </g>
                    </g>
                </g>
            </g>
        </g>
    </g>
</svg>