<?xml version="1.0" encoding="UTF-8"?>
<svg width="28px" height="28px" viewBox="0 0 28 28" version="1.1" xmlns="http://www.w3.org/2000/svg" xmlns:xlink="http://www.w3.org/1999/xlink">
    <!-- Generator: Sketch 52.5 (67469) - http://www.bohemiancoding.com/sketch -->
    <title>分组 8</title>
    <desc>Created with Sketch.</desc>
    <g id="Page-1" stroke="none" stroke-width="1" fill="none" fill-rule="evenodd">
        <g id="会员-copy-2" transform="translate(-386.000000, -334.000000)" fill="#999999" fill-rule="nonzero">
            <g id="分组-8" transform="translate(124.000000, 257.000000)">
                <g id="分组-9" transform="translate(254.000000, 70.000000)">
                    <g id="提成设置" transform="translate(8.000000, 7.000000)">
                        <g id="提成" transform="translate(3.000000, 3.000000)">
                            <g id="分组" transform="translate(0.042969, 0.000000)">
                                <path d="M10.9309834,0 C4.91094712,0 0.0131914216,4.89840023 0.0131914216,10.917792 C0.0131914216,16.9385158 4.91096861,21.8359922 10.9309834,21.8359922 C16.9509982,21.8359922 21.8492696,16.9385158 21.8492696,10.917792 C21.8492696,4.89833578 16.9510197,0 10.9309834,0 Z M10.9309834,20.4312562 C5.68533083,20.4312562 1.41801337,16.1638743 1.41801337,10.9176201 C1.41801337,5.67271949 5.68528787,1.40475749 10.9309834,1.40475749 C16.1765501,1.40475749 20.4445121,5.67269801 20.4445121,10.9176201 C20.4445121,16.1639172 16.1765716,20.4312562 10.9309834,20.4312562 Z" id="形状"></path>
                                <path d="M5.25188306,7.82691731 L5.25188306,7.14102354 L6.5749848,7.14102354 L6.5749848,5.13177238 L7.555,5.13177238 L7.555,7.14102354 L8.68222631,7.14102354 L8.68222631,7.82691731 L7.555,7.82691731 L7.555,10.5714205 C7.68525369,10.506401 7.89806505,10.4244663 8.19220797,10.3264103 C8.42027992,10.2611761 8.58417151,10.2122557 8.6822478,10.1794563 L8.6822478,10.816428 L16.4250322,10.816428 L16.4250322,11.5025559 L13.1417647,11.5025559 L13.1417647,12.923691 L16.0330064,12.923691 L16.0330064,13.5608989 L13.1417647,13.5608989 L13.1417647,15.2268938 C13.3380468,15.2590923 13.5659699,15.2760289 13.8278927,15.2760289 L16.5234544,15.2760289 L16.5234544,15.9619226 L13.7789512,15.9619226 C11.9817167,16.0269422 10.7236332,15.504103 10.0054741,14.3937913 C9.71152243,15.0796851 9.04132087,15.7330343 7.99622298,16.3539506 L7.99622298,15.6680569 C8.97623818,14.9497088 9.48242139,13.7896801 9.5154558,12.1885294 L10.4465725,12.1885294 C10.4465725,12.6463491 10.3974375,13.0546257 10.2996186,13.4137912 C10.7896584,14.3288096 11.3938319,14.9007394 12.1127601,15.1290928 L12.1127601,11.502569 L8.63323264,11.502569 L8.63323264,10.865361 C8.46936361,10.9311748 8.2412691,11.0292301 7.9471047,11.1594846 C7.7834288,11.2252984 7.65315299,11.2742401 7.55514115,11.3064386 L7.55514115,15.0797223 C7.58733961,15.8641005 7.14626294,16.2560641 6.23203942,16.2560641 L5.44787601,16.2560641 L5.44787601,15.5699361 L5.93791584,15.5699361 C6.36212102,15.5699361 6.5751238,15.3899465 6.5751238,15.0308259 L6.5751238,11.6004118 C6.15012585,11.6984455 5.64400709,11.7964793 5.05589098,11.8945353 L5.05589098,11.0612156 C5.21896574,11.0291888 5.4311547,10.9961961 5.69309895,10.963375 L5.69311805,10.9633719 C5.98350765,10.9153162 6.27384353,10.8669462 6.56412785,10.8182617 L6.56412785,7.82694573 L5.24083276,7.82694573 L5.25188306,7.82691731 Z M9.56446816,9.73811368 L9.56446816,5.67073004 L15.5432114,5.67073004 L15.5432114,8.41523323 C15.5754099,9.33025168 15.1182135,9.77115668 14.1711468,9.73816309 L9.56439726,9.73816309 L9.56446816,9.73811368 Z M10.4956493,6.25882252 L10.4956493,7.38604883 L14.5632478,7.38604883 L14.5632478,6.25882252 L10.4956493,6.25882252 Z M10.4956493,9.15002119 L13.9260635,9.15002119 C14.3832601,9.18303541 14.5952767,8.92194925 14.5632714,8.36585778 L14.5632714,7.97406611 L10.4956493,7.97406611 L10.495673,9.14999971 L10.4956493,9.15002119 Z" id="形状"></path>
                            </g>
                        </g>
                    </g>
                </g>
            </g>
        </g>
    </g>
</svg>