<?xml version="1.0" encoding="UTF-8"?>
<svg width="28px" height="28px" viewBox="0 0 28 28" version="1.1" xmlns="http://www.w3.org/2000/svg" xmlns:xlink="http://www.w3.org/1999/xlink">
    <!-- Generator: Sketch 52.5 (67469) - http://www.bohemiancoding.com/sketch -->
    <title>分组 8</title>
    <desc>Created with Sketch.</desc>
    <g id="Page-1" stroke="none" stroke-width="1" fill="none" fill-rule="evenodd">
        <g id="会员-copy-2" transform="translate(-605.000000, -108.000000)" fill="#999999" fill-rule="nonzero">
            <g id="分组-8" transform="translate(123.000000, 31.000000)">
                <g id="分组-10" transform="translate(474.000000, 70.000000)">
                    <g id="扫码配置" transform="translate(8.000000, 7.000000)">
                        <g id="扫码-copy" transform="translate(4.000000, 4.000000)">
                            <path d="M1.75715244,6.98572786 L1.75715244,3.0857116 C1.75715244,2.3571502 2.3571502,1.75715244 3.12857298,1.75715244 L7.02858923,1.75715244 C7.32857786,1.75715244 7.628587,1.58570692 7.80001201,1.32857967 C7.97143701,1.0714114 7.97143701,0.728581902 7.80001201,0.471434142 C7.628587,0.214286382 7.37143924,0.042861378 7.02858923,0.042861378 L3.12857298,0.042861378 C1.41428192,0.042861378 0.042861378,1.41428192 0.042861378,3.12857298 L0.042861378,7.02858923 C0.042861378,7.32857786 0.214286382,7.628587 0.471434142,7.80001201 C0.728581902,7.97143701 1.07143191,7.97143701 1.32857967,7.80001201 C1.58570692,7.58570512 1.75715244,7.32857786 1.75715244,6.98572786 Z M14.0142966,1.75715244 L17.9143128,1.75715244 C18.6428742,1.75715244 19.242872,2.3571502 19.242872,3.12857298 L19.242872,7.02858923 C19.242872,7.32857786 19.4143175,7.628587 19.6714448,7.80001201 C19.928613,7.97143701 20.2714425,7.97143701 20.5285903,7.80001201 C20.7857381,7.628587 20.9571631,7.37143924 20.9571631,7.02858923 L20.9571631,3.12857298 C20.9571631,1.41428192 19.5857425,0.042861378 17.8714515,0.042861378 L13.9714352,0.042861378 C13.6714466,0.042861378 13.3714374,0.214286382 13.2000124,0.471434142 C13.0285874,0.728581902 13.0285874,1.07143191 13.2000124,1.32857967 C13.4143193,1.58570692 13.6714466,1.75715244 14.0142966,1.75715244 Z M19.242872,14.0142966 L19.242872,17.9143128 C19.242872,18.6428742 18.6428742,19.242872 17.8714515,19.242872 L13.9714352,19.242872 C13.6714466,19.242872 13.3714374,19.4143175 13.2000124,19.6714448 C13.0285874,19.928613 13.0285874,20.2714425 13.2000124,20.5285903 C13.3714374,20.7857381 13.6285852,20.9571631 13.9714352,20.9571631 L17.8714515,20.9571631 C19.5857425,20.9571631 20.9571631,19.5857425 20.9571631,17.8714515 L20.9571631,13.9714352 C20.9571631,13.6714466 20.7857381,13.3714374 20.5285903,13.2000124 C20.2714425,13.0285874 19.9285925,13.0285874 19.6714448,13.2000124 C19.4143175,13.4143193 19.242872,13.6714466 19.242872,14.0142966 Z M6.98572786,19.242872 L3.0857116,19.242872 C2.3571502,19.242872 1.75715244,18.6428742 1.75715244,17.8714515 L1.75715244,13.9714352 C1.75715244,13.6714466 1.58570692,13.3714374 1.32857967,13.2000124 C1.0714114,13.0285874 0.728581902,13.0285874 0.471434142,13.2000124 C0.214286382,13.3714374 0.042861378,13.6285852 0.042861378,13.9714352 L0.042861378,17.8714515 C0.042861378,19.5857425 1.41428192,20.9571631 3.12857298,20.9571631 L7.02858923,20.9571631 C7.32857786,20.9571631 7.628587,20.7857381 7.80001201,20.5285903 C7.97143701,20.2714425 7.97143701,19.9285925 7.80001201,19.6714448 C7.58570512,19.4143175 7.32857786,19.242872 6.98572786,19.242872 Z M5.70000956,11.3571577 L16.2000218,11.3571577 C16.5000104,11.3571577 16.8000195,11.1857122 16.9714446,10.928585 C17.1428696,10.6714577 17.1428901,10.3285872 16.9714446,10.0714395 C16.799999,9.81429169 16.5428718,9.64286669 16.2000218,9.64286669 L5.70000956,9.64286669 C5.40000042,9.64286669 5.10001179,9.8143122 4.92858679,10.0714395 C4.75714128,10.3285872 4.75714128,10.6714372 4.92858679,10.928585 C5.10001179,11.2285941 5.35713905,11.3571577 5.70000956,11.3571577 Z" id="形状"></path>
                        </g>
                    </g>
                </g>
            </g>
        </g>
    </g>
</svg>