<?xml version="1.0" encoding="UTF-8"?>
<svg width="28px" height="28px" viewBox="0 0 28 28" version="1.1" xmlns="http://www.w3.org/2000/svg" xmlns:xlink="http://www.w3.org/1999/xlink">
    <!-- Generator: Sketch 52.5 (67469) - http://www.bohemiancoding.com/sketch -->
    <title>分组 8</title>
    <desc>Created with Sketch.</desc>
    <g id="Page-1" stroke="none" stroke-width="1" fill="none" fill-rule="evenodd">
        <g id="会员-copy-2" transform="translate(-166.000000, -334.000000)" fill="#999999" fill-rule="nonzero">
            <g id="分组-8" transform="translate(124.000000, 257.000000)">
                <g id="分组-3" transform="translate(34.000000, 70.000000)">
                    <g id="员工管理" transform="translate(8.000000, 7.000000)">
                        <g id="员工" transform="translate(3.000000, 5.000000)">
                            <path d="M0.00010585295,16.6611481 L0.00010582916,16.6611495 C-0.00657583166,17.0445635 0.298826442,17.3607987 0.682240399,17.367479 C1.06565436,17.3741607 1.38188959,17.0687584 1.38856993,16.6853445 C1.38871048,16.6772795 1.38871047,16.6692127 1.38856992,16.6611477 C1.38856992,13.5938836 3.87494258,11.1074927 6.94222494,11.1074927 L6.94222525,11.1074927 C7.72950794,11.1100053 8.50720491,11.2803669 9.22344603,11.607213 L9.22344566,11.6072146 C9.33077968,11.1517192 9.48437447,10.7083854 9.68183727,10.2841168 L9.68183665,10.2841165 C6.15899482,8.77107291 2.07660793,10.4003393 0.563562485,13.9231916 C0.192046458,14.7881998 0.000348633307,15.7197332 0.000123453216,16.6611435 L0.00010585295,16.6611481 Z M6.94222497,0 C4.64181812,0 2.77683267,1.86478407 2.77683267,4.1653923 C2.77683267,6.46600054 4.64181812,8.33058322 6.94222497,8.33058322 C9.24263183,8.33058322 11.1076173,6.46559777 11.1076173,4.1653923 C11.1076173,1.86520514 9.24283321,0 6.94222497,0 Z M6.94222497,6.94759301 L6.94222485,6.94759301 C5.40507599,6.94759294 4.15896232,5.70148667 4.15896232,4.16433048 C4.15896239,2.62718161 5.40506866,1.38106794 6.94222485,1.38106794 C8.47937372,1.38106801 9.72548739,2.62717429 9.72548739,4.16433048 C9.72548739,5.70147934 8.47938104,6.94759301 6.94222485,6.94759301 L6.94222497,6.94759301 Z M21.4041875,12.0420088 C21.3445162,11.7059101 21.1543273,11.4906288 20.9223899,11.4937923 L20.8745264,11.4937923 C20.0789797,11.4937923 19.430397,10.8078883 19.430397,9.96363501 C19.430397,9.68741776 19.5554325,9.38062728 19.5554325,9.37915171 C19.6787217,9.08254746 19.5890204,8.74012909 19.3361456,8.54206764 L19.3222293,8.53089245 L17.9331318,7.71552632 L17.9192155,7.70856819 C17.6477617,7.59471125 17.3341591,7.66107768 17.132103,7.87514175 C16.963421,8.059848 16.4280655,8.54017178 15.9977153,8.54016995 C15.5616714,8.54016995 15.0244192,8.04867321 14.8536283,7.86122452 C14.7167296,7.71777126 14.5271099,7.63655887 14.3288159,7.63645634 C14.2385198,7.63630624 14.1491603,7.65475237 14.0663036,7.69064548 L14.0511222,7.69886872 L12.6126864,8.53342275 L12.5987701,8.54438708 C12.3452705,8.74140683 12.254576,9.08347186 12.3771636,9.38020613 C12.3786396,9.38294721 12.5036751,9.68994775 12.5036751,9.966165 C12.5036751,10.8095761 11.8553029,11.4963223 11.0597563,11.4963223 L11.0110493,11.4963223 C10.779112,11.4893642 10.5893438,11.70591 10.5294623,12.0420087 C10.5239802,12.0696304 10.4126501,12.6986046 10.4126501,13.1943175 C10.4126501,13.6900322 10.5239802,14.3217466 10.5294623,14.3481037 C10.5891336,14.6797756 10.7738413,14.8950551 11.0013501,14.8950551 L11.0597563,14.8950551 C11.8559364,14.8950551 12.5036751,15.5820137 12.5036751,16.425423 C12.5036751,16.7031158 12.3788503,17.0071656 12.3788503,17.0099063 C12.2559292,17.306344 12.344986,17.6483596 12.5968722,17.8472027 L12.6105776,17.856902 L13.9726847,18.6636234 L13.986601,18.6705815 C14.2596749,18.7886579 14.5776987,18.7180806 14.775189,18.4955737 C14.9348043,18.312343 15.4920873,17.7873201 15.9348774,17.7873201 C16.3833611,17.7873201 16.9317882,18.3081269 17.1040546,18.5094909 C17.237291,18.660938 17.4294745,18.7474202 17.6311865,18.7467007 C17.7216364,18.7470763 17.8111277,18.7281717 17.893697,18.6912465 L17.9076133,18.6844992 L19.3203255,17.856902 L19.3342417,17.8472028 C19.5874101,17.6498443 19.6777329,17.3077884 19.5550043,17.0111713 C19.5535283,17.0071651 19.4284928,16.7031158 19.4284928,16.425423 C19.4284928,15.5820119 20.0770755,14.8952657 20.8726221,14.8952657 L20.9211182,14.8952657 C21.1530556,14.8994828 21.3428238,14.685678 21.4029158,14.3483142 C21.4086088,14.3204816 21.519728,13.6902428 21.519728,13.1945281 C21.519728,12.6988133 21.4086088,12.0685745 21.4029158,12.0422193 L21.4041875,12.0420088 Z M19.8624325,14.0176986 C18.9656756,14.0661947 18.2491984,14.8590007 18.2491984,15.8268138 C18.2491984,16.1489971 18.3670649,16.4593721 18.3936323,16.5238926 L17.3231335,17.1526559 L17.3216576,17.1526559 C17.3095261,17.1522031 17.297675,17.148879 17.2870778,17.1429566 L17.2870779,17.1429568 C17.1659178,17.0060457 17.0328386,16.8801643 16.8894099,16.7667962 C16.5562623,16.5042838 16.2382971,16.3697616 15.9452114,16.3697616 C15.6565544,16.3697616 15.3413297,16.5015445 15.0094472,16.7583638 L15.009447,16.758364 C14.8671046,16.8697676 14.7347492,16.9933733 14.6138879,17.1277784 C14.6043964,17.1341044 14.5932448,17.1374792 14.5818384,17.1374776 L14.5790973,17.1374776 L13.5459198,16.5238966 C13.5710113,16.4606408 13.6903538,16.1502661 13.6903538,15.8253422 C13.6903538,14.8604803 12.9734554,14.0661987 12.0769091,14.0177026 C12.0629929,13.9411632 11.992568,13.5150293 11.992568,13.1953779 C11.992568,12.8757247 12.0632037,12.4483274 12.0769091,12.3730532 C12.9738765,12.3243462 13.6903538,11.5317511 13.6903538,10.563938 C13.6903538,10.2417547 13.5737522,9.93137967 13.5459198,9.8670697 L14.6372926,9.22966176 L14.6412988,9.22966176 C14.6554337,9.23030656 14.6692541,9.2340496 14.6817826,9.2406261 L14.6817824,9.24062592 C14.8010427,9.37010777 14.9319721,9.48833318 15.0729147,9.5938035 C15.3993142,9.84239866 15.7088471,9.96869906 15.9934967,9.96869906 C16.2724545,9.96869906 16.5807206,9.84387423 16.9043795,9.60223769 L16.9043796,9.60223756 C17.0441595,9.49745852 17.1746671,9.38084892 17.2944574,9.25369906 C17.3066198,9.24641446 17.3205538,9.24262093 17.3347303,9.24273473 L17.3389473,9.24273473 L18.3932112,9.86474988 L18.3932111,9.86475017 C18.3048413,10.0868528 18.2559614,10.3226878 18.2487771,10.5616185 C18.2487771,11.5279559 18.9656755,12.322027 19.8620112,12.3707336 C19.8761383,12.4470624 19.9463523,12.873407 19.9463523,13.1930584 C19.9463523,13.5127116 19.87403,13.9398983 19.8620112,14.0153831 L19.8624325,14.0176986 Z" id="形状"></path>
                        </g>
                    </g>
                </g>
            </g>
        </g>
    </g>
</svg>