<?xml version="1.0" encoding="UTF-8"?>
<svg width="24px" height="24px" viewBox="0 0 24 24" version="1.1" xmlns="http://www.w3.org/2000/svg" xmlns:xlink="http://www.w3.org/1999/xlink">
    <!-- Generator: Sketch 52.5 (67469) - http://www.bohemiancoding.com/sketch -->
    <title>登录 copy 5</title>
    <desc>Created with Sketch.</desc>
    <g id="Page-1" stroke="none" stroke-width="1" fill="none" fill-rule="evenodd">
        <g id="登录-copy-5" transform="translate(-358.000000, -319.000000)" fill="#000000" fill-rule="nonzero">
            <g id="yanzhengma" transform="translate(358.000000, 319.000000)">
                <g id="验证码" transform="translate(4.000000, 3.000000)">
                    <path d="M7.65083243,0.0390789928 L0.362353363,3.06118777 C0.144941345,3.15497736 0,3.37381972 0,3.6135042 L0,8.10498312 C0,12.1587773 2.70212079,15.9833081 6.51200758,17.4630993 C7.38165565,17.7965733 8.35483325,17.7965733 9.22448132,17.4630993 C13.0343681,15.972887 15.7364889,12.1587773 15.7364889,8.10498312 L15.7364889,3.6135042 C15.7364889,3.37381972 15.5915476,3.15497736 15.3741355,3.06118777 L8.08565647,0.0390789928 C7.95106808,-0.0130263309 7.78542082,-0.0130263309 7.65083243,0.0390789928 Z M14.3698991,8.23003589 C14.3698991,11.5751977 12.1440141,14.7327803 8.9863634,15.9624659 C8.26165667,16.2438347 7.46447927,16.2438347 6.7501255,15.9624659 C3.60282772,14.7327803 1.36658983,11.5856187 1.36658983,8.23003589 L1.36658983,4.59308429 C1.36658983,4.3533998 1.51153117,4.13455744 1.72894319,4.04076786 L7.65083243,1.59181764 C7.79577378,1.52929125 7.95106808,1.52929125 8.08565647,1.59181764 L13.9971928,4.04076786 C14.2146048,4.13455744 14.3595461,4.3533998 14.3595461,4.59308429 L14.3595461,8.23003589 L14.3698991,8.23003589 Z M7.11247886,9.94951158 L10.9430716,6.02077016 C11.1604836,5.79150674 11.5331899,5.79150674 11.7609549,6.0103491 L11.7713078,6.02077016 L11.8748373,6.12498081 C12.1026023,6.3646653 12.1026023,6.72940257 11.8748373,6.96908706 L7.31953793,11.6377241 C7.10212591,11.8669875 6.7294196,11.8669875 6.50165462,11.6481451 L6.49130167,11.6377241 L4.60706418,9.69940602 C4.37929921,9.45972153 4.37929921,9.09498427 4.60706418,8.85529978 L4.71059372,8.75108913 C4.92800573,8.52182571 5.30071205,8.52182571 5.52847702,8.74066807 L5.53882997,8.75108913 L6.70871369,9.94951158 C6.81224322,10.0641433 6.98824343,10.0641433 7.11247886,9.94951158 C7.10212591,9.94951158 7.11247886,9.94951158 7.11247886,9.94951158 Z" id="形状"></path>
                </g>
            </g>
        </g>
    </g>
</svg>