<?xml version="1.0" encoding="UTF-8"?>
<svg width="19px" height="19px" viewBox="0 0 19 19" version="1.1" xmlns="http://www.w3.org/2000/svg" xmlns:xlink="http://www.w3.org/1999/xlink">
    <!-- Generator: Sketch 52.5 (67469) - http://www.bohemiancoding.com/sketch -->
    <title>会员</title>
    <desc>Created with Sketch.</desc>
    <g id="Page-1" stroke="none" stroke-width="1" fill="none" fill-rule="evenodd">
        <g id="今日会员-768*1024" transform="translate(-218.000000, -149.000000)" fill-rule="nonzero">
            <g id="22" transform="translate(123.000000, 137.000000)">
                <g id="分组-6">
                    <g id="分组-4" transform="translate(14.394984, 9.910891)">
                        <g id="会员" transform="translate(78.272727, 0.000000)">
                            <g id="会员标志">
                                <g id="分组-17">
                                    <path d="M3.00786872,8.11606237 L3.06192103,7.94896967 C3.22407797,7.39199396 3.81865341,7.05780855 4.41322885,7.22490125 C4.68349041,7.3362964 4.89969966,7.50338911 5.00780429,7.78187696 C5.22401353,8.17175995 5.16996122,8.67303808 4.89969966,9.00722349 C4.84564735,9.00722349 4.84564735,9.06292106 4.79159504,9.11861864 C5.60237972,9.61989676 6.35911212,10.1211749 7.11584448,10.5667554 C7.38610604,10.7338482 7.71041992,10.9566384 7.98068148,11.1237311 C8.08878611,11.2351263 8.25094305,11.1794287 8.30499536,11.0680336 L8.35904768,11.012336 C9.27793699,9.34140891 10.142774,7.67048181 11.0616633,5.94385716 C10.6832971,5.77676445 10.4130356,5.38688145 10.4130355,4.94130089 C10.4130355,4.60711548 10.5211402,4.32862763 10.7373494,4.10583735 C11.1697679,3.66025679 11.8183957,3.71595436 12.2508142,4.10583735 L12.3048665,4.16153492 C12.737285,4.71851062 12.5751281,5.38688145 11.872448,5.88815959 C12.0886572,6.33374015 12.3048665,6.77932071 12.5751281,7.16920369 C13.2237558,8.39455022 13.8723836,9.61989676 14.5210113,10.7895457 C14.6831683,11.0680336 14.7912729,11.1237311 15.0074821,10.9566384 C16.0344761,10.3439652 17.0074177,9.67559434 18.0344116,9.06292106 L18.1965686,8.95152593 C17.9803593,8.78443322 17.8722547,8.50594537 17.8182024,8.22745752 C17.7641501,7.61478425 18.2506209,7.11350613 18.791144,7.05780855 C19.2776148,7.00211098 19.7100333,7.3362964 19.8721903,7.83757452 C19.8721903,8.00466723 19.9262426,8.06036479 19.9262426,8.11606237 L19.9262426,8.50594537 C19.7640856,9.06292107 19.3857194,9.39710649 18.791144,9.39710647 C18.791144,9.45280404 18.7370917,9.50850162 18.7370917,9.61989676 L16.9533654,15.8580246 C16.8993131,16.1365124 16.7912084,16.19221 16.5209469,16.19221 L6.41316441,16.19221 C6.14290284,16.19221 6.03479821,16.1365124 5.98074592,15.8580246 C5.49427511,14.1870975 5.00780429,12.5161704 4.57538578,10.7895457 C4.46728115,10.3439652 4.30512422,9.89838461 4.1970196,9.39710647 C3.7646011,9.39710647 3.38623492,9.1743162 3.17002566,8.84013078 C3.11597335,8.67303808 3.06192103,8.61734051 3.00786872,8.50594537 L3.00786872,8.11606237 Z M11.4940818,17.2504638 L16.2506853,17.2504638 C16.6831038,17.2504638 17.06147,17.5846492 17.06147,18.0302298 C17.06147,18.4201128 16.7912084,18.8099958 16.4128423,18.8656933 L6.7374783,18.8656933 C6.41316442,18.8656933 6.08885055,18.6429031 5.98074592,18.3087176 C5.87264129,17.9745322 5.98074592,17.5846492 6.25100747,17.4175565 C6.41316441,17.3061614 6.57532135,17.2504638 6.7915306,17.2504638 C8.35904768,17.1947663 9.92656474,17.2504638 11.4940818,17.2504638 Z" id="形状" fill="#EFCD8B" transform="translate(11.467056, 11.328942) rotate(45.000000) translate(-11.467056, -11.328942) "></path>
                                    <path d="M10.2191823,6.87007094 C10.3813392,6.87007094 10.7056531,6.92576851 10.9759146,7.20425637 L11.029967,7.25995394 C11.4623855,7.81692964 11.3002285,8.48530047 10.5975485,8.98657859 C10.8137577,9.43215915 11.029967,9.87773971 11.3002285,10.2676227 C11.9488563,11.4929692 12.597484,12.7183158 13.2461118,13.8879647 C13.4082687,14.1664526 13.5163733,14.2221501 13.7325826,14.0550574 C14.7595765,13.4423842 15.7325182,12.7740133 16.7595121,12.1613401 L16.921669,12.0499449 C16.7054598,11.8828522 16.5973552,11.6043644 16.5433028,11.3258765 C16.4892505,10.7132033 16.9757214,10.2119251 17.5162445,10.1562276 C18.0027153,10.10053 18.4351338,10.4347154 18.5972907,10.9359935 C18.5972907,10.9916911 18.651343,11.0473887 18.651343,11.1030862 L18.651343,11.4929692 C18.4891861,12.0499449 18.1108199,12.3841304 17.5162445,12.3841303 C17.5162445,12.4398279 17.4621922,12.4955255 17.4621922,12.6069206 L15.6784658,18.8450485 C15.6244135,19.1235363 15.5163089,19.1792339 15.2460473,19.1792339 L10.2191823,19.1792339 L10.2191823,6.87007094 Z M10.2191823,20.2374877 L14.9757858,20.2374877 C15.4082043,20.2374877 15.7865705,20.5716731 15.7865705,21.0172537 C15.7865705,21.4071367 15.5163089,21.7970196 15.1379427,21.8527172 L10.2732346,21.8527172 L10.2191823,20.2374877 Z" id="形状" fill="#EDB143" transform="translate(14.435263, 14.361394) rotate(45.000000) translate(-14.435263, -14.361394) "></path>
                                </g>
                            </g>
                        </g>
                    </g>
                </g>
            </g>
        </g>
    </g>
</svg>