<?xml version="1.0" encoding="UTF-8"?>
<svg width="287px" height="10px" viewBox="0 0 287 10" version="1.1" xmlns="http://www.w3.org/2000/svg" xmlns:xlink="http://www.w3.org/1999/xlink">
    <!-- Generator: Sketch 52.5 (67469) - http://www.bohemiancoding.com/sketch -->
    <title>分组 2</title>
    <desc>Created with Sketch.</desc>
    <g id="Page-1" stroke="none" stroke-width="1" fill="none" fill-rule="evenodd">
        <g id="今日会员" transform="translate(-122.000000, -356.000000)">
            <g id="22-copy" transform="translate(122.000000, 136.000000)">
                <g id="分组-6">
                    <g id="背景">
                        <g id="分组-2" transform="translate(0.000000, 220.000000)">
                            <path d="M279.015193,7.20792079 L276.991076,7.20792079 C276.592939,8.76206838 275.182981,9.91089109 273.504702,9.91089109 C271.826423,9.91089109 270.416466,8.76206838 270.018328,7.20792079 L267.994211,7.20792079 C267.596074,8.76206838 266.186116,9.91089109 264.507837,9.91089109 C262.829558,9.91089109 261.4196,8.76206838 261.021463,7.20792079 L258.997346,7.20792079 C258.599208,8.76206838 257.189251,9.91089109 255.510972,9.91089109 C253.832693,9.91089109 252.422735,8.76206838 252.024598,7.20792079 L250.000481,7.20792079 C249.602343,8.76206838 248.192386,9.91089109 246.514107,9.91089109 C244.835827,9.91089109 243.42587,8.76206838 243.027733,7.20792079 L241.003615,7.20792079 C240.605478,8.76206838 239.195521,9.91089109 237.517241,9.91089109 C235.838962,9.91089109 234.429005,8.76206838 234.030867,7.20792079 L232.00675,7.20792079 C231.608613,8.76206838 230.198655,9.91089109 228.520376,9.91089109 C226.842097,9.91089109 225.43214,8.76206838 225.034002,7.20792079 L223.009885,7.20792079 C222.611747,8.76206838 221.20179,9.91089109 219.523511,9.91089109 C217.845232,9.91089109 216.435274,8.76206838 216.037137,7.20792079 L214.01302,7.20792079 C213.614882,8.76206838 212.204925,9.91089109 210.526646,9.91089109 C208.848367,9.91089109 207.438409,8.76206838 207.040272,7.20792079 L205.016155,7.20792079 C204.618017,8.76206838 203.20806,9.91089109 201.529781,9.91089109 C199.851501,9.91089109 198.441544,8.76206838 198.043407,7.20792079 L196.019289,7.20792079 C195.621152,8.76206838 194.211195,9.91089109 192.532915,9.91089109 C190.854636,9.91089109 189.444679,8.76206838 189.046541,7.20792079 L187.022424,7.20792079 C186.624287,8.76206838 185.214329,9.91089109 183.53605,9.91089109 C181.857771,9.91089109 180.447814,8.76206838 180.049676,7.20792079 L178.025559,7.20792079 C177.627421,8.76206838 176.217464,9.91089109 174.539185,9.91089109 C172.860906,9.91089109 171.450948,8.76206838 171.052811,7.20792079 L169.028694,7.20792079 C168.630556,8.76206838 167.220599,9.91089109 165.54232,9.91089109 C163.864041,9.91089109 162.454083,8.76206838 162.055946,7.20792079 L160.031829,7.20792079 C159.633691,8.76206838 158.223734,9.91089109 156.545455,9.91089109 C154.867175,9.91089109 153.457218,8.76206838 153.05908,7.20792079 L151.034963,7.20792079 C150.636826,8.76206838 149.226869,9.91089109 147.548589,9.91089109 C145.87031,9.91089109 144.460353,8.76206838 144.062215,7.20792079 L142.038098,7.20792079 C141.639961,8.76206838 140.230003,9.91089109 138.551724,9.91089109 C136.873445,9.91089109 135.463488,8.76206838 135.06535,7.20792079 L133.041233,7.20792079 C132.643095,8.76206838 131.233138,9.91089109 129.554859,9.91089109 C127.87658,9.91089109 126.466622,8.76206838 126.068485,7.20792079 L124.044368,7.20792079 C123.64623,8.76206838 122.236273,9.91089109 120.557994,9.91089109 C118.879715,9.91089109 117.469757,8.76206838 117.07162,7.20792079 L115.047503,7.20792079 C114.649365,8.76206838 113.239408,9.91089109 111.561129,9.91089109 C109.882849,9.91089109 108.472892,8.76206838 108.074754,7.20792079 L106.050637,7.20792079 C105.6525,8.76206838 104.242543,9.91089109 102.564263,9.91089109 C100.885984,9.91089109 99.4760268,8.76206838 99.0778893,7.20792079 L97.0537722,7.20792079 C96.6556346,8.76206838 95.2456773,9.91089109 93.5673981,9.91089109 C91.8891189,9.91089109 90.4791616,8.76206838 90.0810241,7.20792079 L88.056907,7.20792079 C87.6587694,8.76206838 86.2488121,9.91089109 84.5705329,9.91089109 C82.8922537,9.91089109 81.4822964,8.76206838 81.0841589,7.20792079 L79.0600418,7.20792079 C78.6619042,8.76206838 77.2519469,9.91089109 75.5736677,9.91089109 C73.8953885,9.91089109 72.4854312,8.76206838 72.0872937,7.20792079 L70.0631766,7.20792079 C69.665039,8.76206838 68.2550817,9.91089109 66.5768025,9.91089109 C64.8985233,9.91089109 63.488566,8.76206838 63.0904285,7.20792079 L61.0663114,7.20792079 C60.6681738,8.76206838 59.2582165,9.91089109 57.5799373,9.91089109 C55.9016581,9.91089109 54.4917008,8.76206838 54.0935633,7.20792079 L52.0694461,7.20792079 C51.6713086,8.76206838 50.2613513,9.91089109 48.5830721,9.91089109 C46.9047929,9.91089109 45.4948356,8.76206838 45.0966981,7.20792079 L43.0725809,7.20792079 C42.6744434,8.76206838 41.2644861,9.91089109 39.5862069,9.91089109 C37.9079277,9.91089109 36.4979704,8.76206838 36.0998329,7.20792079 L34.0757157,7.20792079 C33.6775782,8.76206838 32.2676209,9.91089109 30.5893417,9.91089109 C28.9110625,9.91089109 27.5011052,8.76206838 27.1029676,7.20792079 L25.0788505,7.20792079 C24.680713,8.76206838 23.2707557,9.91089109 21.5924765,9.91089109 C19.9141973,9.91089109 18.50424,8.76206838 18.1061024,7.20792079 L16.0819853,7.20792079 C15.6838478,8.76206838 14.2738905,9.91089109 12.5956113,9.91089109 C10.9173321,9.91089109 9.50737477,8.76206838 9.10923724,7.20792079 L7.08512013,7.20792079 C6.68698259,8.76206838 5.2770253,9.91089109 3.59874608,9.91089109 C1.92046687,9.91089109 0.51050957,8.76206838 0.112372035,7.20792079 L0,7.20792079 L0,1 L287,1 L287,7.20792079 L285.987941,7.20792079 C285.589804,8.76206838 284.179847,9.91089109 282.501567,9.91089109 C280.823288,9.91089109 279.413331,8.76206838 279.015193,7.20792079 Z" id="合并形状" fill="#EEEFF0"></path>
                            <path d="M279.015193,6.20792079 L276.991076,6.20792079 C276.592939,7.76206838 275.182981,8.91089109 273.504702,8.91089109 C271.826423,8.91089109 270.416466,7.76206838 270.018328,6.20792079 L267.994211,6.20792079 C267.596074,7.76206838 266.186116,8.91089109 264.507837,8.91089109 C262.829558,8.91089109 261.4196,7.76206838 261.021463,6.20792079 L258.997346,6.20792079 C258.599208,7.76206838 257.189251,8.91089109 255.510972,8.91089109 C253.832693,8.91089109 252.422735,7.76206838 252.024598,6.20792079 L250.000481,6.20792079 C249.602343,7.76206838 248.192386,8.91089109 246.514107,8.91089109 C244.835827,8.91089109 243.42587,7.76206838 243.027733,6.20792079 L241.003615,6.20792079 C240.605478,7.76206838 239.195521,8.91089109 237.517241,8.91089109 C235.838962,8.91089109 234.429005,7.76206838 234.030867,6.20792079 L232.00675,6.20792079 C231.608613,7.76206838 230.198655,8.91089109 228.520376,8.91089109 C226.842097,8.91089109 225.43214,7.76206838 225.034002,6.20792079 L223.009885,6.20792079 C222.611747,7.76206838 221.20179,8.91089109 219.523511,8.91089109 C217.845232,8.91089109 216.435274,7.76206838 216.037137,6.20792079 L214.01302,6.20792079 C213.614882,7.76206838 212.204925,8.91089109 210.526646,8.91089109 C208.848367,8.91089109 207.438409,7.76206838 207.040272,6.20792079 L205.016155,6.20792079 C204.618017,7.76206838 203.20806,8.91089109 201.529781,8.91089109 C199.851501,8.91089109 198.441544,7.76206838 198.043407,6.20792079 L196.019289,6.20792079 C195.621152,7.76206838 194.211195,8.91089109 192.532915,8.91089109 C190.854636,8.91089109 189.444679,7.76206838 189.046541,6.20792079 L187.022424,6.20792079 C186.624287,7.76206838 185.214329,8.91089109 183.53605,8.91089109 C181.857771,8.91089109 180.447814,7.76206838 180.049676,6.20792079 L178.025559,6.20792079 C177.627421,7.76206838 176.217464,8.91089109 174.539185,8.91089109 C172.860906,8.91089109 171.450948,7.76206838 171.052811,6.20792079 L169.028694,6.20792079 C168.630556,7.76206838 167.220599,8.91089109 165.54232,8.91089109 C163.864041,8.91089109 162.454083,7.76206838 162.055946,6.20792079 L160.031829,6.20792079 C159.633691,7.76206838 158.223734,8.91089109 156.545455,8.91089109 C154.867175,8.91089109 153.457218,7.76206838 153.05908,6.20792079 L151.034963,6.20792079 C150.636826,7.76206838 149.226869,8.91089109 147.548589,8.91089109 C145.87031,8.91089109 144.460353,7.76206838 144.062215,6.20792079 L142.038098,6.20792079 C141.639961,7.76206838 140.230003,8.91089109 138.551724,8.91089109 C136.873445,8.91089109 135.463488,7.76206838 135.06535,6.20792079 L133.041233,6.20792079 C132.643095,7.76206838 131.233138,8.91089109 129.554859,8.91089109 C127.87658,8.91089109 126.466622,7.76206838 126.068485,6.20792079 L124.044368,6.20792079 C123.64623,7.76206838 122.236273,8.91089109 120.557994,8.91089109 C118.879715,8.91089109 117.469757,7.76206838 117.07162,6.20792079 L115.047503,6.20792079 C114.649365,7.76206838 113.239408,8.91089109 111.561129,8.91089109 C109.882849,8.91089109 108.472892,7.76206838 108.074754,6.20792079 L106.050637,6.20792079 C105.6525,7.76206838 104.242543,8.91089109 102.564263,8.91089109 C100.885984,8.91089109 99.4760268,7.76206838 99.0778893,6.20792079 L97.0537722,6.20792079 C96.6556346,7.76206838 95.2456773,8.91089109 93.5673981,8.91089109 C91.8891189,8.91089109 90.4791616,7.76206838 90.0810241,6.20792079 L88.056907,6.20792079 C87.6587694,7.76206838 86.2488121,8.91089109 84.5705329,8.91089109 C82.8922537,8.91089109 81.4822964,7.76206838 81.0841589,6.20792079 L79.0600418,6.20792079 C78.6619042,7.76206838 77.2519469,8.91089109 75.5736677,8.91089109 C73.8953885,8.91089109 72.4854312,7.76206838 72.0872937,6.20792079 L70.0631766,6.20792079 C69.665039,7.76206838 68.2550817,8.91089109 66.5768025,8.91089109 C64.8985233,8.91089109 63.488566,7.76206838 63.0904285,6.20792079 L61.0663114,6.20792079 C60.6681738,7.76206838 59.2582165,8.91089109 57.5799373,8.91089109 C55.9016581,8.91089109 54.4917008,7.76206838 54.0935633,6.20792079 L52.0694461,6.20792079 C51.6713086,7.76206838 50.2613513,8.91089109 48.5830721,8.91089109 C46.9047929,8.91089109 45.4948356,7.76206838 45.0966981,6.20792079 L43.0725809,6.20792079 C42.6744434,7.76206838 41.2644861,8.91089109 39.5862069,8.91089109 C37.9079277,8.91089109 36.4979704,7.76206838 36.0998329,6.20792079 L34.0757157,6.20792079 C33.6775782,7.76206838 32.2676209,8.91089109 30.5893417,8.91089109 C28.9110625,8.91089109 27.5011052,7.76206838 27.1029676,6.20792079 L25.0788505,6.20792079 C24.680713,7.76206838 23.2707557,8.91089109 21.5924765,8.91089109 C19.9141973,8.91089109 18.50424,7.76206838 18.1061024,6.20792079 L16.0819853,6.20792079 C15.6838478,7.76206838 14.2738905,8.91089109 12.5956113,8.91089109 C10.9173321,8.91089109 9.50737477,7.76206838 9.10923724,6.20792079 L7.08512013,6.20792079 C6.68698259,7.76206838 5.2770253,8.91089109 3.59874608,8.91089109 C1.92046687,8.91089109 0.51050957,7.76206838 0.112372035,6.20792079 L0,6.20792079 L0,-1.13686838e-13 L287,-1.13686838e-13 L287,6.20792079 L285.987941,6.20792079 C285.589804,7.76206838 284.179847,8.91089109 282.501567,8.91089109 C280.823288,8.91089109 279.413331,7.76206838 279.015193,6.20792079 Z" id="合并形状-copy" fill="#FFFFFF"></path>
                        </g>
                    </g>
                </g>
            </g>
        </g>
    </g>
</svg>