<?xml version="1.0" encoding="UTF-8"?>
<svg width="170px" height="170px" viewBox="0 0 170 170" version="1.1" xmlns="http://www.w3.org/2000/svg" xmlns:xlink="http://www.w3.org/1999/xlink">
    <!-- Generator: Sketch 52.5 (67469) - http://www.bohemiancoding.com/sketch -->
    <title>优惠券</title>
    <desc>Created with Sketch.</desc>
    <defs>
        <linearGradient x1="0%" y1="55.8771307%" x2="100%" y2="55.8771307%" id="linearGradient-1">
            <stop stop-color="#FFCC31" offset="0%"></stop>
            <stop stop-color="#FFB22C" offset="100%"></stop>
        </linearGradient>
        <linearGradient x1="87.4834048%" y1="0.653890877%" x2="14.8055058%" y2="100%" id="linearGradient-2">
            <stop stop-color="#97ACF8" offset="0%"></stop>
            <stop stop-color="#B2C3FF" offset="100%"></stop>
        </linearGradient>
        <linearGradient x1="0%" y1="55.8771307%" x2="100%" y2="55.8771307%" id="linearGradient-3">
            <stop stop-color="#FFE8A1" offset="0%"></stop>
            <stop stop-color="#FFC530" offset="100%"></stop>
        </linearGradient>
        <filter x="0.0%" y="0.0%" width="100.0%" height="100.0%" filterUnits="objectBoundingBox" id="filter-4">
            <feGaussianBlur stdDeviation="0 0" in="SourceGraphic"></feGaussianBlur>
        </filter>
        <linearGradient x1="0%" y1="44.8697917%" x2="100%" y2="44.8697917%" id="linearGradient-5">
            <stop stop-color="#FFEBC6" offset="0%"></stop>
            <stop stop-color="#FFD969" offset="100%"></stop>
        </linearGradient>
        <filter x="0.0%" y="0.0%" width="100.0%" height="100.0%" filterUnits="objectBoundingBox" id="filter-6">
            <feGaussianBlur stdDeviation="0 0" in="SourceGraphic"></feGaussianBlur>
        </filter>
        <filter x="-0.0%" y="0.0%" width="100.0%" height="100.0%" filterUnits="objectBoundingBox" id="filter-7">
            <feGaussianBlur stdDeviation="0 0" in="SourceGraphic"></feGaussianBlur>
        </filter>
        <filter x="-0.0%" y="0.0%" width="100.0%" height="100.0%" filterUnits="objectBoundingBox" id="filter-8">
            <feGaussianBlur stdDeviation="0 0" in="SourceGraphic"></feGaussianBlur>
        </filter>
        <filter x="0.0%" y="0.0%" width="100.0%" height="100.0%" filterUnits="objectBoundingBox" id="filter-9">
            <feGaussianBlur stdDeviation="0 0" in="SourceGraphic"></feGaussianBlur>
        </filter>
        <filter x="0.0%" y="0.0%" width="100.0%" height="100.0%" filterUnits="objectBoundingBox" id="filter-10">
            <feGaussianBlur stdDeviation="0 0" in="SourceGraphic"></feGaussianBlur>
        </filter>
        <filter x="-0.0%" y="0.0%" width="100.0%" height="100.0%" filterUnits="objectBoundingBox" id="filter-11">
            <feGaussianBlur stdDeviation="0 0" in="SourceGraphic"></feGaussianBlur>
        </filter>
        <filter x="-0.0%" y="0.0%" width="100.0%" height="100.0%" filterUnits="objectBoundingBox" id="filter-12">
            <feGaussianBlur stdDeviation="0 0" in="SourceGraphic"></feGaussianBlur>
        </filter>
        <linearGradient x1="-8.13843665%" y1="84.8409149%" x2="98.8462606%" y2="35.3465759%" id="linearGradient-13">
            <stop stop-color="#FFDB00" offset="0%"></stop>
            <stop stop-color="#FFB400" offset="100%"></stop>
        </linearGradient>
        <linearGradient x1="50%" y1="0%" x2="50%" y2="100%" id="linearGradient-14">
            <stop stop-color="#FAD961" offset="0%"></stop>
            <stop stop-color="#F76B1C" offset="100%"></stop>
        </linearGradient>
    </defs>
    <g id="Page-1" stroke="none" stroke-width="1" fill="none" fill-rule="evenodd">
        <g id="会员-copy" transform="translate(-146.000000, -276.000000)">
            <g id="优惠券" transform="translate(136.000000, 261.000000)">
                <g transform="translate(10.000000, 15.000000)">
                    <g transform="translate(10.000000, 14.000000)">
                        <g id="分组-8" transform="translate(17.403750, 11.471250)">
                            <rect id="矩形" fill="#517BF4" opacity="0.415085565" x="0" y="1.57234605" width="73.565625" height="119.049058" rx="2.244375"></rect>
                            <rect id="矩形-copy-7" fill="#517BF4" opacity="0.274507068" x="0" y="0" width="73.565625" height="119.049058" rx="2.244375"></rect>
                            <rect id="矩形" fill="#517BF4" x="0" y="3.1446921" width="73.565625" height="119.049058" rx="2.244375"></rect>
                            <ellipse id="椭圆形" fill="#FFFFFF" cx="32.5213891" cy="6.28938419" rx="1" ry="1"></ellipse>
                            <rect id="矩形" fill="#FFFFFF" x="34.7642435" y="5.39090074" width="10.0928449" height="1.79696691" rx="0.898483456"></rect>
                            <ellipse id="椭圆形" fill="#FFFFFF" cx="36.7828125" cy="115.904366" rx="4.48570884" ry="4.49241728"></ellipse>
                            <rect id="矩形-copy-6" fill="#FFFFFF" x="4.03713796" y="8.98483456" width="65.7156345" height="101.079389" rx="0.448875"></rect>
                        </g>
                        <g id="分组-10" transform="translate(24.635625, 22.194375)">
                            <rect id="矩形" fill="url(#linearGradient-1)" x="0" y="1.7955" width="59.85" height="23.790375" rx="1.49625"></rect>
                            <text id="$" font-family="PingFangSC-Medium, PingFang SC" font-size="11.97" font-weight="400" fill="#FFFFFF">
                                <tspan x="7.182" y="17.039875">$</tspan>
                            </text>
                            <text id="优惠券" font-family="PingFangSC-Medium, PingFang SC" font-size="4.039875" font-weight="400" fill="#FFFFFF">
                                <tspan x="26.9325" y="10.88275">优惠券</tspan>
                            </text>
                            <rect id="矩形" fill="#FFFFFF" opacity="0.5" x="26.9325" y="14.364" width="15.112125" height="1.197" rx="0.5985"></rect>
                            <rect id="矩形-copy-8" fill="#FFFFFF" opacity="0.5" x="26.9325" y="17.955" width="27.83025" height="1.197" rx="0.5985"></rect>
                            <circle id="椭圆形" fill="#FFFFFF" cx="20.64825" cy="1.7955" r="1.7955"></circle>
                            <path d="M20.64825,3.591 L20.64825,23.790375" id="直线" stroke="#FFFFFF" stroke-width="0.525" stroke-linecap="square" stroke-dasharray="0.4488749787211418,0.4488749787211418"></path>
                            <circle id="椭圆形-copy-5" fill="#FFFFFF" cx="20.64825" cy="25.585875" r="1.7955"></circle>
                        </g>
                        <g id="分组-10-copy-2" transform="translate(24.635625, 49.625625)">
                            <rect id="矩形" fill="url(#linearGradient-1)" x="0" y="1.7955" width="59.85" height="23.790375" rx="1.49625"></rect>
                            <text id="$" font-family="PingFangSC-Medium, PingFang SC" font-size="11.97" font-weight="400" fill="#FFFFFF">
                                <tspan x="7.182" y="17.039875">$</tspan>
                            </text>
                            <text id="优惠券" font-family="PingFangSC-Medium, PingFang SC" font-size="4.039875" font-weight="400" fill="#FFFFFF">
                                <tspan x="26.9325" y="10.88275">优惠券</tspan>
                            </text>
                            <rect id="矩形" fill="#FFFFFF" opacity="0.5" x="26.9325" y="14.364" width="15.112125" height="1.197" rx="0.5985"></rect>
                            <rect id="矩形-copy-8" fill="#FFFFFF" opacity="0.5" x="26.9325" y="17.955" width="27.83025" height="1.197" rx="0.5985"></rect>
                            <circle id="椭圆形" fill="#FFFFFF" cx="20.64825" cy="1.7955" r="1.7955"></circle>
                            <path d="M20.64825,3.591 L20.64825,23.790375" id="直线" stroke="#FFFFFF" stroke-width="0.525" stroke-linecap="square" stroke-dasharray="0.4488749787211418,0.4488749787211418"></path>
                            <circle id="椭圆形-copy-5" fill="#FFFFFF" cx="20.64825" cy="25.585875" r="1.7955"></circle>
                        </g>
                        <g id="分组-11" transform="translate(122.889375, 76.807500)" fill-rule="nonzero">
                            <polygon id="Shape" fill="#FCD8E3" points="2.80347375 10.4390869 4.746105 9.46777125 5.60969063 11.0867137 3.88276875 12.0580294"></polygon>
                            <path d="M2.91145312,10.4390869 L3.99074812,12.0580294 C3.88276875,12.1300988 3.58052625,12.31713 3.23514187,12.4896975 C2.80347375,12.7056563 2.26382625,13.029345 1.9401375,13.1373244 C1.61619937,13.2453038 1.29251062,13.1373244 0.429174375,12.0580294 C-0.261594375,11.1946931 0.429174375,10.763025 0.8608425,10.6550456 C0.8967525,10.5829763 1.03341,10.4390869 1.29251062,10.4390869 L2.91145312,10.4390869 Z" id="Shape" fill="#FCD8E3"></path>
                            <path d="M8.728125,5.58225938 L14.5562681,0.185784375 C15.4557638,0.185784375 17.0819381,0.876553125 17.2545056,2.34437438 C17.4273225,3.81219563 16.1033906,5.11468125 15.4198538,5.58225938 L9.80742,9.03610313 L2.57629313,11.5183819 L1.82068688,9.35979188 L8.728125,5.58225938 Z" id="Shape" fill="#B2C3FF"></path>
                        </g>
                        <g id="分组-10-copy" transform="translate(32.865000, 75.061875)">
                            <rect id="矩形" fill="url(#linearGradient-1)" x="0" y="2.9925" width="99.75" height="39.650625" rx="2.49375"></rect>
                            <text id="$" font-family="PingFangSC-Medium, PingFang SC" font-size="19.95" font-weight="400" fill="#FFFFFF">
                                <tspan x="11.97" y="27.733125">$</tspan>
                            </text>
                            <text id="优惠券" font-family="PingFangSC-Medium, PingFang SC" font-size="6.733125" font-weight="400" fill="#FFFFFF">
                                <tspan x="44.8875" y="18.47125">优惠券</tspan>
                            </text>
                            <rect id="矩形" fill="#FFFFFF" opacity="0.5" x="44.8875" y="23.94" width="25.186875" height="1.995" rx="0.9975"></rect>
                            <rect id="矩形-copy-8" fill="#FFFFFF" opacity="0.5" x="44.8875" y="29.925" width="46.38375" height="1.995" rx="0.9975"></rect>
                            <circle id="椭圆形" fill="#FFFFFF" cx="34.41375" cy="2.9925" r="2.9925"></circle>
                            <path d="M34.41375,5.985 L34.41375,39.650625" id="直线" stroke="#FFFFFF" stroke-width="0.525" stroke-linecap="square" stroke-dasharray="0.7481249749660492,0.7481249749660492"></path>
                            <circle id="椭圆形-copy-5" fill="#FFFFFF" cx="34.41375" cy="42.643125" r="2.9925"></circle>
                        </g>
                        <g id="character" transform="translate(128.126250, 63.091875)" fill-rule="nonzero">
                            <polygon id="Shape" fill="#FCD8E3" points="4.35483563 31.7097769 6.83711438 30.5225025 6.83711438 28.0402237 3.38352 29.6591663"></polygon>
                            <path d="M3.38352,32.7890719 L4.462815,31.7097769 L3.59922937,29.6591663 C3.31145062,29.7671456 2.62791375,29.9614088 2.19624562,29.875125 C1.65659812,29.7671456 0.7930125,29.875125 0.361344375,30.1988138 C-0.07032375,30.5225025 0.037655625,31.06215 0.361344375,31.7097769 C0.620445,32.2279781 2.48402437,32.6451825 3.38352,32.7890719 Z" id="Shape" fill="#FCD8E3"></path>
                            <polygon id="Shape" fill="#FCD8E3" points="13.6365731 10.5557944 13.204905 12.1747369 13.9605113 14.2253475 17.1983963 12.8223637 17.1983963 9.9081675"></polygon>
                            <path d="M12.0176306,8.61291375 C12.0176306,9.131115 13.168995,10.1959463 13.7445525,10.6637738 C14.6440481,10.6637738 16.5939112,10.4909569 17.1983962,9.80018813 C17.9537531,8.93685188 18.60138,6.130635 18.8173387,4.94336063 C19.0330481,3.75608625 17.1983962,2.46108188 16.2270806,2.13739313 C15.2555156,1.813455 14.1762206,2.56906125 13.3128844,3.75608625 C12.4495481,4.94336063 12.0176306,7.96553625 12.0176306,8.61291375 Z" id="Shape" fill="#FCD8E3"></path>
                            <path d="M15.9031425,10.3398356 C16.1425425,10.020885 14.0063962,8.91016875 12.5732381,8.6573025 C12.3687506,8.62114313 12.12561,8.7291225 12.12561,8.93685188 C12.12561,9.04483125 13.5288431,10.8794831 13.5288431,10.8794831 L13.4208637,11.52711 C13.6365731,11.56302 14.3921794,11.4191306 14.3921794,11.4191306 C14.3921794,11.4191306 15.5794537,10.7715038 15.9031425,10.3398356 Z" id="Shape" fill="#EDD2E4"></path>
                            <path d="M7.80843,19.1901544 C7.72214625,18.240285 8.779995,15.2687325 9.31939312,13.9014094 L12.5572781,12.7143844 L13.3390687,11.6350894 L13.8039037,13.4433075 L14.8497825,12.3974287 L17.7547519,11.4677587 C17.7188419,12.0433162 18.7308056,13.2971737 19.2490069,13.9014094 C19.8966337,14.6570156 20.2203225,17.7869212 20.2203225,19.1901544 C20.2203225,20.3125912 18.56547,28.5078019 17.7380437,32.4653831 C17.1983962,32.6092725 15.6657375,32.9184975 13.8525319,33.0050306 C12.0393262,33.0913144 9.71515125,32.033715 8.77974562,31.4940675 C8.49196687,27.788355 7.89496312,20.1397744 7.80843,19.1901544 Z" id="Shape" fill="#517BF4"></path>
                            <polygon id="Shape" fill="#DADADA" points="17.7547519 11.4677587 17.1983963 11.35155 17.1983963 11.6498025"></polygon>
                            <path d="M4.54111875,61.28241 C4.65857438,61.1652038 5.43413063,60.4188244 5.715675,59.6018719 C6.00918938,59.943765 6.83137875,60.0120938 7.18374563,59.8948875 C7.5361125,59.7776813 7.93660875,59.4759375 8.13236813,59.2317994 C8.62164188,60.0130913 9.59146125,61.4188181 9.23909438,61.6532306 L7.62414188,62.5325269 C6.93910875,62.8741706 5.36330813,63.61656 4.54111875,63.8512219 C3.71892938,64.0856344 2.5346475,63.9487275 2.04512438,63.8512219 C1.99624688,63.6557119 1.92766875,63.3609506 2.04512438,63.0090825 C2.19200625,62.5696838 4.39423688,61.4287931 4.54111875,61.28241 Z" id="Shape" fill="#2B3A7C"></path>
                            <path d="M14.7166163,63.8726681 C14.9754675,63.441 15.112125,61.6060987 15.1482844,60.7427625 L15.4719731,60.0951356 L17.4146044,60.0951356 L17.6305631,61.28241 L17.6305631,63.5489794 C17.6305631,64.0883775 17.8465219,65.3836312 17.6305631,65.59959 C17.4146044,65.8152994 16.6592475,66.2469675 15.4719731,66.1392375 C14.2846988,66.0312581 14.3926781,64.4123156 14.7166163,63.8726681 Z" id="Shape" fill="#2B3A7C"></path>
                            <path d="M2.8438725,45.092985 C3.01644,44.2296488 6.87302437,34.3985381 8.67201562,30.1175175 L8.67201562,28.7142844 C9.57126187,29.0023125 11.1448181,29.46216 12.8812162,29.57787 C14.5001587,29.6858494 17.5804387,29.7935794 18.3357956,29.57787 L18.1200862,30.8728744 L18.0121069,35.4060131 L17.0407912,47.7912225 L17.6300644,60.0951356 C17.6300644,60.3829144 17.4358012,60.9584719 16.6587487,60.9584719 C15.8816962,60.9584719 15.399405,60.7427625 15.2555156,60.6347831 L12.12561,48.1149113 L11.0148937,38.6598581 L7.2687825,47.6832431 L8.2403475,59.3395294 C8.09620875,59.5195781 7.6358625,60.0088519 6.94509375,60.0951356 C6.254325,60.1814194 5.75781937,60.1310456 5.64984,59.8791769 C4.71443437,55.8138656 2.67105562,45.9563213 2.8438725,45.092985 Z" id="Shape" fill="#293354"></path>
                            <path d="M17.4141056,15.84429 C16.7667281,16.8156056 15.4714744,19.7298019 15.4714744,19.7298019 C15.4714744,19.7298019 13.204905,23.2913756 12.4495481,23.9390025 C11.6939419,24.58638 5.64984,28.1482031 5.64984,28.1482031 L6.94509375,30.95442 L15.0398062,27.0689081 C15.0398062,27.0689081 19.7886544,23.7230438 20.6519906,21.8883919 C21.5155762,20.0534906 21.839265,18.7582369 21.6233062,17.2472738 C21.4075969,15.7363106 19.5726956,14.4410569 19.5726956,14.4410569 C19.5726956,14.4410569 18.0617325,14.8729744 17.4141056,15.84429 Z" id="Shape" fill="url(#linearGradient-2)"></path>
                            <path d="M13.30665,3.74386688 C13.0879481,3.30646313 12.6138862,2.35858875 13.0969256,1.59774563 C13.7171212,0.620445 14.749035,0.281544375 15.9031425,0.1945125 C16.9412906,0.11620875 17.7380437,0.95011875 18.2776912,1.38178688 C19.1410275,1.2738075 19.7886544,2.24512313 20.0043637,3.00072938 C20.2203225,3.75608625 20.0043637,5.15931938 19.5726956,5.91467625 C19.2273112,6.51916125 18.1335525,8.36129438 17.8457737,8.72089313 C18.1697119,8.07326625 18.328065,7.00793625 18.60138,5.91467625 C18.8173387,5.05134 17.9537531,3.4323975 17.522085,2.89275 C16.9824375,3.00072938 16.3779525,2.76332438 15.2555156,2.67704063 C14.1330787,2.5905075 13.6365731,3.4323975 13.3128844,3.75608625 L13.30665,3.74386688 Z" id="Shape" fill="#7D7D7D"></path>
                            <polygon id="Shape" fill="#97ADF9" points="12.9891956 13.7769712 13.5714862 12.5136375 13.8039037 13.4433075 14.8497825 12.3974287 14.7158681 13.99293 13.8039037 13.4433075"></polygon>
                            <polygon id="Shape" fill="#293253" points="4.24685625 30.1988138 3.81518812 29.4432075 4.78650375 29.0115394 5.21817188 29.7671456"></polygon>
                            <polygon id="Shape" fill="#293253" points="4.78650375 31.4940675 4.46256563 30.8464406 5.54186063 30.4147725 5.86579875 31.06215"></polygon>
                            <circle id="Oval" fill="#B2C3FF" cx="4.78650375" cy="30.3067931" r="1"></circle>
                        </g>
                        <g id="分组-2-copy-5" transform="translate(118.433318, 55.650049) scale(-1, 1) rotate(41.000000) translate(-118.433318, -55.650049) translate(107.959568, 50.163799)">
                            <path d="M0.00422284719,7.48609223 L0,7.48609223 L0,3.30240291 L20.9475,3.30240291 L20.9475,7.48609223 L20.9432772,7.48609223 C20.7843191,9.66297384 16.1577992,10.9725 10.47375,10.9725 C4.78970084,10.9725 0.163180901,9.66297384 0.00422284719,7.48609223 Z" id="合并形状" fill="url(#linearGradient-3)" filter="url(#filter-4)"></path>
                            <path d="M10.47375,7.03092233 C16.2582424,7.03092233 20.9475,5.66340398 20.9475,3.39827913 C20.9475,1.13315427 16.2582424,0 10.47375,0 C4.6892576,0 0,1.13315427 0,3.39827913 C0,5.66340398 4.6892576,7.03092233 10.47375,7.03092233 Z" id="椭圆形" fill="url(#linearGradient-5)" filter="url(#filter-6)"></path>
                            <path d="M10.4840394,5.64604369 C14.9946542,5.64604369 18.4211683,4.51004164 18.4211683,3.44302136 C18.4211683,1.75986845 14.9946542,0.958762136 10.4840394,0.958762136 C5.97342454,0.958762136 2.41701843,1.88584885 2.31684874,3.44302136 C2.24416811,4.57286678 5.97342454,5.64604369 10.4840394,5.64604369 Z" id="椭圆形-copy" fill="#FFBB59" filter="url(#filter-7)"></path>
                            <path d="M11.0341609,3.93802915 L11.0341609,3.94157767 L7.36846734,2.87451215 L11.0341609,1.81356277 L11.0341609,1.81099515 L14.6316709,2.87451215 L11.0341609,3.93802915 Z" id="合并形状" fill="#FBD789" filter="url(#filter-8)"></path>
                        </g>
                        <g id="分组-2-copy-16" transform="translate(92.898189, 7.467632) scale(-1, 1) rotate(41.000000) translate(-92.898189, -7.467632) translate(88.658814, 5.223257)">
                            <path d="M0.00170924767,3.06249228 L0,3.06249228 L0,1.35098301 L8.47875,1.35098301 L8.47875,3.06249228 L8.47704075,3.06249228 C8.41270059,3.95303475 6.54006156,4.48875 4.239375,4.48875 C1.93868844,4.48875 0.0660494122,3.95303475 0.00170924767,3.06249228 Z" id="合并形状" fill="url(#linearGradient-3)" filter="url(#filter-9)"></path>
                            <path d="M4.239375,2.87628641 C6.58071716,2.87628641 8.47875,2.31684708 8.47875,1.3902051 C8.47875,0.463563111 6.58071716,0 4.239375,0 C1.89803284,0 0,0.463563111 0,1.3902051 C0,2.31684708 1.89803284,2.87628641 4.239375,2.87628641 Z" id="椭圆形" fill="url(#linearGradient-5)" filter="url(#filter-10)"></path>
                            <path d="M4.24353975,2.30974515 C6.06926481,2.30974515 7.45618719,1.84501703 7.45618719,1.40850874 C7.45618719,0.719946183 6.06926481,0.392220874 4.24353975,0.392220874 C2.4178147,0.392220874 0.978316985,0.771483621 0.937772107,1.40850874 C0.908353758,1.87071823 2.4178147,2.30974515 4.24353975,2.30974515 Z" id="椭圆形-copy" fill="#FFBB59" filter="url(#filter-11)"></path>
                            <path d="M4.46620798,1.61101193 L4.46620798,1.61246359 L2.98247487,1.17593679 L4.46620798,0.741912043 L4.46620798,0.74086165 L5.92234296,1.17593679 L4.46620798,1.61101193 Z" id="合并形状" fill="#FBD789" filter="url(#filter-12)"></path>
                        </g>
                        <g id="分组-4" transform="translate(26.131875, 126.183750)">
                            <path d="M4.61852778e-13,8.8272765 L3.51417393,14.8541715 C7.36339793,13.9282451 10.6258609,12.6941381 13.3015628,11.1518505 C15.9772646,9.60956291 18.2269637,7.66643291 20.0506599,5.3224605 L14.6433,0 C12.7823923,2.23754033 10.6573516,4.07643158 8.26817775,5.51667375 C5.8790039,6.95691592 3.12294465,8.06045017 4.61852778e-13,8.8272765 Z" id="路径-6" fill="url(#linearGradient-13)"></path>
                            <path d="M0.814551542,9.08353425 L3.983616,14.1347745 C7.2967125,13.2701415 10.1673513,12.1420687 12.5955323,10.7505562 C15.0237133,9.35904375 17.2195765,7.58907975 19.183122,5.44066425 L14.708736,0.92717625 C12.4883807,3.21418276 10.4166815,4.94200764 8.49363832,6.1106509 C6.57059517,7.27929416 4.01089957,8.27025527 0.814551542,9.08353425 Z" id="路径-6-copy" stroke="#FFFFFF" stroke-width="0.525" stroke-dasharray="0.204287975281477,0.204287975281477"></path>
                            <circle id="椭圆形" stroke="#FFFFFF" stroke-width="0.612864" cx="5.720064" cy="10.418688" r="1.430016"></circle>
                            <text id="$" transform="translate(10.499186, 8.547291) rotate(-31.000000) translate(-10.499186, -8.547291) " font-family="PingFangSC-Medium, PingFang SC" font-size="4.698624" font-weight="400" fill="#FFFFFF">
                                <tspan x="8.99918589" y="10.0472913">$</tspan>
                            </text>
                            <circle id="椭圆形-copy-3" stroke="#FFFFFF" stroke-width="0.612864" cx="14.30016" cy="5.515776" r="1.430016"></circle>
                        </g>
                        <g id="分组-4-copy-5" transform="translate(6.668448, 78.001799) rotate(147.000000) translate(-6.668448, -78.001799) translate(1.668448, 74.001799)">
                            <path d="M4.61852778e-13,4.23709272 L1.68680349,7.13000232 C3.53443101,6.68555764 5.10041322,6.09318628 6.38475012,5.35288824 C7.66908702,4.6125902 8.74894256,3.6798878 9.62431673,2.55478104 L7.028784,0 C6.13554833,1.07401936 5.11552877,1.95668716 3.96872532,2.6480034 C2.82192187,3.33931964 1.49901343,3.86901608 4.61852778e-13,4.23709272 Z" id="路径-6" fill="url(#linearGradient-13)"></path>
                            <path d="M0.39098474,4.36009644 L1.91213568,6.78469176 C3.502422,6.36966792 4.8803286,5.828193 6.04585548,5.160267 C7.21138236,4.492341 8.26539672,3.64275828 9.20789856,2.61151884 L7.06019328,0.4450446 C5.99442274,1.54280773 5.00000711,2.37216367 4.0769464,2.93311243 C3.15388568,3.4940612 1.92523179,3.96972253 0.39098474,4.36009644 Z" id="路径-6-copy" stroke="#FFFFFF" stroke-width="0.525" stroke-dasharray="0.09805822782218457,0.09805822782218457"></path>
                            <circle id="椭圆形" stroke="#FFFFFF" stroke-width="0.525" cx="2.74563072" cy="5.00097024" r="1"></circle>
                            <text id="$" transform="translate(5.186909, 3.804199) rotate(-31.000000) translate(-5.186909, -3.804199) " font-family="PingFangSC-Medium, PingFang SC" font-size="2.25533952" font-weight="400" fill="#FFFFFF">
                                <tspan x="4.18690922" y="4.30419903">$</tspan>
                            </text>
                            <circle id="椭圆形-copy-3" stroke="#FFFFFF" stroke-width="0.525" cx="6.8640768" cy="2.64757248" r="1"></circle>
                        </g>
                        <g id="分组-4-copy-6" transform="translate(107.373896, 129.758857) rotate(42.000000) translate(-107.373896, -129.758857) translate(102.373896, 125.758857)">
                            <path d="M4.61852778e-13,4.23709272 L1.68680349,7.13000232 C3.53443101,6.68555764 5.10041322,6.09318628 6.38475012,5.35288824 C7.66908702,4.6125902 8.74894256,3.6798878 9.62431673,2.55478104 L7.028784,0 C6.13554833,1.07401936 5.11552877,1.95668716 3.96872532,2.6480034 C2.82192187,3.33931964 1.49901343,3.86901608 4.61852778e-13,4.23709272 Z" id="路径-6" fill="url(#linearGradient-13)"></path>
                            <path d="M0.39098474,4.36009644 L1.91213568,6.78469176 C3.502422,6.36966792 4.8803286,5.828193 6.04585548,5.160267 C7.21138236,4.492341 8.26539672,3.64275828 9.20789856,2.61151884 L7.06019328,0.4450446 C5.99442274,1.54280773 5.00000711,2.37216367 4.0769464,2.93311243 C3.15388568,3.4940612 1.92523179,3.96972253 0.39098474,4.36009644 Z" id="路径-6-copy" stroke="#FFFFFF" stroke-width="0.525" stroke-dasharray="0.09805822782218457,0.09805822782218457"></path>
                            <circle id="椭圆形" stroke="#FFFFFF" stroke-width="0.525" cx="2.74563072" cy="5.00097024" r="1"></circle>
                            <text id="$" transform="translate(5.186909, 3.804199) rotate(-31.000000) translate(-5.186909, -3.804199) " font-family="PingFangSC-Medium, PingFang SC" font-size="2.25533952" font-weight="400" fill="#FFFFFF">
                                <tspan x="4.18690922" y="4.30419903">$</tspan>
                            </text>
                            <circle id="椭圆形-copy-3" stroke="#FFFFFF" stroke-width="0.525" cx="6.8640768" cy="2.64757248" r="1"></circle>
                        </g>
                        <path d="M94.4838331,25.9057081 C94.6609094,25.9057081 94.8044581,26.0492568 94.8044581,26.2263331 L94.8044581,27.5088331 C94.8044581,27.6859094 94.6609094,27.8294581 94.4838331,27.8294581 C94.3067568,27.8294581 94.1632081,27.6859094 94.1632081,27.5088331 L94.1632081,26.2263331 C94.1632081,26.0492568 94.3067568,25.9057081 94.4838331,25.9057081 Z M92.2394581,28.1500831 C92.2394581,27.9730068 92.3830068,27.8294581 92.5600831,27.8294581 L93.8425831,27.8294581 C94.0196594,27.8294581 94.1632081,27.9730068 94.1632081,28.1500831 C94.1632081,28.3271594 94.0196594,28.4707081 93.8425831,28.4707081 L92.5600831,28.4707081 C92.3830068,28.4707081 92.2394581,28.3271594 92.2394581,28.1500831 Z M94.4838331,28.4707081 C94.6609094,28.4707081 94.8044581,28.6142568 94.8044581,28.7913331 L94.8044581,30.0738331 C94.8044581,30.2509094 94.6609094,30.3944581 94.4838331,30.3944581 C94.3067568,30.3944581 94.1632081,30.2509094 94.1632081,30.0738331 L94.1632081,28.7913331 C94.1632081,28.6142568 94.3067568,28.4707081 94.4838331,28.4707081 Z M94.8044581,28.1500831 C94.8044581,27.9730068 94.9480068,27.8294581 95.1250831,27.8294581 L96.4075831,27.8294581 C96.5846594,27.8294581 96.7282081,27.9730068 96.7282081,28.1500831 C96.7282081,28.3271594 96.5846594,28.4707081 96.4075831,28.4707081 L95.1250831,28.4707081 C94.9480068,28.4707081 94.8044581,28.3271594 94.8044581,28.1500831 Z" id="合并形状" fill="url(#linearGradient-14)" opacity="0.521902902" transform="translate(94.483833, 28.150083) rotate(24.000000) translate(-94.483833, -28.150083) "></path>
                        <path d="M14.4344581,0.71883314 C14.6115344,0.71883314 14.7550831,0.862381842 14.7550831,1.03945814 L14.7550831,2.32195814 C14.7550831,2.49903444 14.6115344,2.64258314 14.4344581,2.64258314 C14.2573818,2.64258314 14.1138331,2.49903444 14.1138331,2.32195814 L14.1138331,1.03945814 C14.1138331,0.862381842 14.2573818,0.71883314 14.4344581,0.71883314 Z M12.1900831,2.96320814 C12.1900831,2.78613184 12.3336318,2.64258314 12.5107081,2.64258314 L13.7932081,2.64258314 C13.9702844,2.64258314 14.1138331,2.78613184 14.1138331,2.96320814 C14.1138331,3.14028444 13.9702844,3.28383314 13.7932081,3.28383314 L12.5107081,3.28383314 C12.3336318,3.28383314 12.1900831,3.14028444 12.1900831,2.96320814 Z M14.4344581,3.28383314 C14.6115344,3.28383314 14.7550831,3.42738184 14.7550831,3.60445814 L14.7550831,4.88695814 C14.7550831,5.06403444 14.6115344,5.20758314 14.4344581,5.20758314 C14.2573818,5.20758314 14.1138331,5.06403444 14.1138331,4.88695814 L14.1138331,3.60445814 C14.1138331,3.42738184 14.2573818,3.28383314 14.4344581,3.28383314 Z M14.7550831,2.96320814 C14.7550831,2.78613184 14.8986318,2.64258314 15.0757081,2.64258314 L16.3582081,2.64258314 C16.5352844,2.64258314 16.6788331,2.78613184 16.6788331,2.96320814 C16.6788331,3.14028444 16.5352844,3.28383314 16.3582081,3.28383314 L15.0757081,3.28383314 C14.8986318,3.28383314 14.7550831,3.14028444 14.7550831,2.96320814 Z" id="合并形状-copy-6" fill="url(#linearGradient-14)" opacity="0.521902902" transform="translate(14.434458, 2.963208) rotate(24.000000) translate(-14.434458, -2.963208) "></path>
                        <path d="M88.323806,59.0725831 C88.5008823,59.0725831 88.644431,59.2161318 88.644431,59.3932081 L88.644431,60.6757081 C88.644431,60.8527844 88.5008823,60.9963331 88.323806,60.9963331 C88.1467297,60.9963331 88.003181,60.8527844 88.003181,60.6757081 L88.003181,59.3932081 C88.003181,59.2161318 88.1467297,59.0725831 88.323806,59.0725831 Z M86.079431,61.3169581 C86.079431,61.1398818 86.2229797,60.9963331 86.400056,60.9963331 L87.682556,60.9963331 C87.8596323,60.9963331 88.003181,61.1398818 88.003181,61.3169581 C88.003181,61.4940344 87.8596323,61.6375831 87.682556,61.6375831 L86.400056,61.6375831 C86.2229797,61.6375831 86.079431,61.4940344 86.079431,61.3169581 Z M88.323806,61.6375831 C88.5008823,61.6375831 88.644431,61.7811318 88.644431,61.9582081 L88.644431,63.2407081 C88.644431,63.4177844 88.5008823,63.5613331 88.323806,63.5613331 C88.1467297,63.5613331 88.003181,63.4177844 88.003181,63.2407081 L88.003181,61.9582081 C88.003181,61.7811318 88.1467297,61.6375831 88.323806,61.6375831 Z M88.644431,61.3169581 C88.644431,61.1398818 88.7879797,60.9963331 88.965056,60.9963331 L90.247556,60.9963331 C90.4246323,60.9963331 90.568181,61.1398818 90.568181,61.3169581 C90.568181,61.4940344 90.4246323,61.6375831 90.247556,61.6375831 L88.965056,61.6375831 C88.7879797,61.6375831 88.644431,61.4940344 88.644431,61.3169581 Z" id="合并形状-copy-7" fill="url(#linearGradient-14)" opacity="0.521902902" transform="translate(88.323806, 61.316958) rotate(24.000000) translate(-88.323806, -61.316958) "></path>
                    </g>
                </g>
            </g>
        </g>
    </g>
</svg>