<?xml version="1.0" encoding="UTF-8"?>
<svg width="22px" height="22px" viewBox="0 0 22 22" version="1.1" xmlns="http://www.w3.org/2000/svg" xmlns:xlink="http://www.w3.org/1999/xlink">
    <!-- Generator: Sketch 52.5 (67469) - http://www.bohemiancoding.com/sketch -->
    <title>折扣</title>
    <desc>Created with Sketch.</desc>
    <g id="Page-1" stroke="none" stroke-width="1" fill="none" fill-rule="evenodd">
        <g id="会员信息-会员-copy-6" transform="translate(-44.000000, -104.000000)" fill="#6869F6">
            <g id="分组-2" transform="translate(28.000000, 84.000000)">
                <g id="折扣" transform="translate(16.000000, 20.000000)">
                    <circle id="椭圆形" fill-opacity="0.3" cx="11" cy="11" r="11"></circle>
                    <g transform="translate(6.000000, 6.000000)" fill-rule="nonzero" id="形状" stroke="#6869F6" stroke-width="0.2">
                        <path d="M10.3409716,5.83333523 C10.322271,5.15388071 9.9071181,4.84095762 9.67149075,4.32232811 C9.73008591,3.93210928 9.87719716,3.60921254 9.86971693,3.20652665 C9.85101635,2.0695312 8.86736568,1.4399449 7.71291634,1.34768869 C7.33765797,0.804125075 6.77414707,0 5.87527237,0 C5.71444736,0 5.54240199,0.0261808164 5.35788957,0.0835292713 C5.05494013,0.179525598 4.57495849,0.653273704 4.29320304,0.678207815 C4.2844761,0.67945452 4.27574916,0.67945452 4.26577552,0.67945452 C4.11741756,0.67945452 3.93539855,0.582211488 3.79701424,0.554783966 C3.62247546,0.519876211 3.45791033,0.503669039 3.30082543,0.503669039 C2.11770187,0.503669039 1.44697429,1.45490537 1.36843184,2.66171633 C0.712664724,3.0818561 -0.292179943,3.79746508 0.0805850138,4.99056229 C0.202762157,5.38078112 0.553086414,5.70866468 0.700197668,6.05524882 C0.645342624,6.44048083 0.500724782,6.73096322 0.501971487,7.12118206 C0.504464898,8.29433197 1.50058263,8.87529675 2.65877208,8.98002002 C3.05148432,9.58467221 3.59878805,10.347656 4.48020887,10.347656 C4.63854048,10.347656 4.80684572,10.3227219 4.98761803,10.2691136 C5.40152427,10.144443 5.64587855,9.82902649 6.05355127,9.6495009 C6.43878328,9.70560265 6.73799261,9.84772708 7.13319827,9.84772708 L7.16810602,9.84772708 C8.31258171,9.82279297 8.89853331,8.86532311 9.00200987,7.7158606 C9.62660935,7.26081308 10.3696459,6.84690684 10.3409716,5.83333523 Z M8.8947932,7.20097121 C8.83121121,7.24585261 8.76762923,7.29198072 8.70529395,7.33686212 C8.60431081,7.41166445 8.53948212,7.52511465 8.52826177,7.65103191 C8.48213366,8.15719436 8.25523325,9.33907122 7.13943179,9.36275862 L7.11325098,9.36275862 C6.93123197,9.36275862 6.76542013,9.32037063 6.57342748,9.27174912 C6.43628987,9.23684136 6.28045168,9.19694678 6.10840631,9.17201267 C6.08721232,9.16827256 6.06601832,9.16702585 6.04482433,9.16702585 C5.98373576,9.16702585 5.92389389,9.17949291 5.86779214,9.20442702 C5.64712526,9.30167005 5.47133978,9.42758731 5.317995,9.5385441 C5.15841669,9.65324101 5.02127908,9.75173075 4.86419418,9.79910556 C4.7332901,9.83900014 4.60612613,9.85894743 4.48768911,9.85894743 C3.85311598,9.85894743 3.41302893,9.26302218 3.05148432,8.7044981 C2.9791754,8.5922946 2.85824496,8.51873897 2.72484747,8.50751862 C2.20372455,8.46014381 0.99068006,8.22825658 0.988186649,7.10248147 C0.988186649,6.92669599 1.02932793,6.76587098 1.07794945,6.58135856 C1.11410391,6.44297424 1.15399849,6.28713605 1.1801793,6.11135057 C1.19139965,6.03280812 1.18142601,5.95177226 1.15025837,5.87946334 C1.0679758,5.68497727 0.947045366,5.51293191 0.829855045,5.34587336 C0.711418018,5.17507471 0.597967814,5.01424969 0.551839709,4.86464503 C0.312472245,4.10166123 0.816141284,3.59051196 1.64644717,3.05692199 C1.7636375,2.98211966 1.83719312,2.8562024 1.84592006,2.71781808 C1.90077511,1.88252537 2.31717476,0.9898842 3.32326613,0.9898842 C3.4516768,0.9898842 3.5875677,1.00359796 3.72719872,1.03227219 C3.74963942,1.03725901 3.80075435,1.05471289 3.84189563,1.06967336 C3.96282607,1.11206134 4.11243074,1.16566968 4.27699587,1.16566968 C4.29943657,1.16566968 4.32063056,1.16442298 4.34057785,1.16317627 C4.60986625,1.13948887 4.86170077,0.96495009 5.12849575,0.779190964 C5.2506729,0.694414987 5.41648473,0.578471372 5.48879366,0.556030672 C5.62094444,0.514889389 5.74935511,0.493695395 5.86903885,0.493695395 C6.48491138,0.493695395 6.91003797,1.0347656 7.32768433,1.63817108 C7.40248666,1.74663446 7.52092369,1.81520327 7.65182777,1.82517691 C8.47839355,1.89125231 9.3672946,2.29643161 9.38350177,3.23644759 C9.38599518,3.42594683 9.34236049,3.60422572 9.28999885,3.80993214 C9.25384439,3.95330327 9.21644323,4.10166123 9.19150912,4.26871978 C9.17904206,4.35224905 9.19150912,4.43702502 9.22641687,4.51432077 C9.31742638,4.71504036 9.42838317,4.88459231 9.52687291,5.03544368 C9.70889192,5.31470573 9.839796,5.51542532 9.84976964,5.84206217 C9.86847023,6.47663529 9.49819868,6.77210451 8.8947932,7.20097121 Z M6.70931838,5.74481914 C6.12461348,5.74481914 5.64837197,6.21981395 5.64837197,6.80451885 C5.64837197,7.38922375 6.12336678,7.86421856 6.70931838,7.86421856 C7.29402328,7.86421856 7.76901809,7.38797704 7.76901809,6.80451885 C7.7702648,6.22106066 7.29402328,5.74481914 6.70931838,5.74481914 Z M6.70931838,7.39795069 C6.38268153,7.39795069 6.11713325,7.13240241 6.11713325,6.80576555 C6.11713325,6.4791287 6.38268153,6.21358042 6.70931838,6.21358042 C7.03595523,6.21358042 7.30150351,6.4791287 7.30150351,6.80576555 C7.30150351,7.13240241 7.03595523,7.39795069 6.70931838,7.39795069 Z M3.87056986,4.75992176 C4.45527476,4.75992176 4.93026957,4.28492695 4.93026957,3.70022205 C4.93026957,3.11551715 4.45527476,2.64052234 3.87056986,2.64052234 C3.28586496,2.64052234 2.80962345,3.11551715 2.80962345,3.70022205 C2.80962345,4.28492695 3.28586496,4.75992176 3.87056986,4.75992176 Z M3.87056986,3.10803692 C4.19720671,3.10803692 4.46275499,3.3735852 4.46275499,3.70022205 C4.46275499,4.0268589 4.19720671,4.29240718 3.87056986,4.29240718 C3.54393301,4.29240718 3.27838473,4.0268589 3.27838473,3.70022205 C3.27838473,3.3735852 3.54393301,3.10803692 3.87056986,3.10803692 Z M7.34887832,3.13546444 C7.25786882,3.04445493 7.10951086,3.04445493 7.01850136,3.13546444 L3.16867464,6.98404445 C3.07766514,7.07505395 3.07766514,7.22341191 3.16867464,7.31442142 C3.21480275,7.36054952 3.27464461,7.38299022 3.33448648,7.38299022 C3.39432834,7.38299022 3.45417021,7.36054952 3.50029832,7.31442142 L7.34887832,3.46584141 C7.43988783,3.3748319 7.43988783,3.22647394 7.34887832,3.13546444 Z"></path>
                    </g>
                </g>
            </g>
        </g>
    </g>
</svg>