<?xml version="1.0" encoding="UTF-8"?>
<svg width="170px" height="170px" viewBox="0 0 170 170" version="1.1" xmlns="http://www.w3.org/2000/svg" xmlns:xlink="http://www.w3.org/1999/xlink">
    <!-- Generator: Sketch 52.5 (67469) - http://www.bohemiancoding.com/sketch -->
    <title>充值</title>
    <desc>Created with Sketch.</desc>
    <defs>
        <linearGradient x1="0%" y1="50%" x2="100%" y2="50%" id="linearGradient-1">
            <stop stop-color="#FFCF32" offset="0%"></stop>
            <stop stop-color="#FF9525" offset="100%"></stop>
        </linearGradient>
        <linearGradient x1="0%" y1="44.8697917%" x2="100%" y2="44.8697917%" id="linearGradient-2">
            <stop stop-color="#FFEBC6" offset="0%"></stop>
            <stop stop-color="#FFD969" offset="100%"></stop>
        </linearGradient>
        <linearGradient x1="0%" y1="55.8771307%" x2="100%" y2="55.8771307%" id="linearGradient-3">
            <stop stop-color="#FFE8A1" offset="0%"></stop>
            <stop stop-color="#FFC530" offset="100%"></stop>
        </linearGradient>
        <filter x="0.0%" y="0.0%" width="100.0%" height="100.0%" filterUnits="objectBoundingBox" id="filter-4">
            <feGaussianBlur stdDeviation="0 0" in="SourceGraphic"></feGaussianBlur>
        </filter>
        <filter x="0.0%" y="0.0%" width="100.0%" height="100.0%" filterUnits="objectBoundingBox" id="filter-5">
            <feGaussianBlur stdDeviation="0 0" in="SourceGraphic"></feGaussianBlur>
        </filter>
        <filter x="-0.0%" y="0.0%" width="100.0%" height="100.0%" filterUnits="objectBoundingBox" id="filter-6">
            <feGaussianBlur stdDeviation="0 0" in="SourceGraphic"></feGaussianBlur>
        </filter>
        <filter x="-0.0%" y="0.0%" width="100.0%" height="100.0%" filterUnits="objectBoundingBox" id="filter-7">
            <feGaussianBlur stdDeviation="0 0" in="SourceGraphic"></feGaussianBlur>
        </filter>
        <linearGradient x1="-8.13843665%" y1="84.8409149%" x2="98.8462606%" y2="35.3465759%" id="linearGradient-8">
            <stop stop-color="#FFDB00" offset="0%"></stop>
            <stop stop-color="#FFB400" offset="100%"></stop>
        </linearGradient>
        <linearGradient x1="50%" y1="0%" x2="50%" y2="100%" id="linearGradient-9">
            <stop stop-color="#FAD961" offset="0%"></stop>
            <stop stop-color="#F76B1C" offset="100%"></stop>
        </linearGradient>
    </defs>
    <g id="Page-1" stroke="none" stroke-width="1" fill="none" fill-rule="evenodd">
        <g id="会员-copy" transform="translate(-146.000000, -56.000000)">
            <g id="充值" transform="translate(136.000000, 41.000000)">
                <g transform="translate(10.000000, 15.000000)" id="充值赠送">
                    <g transform="translate(7.000000, 27.000000)">
                        <g id="分组" transform="translate(4.590000, 69.930000)">
                            <rect id="矩形" x="0.512821782" y="34.1121951" width="146.664356" height="5.60414634"></rect>
                            <path d="M3.18386139,35.1380994 L3.18386139,35.0868293 L145.720248,35.0868293 L145.720248,35.0879919 C146.556415,35.0774782 147.018169,35.1382701 147.105508,35.2703676 C147.256789,35.4991758 147.353585,36.2860661 147.395897,37.6310384 C147.396577,37.6526801 147.396918,37.6743311 147.396918,37.6959834 C147.396918,38.8367265 146.472164,39.7614818 145.331421,39.7614823 L141.472379,39.7614878 C141.324385,39.7614877 141.180027,39.7459231 141.040851,39.7163415 L6.62588355,39.7163415 C6.48670801,39.7459231 6.34234952,39.7614877 6.19435572,39.7614878 L2.33531429,39.7614823 C1.19457122,39.7614818 0.269816626,38.8367265 0.269817097,37.6959834 C0.269817106,37.6743311 0.270157582,37.6526801 0.270838401,37.6310384 C0.313149518,36.2860661 0.409945782,35.4991758 0.56122719,35.2703676 C0.684885401,35.0833385 1.5590968,35.0392491 3.18386139,35.1380994 Z" id="合并形状" fill="#3655D0"></path>
                            <g id="分组-3" transform="translate(73.861463, 18.694012) scale(-1, 1) rotate(90.000000) translate(-73.861463, -18.694012) translate(55.231463, -55.150988)">
                                <path d="M2.19207031,12.6087529 L35.1098634,0.302342236 C36.2241212,-0.131560339 37.1274056,1.58847369 37.1274056,4.1451734 L37.1274056,143.5119 C37.1274056,146.068599 36.2241212,147.788634 35.1098634,147.354731 L2.19207031,135.04832 C1.07781255,134.649086 0.174528156,132.638966 0.174528156,130.557564 L0.174528156,17.0995091 C0.174528156,15.0181071 1.07781255,13.0079872 2.19207031,12.6087529 Z" id="矩形" fill="#517BF4"></path>
                                <path d="M18.438594,139.236489 C19.6701421,139.685272 20.668509,137.953723 20.668509,135.367743 C20.668509,132.781763 19.6701421,130.372198 18.438594,129.986879 C17.2070459,129.602719 16.208679,131.337127 16.208679,133.859739 C16.208679,136.38235 17.2070459,138.789055 18.438594,139.236489 Z" id="椭圆形" fill="#FFFFFF"></path>
                                <path d="M2.64059068,22.1840565 L34.4965195,12.1879451 C34.6138098,12.1497015 34.7088923,12.3341887 34.7088923,12.6000182 L34.7088923,133.172408 C34.7088923,133.438237 34.6138098,133.623572 34.4965195,133.586375 L2.64059068,123.863594 C2.52330039,123.829196 2.42821782,123.62125 2.42821782,123.399126 L2.42821782,22.6502752 C2.42821782,22.4281513 2.52330039,22.2194223 2.64059068,22.1840565 Z" id="矩形" fill="#FFFFFF"></path>
                                <path d="M11.2778389,13.5082222 L19.0294483,10.81381 C19.2933514,10.7211849 19.5072872,11.1042714 19.5072872,11.6695111 C19.5072872,12.2347507 19.2933514,12.7657068 19.0294483,12.855383 L11.2778389,15.4640151 C11.0139358,15.5519603 10.8,15.1865649 10.8,14.6479331 C10.8,14.1093014 11.0139358,13.5990592 11.2778389,13.5082222 Z" id="矩形" fill="#FFFFFF"></path>
                                <path d="M21.3209321,11.8884504 C21.6141579,11.7916684 21.8518643,11.2297297 21.8518643,10.6333885 C21.8518643,10.0370474 21.6141579,9.63501252 21.3209321,9.73535268 C21.0277064,9.83562015 20.79,10.3973962 20.79,10.9901805 C20.79,11.5829647 21.0277064,11.9851623 21.3209321,11.8884504 Z" id="椭圆形" fill="#FFFFFF"></path>
                            </g>
                        </g>
                        <g id="分组-2" transform="translate(71.280000, 73.980000)">
                            <path d="M0.010831535,18.9736364 L0,18.9736364 L0,8.37 L53.73,8.37 L53.73,18.9736364 L53.7191685,18.9736364 C53.3114349,24.4909847 41.4444891,27.81 26.865,27.81 C12.2855109,27.81 0.418565127,24.4909847 0.0108319857,18.9736425 Z" id="合并形状" fill="url(#linearGradient-1)"></path>
                            <path d="M26.865,17.82 C41.7021298,17.82 53.73,14.354 53.73,8.613 C53.73,2.87200003 41.7021298,0 26.865,0 C12.0278702,0 0,2.87200003 0,8.613 C0,14.354 12.0278702,17.82 26.865,17.82 Z" id="椭圆形" fill="url(#linearGradient-2)"></path>
                            <path d="M26.8913921,14.31 C38.4610465,14.31 47.25,11.4307822 47.25,8.7264 C47.25,4.46041846 38.4610465,2.43 26.8913921,2.43 C15.3217377,2.43 6.19961334,4.77971807 5.94267968,8.7264 C5.75625504,11.5900137 15.3217377,14.31 26.8913921,14.31 Z" id="椭圆形-copy" fill="#FFBB59"></path>
                            <path d="M28.3024449,9.98100622 L28.3024449,9.99 L18.9,7.28550311 L28.3024449,4.5965077 L28.3024449,4.59 L37.53,7.28550311 L28.3024449,9.98100622 Z" id="合并形状" fill="#FBD789"></path>
                        </g>
                        <g id="分组-2-copy" transform="translate(71.280000, 62.370000)">
                            <path d="M0.010831535,18.9736364 L0,18.9736364 L0,8.37 L53.73,8.37 L53.73,18.9736364 L53.7191685,18.9736364 C53.3114349,24.4909847 41.4444891,27.81 26.865,27.81 C12.2855109,27.81 0.418565127,24.4909847 0.0108319857,18.9736425 Z" id="合并形状" fill="url(#linearGradient-1)"></path>
                            <path d="M26.865,17.82 C41.7021298,17.82 53.73,14.354 53.73,8.613 C53.73,2.87200003 41.7021298,0 26.865,0 C12.0278702,0 0,2.87200003 0,8.613 C0,14.354 12.0278702,17.82 26.865,17.82 Z" id="椭圆形" fill="url(#linearGradient-2)"></path>
                            <path d="M26.8913921,14.31 C38.4610465,14.31 47.25,11.4307822 47.25,8.7264 C47.25,4.46041846 38.4610465,2.43 26.8913921,2.43 C15.3217377,2.43 6.19961334,4.77971807 5.94267968,8.7264 C5.75625504,11.5900137 15.3217377,14.31 26.8913921,14.31 Z" id="椭圆形-copy" fill="#FFBB59"></path>
                            <path d="M28.3024449,9.98100622 L28.3024449,9.99 L18.9,7.28550311 L28.3024449,4.5965077 L28.3024449,4.59 L37.53,7.28550311 L28.3024449,9.98100622 Z" id="合并形状" fill="#FBD789"></path>
                        </g>
                        <g id="分组-2-copy-2" transform="translate(71.280000, 50.760000)">
                            <path d="M0.010831535,18.9736364 L0,18.9736364 L0,8.37 L53.73,8.37 L53.73,18.9736364 L53.7191685,18.9736364 C53.3114349,24.4909847 41.4444891,27.81 26.865,27.81 C12.2855109,27.81 0.418565127,24.4909847 0.0108319857,18.9736425 Z" id="合并形状" fill="url(#linearGradient-1)"></path>
                            <path d="M26.865,17.82 C41.7021298,17.82 53.73,14.354 53.73,8.613 C53.73,2.87200003 41.7021298,0 26.865,0 C12.0278702,0 0,2.87200003 0,8.613 C0,14.354 12.0278702,17.82 26.865,17.82 Z" id="椭圆形" fill="url(#linearGradient-2)"></path>
                            <path d="M26.8913921,14.31 C38.4610465,14.31 47.25,11.4307822 47.25,8.7264 C47.25,4.46041846 38.4610465,2.43 26.8913921,2.43 C15.3217377,2.43 6.19961334,4.77971807 5.94267968,8.7264 C5.75625504,11.5900137 15.3217377,14.31 26.8913921,14.31 Z" id="椭圆形-copy" fill="#FFBB59"></path>
                            <path d="M28.3024449,9.98100622 L28.3024449,9.99 L18.9,7.28550311 L28.3024449,4.5965077 L28.3024449,4.59 L37.53,7.28550311 L28.3024449,9.98100622 Z" id="合并形状" fill="#FBD789"></path>
                        </g>
                        <g id="分组-2-copy-3" transform="translate(71.280000, 39.150000)">
                            <path d="M0.010831535,18.9736364 L0,18.9736364 L0,8.37 L53.73,8.37 L53.73,18.9736364 L53.7191685,18.9736364 C53.3114349,24.4909847 41.4444891,27.81 26.865,27.81 C12.2855109,27.81 0.418565127,24.4909847 0.0108319857,18.9736425 Z" id="合并形状" fill="url(#linearGradient-1)"></path>
                            <path d="M26.865,17.82 C41.7021298,17.82 53.73,14.354 53.73,8.613 C53.73,2.87200003 41.7021298,0 26.865,0 C12.0278702,0 0,2.87200003 0,8.613 C0,14.354 12.0278702,17.82 26.865,17.82 Z" id="椭圆形" fill="url(#linearGradient-2)"></path>
                            <path d="M26.8913921,14.31 C38.4610465,14.31 47.25,11.4307822 47.25,8.7264 C47.25,4.46041846 38.4610465,2.43 26.8913921,2.43 C15.3217377,2.43 6.19961334,4.77971807 5.94267968,8.7264 C5.75625504,11.5900137 15.3217377,14.31 26.8913921,14.31 Z" id="椭圆形-copy" fill="#FFBB59"></path>
                            <path d="M28.3024449,9.98100622 L28.3024449,9.99 L18.9,7.28550311 L28.3024449,4.5965077 L28.3024449,4.59 L37.53,7.28550311 L28.3024449,9.98100622 Z" id="合并形状" fill="#FBD789"></path>
                        </g>
                        <g id="分组-2-copy-6" transform="translate(71.280000, 27.540000)">
                            <path d="M0.010831535,18.9736364 L0,18.9736364 L0,8.37 L53.73,8.37 L53.73,18.9736364 L53.7191685,18.9736364 C53.3114349,24.4909847 41.4444891,27.81 26.865,27.81 C12.2855109,27.81 0.418565127,24.4909847 0.0108319857,18.9736425 Z" id="合并形状" fill="url(#linearGradient-1)"></path>
                            <path d="M26.865,17.82 C41.7021298,17.82 53.73,14.354 53.73,8.613 C53.73,2.87200003 41.7021298,0 26.865,0 C12.0278702,0 0,2.87200003 0,8.613 C0,14.354 12.0278702,17.82 26.865,17.82 Z" id="椭圆形" fill="url(#linearGradient-2)"></path>
                            <path d="M26.8913921,14.31 C38.4610465,14.31 47.25,11.4307822 47.25,8.7264 C47.25,4.46041846 38.4610465,2.43 26.8913921,2.43 C15.3217377,2.43 6.19961334,4.77971807 5.94267968,8.7264 C5.75625504,11.5900137 15.3217377,14.31 26.8913921,14.31 Z" id="椭圆形-copy" fill="#FFBB59"></path>
                            <path d="M28.3024449,9.98100622 L28.3024449,9.99 L18.9,7.28550311 L28.3024449,4.5965077 L28.3024449,4.59 L37.53,7.28550311 L28.3024449,9.98100622 Z" id="合并形状" fill="#FBD789"></path>
                        </g>
                        <g id="分组-2-copy-7" transform="translate(71.280000, 15.930000)">
                            <path d="M0.010831535,18.9736364 L0,18.9736364 L0,8.37 L53.73,8.37 L53.73,18.9736364 L53.7191685,18.9736364 C53.3114349,24.4909847 41.4444891,27.81 26.865,27.81 C12.2855109,27.81 0.418565127,24.4909847 0.0108319857,18.9736425 Z" id="合并形状" fill="url(#linearGradient-1)"></path>
                            <path d="M26.865,17.82 C41.7021298,17.82 53.73,14.354 53.73,8.613 C53.73,2.87200003 41.7021298,0 26.865,0 C12.0278702,0 0,2.87200003 0,8.613 C0,14.354 12.0278702,17.82 26.865,17.82 Z" id="椭圆形" fill="url(#linearGradient-2)"></path>
                            <path d="M26.8913921,14.31 C38.4610465,14.31 47.25,11.4307822 47.25,8.7264 C47.25,4.46041846 38.4610465,2.43 26.8913921,2.43 C15.3217377,2.43 6.19961334,4.77971807 5.94267968,8.7264 C5.75625504,11.5900137 15.3217377,14.31 26.8913921,14.31 Z" id="椭圆形-copy" fill="#FFAE2A"></path>
                            <path d="M28.3024449,9.98100622 L28.3024449,9.99 L18.9,7.28550311 L28.3024449,4.5965077 L28.3024449,4.59 L37.53,7.28550311 L28.3024449,9.98100622 Z" id="合并形状" fill="#FBD789"></path>
                        </g>
                        <g id="分组-2-copy-5" transform="translate(145.817699, 29.721342) scale(-1, 1) rotate(41.000000) translate(-145.817699, -29.721342) translate(140.147699, 26.751342)">
                            <path d="M0.00228605261,4.05262136 L0,4.05262136 L0,1.78776699 L11.34,1.78776699 L11.34,4.05262136 L11.3377139,4.05262136 C11.2516615,5.23108358 8.74707924,5.94 5.67,5.94 C2.59292076,5.94 0.0883385327,5.23108358 0.00228605261,4.05262136 Z" id="合并形状" fill="url(#linearGradient-3)" filter="url(#filter-4)"></path>
                            <path d="M5.67,3.80621359 C8.80145453,3.80621359 11.34,3.06590291 11.34,1.8396699 C11.34,0.613436899 8.80145453,0 5.67,0 C2.53854547,0 0,0.613436899 0,1.8396699 C0,3.06590291 2.53854547,3.80621359 5.67,3.80621359 Z" id="椭圆形" fill="url(#linearGradient-2)" filter="url(#filter-5)"></path>
                            <path d="M5.6755702,3.05650485 C8.11740681,3.05650485 9.97236181,2.4415263 9.97236181,1.86389126 C9.97236181,0.952710738 8.11740681,0.519029126 5.6755702,0.519029126 C3.23373359,0.519029126 1.30846111,1.02091066 1.2542339,1.86389126 C1.214888,2.4755369 3.23373359,3.05650485 5.6755702,3.05650485 Z" id="椭圆形-copy" fill="#FFBB59" filter="url(#filter-6)"></path>
                            <path d="M5.97338033,2.13186541 L5.97338033,2.13378641 L3.98894472,1.55612688 L5.97338033,0.981778343 L5.97338033,0.98038835 L7.92090452,1.55612688 L5.97338033,2.13186541 Z" id="合并形状" fill="#FBD789" filter="url(#filter-7)"></path>
                        </g>
                        <g id="分组-2-copy-8" transform="translate(68.730214, 100.320214) scale(-1, 1) rotate(1.000000) translate(-68.730214, -100.320214) translate(64.815214, 98.295214)">
                            <path d="M0.0015784649,2.76315093 L0,2.76315093 L0,1.21893204 L7.83,1.21893204 L7.83,2.76315093 L7.82842154,2.76315093 C7.76900435,3.5666479 6.03964995,4.05 3.915,4.05 C1.79035005,4.05 0.0609956535,3.5666479 0.0015784649,2.76315093 Z" id="合并形状" fill="url(#linearGradient-3)"></path>
                            <path d="M3.915,2.59514563 C6.0771948,2.59514563 7.83,2.09038835 7.83,1.25432039 C7.83,0.418252431 6.0771948,0 3.915,0 C1.7528052,0 0,0.418252431 0,1.25432039 C0,2.09038835 1.7528052,2.59514563 3.915,2.59514563 Z" id="椭圆形" fill="url(#linearGradient-2)"></path>
                            <path d="M3.91884609,2.08398058 C5.60487613,2.08398058 6.88567839,1.66467702 6.88567839,1.27083495 C6.88567839,0.649575503 5.60487613,0.353883495 3.91884609,0.353883495 C2.23281605,0.353883495 0.903461241,0.696075447 0.866018647,1.27083495 C0.838851237,1.68786607 2.23281605,2.08398058 3.91884609,2.08398058 Z" id="椭圆形-copy" fill="#FFBB59"></path>
                            <path d="M4.1244769,1.45354459 L4.1244769,1.45485437 L2.75427136,1.0609956 L4.1244769,0.669394325 L5.46919598,1.0609956 L4.1244769,1.45354459 Z" id="合并形状" fill="#FBD789"></path>
                        </g>
                        <ellipse id="椭圆形" fill="#F7F8FA" cx="54.945" cy="94.635" rx="13.905" ry="5.805"></ellipse>
                        <ellipse id="椭圆形-copy-4" fill="#F7F8FA" style="mix-blend-mode: multiply;" cx="23.355" cy="101.925" rx="13.905" ry="5.805"></ellipse>
                        <g id="分组-5" transform="translate(0.000000, 46.440000)">
                            <g id="分组-4" transform="translate(4.050000, 4.320000)">
                                <path d="M4.61852778e-13,18.6667031 L7.43128885,31.4115469 C15.5710952,29.4535258 22.4701005,26.843807 28.1283047,23.5823906 C33.7865088,20.3209742 38.5438611,16.2119117 42.4003616,11.2552031 L30.965625,0 C27.030435,4.73164073 22.5366928,8.62027355 17.4843984,11.6658984 C12.4321041,14.7115233 6.6039713,17.0451249 4.61852778e-13,18.6667031 Z" id="路径-6" fill="url(#linearGradient-8)"></path>
                                <path d="M1.72250091,19.2086016 L8.424,29.8902656 C15.4300781,28.0618594 21.5005078,25.6763672 26.6352891,22.7337891 C31.7700703,19.7912109 36.4135781,16.0483359 40.5658125,11.5051641 L31.104,1.96066406 C26.4086998,6.79690903 22.0277569,10.4506741 17.9611713,12.9219591 C13.8945856,15.3932442 8.48169552,17.4887917 1.72250091,19.2086016 Z" id="路径-6-copy" stroke="#FFFFFF" stroke-width="0.5" stroke-dasharray="0.4320000171661377,0.4320000171661377"></path>
                                <circle id="椭圆形" stroke="#FFFFFF" stroke-width="1.296" cx="12.096" cy="22.032" r="3.024"></circle>
                                <text id="$" transform="translate(21.848107, 17.819217) rotate(-31.000000) translate(-21.848107, -17.819217) " font-family="PingFangSC-Medium, PingFang SC" font-size="9.936" font-weight="400" fill="#FFFFFF">
                                    <tspan x="18.8481066" y="21.819217">$</tspan>
                                </text>
                                <circle id="椭圆形-copy-3" stroke="#FFFFFF" stroke-width="1.296" cx="30.24" cy="11.664" r="3.024"></circle>
                            </g>
                            <g id="分组-4-copy" transform="translate(2.700000, 2.700000)">
                                <path d="M4.61852778e-13,18.6667031 L7.43128885,31.4115469 C15.5710952,29.4535258 22.4701005,26.843807 28.1283047,23.5823906 C33.7865088,20.3209742 38.5438611,16.2119117 42.4003616,11.2552031 L30.965625,0 C27.030435,4.73164073 22.5366928,8.62027355 17.4843984,11.6658984 C12.4321041,14.7115233 6.6039713,17.0451249 4.61852778e-13,18.6667031 Z" id="路径-6" fill="url(#linearGradient-8)"></path>
                                <path d="M1.72250091,19.2086016 L8.424,29.8902656 C15.4300781,28.0618594 21.5005078,25.6763672 26.6352891,22.7337891 C31.7700703,19.7912109 36.4135781,16.0483359 40.5658125,11.5051641 L31.104,1.96066406 C26.4086998,6.79690903 22.0277569,10.4506741 17.9611713,12.9219591 C13.8945856,15.3932442 8.48169552,17.4887917 1.72250091,19.2086016 Z" id="路径-6-copy" stroke="#FFFFFF" stroke-width="0.5" stroke-dasharray="0.4320000171661377,0.4320000171661377"></path>
                                <circle id="椭圆形" stroke="#FFFFFF" stroke-width="1.296" cx="12.096" cy="22.032" r="3.024"></circle>
                                <text id="$" transform="translate(21.848107, 17.819217) rotate(-31.000000) translate(-21.848107, -17.819217) " font-family="PingFangSC-Medium, PingFang SC" font-size="9.936" font-weight="400" fill="#FFFFFF">
                                    <tspan x="18.8481066" y="21.819217">$</tspan>
                                </text>
                                <circle id="椭圆形-copy-3" stroke="#FFFFFF" stroke-width="1.296" cx="30.24" cy="11.664" r="3.024"></circle>
                            </g>
                            <g id="分组-4-copy-2">
                                <path d="M4.61852778e-13,18.6667031 L7.43128885,31.4115469 C15.5710952,29.4535258 22.4701005,26.843807 28.1283047,23.5823906 C33.7865088,20.3209742 38.5438611,16.2119117 42.4003616,11.2552031 L30.965625,0 C27.030435,4.73164073 22.5366928,8.62027355 17.4843984,11.6658984 C12.4321041,14.7115233 6.6039713,17.0451249 4.61852778e-13,18.6667031 Z" id="路径-6" fill="url(#linearGradient-8)"></path>
                                <path d="M1.72250091,19.2086016 L8.424,29.8902656 C15.4300781,28.0618594 21.5005078,25.6763672 26.6352891,22.7337891 C31.7700703,19.7912109 36.4135781,16.0483359 40.5658125,11.5051641 L31.104,1.96066406 C26.4086998,6.79690903 22.0277569,10.4506741 17.9611713,12.9219591 C13.8945856,15.3932442 8.48169552,17.4887917 1.72250091,19.2086016 Z" id="路径-6-copy" stroke="#FFFFFF" stroke-width="0.5" stroke-dasharray="0.4320000171661377,0.4320000171661377"></path>
                                <circle id="椭圆形" stroke="#FFFFFF" stroke-width="1.296" cx="12.096" cy="22.032" r="3.024"></circle>
                                <text id="$" transform="translate(21.848107, 17.819217) rotate(-31.000000) translate(-21.848107, -17.819217) " font-family="PingFangSC-Medium, PingFang SC" font-size="9.936" font-weight="400" fill="#FFFFFF">
                                    <tspan x="18.8481066" y="21.819217">$</tspan>
                                </text>
                                <circle id="椭圆形-copy-3" stroke="#FFFFFF" stroke-width="1.296" cx="30.24" cy="11.664" r="3.024"></circle>
                            </g>
                        </g>
                        <g id="分组-4" transform="translate(126.360000, 87.750000)">
                            <path d="M4.61852778e-13,9.557352 L3.80481989,16.082712 C7.97240077,15.0802052 11.5046915,13.7440292 14.401692,12.074184 C17.2986925,10.4043388 19.7344569,8.30049879 21.7089851,5.762664 L15.8544,0 C13.8395827,2.42260006 11.5387867,4.41358006 8.952012,5.97294 C6.36523731,7.53229994 3.38123331,8.72710394 4.61852778e-13,9.557352 Z" id="路径-6" fill="url(#linearGradient-8)"></path>
                            <path d="M0.881920467,9.834804 L4.313088,15.303816 C7.9002,14.367672 11.00826,13.1463 13.637268,11.6397 C16.266276,10.1331 18.643752,8.216748 20.769696,5.890644 L15.925248,1.00386 C13.5212543,3.48001743 11.2782115,5.35074512 9.19611969,6.61604308 C7.11402785,7.88134104 4.34262811,8.95426135 0.881920467,9.834804 Z" id="路径-6-copy" stroke="#FFFFFF" stroke-width="0.5" stroke-dasharray="0.2211839810013771,0.2211839810013771"></path>
                            <circle id="椭圆形" stroke="#FFFFFF" stroke-width="0.663552" cx="6.193152" cy="11.280384" r="1.548288"></circle>
                            <text id="$" transform="translate(11.540693, 8.812459) rotate(-31.000000) translate(-11.540693, -8.812459) " font-family="PingFangSC-Medium, PingFang SC" font-size="5.087232" font-weight="400" fill="#FFFFFF">
                                <tspan x="9.54069299" y="10.3124594">$</tspan>
                            </text>
                            <circle id="椭圆形-copy-3" stroke="#FFFFFF" stroke-width="0.663552" cx="15.48288" cy="5.971968" r="1.548288"></circle>
                        </g>
                        <g id="分组-4-copy-3" transform="translate(55.643540, 37.132197) rotate(154.000000) translate(-55.643540, -37.132197) translate(52.143540, 34.632197)">
                            <path d="M4.61852778e-13,2.8672056 L1.14144597,4.8248136 C2.39172023,4.52406156 3.45140744,4.12320876 4.3205076,3.6222552 C5.18960776,3.12130164 5.92033707,2.49014964 6.51269553,1.7287992 L4.75632,0 C4.15187481,0.726780017 3.46163601,1.32407402 2.6856036,1.791882 C1.90957119,2.25968998 1.01436999,2.61813118 4.61852778e-13,2.8672056 Z" id="路径-6" fill="url(#linearGradient-8)"></path>
                            <path d="M0.26457614,2.9504412 L1.2939264,4.5911448 C2.37006,4.3103016 3.302478,3.94389 4.0911804,3.49191 C4.8798828,3.03993 5.5931256,2.4650244 6.2309088,1.7671932 L4.7775744,0.301158 C4.05637629,1.04400523 3.38346346,1.60522354 2.75883591,1.98481292 C2.13420835,2.36440231 1.30278843,2.68627841 0.26457614,2.9504412 Z" id="路径-6-copy" stroke="#FFFFFF" stroke-width="0.5" stroke-dasharray="0.06635519564151764,0.06635519564151764"></path>
                            <circle id="椭圆形" stroke="#FFFFFF" stroke-width="0.5" cx="1.8579456" cy="3.3841152" r="1"></circle>
                            <text id="$" transform="translate(3.608258, 3.080967) rotate(-31.000000) translate(-3.608258, -3.080967) " font-family="PingFangSC-Medium, PingFang SC" font-size="1.5261696" font-weight="400" fill="#FFFFFF">
                                <tspan x="3.1082583" y="3.58096691">$</tspan>
                            </text>
                            <circle id="椭圆形-copy-3" stroke="#FFFFFF" stroke-width="0.5" cx="4.644864" cy="1.7915904" r="1"></circle>
                        </g>
                        <g id="分组-4-copy-4" transform="translate(131.037388, 46.184325) rotate(231.000000) translate(-131.037388, -46.184325) translate(127.537388, 43.684325)">
                            <path d="M4.61852778e-13,2.8672056 L1.14144597,4.8248136 C2.39172023,4.52406156 3.45140744,4.12320876 4.3205076,3.6222552 C5.18960776,3.12130164 5.92033707,2.49014964 6.51269553,1.7287992 L4.75632,0 C4.15187481,0.726780017 3.46163601,1.32407402 2.6856036,1.791882 C1.90957119,2.25968998 1.01436999,2.61813118 4.61852778e-13,2.8672056 Z" id="路径-6" fill="url(#linearGradient-8)"></path>
                            <path d="M0.26457614,2.9504412 L1.2939264,4.5911448 C2.37006,4.3103016 3.302478,3.94389 4.0911804,3.49191 C4.8798828,3.03993 5.5931256,2.4650244 6.2309088,1.7671932 L4.7775744,0.301158 C4.05637629,1.04400523 3.38346346,1.60522354 2.75883591,1.98481292 C2.13420835,2.36440231 1.30278843,2.68627841 0.26457614,2.9504412 Z" id="路径-6-copy" stroke="#FFFFFF" stroke-width="0.5" stroke-dasharray="0.06635519564151764,0.06635519564151764"></path>
                            <circle id="椭圆形" stroke="#FFFFFF" stroke-width="0.5" cx="1.8579456" cy="3.3841152" r="1"></circle>
                            <text id="$" transform="translate(3.608258, 3.080967) rotate(-31.000000) translate(-3.608258, -3.080967) " font-family="PingFangSC-Medium, PingFang SC" font-size="1.5261696" font-weight="400" fill="#FFFFFF">
                                <tspan x="3.1082583" y="3.58096691">$</tspan>
                            </text>
                            <circle id="椭圆形-copy-3" stroke="#FFFFFF" stroke-width="0.5" cx="4.644864" cy="1.7915904" r="1"></circle>
                        </g>
                        <g id="分组-5-copy" transform="translate(45.990000, 82.630000) scale(-1, -1) translate(-45.990000, -82.630000) translate(41.490000, 79.130000)">
                            <g id="分组-4" transform="translate(0.729000, 0.777600)">
                                <path d="M4.61852778e-13,3.36000656 L1.33763199,5.65407844 C2.80279714,5.30163464 4.04461809,4.83188527 5.06309484,4.24483031 C6.08157159,3.65777536 6.937895,2.91814411 7.63206508,2.02593656 L5.5738125,0 C4.86547829,0.851695332 4.0566047,1.55164924 3.14719172,2.09986172 C2.23777874,2.6480742 1.18871483,3.06812248 4.61852778e-13,3.36000656 Z" id="路径-6" fill="url(#linearGradient-8)"></path>
                                <path d="M0.310050164,3.45754828 L1.51632,5.38024781 C2.77741406,5.05113469 3.87009141,4.62174609 4.79435203,4.09208203 C5.71861266,3.56241797 6.55444406,2.88870047 7.30184625,2.07092953 L5.59872,0.352919531 C4.75356596,1.22344363 3.96499624,1.88112133 3.23301083,2.32595265 C2.50102542,2.77078396 1.52670519,3.14798251 0.310050164,3.45754828 Z" id="路径-6-copy" stroke="#FFFFFF" stroke-width="0.5" stroke-dasharray="0.07775999531149864,0.07775999531149864"></path>
                                <circle id="椭圆形" stroke="#FFFFFF" stroke-width="0.5" cx="2.17728" cy="3.96576" r="1"></circle>
                                <text id="$" transform="translate(4.450565, 3.176262) rotate(-31.000000) translate(-4.450565, -3.176262) " font-family="PingFangSC-Medium, PingFang SC" font-size="1.78848" font-weight="400" fill="#FFFFFF">
                                    <tspan x="3.45056528" y="3.6762617">$</tspan>
                                </text>
                                <circle id="椭圆形-copy-3" stroke="#FFFFFF" stroke-width="0.5" cx="5.4432" cy="2.09952" r="1"></circle>
                            </g>
                            <g id="分组-4-copy" transform="translate(0.486000, 0.486000)">
                                <path d="M4.61852778e-13,3.36000656 L1.33763199,5.65407844 C2.80279714,5.30163464 4.04461809,4.83188527 5.06309484,4.24483031 C6.08157159,3.65777536 6.937895,2.91814411 7.63206508,2.02593656 L5.5738125,0 C4.86547829,0.851695332 4.0566047,1.55164924 3.14719172,2.09986172 C2.23777874,2.6480742 1.18871483,3.06812248 4.61852778e-13,3.36000656 Z" id="路径-6" fill="url(#linearGradient-8)"></path>
                                <path d="M0.310050164,3.45754828 L1.51632,5.38024781 C2.77741406,5.05113469 3.87009141,4.62174609 4.79435203,4.09208203 C5.71861266,3.56241797 6.55444406,2.88870047 7.30184625,2.07092953 L5.59872,0.352919531 C4.75356596,1.22344363 3.96499624,1.88112133 3.23301083,2.32595265 C2.50102542,2.77078396 1.52670519,3.14798251 0.310050164,3.45754828 Z" id="路径-6-copy" stroke="#FFFFFF" stroke-width="0.5" stroke-dasharray="0.07775999531149864,0.07775999531149864"></path>
                                <circle id="椭圆形" stroke="#FFFFFF" stroke-width="0.5" cx="2.17728" cy="3.96576" r="1"></circle>
                                <text id="$" transform="translate(4.450565, 3.176262) rotate(-31.000000) translate(-4.450565, -3.176262) " font-family="PingFangSC-Medium, PingFang SC" font-size="1.78848" font-weight="400" fill="#FFFFFF">
                                    <tspan x="3.45056528" y="3.6762617">$</tspan>
                                </text>
                                <circle id="椭圆形-copy-3" stroke="#FFFFFF" stroke-width="0.5" cx="5.4432" cy="2.09952" r="1"></circle>
                            </g>
                            <g id="分组-4-copy-2">
                                <path d="M4.61852778e-13,3.36000656 L1.33763199,5.65407844 C2.80279714,5.30163464 4.04461809,4.83188527 5.06309484,4.24483031 C6.08157159,3.65777536 6.937895,2.91814411 7.63206508,2.02593656 L5.5738125,0 C4.86547829,0.851695332 4.0566047,1.55164924 3.14719172,2.09986172 C2.23777874,2.6480742 1.18871483,3.06812248 4.61852778e-13,3.36000656 Z" id="路径-6" fill="url(#linearGradient-8)"></path>
                                <path d="M0.310050164,3.45754828 L1.51632,5.38024781 C2.77741406,5.05113469 3.87009141,4.62174609 4.79435203,4.09208203 C5.71861266,3.56241797 6.55444406,2.88870047 7.30184625,2.07092953 L5.59872,0.352919531 C4.75356596,1.22344363 3.96499624,1.88112133 3.23301083,2.32595265 C2.50102542,2.77078396 1.52670519,3.14798251 0.310050164,3.45754828 Z" id="路径-6-copy" stroke="#FFFFFF" stroke-width="0.5" stroke-dasharray="0.07775999531149864,0.07775999531149864"></path>
                                <circle id="椭圆形" stroke="#FFFFFF" stroke-width="0.5" cx="2.17728" cy="3.96576" r="1"></circle>
                                <text id="$" transform="translate(4.450565, 3.176262) rotate(-31.000000) translate(-4.450565, -3.176262) " font-family="PingFangSC-Medium, PingFang SC" font-size="1.78848" font-weight="400" fill="#FFFFFF">
                                    <tspan x="3.45056528" y="3.6762617">$</tspan>
                                </text>
                                <circle id="椭圆形-copy-3" stroke="#FFFFFF" stroke-width="0.5" cx="5.4432" cy="2.09952" r="1"></circle>
                            </g>
                        </g>
                        <g id="character-1" transform="translate(46.710000, 51.570000)" fill-rule="nonzero">
                            <path d="M0,28.242516 C0.000182125422,27.8312092 0.199063087,27.1762767 0.447846414,26.497922 L0.447846414,25.625625 L1.34317499,25.625625 C1.34317499,25.9162724 1.25356928,26.6141455 1.49233571,26.7887468 C1.73110214,26.9631707 1.94,28.7514151 1.94,29.114813 C1.94,29.478211 1.49233571,28.9694893 1.49233571,28.9694893 C1.43259857,29.8998093 0.97,29.8417863 0.597007135,29.8417863 C0.0746714232,29.8417863 0,28.6786645 0,28.242516 Z" id="Shape" fill="#FCD8E3"></path>
                            <path d="M23.1050391,3.17684383 L21.9866667,4.10612452 L22.7855546,5.19 L23.504483,4.3382735 C23.7174727,4.15765612 24.2074903,3.79625016 24.4631132,3.79625016 C24.7825976,3.79625016 25.6612683,2.71237468 26.0607122,2.09279715 C26.4601562,1.47339082 25.8211874,0.0796409784 25.6612683,0.00225798752 C25.501526,-0.0751250034 23.903927,1.86064818 23.8239675,2.09279715 C23.760106,2.27872177 23.3180287,2.89299206 23.1050391,3.17684383 Z" id="Shape" fill="#FCD8E3"></path>
                            <path d="M4.02370113,33.968626 L2.38883574,40.6103775 C2.2941062,40.7788487 2.16155424,41.2167684 2.38883574,41.6212052 C2.61629075,42.0254658 3.57347554,41.7895002 4.02370113,41.6212052 L6.93776235,33.968626 L8.78585596,28.048693 L10.5626422,32.0193992 L9.70972926,40.3215444 L11.1313664,40.3215444 L13.9033333,32.0193992 L11.486689,22.70625 C10.8943691,22.8507547 9.24059247,23.2116639 8.78585596,23.500497 C8.33094595,23.7891538 6.22711727,23.6208588 5.23193656,23.500497 L4.02370113,33.968626 Z" id="Shape" fill="#293354"></path>
                            <path d="M9.37666667,42.1565813 L9.66395715,40.5201208 C10.4112983,40.7581811 11.0292008,40.4209744 11.172846,40.2225 C11.4603119,40.936681 13.0170825,41.6606677 13.9033333,41.9334111 L13.7595127,42.751823 C13.3045484,42.8013962 12.5093256,42.8707623 11.8195127,42.751823 C11.1296998,42.632702 9.85565952,42.3054825 9.37666667,42.1565813 Z" id="Shape" fill="#0E1737"></path>
                            <path d="M0.142763268,20.398332 L0,26.274375 L1.64238768,26.274375 L2.92778004,21.1236513 L5.07010063,17.3514948 L5.49856475,19.6728355 C5.49856475,20.1952213 5.21303822,22.6470699 5.07010063,23.8078288 C5.42727028,23.8804315 6.46984306,24.0545011 7.78382293,24.1704885 C9.0978028,24.2866529 11.1400671,23.2516207 11.9969953,22.7196727 C11.9969953,22.1393818 11.64,18.8023106 11.9969953,18.2944454 C12.354165,17.7867573 12.354165,15.1751826 12.4969282,14.0144237 C12.611104,13.0858166 16.210342,11.4995347 17.1385648,10.8949838 L23.28,5.16396925 C23.222825,4.75774791 22.3991907,3.93078468 21.9946076,3.568125 L21.1376794,4.22101867 L15.281945,8.06577792 L10.5688397,10.2420902 C10.3307266,10.9192438 9.78338026,11.9976605 8.92645202,12.0557427 C8.06952378,12.1138249 7.18871451,11.5478775 6.92689469,11.0400123 L2.92778004,13.5791613 L0.142763268,20.398332 Z" id="Shape" fill="#6885EF"></path>
                            <path d="M8.19601749,9.24032754 C8.19601749,9.58259193 8.10391807,10.5472659 7.98908845,10.8086188 C8.33391406,11.141313 9.14782371,11.7779909 9.64452075,11.6640188 C10.1410494,11.5498726 10.3572389,10.5234275 10.4032044,10.0245602 C10.2376949,9.68229579 10.334172,9.12148333 10.4032044,8.88396889 C10.4584304,8.54170451 11.0239916,8.02856893 11.2999531,7.81471894 C11.4378496,7.38701896 10.6791659,5.53353638 10.6101335,5.31968639 C10.541101,5.1058364 10.4722369,3.89407779 9.02373364,3.60888647 C7.57523037,3.32386915 6.74751422,4.60696909 6.54041681,5.17717773 C6.33348777,5.74738637 6.54041681,7.38701896 7.43716543,8.24241892 C8.15459801,8.92677369 8.19601749,9.07398044 8.19601749,9.24032754 Z" id="Shape" fill="#FCD8E3"></path>
                            <path d="M6.79,11.317142 L7.36490575,10.452142 L9.16117932,10.956608 L10.1670013,9.73125 L10.67,10.452142 L10.1670013,11.89375 L9.80781675,11.5590816 C9.75976179,11.5984957 9.62085838,11.7063568 9.44845681,11.821608 C9.27605524,11.9370352 9.00859603,11.965892 8.89635086,11.965892 L8.80181937,12.32625 L6.79,11.317142 Z" id="Shape" fill="#A4B6F5"></path>
                            <path d="M5.56873453,5.93721123 C5.7384312,6.88742139 6.9582123,8.21362051 7.54697699,8.758125 C7.26432165,8.22358648 7.19378715,6.95174721 7.19378715,6.38259959 C7.08065604,5.72937541 7.47627004,4.92285645 7.68821843,4.60104614 C8.08400488,4.24480793 9.2191101,4.2547739 9.73716784,4.30424136 C10.0198232,4.30424136 10.2317716,3.90832046 10.3023061,3.71026941 C10.5849614,2.74538209 9.4545125,2.37410432 8.67742589,2.00300775 C7.90016682,1.63191118 6.48723504,3.19077045 6.06333825,3.48757523 C5.63944147,3.7845612 5.35678614,4.74962973 5.56873453,5.93721123 Z" id="Shape" fill="#7D7D7D"></path>
                            <path d="M2.61249508,46.7024257 C1.69416145,46.591767 1.4565642,44.8757791 1.71406396,43.9789074 C1.97156373,43.0818625 2.12162515,42.3280331 2.31201998,41.52 C2.37701137,41.5840746 2.62147763,41.7260779 3.08064445,41.7814938 C3.5399874,41.8367365 3.85983663,41.7629641 3.9625195,41.7189777 C3.86917144,42.4670924 4.11469447,42.8340495 4.19518516,43.9406358 C4.27567585,45.0470488 3.76067632,46.8409654 2.61249508,46.7024257 Z" id="Shape" fill="#0E1737"></path>
                        </g>
                        <g id="分组-2-copy-4" transform="translate(30.592792, 96.816668) rotate(41.000000) translate(-30.592792, -96.816668) translate(20.872792, 91.821668)">
                            <path d="M0.00391894734,6.81577229 L0,6.81577229 L0,3.00669903 L19.44,3.00669903 L19.44,6.81577229 L19.4360811,6.81577229 C19.2885625,8.79773148 14.994993,9.99 9.72,9.99 C4.44500701,9.99 0.151437485,8.79773148 0.00391894734,6.81577229 Z" id="合并形状" fill="url(#linearGradient-3)"></path>
                            <path d="M9.72,6.40135922 C15.0882078,6.40135922 19.44,5.15629125 19.44,3.09399029 C19.44,1.03168933 15.0882078,0 9.72,0 C4.35179223,0 0,1.03168933 0,3.09399029 C0,5.15629125 4.35179223,6.40135922 9.72,6.40135922 Z" id="椭圆形" fill="url(#linearGradient-2)"></path>
                            <path d="M9.72954891,5.14048544 C13.9155545,5.14048544 17.0954774,4.10620332 17.0954774,3.13472621 C17.0954774,1.60228624 13.9155545,0.872912621 9.72954891,0.872912621 C5.54354329,0.872912621 2.24307618,1.7169861 2.15011526,3.13472621 C2.08266514,4.16340297 5.54354329,5.14048544 9.72954891,5.14048544 Z" id="椭圆形-copy" fill="#FFBB59"></path>
                            <path d="M10.2400806,3.58541 L10.2400806,3.58864078 L6.83819095,2.61712248 L10.2400806,1.6511853 L10.2400806,1.64883495 L13.5786935,2.61712248 L10.2400806,3.58541 Z" id="合并形状" fill="#FBD789"></path>
                        </g>
                        <path d="M127.408286,17.5182855 C127.600007,17.5182855 127.755428,17.6737067 127.755428,17.8654284 L127.755428,19.2539998 C127.755428,19.4457215 127.600007,19.6011426 127.408286,19.6011426 C127.216564,19.6011426 127.061143,19.4457215 127.061143,19.2539998 L127.061143,17.8654284 C127.061143,17.6737067 127.216564,17.5182855 127.408286,17.5182855 Z M124.978286,19.9482855 C124.978286,19.7565638 125.133707,19.6011426 125.325428,19.6011426 L126.714,19.6011426 C126.905721,19.6011426 127.061143,19.7565638 127.061143,19.9482855 C127.061143,20.1400072 126.905721,20.2954284 126.714,20.2954284 L125.325428,20.2954284 C125.133707,20.2954284 124.978286,20.1400072 124.978286,19.9482855 Z M127.408286,20.2954284 C127.600007,20.2954284 127.755428,20.4508495 127.755428,20.6425712 L127.755428,22.0311426 C127.755428,22.2228644 127.600007,22.3782855 127.408286,22.3782855 C127.216564,22.3782855 127.061143,22.2228644 127.061143,22.0311426 L127.061143,20.6425712 C127.061143,20.4508495 127.216564,20.2954284 127.408286,20.2954284 Z M127.755428,19.9482855 C127.755428,19.7565638 127.91085,19.6011426 128.102571,19.6011426 L129.491143,19.6011426 C129.682864,19.6011426 129.838286,19.7565638 129.838286,19.9482855 C129.838286,20.1400072 129.682864,20.2954284 129.491143,20.2954284 L128.102571,20.2954284 C127.91085,20.2954284 127.755428,20.1400072 127.755428,19.9482855 Z" id="合并形状" fill="url(#linearGradient-9)" opacity="0.521902902" transform="translate(127.408286, 19.948286) rotate(24.000000) translate(-127.408286, -19.948286) "></path>
                        <path d="M37.2282855,32.0982855 C37.4200072,32.0982855 37.5754284,32.2537067 37.5754284,32.4454284 L37.5754284,33.8339998 C37.5754284,34.0257215 37.4200072,34.1811426 37.2282855,34.1811426 C37.0365638,34.1811426 36.8811426,34.0257215 36.8811426,33.8339998 L36.8811426,32.4454284 C36.8811426,32.2537067 37.0365638,32.0982855 37.2282855,32.0982855 Z M34.7982855,34.5282855 C34.7982855,34.3365638 34.9537067,34.1811426 35.1454284,34.1811426 L36.5339998,34.1811426 C36.7257215,34.1811426 36.8811426,34.3365638 36.8811426,34.5282855 C36.8811426,34.7200072 36.7257215,34.8754284 36.5339998,34.8754284 L35.1454284,34.8754284 C34.9537067,34.8754284 34.7982855,34.7200072 34.7982855,34.5282855 Z M37.2282855,34.8754284 C37.4200072,34.8754284 37.5754284,35.0308495 37.5754284,35.2225712 L37.5754284,36.6111426 C37.5754284,36.8028644 37.4200072,36.9582855 37.2282855,36.9582855 C37.0365638,36.9582855 36.8811426,36.8028644 36.8811426,36.6111426 L36.8811426,35.2225712 C36.8811426,35.0308495 37.0365638,34.8754284 37.2282855,34.8754284 Z M37.5754284,34.5282855 C37.5754284,34.3365638 37.7308495,34.1811426 37.9225712,34.1811426 L39.3111426,34.1811426 C39.5028644,34.1811426 39.6582855,34.3365638 39.6582855,34.5282855 C39.6582855,34.7200072 39.5028644,34.8754284 39.3111426,34.8754284 L37.9225712,34.8754284 C37.7308495,34.8754284 37.5754284,34.7200072 37.5754284,34.5282855 Z" id="合并形状-copy" fill="url(#linearGradient-9)" opacity="0.521902902" transform="translate(37.228286, 34.528286) rotate(24.000000) translate(-37.228286, -34.528286) "></path>
                        <path d="M66.3882855,0.778285505 C66.5800072,0.778285505 66.7354284,0.933706656 66.7354284,1.12542836 L66.7354284,2.51399979 C66.7354284,2.7057215 66.5800072,2.86114265 66.3882855,2.86114265 C66.1965638,2.86114265 66.0411426,2.7057215 66.0411426,2.51399979 L66.0411426,1.12542836 C66.0411426,0.933706656 66.1965638,0.778285505 66.3882855,0.778285505 Z M63.9582855,3.2082855 C63.9582855,3.0165638 64.1137067,2.86114265 64.3054284,2.86114265 L65.6939998,2.86114265 C65.8857215,2.86114265 66.0411426,3.0165638 66.0411426,3.2082855 C66.0411426,3.40000721 65.8857215,3.55542836 65.6939998,3.55542836 L64.3054284,3.55542836 C64.1137067,3.55542836 63.9582855,3.40000721 63.9582855,3.2082855 Z M66.3882855,3.55542836 C66.5800072,3.55542836 66.7354284,3.71084951 66.7354284,3.90257122 L66.7354284,5.29114265 C66.7354284,5.48286435 66.5800072,5.6382855 66.3882855,5.6382855 C66.1965638,5.6382855 66.0411426,5.48286435 66.0411426,5.29114265 L66.0411426,3.90257122 C66.0411426,3.71084951 66.1965638,3.55542836 66.3882855,3.55542836 Z M66.7354284,3.2082855 C66.7354284,3.0165638 66.8908495,2.86114265 67.0825712,2.86114265 L68.4711426,2.86114265 C68.6628644,2.86114265 68.8182855,3.0165638 68.8182855,3.2082855 C68.8182855,3.40000721 68.6628644,3.55542836 68.4711426,3.55542836 L67.0825712,3.55542836 C66.8908495,3.55542836 66.7354284,3.40000721 66.7354284,3.2082855 Z" id="合并形状-copy-2" fill="url(#linearGradient-9)" opacity="0.521902902" transform="translate(66.388286, 3.208286) rotate(24.000000) translate(-66.388286, -3.208286) "></path>
                    </g>
                </g>
            </g>
        </g>
    </g>
</svg>