<?xml version="1.0" encoding="UTF-8"?>
<svg width="14px" height="14px" viewBox="0 0 14 14" version="1.1" xmlns="http://www.w3.org/2000/svg" xmlns:xlink="http://www.w3.org/1999/xlink">
    <!-- Generator: Sketch 52.5 (67469) - http://www.bohemiancoding.com/sketch -->
    <title>预约</title>
    <desc>Created with Sketch.</desc>
    <g id="Page-1" stroke="none" stroke-width="1" fill="none" fill-rule="evenodd">
        <g id="今日会员-768*1024" transform="translate(-135.000000, -380.000000)" fill="#666666" fill-rule="nonzero">
            <g id="22" transform="translate(123.000000, 137.000000)">
                <g id="分组-9" transform="translate(12.000000, 239.000000)">
                    <g id="预约" transform="translate(0.000000, 4.000000)">
                        <path d="M1.66434958,13.7461663 C1.82512625,13.9070634 2.08596689,13.9070634 2.24676764,13.7461663 L3.10512625,12.8878077 C3.26602333,12.7269106 3.26602333,12.46607 3.10512625,12.3053656 C2.9443255,12.1444685 2.68348486,12.1444685 2.52268411,12.3053656 L1.66434958,13.1637242 C1.5034525,13.3246213 1.5034525,13.5852692 1.66434958,13.7461663 Z M4.59717517,0.00737121 C2.53939756,0.36755334 0.81586491,1.74176519 0.040062092,3.61995747 C0.00130105026,3.71551885 0.00270688191,3.8226721 0.0439616471,3.91718368 C0.0852164123,4.01169526 0.162835084,4.08558123 0.259263592,4.12213171 C0.461294078,4.20278495 0.69056218,4.10744121 0.776224652,3.90774675 C1.4508557,2.27570461 2.94914206,1.0790792 4.73704798,0.767351648 C4.83947857,0.75123602 4.93113905,0.694641335 4.99143443,0.61028373 C5.05179001,0.525986559 5.0759389,0.421058083 5.05850499,0.318857952 C5.01558947,0.106520036 4.81023557,-0.0320523 4.59717517,0.00737121 Z M9.17528843,0.767351649 C10.963965,1.07907922 12.4622514,2.27669201 13.1359913,3.90772267 C13.2182581,4.10642973 13.4493325,4.20155673 13.6528561,4.12210763 C13.7491872,4.0855018 13.8269987,4.01168806 13.8686378,3.91737987 C13.910213,3.8229609 13.9121737,3.71581015 13.8740805,3.61993339 C13.097194,1.74174111 11.373854,0.367553341 9.31607639,0.00737121093 C9.1028715,-0.0320523131 8.89754167,0.106520037 8.85472248,0.318882033 C8.83680476,0.420995654 8.86072497,0.526024129 8.92109464,0.610307811 C8.98124539,0.694724026 9.07287888,0.751336243 9.17528843,0.767351649 Z" id="形状"></path>
                        <path d="M6.92583594,2.34508711 C9.72895165,2.34508711 12.0095432,4.55138326 12.0095432,7.26329745 C12.0095432,9.97509125 9.72895165,12.1812911 6.92583594,12.1812911 C4.12211815,12.1812911 1.84099681,9.97509125 1.84099681,7.26329745 C1.84102089,4.55138324 4.12211817,2.34508711 6.92583594,2.34508711 Z M6.92583594,1.35663331 C3.57117629,1.35663331 0.852542992,4.0008508 0.852542992,7.26332155 C0.852542992,10.5255515 3.57117629,13.169793 6.92583594,13.169793 C10.2783763,13.169793 12.9980211,10.5255515 12.9980211,7.26332155 C12.9980452,4.0008508 10.2784004,1.35663331 6.92583594,1.35663331 Z" id="形状"></path>
                        <path d="M9.04295353,8.71996877 L7.39824383,7.07506642 L7.39824383,3.88320639 C7.39824383,3.66036839 7.20235446,3.47977158 6.96041881,3.47996425 C6.71867581,3.47996425 6.52259378,3.66036839 6.5225938,3.88320639 L6.5225938,7.16053622 C6.5225938,7.19430029 6.52760301,7.22693245 6.53608015,7.25831232 C6.51758457,7.3584967 6.53800678,7.45331062 6.6020429,7.51732267 L8.42390555,9.33918532 C8.54781147,9.46309125 8.78671269,9.42487188 8.9576523,9.25371552 C9.12864007,9.08275183 9.16685945,8.84382653 9.04295353,8.71996877 Z M11.9605106,13.7461663 C11.7998062,13.9070634 11.5387729,13.9070634 11.3780685,13.7461663 L10.5197099,12.8878077 C10.3588128,12.7269106 10.3588128,12.46607 10.5197099,12.3053656 C10.6804143,12.1444685 10.9414476,12.1444685 11.102152,12.3053656 L11.9605106,13.1637242 C12.1213836,13.3246213 12.1213836,13.5852692 11.9605106,13.7461663 Z" id="形状"></path>
                    </g>
                </g>
            </g>
        </g>
    </g>
</svg>