<?xml version="1.0" standalone="no"?><!DOCTYPE svg PUBLIC "-//W3C//DTD SVG 1.1//EN" "http://www.w3.org/Graphics/SVG/1.1/DTD/svg11.dtd"><svg t="1558057724514" class="icon" style="" viewBox="0 0 1024 1024" version="1.1" xmlns="http://www.w3.org/2000/svg" p-id="8262" xmlns:xlink="http://www.w3.org/1999/xlink" width="200" height="200"><defs><style type="text/css"></style></defs><path d="M723.2 917.76H286.72c-65.28 0-118.4-51.2-118.4-113.92V261.76C168.32 198.4 221.44 147.2 286.72 147.2h375.04c17.92 0 32 14.08 32 32s-14.08 32-32 32H286.72c-30.08 0-54.4 22.4-54.4 49.92v542.08c0 27.52 24.32 49.92 54.4 49.92H723.2c30.08 0 54.4-22.4 54.4-49.92V440.32c0-17.92 14.08-32 32-32s32 14.08 32 32v363.52c0 62.72-53.12 113.92-118.4 113.92z" fill="#515151" p-id="8263"></path><path d="M499.84 602.24c-7.68 0-14.72-2.56-21.12-7.68-13.44-11.52-14.72-32-3.2-45.44L780.16 198.4c11.52-13.44 32-14.72 45.44-3.2s14.72 32 3.2 45.44L524.16 591.36c-6.4 7.04-15.36 10.88-24.32 10.88z" fill="#515151" p-id="8264"></path></svg>
