<?xml version="1.0" encoding="UTF-8"?>
<svg width="26px" height="26px" viewBox="0 0 26 26" version="1.1" xmlns="http://www.w3.org/2000/svg" xmlns:xlink="http://www.w3.org/1999/xlink">
    <!-- Generator: Sketch 52.5 (67469) - http://www.bohemiancoding.com/sketch -->
    <title>配置</title>
    <desc>Created with Sketch.</desc>
    <g id="Page-1" stroke="none" stroke-width="1" fill="none" fill-rule="evenodd">
        <g id="会员-copy-3" transform="translate(-68.000000, -347.000000)" fill="#A7ADC1" fill-rule="nonzero">
            <g id="导航栏" transform="translate(27.000000, 0.000000)">
                <g id="今日会员-未选中" transform="translate(31.000000, 347.000000)">
                    <g id="分组-11">
                        <g id="配置" transform="translate(10.000000, 0.000000)">
                            <path d="M16.5968,23.999912 C16.1688075,24.0039681 15.7581875,23.8339001 15.4624,23.5300749 C15.0896,23.1325204 13.9056,22.1001359 12.9376,22.1001359 C11.976,22.1001359 10.7744,23.1388059 10.4288,23.5049331 C9.98601756,23.9522481 9.31056006,24.0897766 8.72320007,23.852204 L8.69120007,23.8380617 L5.74720009,22.2399871 L5.72000009,22.2195594 C5.18205748,21.847014 4.98429498,21.1547679 5.24639998,20.5617729 C5.24799998,20.5570588 5.51679997,19.953656 5.51679997,19.4036795 C5.51679997,17.7348935 4.11679998,16.3740945 2.39679999,16.3740945 L2.29279999,16.3740945 L2.27359999,16.3756658 C1.7808,16.3756658 1.3792,15.9498269 1.2512,15.2929977 C1.23999987,15.2411428 1,13.9934818 1,13.0098095 C1,12.0277085 1.24,10.7784761 1.2512,10.7266212 C1.3808,10.0603639 1.7904,9.63452496 2.29279999,9.64395312 L2.39679999,9.64395312 C4.11679998,9.64395312 5.51679997,8.28629678 5.51679997,6.6159395 C5.51679997,6.06596297 5.24799998,5.46256015 5.24479998,5.4562747 L5.24480007,5.45627492 C4.98323757,4.86270048 5.18323107,4.17032422 5.72320007,3.80005989 L5.75360007,3.77963219 L8.85920005,2.12341716 L8.89280005,2.10927491 C9.47818513,1.88166709 10.1452526,2.01614691 10.5920001,2.45183169 C10.9584001,2.82581572 12.1216001,3.79691714 13.0624001,3.79691714 C13.9952001,3.79691714 15.1504001,2.84467206 15.5152001,2.47697347 C15.9662425,2.04704411 16.6327975,1.91833732 17.216,2.14855897 L17.248,2.16270123 L20.248,3.78120358 L20.2784,3.80163128 C20.8177875,4.17234985 21.017085,4.86463526 20.7552,5.45784633 C20.752,5.46256041 20.4832,6.06596323 20.4832,6.61593976 C20.4832,8.28472568 21.8832,9.64395339 23.6032,9.64395339 L23.7072,9.64395339 C24.2064,9.63452522 24.6176,10.0619355 24.7472,10.7266215 C24.76,10.7784764 25,12.0277088 25,13.0098097 C25,13.993482 24.76,15.2411431 24.7488,15.292998 C24.6192,15.9592553 24.208,16.3850943 23.7088,16.3740947 L23.6048,16.3740947 C21.8848,16.3740947 20.4848,17.7333224 20.4848,19.4036797 C20.4848,19.9552276 20.7536,20.5570591 20.7568,20.5633445 C21.0184625,21.1560866 20.8191358,21.8478147 20.28,22.2179882 L20.248,22.2399872 L17.1968,23.8773459 L17.1632,23.8899168 C16.9841638,23.9646134 16.79131,24.0020659 16.5968,23.9999121 L16.5968,23.999912 Z M16.4464,22.4081228 C16.474519,22.4228401 16.505747,22.4309109 16.5376,22.4316932 L16.5424,22.4316932 L19.3456,20.9326143 C19.2784,20.7801923 18.9696,20.0447951 18.9696,19.2732566 C18.9696,16.971212 20.8448,15.0855781 23.1952,14.9692974 C23.2288,14.7885908 23.4128,13.7703486 23.4128,13.0098096 C23.4128,12.2492706 23.2304,11.2325997 23.1952,11.0518932 C20.8448,10.9324697 18.9696,9.04683587 18.9696,6.74636262 C18.9696,5.97482412 19.28,5.23785557 19.3472,5.08543351 L16.5872,3.6036396 L16.576,3.6036396 C16.5395675,3.60358538 16.5037403,3.61278785 16.472,3.63035275 L16.4720002,3.63035254 C16.1564827,3.93456076 15.8149627,4.21161144 15.4512003,4.45846005 C14.6016003,5.03672109 13.7968003,5.32899433 13.0624003,5.32899433 C12.3184003,5.32899433 11.5088003,5.03043564 10.6528003,4.44117508 L10.6528001,4.44117495 C10.2868976,4.18876273 9.9437676,3.90592502 9.6272001,3.59578246 C9.59458887,3.57913699 9.55835262,3.57050957 9.52160012,3.57064069 L9.51200012,3.57064069 L6.65440014,5.08700454 C6.72320014,5.24099797 7.03200014,5.97796652 7.03200014,6.74636229 C7.03200014,9.04683554 5.15680015,10.9324694 2.80640016,11.0518928 C2.77120016,11.2325994 2.58880016,12.2476989 2.58880016,13.0098093 C2.58880016,13.7719196 2.77280016,14.7870191 2.80640016,14.9677257 C5.15680015,15.0855778 7.03200014,16.9712116 7.03200014,19.2732562 C7.03200014,20.0447947 6.72000014,20.7864774 6.65440014,20.9357567 L9.35840012,22.3971229 L9.36480012,22.3971229 C9.39600538,22.3967557 9.42669013,22.3892218 9.45440013,22.3751239 C9.50560013,22.3232689 9.90880013,21.9084295 10.4896001,21.4967328 C11.3568001,20.8807591 12.1808001,20.5696295 12.9376001,20.5696295 C13.7040001,20.5696295 14.5344001,20.8870445 15.4064001,21.5140178 C15.9904001,21.9351426 16.3968001,22.3546962 16.4464001,22.4081225 L16.4464,22.4081228 Z M12.9968001,16.9303566 C10.7888001,16.9303566 8.99200009,15.1704317 8.99200009,13.0066669 C8.99200009,10.8429021 10.7888001,9.08454855 12.9968001,9.08454855 C15.2064,9.08454855 17.0032,10.8429021 17.0032,13.0066669 C17.0032,15.1704317 15.2064,16.9303566 12.9968001,16.9303566 Z M12.9968001,10.651196 C11.6726425,10.7093977 10.6472425,11.8108092 10.706505,13.1112606 C10.762053,14.330205 11.7556425,15.3060083 12.9968,15.3605615 L12.9968001,15.3605615 C14.3209576,15.3269641 15.3666676,14.2454988 15.3324576,12.9450425 C15.2994911,11.69184 14.2728426,10.683566 12.9968001,10.6511911 L12.9968001,10.651196 Z" id="形状"></path>
                        </g>
                    </g>
                </g>
            </g>
        </g>
    </g>
</svg>