<?xml version="1.0" encoding="UTF-8"?>
<svg width="26px" height="26px" viewBox="0 0 26 26" version="1.1" xmlns="http://www.w3.org/2000/svg" xmlns:xlink="http://www.w3.org/1999/xlink">
    <!-- Generator: Sketch 52.5 (67469) - http://www.bohemiancoding.com/sketch -->
    <title>营销</title>
    <desc>Created with Sketch.</desc>
    <g id="Page-1" stroke="none" stroke-width="1" fill="none" fill-rule="evenodd">
        <g id="会员-copy-3" transform="translate(-68.000000, -271.000000)" fill="#A7ADC1" fill-rule="nonzero">
            <g id="导航栏" transform="translate(27.000000, 0.000000)">
                <g id="统计-未选中" transform="translate(31.000000, 271.000000)">
                    <g id="营销" transform="translate(10.000000, 0.000000)">
                        <path d="M21.666871,11.5106583 L21.666871,17.4829206 C21.666871,18.6357245 20.8400086,19.5519037 19.8443718,19.5519037 L6.15623369,19.5519037 C5.15999138,19.5519037 4.33375339,18.6357245 4.33375339,17.4829206 L4.33375339,6.44807678 C4.33375339,5.29527292 5.16063469,4.37909372 6.15625261,4.37909372 L20.0362487,4.37909372 C20.6893793,4.37909372 21.2799953,4.82327631 21.53626,5.50733277 C21.669494,5.86227365 22.0556445,6.03827707 22.3987505,5.90044795 C22.7418564,5.76261825 22.9119913,5.3631481 22.7787579,5.0082072 C22.7787579,5.00820719 22.7787579,5.0082072 22.7787579,5.00820719 C22.3281376,3.80819192 21.2543764,3 20.0362487,3 L6.1562526,3 C4.40249302,3 3,4.55433569 3,6.44809632 L3,17.4829206 C3,19.3766812 4.40249302,20.9309973 6.1562526,20.9309973 L19.8437474,20.9309973 C21.5968826,20.9309973 23,19.3766812 23,17.4829206 L23,11.5106387 L23,11.5106391 C22.9889039,11.1298082 22.6814779,10.8303877 22.3133434,10.8418676 C21.9608016,10.8528603 21.677497,11.1459368 21.666871,11.5106391 L21.666871,11.5106583 Z M10.1031341,16.2829054 C10.1971761,16.6512796 10.5620814,16.8710416 10.9181728,16.7737552 C11.1087498,16.7216887 11.2672975,16.5850716 11.3512514,16.4005815 L13.7743758,11.0599968 L15.5681342,13.3688538 C15.7978018,13.6662484 16.2170322,13.7147301 16.5045107,13.4771389 C16.5246125,13.4605256 16.5437671,13.4427216 16.5618783,13.4238163 L20.1318743,9.70028095 C20.4001424,9.43923242 20.4130503,9.00263458 20.1607069,8.72511294 C19.9083626,8.44759131 19.4863224,8.43423823 19.2180543,8.69528579 C19.2066465,8.70638663 19.1956202,8.7178997 19.1849959,8.72980375 L16.1399982,11.903107 L14.1449971,9.3349788 C14.0008338,9.14915437 13.7743801,9.05315099 13.5456207,9.08087497 C13.3168329,9.1086015 13.1182088,9.25684022 13.0206224,9.47269832 L10.9243755,14.0949532 L10.2750101,11.5390977 C10.1817975,11.1704984 9.81738731,10.9498575 9.46107833,11.0462866 C9.36453404,11.0724144 9.27488907,11.120624 9.19875136,11.1873614 L5.89124506,14.0820156 C5.61044559,14.3280493 5.57561221,14.7629853 5.81344228,15.0534705 C6.05127236,15.3439557 6.47170617,15.3799906 6.75250562,15.133957 L9.25313001,12.9460254 L10.1024893,16.2835508 L10.1024893,16.2829048 L10.1031341,16.2829054 Z M8.36625193,23 L17.6137487,23 C18.0056195,23 18.32438,22.6909336 18.32438,22.3107565 C18.32438,21.9305795 18.0056195,21.6215327 17.6137487,21.6215327 L8.36625193,21.6215327 C7.97438111,21.6215327 7.65562065,21.930599 7.65562065,22.3107565 C7.65562065,22.6909141 7.97438111,23 8.36625193,23 Z" id="形状"></path>
                    </g>
                </g>
            </g>
        </g>
    </g>
</svg>