<?xml version="1.0" encoding="UTF-8"?>
<svg width="26px" height="26px" viewBox="0 0 26 26" version="1.1" xmlns="http://www.w3.org/2000/svg" xmlns:xlink="http://www.w3.org/1999/xlink">
    <!-- Generator: Sketch 52.5 (67469) - http://www.bohemiancoding.com/sketch -->
    <title>分组 11</title>
    <desc>Created with Sketch.</desc>
    <g id="Page-1" stroke="none" stroke-width="1" fill="none" fill-rule="evenodd">
        <g id="会员-copy-3" transform="translate(-202.000000, -119.000000)" fill="#A7ADC1" fill-rule="nonzero">
            <g id="导航栏-copy" transform="translate(160.000000, 0.000000)">
                <g id="今日会员-选中" transform="translate(31.000000, 119.000000)">
                    <g id="分组-11">
                        <g id="分组-4" transform="translate(11.000000, 0.000000)">
                            <g id="分组" transform="translate(2.000000, 2.000000)">
                                <path d="M19.2598579,1.46238458 L18.3323095,1.11890071 C18.194632,0.487287797 17.6481804,0.0153523262 16.9903095,0.0153523262 C16.2281159,0.0153523262 15.6114063,0.647674908 15.6114063,1.42761038 C15.6114063,2.20825554 16.2295353,2.83986845 16.9917288,2.83986845 C17.3379203,2.83872469 17.6705539,2.7051634 17.9214063,2.46657812 L18.7914708,2.79161038 C19.3819224,3.00948134 19.8914708,3.82844909 19.8914708,4.54451362 L19.8914708,17.1086426 C19.8914708,17.8218684 19.3812127,18.6330297 18.7900514,18.8445136 L18.0058579,19.1283846 C17.7532127,18.8445136 17.3955353,18.6621265 16.9903095,18.6621265 C16.2281159,18.6621265 15.6114063,19.2951588 15.6114063,20.0743846 C15.6114063,20.8550297 16.2295353,21.4873523 16.9917288,21.4873523 C17.600632,21.4873523 18.1108901,21.0828362 18.2946966,20.522191 L19.2456643,20.1779975 C20.3868256,19.769933 21.2710837,18.4208362 21.2710837,17.1086426 L21.2710837,4.54451362 C21.2710837,3.23444911 20.392503,1.88109425 19.2598579,1.46238458 M4.57095463,18.6621265 C4.13095463,18.6621265 3.74347076,18.8771588 3.49011592,19.2057394 L2.48095463,18.8409652 C1.89759979,18.6316104 1.39656754,17.8928362 1.39656754,17.2605136 L1.39656754,4.39335233 C1.39656754,3.75819104 1.89689012,3.0116104 2.48024496,2.79657812 L3.5724385,2.392062 C3.824374,2.66670716 4.176374,2.84057812 4.57379334,2.84057812 C5.33598688,2.84057812 5.95269656,2.20825554 5.95269658,1.42832005 C5.95269658,0.647674887 5.33385787,0.0153523047 4.57166432,0.0153523262 C3.95495465,0.0153523262 3.43901916,0.431932961 3.26159979,1.00180392 L2.01256754,1.468062 C0.88701916,1.88251362 0.016244959,3.16773942 0.016244959,4.39335233 L0.016244959,17.2598039 C0.016244959,18.4875458 0.892696578,19.7670943 2.02463205,20.1730297 L3.31127721,20.6364491 C3.52418043,21.1367717 4.00676109,21.488062 4.57450303,21.488062 C5.33598691,21.488062 5.95269658,20.8550297 5.95269658,20.0750943 C5.95269658,19.2944491 5.3331482,18.6628362 4.57095463,18.6628362" id="形状"></path>
                                <path d="M13.1977933,10.5867072 C12.6641159,10.5867072 12.2319224,10.1438685 12.2319224,9.59741683 C12.2319224,9.05096521 12.6648256,8.6088362 13.1977933,8.6088362 C13.7314708,8.6088362 14.164374,9.05167491 14.164374,9.59741683 C14.164374,10.1438685 13.7314708,10.5867072 13.1977933,10.5867072 M10.5861805,15.2982555 C8.81908367,15.2982555 7.38695465,13.7178039 7.38695463,12.0223846 L13.7861159,12.0223846 C13.7861159,13.7185136 12.3539869,15.2982555 10.5868901,15.2982555 M6.98740625,9.59741683 C6.98740625,9.05096521 7.42030947,8.6088362 7.95327721,8.6088362 C8.48695463,8.6088362 8.91914818,9.05167491 8.91914818,9.59741683 C8.91914818,10.1438685 8.48695463,10.5867072 7.95398688,10.5867072 C7.41959979,10.5867072 6.98740625,10.1438685 6.98740625,9.59741683 M10.5868901,4.3592878 C7.15630949,4.3592878 4.37579334,7.20509425 4.37579334,10.7158685 C4.37579334,14.2273523 7.15630947,17.0731588 10.5868901,17.0731588 C14.0167611,17.0731588 16.7972772,14.2273523 16.7972772,10.7158685 C16.7972772,7.20509425 14.0167611,4.35928782 10.5868901,4.3592878" id="形状"></path>
                            </g>
                        </g>
                    </g>
                </g>
            </g>
        </g>
    </g>
</svg>