<?xml version="1.0" encoding="UTF-8"?>
<svg width="26px" height="26px" viewBox="0 0 26 26" version="1.1" xmlns="http://www.w3.org/2000/svg" xmlns:xlink="http://www.w3.org/1999/xlink">
    <!-- Generator: Sketch 52.5 (67469) - http://www.bohemiancoding.com/sketch -->
    <title>配置</title>
    <desc>Created with Sketch.</desc>
    <g id="Page-1" stroke="none" stroke-width="1" fill="none" fill-rule="evenodd">
        <g id="会员-copy-7" transform="translate(-41.000000, -422.000000)" fill="#1F1F39" fill-rule="nonzero">
            <g id="导航栏-copy-3">
                <g id="今日会员-未选中-copy" transform="translate(31.000000, 422.000000)">
                    <g id="分组-11">
                        <g id="配置" transform="translate(10.000000, 0.000000)">
                            <g id="收入" transform="translate(2.000000, 2.000000)">
                                <path d="M16.6670174,2.99999568 L21.1930286,2.99999568 C21.6380285,2.99999568 22.0000299,3.44799698 22.0000299,3.99999782 C22.0000299,4.55199866 21.6380285,4.99999996 21.1930286,4.99999996 L17.0680238,4.99999996 L17.7790242,5.7110004 C18.0602808,6.01958299 18.0381304,6.4977441 17.7295465,6.77900067 C17.4409788,7.04201485 16.9995925,7.04201485 16.7110227,6.77900065 L14.2210237,4.28900166 C14.0693752,4.13767591 13.9893639,3.92891887 14.0010235,3.71500085 C13.9882357,3.47488045 14.0763269,3.24033311 14.2440228,3.06800029 L16.996024,0.249998965 C17.3126331,-0.076125591 17.8336707,-0.083840639 18.1597953,0.23276912 C18.1656232,0.238427037 18.1713671,0.244170934 18.1770251,0.249998921 C18.5025352,0.586494048 18.5025352,1.120506 18.177025,1.45700112 L16.6670241,3.00000213 L16.6670174,2.99999568 Z M12.1570122,9.00000852 L14.2000154,9.00000852 C14.6400159,9.00000852 14.9990159,9.38200975 14.9990159,9.85200893 C14.9990159,10.3220103 14.6430151,10.7030103 14.2020155,10.7030103 L12.0000149,10.7030103 L12.0000149,12.2970131 L14.2000175,12.2970131 C14.6420182,12.2970131 15.0000192,12.6790144 15.0000192,13.1480145 C15.0000192,13.6180158 14.6440184,14.0000149 14.2030189,14.0000149 L12.0000085,14.0000149 L12.0000085,16.1980194 C12.0000085,16.6420203 11.5520072,17.0000213 11.0000064,17.0000213 C10.4480055,17.0000213 10.0000042,16.6420203 10.0000042,16.2010208 L10.0000042,14.0000085 L7.80000165,14.0000085 C7.35800094,14.0000085 6.99999994,13.6180073 6.99999994,13.1480081 C6.99999996,12.6780067 7.35800094,12.2970067 7.80000165,12.2970067 L10.0000042,12.2970067 L10.0000042,10.7030039 L7.80000165,10.7030039 C7.35800094,10.7030039 6.99999994,10.3210026 6.99999994,9.85200248 C6.99999994,9.38200115 7.35800094,9.00000207 7.80000165,9.00000207 L8.934002,9.00000207 L7.22099922,7.28800047 C6.94273543,6.97671515 6.96950499,6.49879038 7.28079096,6.22052658 C7.56792137,5.9638546 8.00211035,5.9640587 8.28900014,6.22099881 L10.4250028,8.35700149 L13.0000156,5.72698866 C13.3169083,5.4011412 13.8379523,5.39387947 14.1638019,5.71077345 C14.169282,5.71610296 14.1746876,5.72150854 14.1800171,5.72698865 C14.5055273,6.06348379 14.5055273,6.59749574 14.1800171,6.93399086 L12.1580149,8.99999307 L12.1570122,9.00000852 Z M11.0000107,22.0000256 C4.93599578,22.0000256 -2.14844e-06,17.065016 -2.14844e-06,11.0000128 C-2.14844e-06,4.93500965 4.93599578,0 11.0010204,0 C11.456103,0.0224271364 11.8068401,0.409524892 11.7844126,0.864609601 C11.7635317,1.28831634 11.424725,1.62712103 11.0010204,1.64800172 C5.84502225,1.64800172 1.65100956,5.84201442 1.65100956,10.9980126 C1.65100956,16.1530225 5.84502225,20.3500215 11.0010204,20.3500215 C16.1580284,20.3500215 20.3520411,16.1560088 20.3520411,11.0000107 C20.3744682,10.544928 20.761566,10.1941909 21.2166507,10.2166185 C21.6403574,10.2374992 21.9791621,10.576306 22.0000428,11.0000127 C22.0030428,17.0650159 17.0670312,22.0000255 11.0010398,22.0000255 L11.0000107,22.0000256 Z" id="形状"></path>
                            </g>
                        </g>
                    </g>
                </g>
            </g>
        </g>
    </g>
</svg>