<?xml version="1.0" encoding="UTF-8"?>
<svg width="20px" height="20px" viewBox="0 0 20 20" version="1.1" xmlns="http://www.w3.org/2000/svg" xmlns:xlink="http://www.w3.org/1999/xlink">
    <!-- Generator: Sketch 63.1 (92452) - https://sketch.com -->
    <title>新增</title>
    <desc>Created with Sketch.</desc>
    <g id="门店商品上传、总部审核" stroke="none" stroke-width="1" fill="none" fill-rule="evenodd">
        <g id="PC-总部-产品设置-默认展示系统全部产品" transform="translate(-516.000000, -157.000000)" fill="#0899AC" fill-rule="nonzero">
            <g id="编组" transform="translate(516.000000, 155.000000)">
                <g id="新增" transform="translate(0.000000, 2.000000)">
                    <path d="M9.9609375,19.9983333 C4.46649305,19.9983333 0.0142708398,15.5216667 0.0142708398,9.99944445 C0.0142708398,4.47611111 4.46649305,0.000555546875 9.9609375,0.000555546875 C15.4537153,0.000555546875 19.9070486,4.47611109 19.9070486,9.99944445 C19.9070486,15.5227778 15.455382,19.9983333 9.9609375,19.9983333 Z M9.9609375,1.33222223 C5.19982639,1.33222223 1.34038195,5.21222223 1.34038195,9.99833334 C1.34038195,14.7827778 5.19982641,18.6638889 9.9609375,18.6638889 C14.721493,18.6638889 18.5798264,14.7844444 18.5809375,9.99833334 C18.5809375,5.21222223 14.721493,1.33222223 9.9609375,1.33222223 Z M14.5387153,10.5822222 L10.6359375,10.5822222 L10.6187153,15.0494445 C10.6187153,15.215 10.6542708,15.9244445 9.88760416,15.9244445 C9.15982639,15.9244445 9.23260416,15.4561111 9.23260416,15.1027778 L9.23427084,10.5833333 L4.94649305,10.5833333 C4.66649305,10.5833333 4.33371527,10.585 4.33371527,9.72888889 C4.33371527,9.09277777 5.11204861,9.165 5.11204861,9.165 L9.23427084,9.165 L9.23427084,4.85444445 C9.23427084,4.57222223 9.45149307,4.32111111 9.93427084,4.34944445 C10.4170486,4.37722223 10.6342708,4.57333334 10.6342708,4.85444445 L10.6342708,9.165 L14.5376042,9.165 C14.5376042,9.165 15.4270486,9.04888889 15.4182259,9.84055555 C15.4087153,10.6327778 14.7176042,10.5822222 14.5387153,10.5822222 L14.5387153,10.5822222 Z" id="形状"></path>
                </g>
            </g>
        </g>
    </g>
</svg>