<?xml version="1.0" encoding="UTF-8"?>
<svg width="71px" height="71px" viewBox="0 0 71 71" version="1.1" xmlns="http://www.w3.org/2000/svg" xmlns:xlink="http://www.w3.org/1999/xlink">
    <!-- Generator: Sketch 52.5 (67469) - http://www.bohemiancoding.com/sketch -->
    <title>分组 4 copy</title>
    <desc>Created with Sketch.</desc>
    <g id="Page-1" stroke="none" stroke-width="1" fill="none" fill-rule="evenodd">
        <g id="总部审核" transform="translate(-594.000000, -113.000000)">
            <g id="分组-4-copy" transform="translate(595.000000, 114.000000)">
                <circle id="椭圆形-copy-18" stroke="#0899AC" fill="#FFFFFF" cx="34.5" cy="34.5" r="34.5"></circle>
                <g id="分组-3" transform="translate(19.000000, 17.000000)" stroke-width="2">
                    <path d="M30.5649463,29.4357136 C30.7667501,29.4357136 30.9338296,29.2672539 30.9339573,29.0553604 L30.9339573,24.1031179 C30.9339573,22.2391715 29.4335665,20.7246728 27.5962335,20.7246728 L21.0080334,20.7246728 L21.0676607,19.6683164 C21.1686523,17.8791487 21.726029,15.4832473 22.3280021,14.7747113 C23.6305745,13.0823092 24.3528231,11.0674717 24.4310583,8.92979305 C24.418015,6.7312295 23.487827,4.6088818 21.8815203,3.11234428 C20.3004653,1.63916708 18.1739847,0.876664985 16.0346358,1.0163074 L15.9058347,1.01640216 C13.7465282,0.878647471 11.6088146,1.6501857 10.0261873,3.13813077 C8.41248315,4.65459091 7.49644007,6.79767705 7.50257462,9.02221261 C7.5877698,11.1500058 8.31940387,13.151994 9.61883284,14.8409189 C10.2292014,15.552483 10.7771407,17.9733317 10.8675008,19.7421395 L10.9211925,20.7931583 L4.33772376,20.7931583 C2.50033627,20.7931583 1,22.3077125 1,24.1720661 L1,29.0548977 C1,29.2671955 1.16702145,29.4357136 1.36855231,29.4357136 L30.5649463,29.4357136 Z" id="路径-copy-4" stroke="#0899AC" fill-rule="nonzero"></path>
                    <path d="M1,33.64 L30.8923266,33.64" id="直线-7-copy-14" stroke="#3275F5" stroke-linecap="round"></path>
                </g>
            </g>
        </g>
    </g>
</svg>