<?xml version="1.0" encoding="UTF-8"?>
<svg width="24px" height="26px" viewBox="0 0 24 26" version="1.1" xmlns="http://www.w3.org/2000/svg" xmlns:xlink="http://www.w3.org/1999/xlink">
    <!-- Generator: Sketch 52.5 (67469) - http://www.bohemiancoding.com/sketch -->
    <title>分组 4</title>
    <desc>Created with Sketch.</desc>
    <g id="Page-1" stroke="none" stroke-width="1" fill="none" fill-rule="evenodd">
        <g id="注册账号" transform="translate(-617.000000, -133.000000)" stroke="#FFFFFF" stroke-width="2">
            <g id="分组-4" transform="translate(618.000000, 133.000000)">
                <path d="M21.4323181,20.9987573 L21.4323181,17.5934733 C21.4323181,16.4642673 20.5241883,15.5475985 19.4147711,15.5475985 L14.5096639,15.5475985 L14.5692911,14.4912421 C14.6431165,13.1833521 15.0424018,11.4670115 15.508731,10.918518 C16.3760856,9.79158429 16.8566217,8.45104563 16.9085676,7.03992246 C16.8999912,5.59428114 16.2879306,4.19778353 15.2318427,3.21386483 C14.193195,2.24608564 12.7960887,1.74511871 11.3917442,1.83678495 L11.2629431,1.83687971 C9.84494102,1.74641713 8.44029553,2.25337824 7.40055042,3.23091963 C6.33964451,4.22789387 5.73691002,5.63799341 5.74067781,7.09023268 C5.79741297,8.50722218 6.28423011,9.83931187 7.13975815,10.9520521 C7.62275769,11.5151302 8.01516821,13.2488376 8.08134334,14.5442218 L8.13503499,15.5952406 L3.23493827,15.5952406 C2.12548826,15.5952406 1.2173913,16.5119431 1.2173913,17.6414373 L1.2173913,20.9987573 L21.4323181,20.9987573 Z" id="路径-copy-4" fill-rule="nonzero"></path>
                <path d="M0.913043478,24.2278261 L21.7077055,24.2278261" id="直线-7-copy-14" stroke-linecap="round"></path>
            </g>
        </g>
    </g>
</svg>