<?xml version="1.0" encoding="UTF-8"?>
<svg width="22px" height="22px" viewBox="0 0 22 22" version="1.1" xmlns="http://www.w3.org/2000/svg" xmlns:xlink="http://www.w3.org/1999/xlink">
    <!-- Generator: Sketch 52.5 (67469) - http://www.bohemiancoding.com/sketch -->
    <title>分组 8</title>
    <desc>Created with Sketch.</desc>
    <g id="Page-1" stroke="none" stroke-width="1" fill="none" fill-rule="evenodd">
        <g id="新增秒杀-（非）直营产品" transform="translate(-44.000000, -113.000000)">
            <g id="分组-8" transform="translate(44.000000, 113.000000)">
                <circle id="椭圆形" fill-opacity="0.3" fill="#F5C274" cx="11" cy="11" r="11"></circle>
                <g id="分组-7" transform="translate(5.000000, 5.000000)" stroke="#FF9F27">
                    <path d="M11.2426829,6.32429598 C11.148718,6.11826658 11.148718,5.88162014 11.2426829,5.67559073 L11.9296291,4.16512509 C12.0196268,3.96722449 12.0234594,3.74085625 11.9402128,3.54002314 C11.8569661,3.33919003 11.694105,3.181901 11.4904818,3.10567918 L9.93676952,2.52242745 C9.72442834,2.44289103 9.55689363,2.27537628 9.47734774,2.0630604 L8.8940265,0.509665725 C8.81814592,0.30610656 8.66110279,0.143213842 8.46043917,0.0599280109 C8.25977555,-0.0233578204 8.03352699,-0.0195510758 7.8357795,0.0704382206 L6.32526641,0.757302593 C6.22308725,0.803389764 6.1123066,0.827322398 6.00021257,0.827525998 C5.88943189,0.827525998 5.77878373,0.803676541 5.67515874,0.757302593 L4.16451313,0.0704382206 C3.96677525,-0.019633428 3.74049307,-0.0234818503 3.539806,0.0598137124 C3.33911894,0.143109275 3.18208159,0.30605522 3.10626611,0.509665725 L2.52294489,2.0630604 C2.44333972,2.27538437 2.27576281,2.442893 2.0633906,2.52242745 L0.509678331,3.10567918 C0.0847098721,3.26520555 -0.116444524,3.75080701 0.0703984928,4.16512509 L0.757344704,5.67559073 C0.851309625,5.88162014 0.851309625,6.11826658 0.757344704,6.32429598 L0.0703984928,7.83462912 C-0.0196337963,8.03254205 -0.0234686706,8.25894182 0.0598092063,8.45978966 C0.143087083,8.6606375 0.306005665,8.81791247 0.509678331,8.89407503 L2.06325808,9.47732676 C2.27560138,9.55690614 2.44316228,9.72439877 2.52281238,9.93669381 L3.10613361,11.490221 C3.22089042,11.7964393 3.51347044,11.9994578 3.8405194,11.9998044 C3.94891485,11.9998044 4.05956301,11.9771474 4.16438061,11.929581 L5.67502622,11.2427166 C5.77719654,11.1966026 5.887983,11.1726687 6.00008006,11.1724932 C6.11072822,11.1724932 6.22137639,11.1964752 6.32513389,11.2427166 L7.83564699,11.929581 C8.033402,12.0196463 8.25969903,12.0234762 8.46038917,11.9401542 C8.66107931,11.8568323 8.81810545,11.6938553 8.893894,11.490221 L9.47721522,9.93669381 C9.55685096,9.72443576 9.72435368,9.55695301 9.93663701,9.47732676 L11.4903493,8.89407503 C11.9153177,8.73468116 12.1166046,8.2490797 11.9294966,7.83462912 L11.2426829,6.32429598 Z" id="形状" fill-rule="nonzero"></path>
                    <path d="M5.6,3.79994614 C5.6,3.3585279 5.24063349,3 4.8,3 C4.3593665,3 4,3.35934232 4,3.79994614 C4,4.24054996 4.35936651,4.59980178 4.8,4.59980178 C5.24063348,4.59980178 5.59999999,4.24136438 5.6,3.79994614 Z" id="路径" fill-rule="nonzero"></path>
                    <path d="M7.6,8.79994614 C7.6,8.3585279 7.24063349,8 6.8,8 C6.3593665,8 6,8.35934232 6,8.79994614 C6,9.24054996 6.35936651,9.59980178 6.8,9.59980178 C7.24063348,9.59980178 7.59999999,9.24136438 7.6,8.79994614 Z" id="路径-copy" fill-rule="nonzero"></path>
                    <path d="M3.5,8.5 L8.5,3.5" id="直线-12" stroke-linecap="round"></path>
                </g>
            </g>
        </g>
    </g>
</svg>