<?xml version="1.0" encoding="UTF-8"?>
<svg width="46px" height="46px" viewBox="0 0 46 46" version="1.1" xmlns="http://www.w3.org/2000/svg" xmlns:xlink="http://www.w3.org/1999/xlink">
    <!-- Generator: Sketch 52.5 (67469) - http://www.bohemiancoding.com/sketch -->
    <title>分组 14</title>
    <desc>Created with Sketch.</desc>
    <defs>
        <linearGradient x1="42.3082443%" y1="36.9063088%" x2="92.4633897%" y2="100%" id="linearGradient-1">
            <stop stop-color="#13C9D6" offset="0%"></stop>
            <stop stop-color="#0899AC" offset="100%"></stop>
        </linearGradient>
    </defs>
    <g id="Page-1" stroke="none" stroke-width="1" fill="none" fill-rule="evenodd">
        <g id="（非）直营产品-待出行" transform="translate(-594.000000, -149.000000)">
            <g id="分组-14" transform="translate(594.000000, 149.000000)">
                <circle id="椭圆形-copy-27" fill-opacity="0.3" fill="#0899AC" transform="translate(23.000000, 23.000000) rotate(-360.000000) translate(-23.000000, -23.000000) " cx="23" cy="23" r="23"></circle>
                <circle id="椭圆形-copy-30" fill="url(#linearGradient-1)" cx="23" cy="23" r="19"></circle>
                <g id="确认订单icon" transform="translate(11.000000, 11.000000)" stroke="#FFFFFF" stroke-width="1.5">
                    <g id="分组-12" transform="translate(5.000000, 4.000000)">
                        <path d="M3,7.4 L7.8,7.4" id="直线-5-copy-2" stroke-linecap="round"></path>
                        <path d="M3,4.5 L11,4.5" id="直线-5-copy-3" stroke-linecap="round"></path>
                        <path d="M8.23457834,16 L1,16 C0.44771525,16 0,15.5522847 0,15 L0,1 C0,0.44771525 0.44771525,-4.54747351e-13 1,-4.54747351e-13 L13,-4.54747351e-13 C13.5522847,-4.54747351e-13 14,0.44771525 14,1 L14,7.59129309" id="路径-copy-15" stroke-linecap="round"></path>
                        <circle id="椭圆形-copy-41" cx="13.5" cy="13.5" r="3.5"></circle>
                        <path d="M13.5,12 L13.5,13.5" id="直线-15-copy" stroke-linecap="round"></path>
                        <path d="M15,13.5 L13.5,13.5" id="直线-15-copy-2" stroke-linecap="round"></path>
                    </g>
                </g>
            </g>
        </g>
    </g>
</svg>