<?xml version="1.0" encoding="UTF-8"?>
<svg width="18px" height="18px" viewBox="0 0 18 18" version="1.1" xmlns="http://www.w3.org/2000/svg" xmlns:xlink="http://www.w3.org/1999/xlink">
    <!-- Generator: Sketch 52.5 (67469) - http://www.bohemiancoding.com/sketch -->
    <title>形状</title>
    <desc>Created with Sketch.</desc>
    <g id="Page-1" stroke="none" stroke-width="1" fill="none" fill-rule="evenodd">
        <g id="编辑" transform="translate(-321.000000, -516.000000)" fill="#0899AC" fill-rule="nonzero">
            <path d="M330,532.714286 C325.746429,532.714286 322.285714,529.253571 322.285714,525 C322.285714,520.746429 325.746429,517.285714 330,517.285714 C334.253571,517.285714 337.714286,520.746429 337.714286,525 C337.714286,529.253571 334.253571,532.714286 330,532.714286 M330,516 C325.029429,516 321,520.029429 321,525 C321,529.970571 325.029429,534 330,534 C334.970571,534 339,529.970571 339,525 C339,520.029429 334.970571,516 330,516 M333.428571,524.357143 L326.571429,524.357143 C326.216388,524.357143 325.928571,524.64496 325.928571,525 C325.928571,525.35504 326.216388,525.642857 326.571429,525.642857 L333.428571,525.642857 C333.783612,525.642857 334.071429,525.35504 334.071429,525 C334.071429,524.64496 333.783612,524.357143 333.428571,524.357143" id="形状"></path>
        </g>
    </g>
</svg>