<?xml version="1.0" encoding="UTF-8"?>
<svg width="20px" height="20px" viewBox="0 0 20 20" version="1.1" xmlns="http://www.w3.org/2000/svg" xmlns:xlink="http://www.w3.org/1999/xlink">
    <!-- Generator: Sketch 52.5 (67469) - http://www.bohemiancoding.com/sketch -->
    <title>Group 3 Copy 5</title>
    <desc>Created with Sketch.</desc>
    <g id="Page-1" stroke="none" stroke-width="1" fill="none" fill-rule="evenodd">
        <g id="总部-新增非直营产品-" transform="translate(-915.000000, -732.000000)" fill="#3275F5" fill-rule="nonzero">
            <g id="Group-3-Copy-5" transform="translate(915.000000, 732.000000)">
                <path d="M19.2778303,3.63635082 L15.610932,3.63635082 L15.610932,1.0171575 C15.610932,0.727849314 15.3763877,0.493304995 15.0870795,0.493304995 L5.65819562,0.493304995 C5.36888744,0.493304995 5.13434312,0.727826242 5.13434312,1.0171575 L5.13434312,3.63637387 L1.46746786,3.63637387 C1.17815968,3.63637387 0.94361536,3.87091817 0.94361536,4.16022637 C0.94361536,4.44953458 1.17813661,4.68407888 1.46746786,4.68407888 L19.2778303,4.68407888 C19.5671385,4.68407888 19.8016828,4.44953458 19.8016828,4.16022637 C19.8016828,3.87091817 19.5671154,3.63635082 19.2778303,3.63635082 Z M6.1820481,1.54098695 L14.5632501,1.54098695 L14.5632501,3.63635082 L6.1820481,3.63635082 L6.1820481,1.54098695 Z" id="Shape"></path>
                <path d="M16.6586139,6.7791431 C16.3693058,6.7791431 16.1347614,7.01366434 16.1347614,7.3029956 L16.1347614,18.3036675 L4.61051367,18.3036674 L4.61051367,7.30299558 C4.61051367,7.01368739 4.37599242,6.77914307 4.08666116,6.77914307 C3.79732991,6.77914307 3.56280866,7.01366432 3.56280866,7.30299558 L3.56280866,18.8274969 C3.56280866,19.1168051 3.79732991,19.3513494 4.08666116,19.3513494 L16.6585909,19.3513494 C16.9478991,19.3513494 17.1824434,19.1168051 17.1824434,18.8274969 L17.1824434,7.30299558 C17.1824434,7.01368739 16.9479221,6.7791431 16.6586139,6.7791431 Z" id="Shape"></path>
                <path d="M8.80126447,15.6844511 L8.80126447,7.3029956 C8.80126447,7.01368742 8.56674323,6.7791431 8.27741197,6.7791431 C7.98808072,6.7791431 7.75355947,7.01366434 7.75355947,7.3029956 L7.75355947,15.6844511 C7.75355947,15.9737593 7.98808072,16.2083036 8.27741197,16.2083036 C8.56674323,16.2083036 8.80126447,15.9737593 8.80126447,15.6844511 Z" id="Shape"></path>
                <path d="M12.9917156,15.6844511 L12.9917156,7.3029956 C12.9917156,7.01368742 12.7571713,6.7791431 12.4678631,6.7791431 C12.1785549,6.7791431 11.9440106,7.01366434 11.9440106,7.3029956 L11.9440106,15.6844511 C11.9440106,15.9737593 12.1785549,16.2083036 12.4678631,16.2083036 C12.7571713,16.2083036 12.9917156,15.9737593 12.9917156,15.6844511 Z" id="Shape"></path>
            </g>
        </g>
    </g>
</svg>