<?xml version="1.0" encoding="UTF-8"?>
<svg width="46px" height="46px" viewBox="0 0 46 46" version="1.1" xmlns="http://www.w3.org/2000/svg" xmlns:xlink="http://www.w3.org/1999/xlink">
    <!-- Generator: Sketch 52.5 (67469) - http://www.bohemiancoding.com/sketch -->
    <title>分组 11 copy</title>
    <desc>Created with Sketch.</desc>
    <defs>
        <linearGradient x1="42.3082443%" y1="36.9063088%" x2="92.4633897%" y2="100%" id="linearGradient-1">
            <stop stop-color="#13C9D6" offset="0%"></stop>
            <stop stop-color="#0899AC" offset="100%"></stop>
        </linearGradient>
    </defs>
    <g id="Page-1" stroke="none" stroke-width="1" fill="none" fill-rule="evenodd">
        <g id="拼团订单-其他产品-已完成（快递邮寄）---" transform="translate(-594.000000, -149.000000)">
            <g id="分组-11-copy" transform="translate(594.000000, 149.000000)">
                <g id="分组-2-copy-5">
                    <circle id="椭圆形-copy-25" fill-opacity="0.25" fill="#0899AC" transform="translate(23.000000, 23.000000) rotate(-360.000000) translate(-23.000000, -23.000000) " cx="23" cy="23" r="23"></circle>
                    <circle id="椭圆形-copy-26" fill="url(#linearGradient-1)" cx="23" cy="23" r="19"></circle>
                </g>
                <g id="发货时间" transform="translate(11.000000, 11.000000)" fill="#FFFFFF" fill-rule="nonzero">
                    <g id="分组-9" transform="translate(3.000000, 4.000000)">
                        <path d="M13.1528095,12.5357143 C13.5670231,12.5357143 13.9028095,12.8715007 13.9028095,13.2857143 C13.9028095,13.6999278 13.5670231,14.0357143 13.1528095,14.0357143 L11.4285714,14.0357143 C11.0143579,14.0357143 10.6785714,13.6999278 10.6785714,13.2857143 L10.6785714,2.36321761 C10.6785714,1.94900405 11.0143579,1.61321761 11.4285714,1.61321761 L14.5394815,1.61321761 C16.1820989,1.61321761 17.7152285,2.37665676 18.5830103,3.64500487 L20.6189885,6.62078642 C20.7043343,6.74552763 20.75,6.89314441 20.75,7.04428762 L20.75,13.2857143 C20.75,13.6999278 20.4142136,14.0357143 20,14.0357143 L18.3963359,14.0357143 C17.9821223,14.0357143 17.6463359,13.6999278 17.6463359,13.2857143 C17.6463359,12.8715007 17.9821223,12.5357143 18.3963359,12.5357143 L19.25,12.5357143 L19.25,7.27630264 L17.3450333,4.49200725 C16.7645687,3.64360128 15.6994584,3.11321761 14.5394815,3.11321761 L12.1785714,3.11321761 L12.1785714,12.5357143 L13.1528095,12.5357143 Z" id="路径"></path>
                        <path d="M4.28571429,16.8928571 C2.55653703,16.8928571 1.1547619,15.491082 1.1547619,13.7619048 C1.1547619,12.0327275 2.55653703,10.6309524 4.28571429,10.6309524 C6.01489154,10.6309524 7.41666667,12.0327275 7.41666667,13.7619048 C7.41666667,15.491082 6.01489154,16.8928571 4.28571429,16.8928571 Z M4.28571429,15.3928571 C5.18646441,15.3928571 5.91666667,14.6626549 5.91666667,13.7619048 C5.91666667,12.8611546 5.18646441,12.1309524 4.28571429,12.1309524 C3.38496416,12.1309524 2.6547619,12.8611546 2.6547619,13.7619048 C2.6547619,14.6626549 3.38496416,15.3928571 4.28571429,15.3928571 Z" id="椭圆形" transform="translate(4.285714, 13.761905) scale(-1, 1) translate(-4.285714, -13.761905) "></path>
                        <path d="M15.7142857,16.8928571 C13.9851085,16.8928571 12.5833333,15.491082 12.5833333,13.7619048 C12.5833333,12.0327275 13.9851085,10.6309524 15.7142857,10.6309524 C17.443463,10.6309524 18.8452381,12.0327275 18.8452381,13.7619048 C18.8452381,15.491082 17.443463,16.8928571 15.7142857,16.8928571 Z M15.7142857,15.3928571 C16.6150358,15.3928571 17.3452381,14.6626549 17.3452381,13.7619048 C17.3452381,12.8611546 16.6150358,12.1309524 15.7142857,12.1309524 C14.8135356,12.1309524 14.0833333,12.8611546 14.0833333,13.7619048 C14.0833333,14.6626549 14.8135356,15.3928571 15.7142857,15.3928571 Z" id="椭圆形-copy-2" transform="translate(15.714286, 13.761905) scale(-1, 1) translate(-15.714286, -13.761905) "></path>
                        <path d="M14.5,8.25 C14.0857864,8.25 13.75,7.91421356 13.75,7.5 C13.75,7.08578644 14.0857864,6.75 14.5,6.75 L17,6.75 C17.4142136,6.75 17.75,7.08578644 17.75,7.5 C17.75,7.91421356 17.4142136,8.25 17,8.25 L14.5,8.25 Z" id="直线-4" transform="translate(15.750000, 7.500000) scale(-1, 1) translate(-15.750000, -7.500000) "></path>
                        <path d="M13.25,7 C12.8357864,7 12.5,6.66421356 12.5,6.25 C12.5,5.83578644 12.8357864,5.5 13.25,5.5 L15.75,5.5 C16.1642136,5.5 16.5,5.83578644 16.5,6.25 C16.5,6.66421356 16.1642136,7 15.75,7 L13.25,7 Z" id="直线-4" transform="translate(14.500000, 6.250000) scale(-1, 1) rotate(90.000000) translate(-14.500000, -6.250000) "></path>
                        <path d="M10.6785714,2.44723682 C10.6785714,1.9093789 10.138394,1.43283351 9.42857143,1.43283351 L2,1.43283351 C1.29017739,1.43283351 0.75,1.9093789 0.75,2.44723682 L0.75,11.521311 C0.75,12.0591689 1.29017739,12.5357143 2,12.5357143 L2,14.0357143 C0.500683614,14.0357143 -0.75,12.9323591 -0.75,11.521311 L-0.75,2.44723682 C-0.75,1.03618866 0.500683614,-0.0671664887 2,-0.0671664887 L9.42857143,-0.0671664887 C10.9278878,-0.0671664887 12.1785714,1.03618866 12.1785714,2.44723682 L12.1785714,14.0357143 L6.87860655,14.0357143 L6.87860655,12.5357143 L10.6785714,12.5357143 L10.6785714,2.44723682 Z" id="路径"></path>
                    </g>
                </g>
            </g>
        </g>
    </g>
</svg>