<?xml version="1.0" encoding="UTF-8"?>
<svg width="24px" height="24px" viewBox="0 0 24 24" version="1.1" xmlns="http://www.w3.org/2000/svg" xmlns:xlink="http://www.w3.org/1999/xlink">
    <!-- Generator: Sketch 52.5 (67469) - http://www.bohemiancoding.com/sketch -->
    <title>shouji</title>
    <desc>Created with Sketch.</desc>
    <g id="Page-1" stroke="none" stroke-width="1" fill="none" fill-rule="evenodd">
        <g id="注册账号" transform="translate(-358.000000, -319.000000)" stroke="#333333" stroke-width="1.24">
            <g id="shouji-copy" transform="translate(358.000000, 319.000000)">
                <g id="shouji" transform="translate(4.000000, 1.000000)">
                    <path d="M10.8728253,1.61873047 C10.8083261,1.61857663 10.7592597,1.61851162 10.5983316,1.61829839 C10.2616049,1.61792065 9.75797524,1.6177317 9.08752823,1.6177317 C7.74635033,1.6177317 5.73782768,1.61848776 3.06165336,1.62 C1.8427467,1.62 0.855297129,2.62147584 0.855297129,3.86650334 L0.855297129,19.1335211 C0.855297129,20.3785486 1.8427467,21.3800244 3.06165336,21.3800244 L12.9487237,21.3800244 C14.1676304,21.3800244 15.1550799,20.3785486 15.15508,19.1333047 C15.1567052,14.4767348 15.1575178,10.9829667 15.1575178,8.65202748 C15.1575178,7.48664605 15.1573147,6.61195996 15.1569085,6.02802277 C15.1566028,5.65605426 15.1565803,5.62868947 15.1562362,5.42329854 C15.0335378,5.31342527 14.857212,5.15611799 14.6323181,4.95586228 C14.2286878,4.59645149 13.6769063,4.10608012 13.0304442,3.53215184 C12.498829,3.06018448 11.9241434,2.55032545 11.4283053,2.11067844 C11.1186479,1.83614353 11.1186479,1.83614353 10.8999147,1.64232895 C10.8903864,1.63402943 10.8813617,1.62616854 10.8728253,1.61873047 Z" id="形状" fill-rule="nonzero"></path>
                    <polyline id="路径" stroke-linecap="round" stroke-linejoin="round" transform="translate(6.357023, 15.357023) rotate(-315.000000) translate(-6.357023, -15.357023) " points="8.02368927 17.0236893 4.69035594 17.0236893 4.69035594 13.6903559"></polyline>
                    <polyline id="路径-copy" stroke-linecap="round" stroke-linejoin="round" transform="translate(9.801467, 15.357023) scale(-1, 1) rotate(-315.000000) translate(-9.801467, -15.357023) " points="11.4681337 17.0236893 8.13480038 17.0236893 8.13480038 13.6903559"></polyline>
                    <polyline id="路径-copy" stroke-linecap="round" stroke-linejoin="round" transform="translate(12.421705, 4.148576) scale(-1, 1) rotate(-90.000000) translate(-12.421705, -4.148576) " points="14.4217049 6.42170491 10.4217049 6.42170491 10.4217049 1.87544616"></polyline>
                </g>
            </g>
        </g>
    </g>
</svg>