<?xml version="1.0" encoding="UTF-8"?>
<svg width="36px" height="36px" viewBox="0 0 36 36" version="1.1" xmlns="http://www.w3.org/2000/svg" xmlns:xlink="http://www.w3.org/1999/xlink">
    <!-- Generator: Sketch 52.5 (67469) - http://www.bohemiancoding.com/sketch -->
    <title>xinxi</title>
    <desc>Created with Sketch.</desc>
    <defs>
        <circle id="path-1" cx="18" cy="18" r="18"></circle>
        <linearGradient x1="94.0681552%" y1="97.9400925%" x2="22.5293753%" y2="30.1946368%" id="linearGradient-3">
            <stop stop-color="#E3E5EB" offset="0%"></stop>
            <stop stop-color="#D1D6DF" offset="100%"></stop>
        </linearGradient>
    </defs>
    <g id="Page-1" stroke="none" stroke-width="1" fill="none" fill-rule="evenodd">
        <g id="今日会员-copy-3" transform="translate(-39.000000, -712.000000)">
            <g id="xinxi" transform="translate(39.000000, 712.000000)">
                <mask id="mask-2" fill="white">
                    <use xlink:href="#path-1"></use>
                </mask>
                <use id="Mask" fill="#F3F6F8" xlink:href="#path-1"></use>
                <g id="首页-选中" mask="url(#mask-2)" fill="url(#linearGradient-3)">
                    <g transform="translate(6.600000, 7.800000)" id="路径">
                        <path d="M12.905434,0.482277539 C12.1965415,-0.16075918 11.1153468,-0.16075918 10.4064545,0.482277572 L0.301481754,10.0773481 C-0.0776191067,10.425679 -0.102562495,11.0153794 0.245767348,11.3944802 C0.589452435,11.7685253 1.16934045,11.7985451 1.54981285,11.4619931 L1.71049468,11.3094324 L1.71049468,21.3239128 L1.71049468,21.3239121 C1.70921281,22.3535752 2.54288197,23.1893244 3.57254505,23.1906057 C3.57331897,23.1906067 3.57409289,23.1906071 3.57486681,23.1906071 L9.00033093,23.1906071 L9.00033093,17.5777647 L9.00033087,17.5777202 C8.99939425,16.8527274 9.58635742,16.2642439 10.3113528,16.2633081 C10.3121267,16.2633071 10.3129005,16.2633067 10.3136744,16.2633071 L12.8666012,16.2633071 C13.5915965,16.2629861 14.1795799,16.85045 14.1798996,17.5754428 C14.1798999,17.5762166 14.1798996,17.5769905 14.1798985,17.5777644 L14.1798985,23.1906068 L19.7341659,23.1906068 C20.7638316,23.190928 21.5987996,22.3564793 21.5991219,21.3268162 C21.5991222,21.3258489 21.5991217,21.3248816 21.5991205,21.3239143 L21.5991205,11.4318434 C22.0132968,11.8065743 22.6009166,11.7781504 22.9454834,11.3941383 C23.2905246,11.0120417 23.2604868,10.4225785 22.8783897,10.0775347 C22.8783246,10.0774759 22.8782595,10.0774172 22.8781944,10.0773584 L12.9054281,0.48285504 L12.905434,0.482277539 Z"></path>
                    </g>
                </g>
            </g>
        </g>
    </g>
</svg>