<?xml version="1.0" encoding="UTF-8"?>
<svg width="30px" height="30px" viewBox="0 0 30 30" version="1.1" xmlns="http://www.w3.org/2000/svg" xmlns:xlink="http://www.w3.org/1999/xlink">
    <!-- Generator: Sketch 63.1 (92452) - https://sketch.com -->
    <title>icon-旅游@3x</title>
    <desc>Created with Sketch.</desc>
    <defs>
        <linearGradient x1="51.4136421%" y1="26.3052556%" x2="82.2386095%" y2="87.6588168%" id="linearGradient-1">
            <stop stop-color="#6A6AFF" offset="0%"></stop>
            <stop stop-color="#8CA7FE" offset="100%"></stop>
        </linearGradient>
        <filter x="-33.3%" y="-42.1%" width="166.7%" height="184.2%" filterUnits="objectBoundingBox" id="filter-2">
            <feGaussianBlur stdDeviation="2" in="SourceGraphic"></feGaussianBlur>
        </filter>
        <linearGradient x1="56.7235408%" y1="77.0278161%" x2="66.0654305%" y2="2.54470215%" id="linearGradient-3">
            <stop stop-color="#8CA7FE" offset="0%"></stop>
            <stop stop-color="#6A6AFF" offset="100%"></stop>
        </linearGradient>
        <linearGradient x1="22.8391711%" y1="32.9412998%" x2="79.1286191%" y2="66.3055161%" id="linearGradient-4">
            <stop stop-color="#8CA7FE" offset="0%"></stop>
            <stop stop-color="#4D85FF" offset="100%"></stop>
        </linearGradient>
    </defs>
    <g id="门店商品上传、总部审核" stroke="none" stroke-width="1" fill="none" fill-rule="evenodd">
        <g id="PC-总部-产品设置-默认展示系统全部产品" transform="translate(-144.000000, -232.000000)">
            <g id="旅游" transform="translate(144.000000, 232.000000)">
                <g transform="translate(1.500000, 3.000000)">
                    <path d="M10.9845554,9 C6.51143966,16.0072412 4.27488178,19.9070058 4.27488178,20.6992937 C4.27488178,21.8877256 5.93756356,23.25 12.3364282,23.25 C18.7352929,23.25 22.8615497,22.2232111 22.2068048,20.6992937 C21.5520599,19.1753763 14.1701036,15.323393 14.1701036,14.3896251 C14.1701036,13.7671131 14.9092898,13.0343325 16.3876622,12.1912832 L10.9845554,9 Z" id="路径-3" fill-opacity="0.6" fill="url(#linearGradient-1)" filter="url(#filter-2)"></path>
                    <g id="分组-8">
                        <path d="M10.2345554,8.25 C5.76143966,15.2572412 3.52488178,19.1570058 3.52488178,19.9492937 C3.52488178,21.1377256 5.18756356,22.5 11.5864282,22.5 C17.9852929,22.5 22.1115497,21.4732111 21.4568048,19.9492937 C20.8020599,18.4253763 13.4201036,14.573393 13.4201036,13.6396251 C13.4201036,13.0171131 14.1592898,12.2843325 15.6376622,11.4412832 L10.2345554,8.25 Z" id="路径-3" fill="url(#linearGradient-1)"></path>
                        <path d="M9.19592398,9.89266737 L13.5,12.8047473 C10.5999834,17.3605304 10.2540953,20.5922813 12.4623358,22.5 C12.4618221,22.3678881 2.48607506,23.0947223 3.52009439,19.3646561 C4.20944061,16.8779453 6.10138381,13.7206158 9.19592398,9.89266737 Z" id="路径-4" fill="url(#linearGradient-3)"></path>
                        <path d="M16.5,2.5658483 C14.9345844,0.855282767 13.1632796,2.39808173e-14 11.1860857,2.39808173e-14 C8.22029495,2.39808173e-14 4.03418683,1.54456104 5.00096541,2.5658483 C5.96774399,3.58713556 10.135857,3.58713556 8.398665,4.15408446 C6.66147298,4.72103336 4.12226854,4.41613707 2.01190751,6.5699942 C-0.0984535126,8.72385133 0.161109608,10.1597561 2.01190751,10.1597561 C3.86270542,10.1597561 8.11803588,7.28794658 10.135857,8.72385133 C12.1536781,10.1597561 21.3489838,16.2806175 22.399274,15.1854227 C23.4495642,14.090228 22.8093085,11.3058213 20.1738024,8.72385133 C22.709245,7.24049792 24.3636778,10.4020841 26.0248818,8.72385133 C25.7630616,5.79403038 22.588101,3.74136271 16.5,2.5658483 Z" id="路径-2" fill="url(#linearGradient-4)"></path>
                    </g>
                </g>
            </g>
        </g>
    </g>
</svg>