<?xml version="1.0" encoding="UTF-8"?>
<svg width="50px" height="50px" viewBox="0 0 50 50" version="1.1" xmlns="http://www.w3.org/2000/svg" xmlns:xlink="http://www.w3.org/1999/xlink">
    <!-- Generator: Sketch 63.1 (92452) - https://sketch.com -->
    <title>icon-组合@3x</title>
    <desc>Created with Sketch.</desc>
    <defs>
        <linearGradient x1="0%" y1="0%" x2="100%" y2="100%" id="linearGradient-1">
            <stop stop-color="#02CD91" offset="0%"></stop>
            <stop stop-color="#04D943" offset="100%"></stop>
        </linearGradient>
        <filter x="-40.0%" y="-40.0%" width="180.0%" height="180.0%" filterUnits="objectBoundingBox" id="filter-2">
            <feGaussianBlur stdDeviation="2" in="SourceGraphic"></feGaussianBlur>
        </filter>
        <linearGradient x1="22.6766836%" y1="25.1545813%" x2="100%" y2="100%" id="linearGradient-3">
            <stop stop-color="#02CF81" offset="0%"></stop>
            <stop stop-color="#04D558" offset="100%"></stop>
        </linearGradient>
        <filter x="-40.0%" y="-40.0%" width="180.0%" height="180.0%" filterUnits="objectBoundingBox" id="filter-4">
            <feGaussianBlur stdDeviation="2" in="SourceGraphic"></feGaussianBlur>
        </filter>
        <linearGradient x1="26.613605%" y1="28.2883685%" x2="100%" y2="100%" id="linearGradient-5">
            <stop stop-color="#01D081" offset="0%"></stop>
            <stop stop-color="#03D650" offset="100%"></stop>
        </linearGradient>
        <filter x="-40.0%" y="-40.0%" width="180.0%" height="180.0%" filterUnits="objectBoundingBox" id="filter-6">
            <feGaussianBlur stdDeviation="2" in="SourceGraphic"></feGaussianBlur>
        </filter>
        <linearGradient x1="100%" y1="100%" x2="23.7416326%" y2="26.2928339%" id="linearGradient-7">
            <stop stop-color="#05DA40" offset="0%"></stop>
            <stop stop-color="#00BE76" offset="100%"></stop>
        </linearGradient>
        <filter x="-40.0%" y="-40.0%" width="180.0%" height="180.0%" filterUnits="objectBoundingBox" id="filter-8">
            <feGaussianBlur stdDeviation="2" in="SourceGraphic"></feGaussianBlur>
        </filter>
        <linearGradient x1="25.2885444%" y1="24.3641295%" x2="98.0310694%" y2="98.0310694%" id="linearGradient-9">
            <stop stop-color="#01CD93" offset="0%"></stop>
            <stop stop-color="#00E243" offset="100%"></stop>
        </linearGradient>
        <linearGradient x1="100%" y1="100%" x2="25.5099975%" y2="28.0020386%" id="linearGradient-10">
            <stop stop-color="#00E243" offset="0%"></stop>
            <stop stop-color="#01CD92" offset="100%"></stop>
        </linearGradient>
    </defs>
    <g id="门店商品上传、总部审核" stroke="none" stroke-width="1" fill="none" fill-rule="evenodd">
        <g id="PC-总部-产品设置-自定义产品" transform="translate(-534.000000, -537.000000)">
            <g id="编组-5" transform="translate(526.000000, 528.000000)">
                <g id="编组-3备份" transform="translate(0.000000, 9.000000)">
                    <g id="组合" transform="translate(8.000000, 0.000000)">
                        <g transform="translate(6.250000, 6.250000)">
                            <g id="分组-5" transform="translate(1.250000, 1.250000)" fill-opacity="0.6">
                                <path d="M4,2.5 L11,2.5 C13.209139,2.5 15,4.290861 15,6.5 L15,16.5 C15,17.0522847 14.5522847,17.5 14,17.5 L4,17.5 C1.790861,17.5 2.705415e-16,15.709139 0,13.5 L0,6.5 C-2.705415e-16,4.290861 1.790861,2.5 4,2.5 Z" id="矩形" fill="url(#linearGradient-1)" filter="url(#filter-2)"></path>
                                <path d="M4,21.25 L11,21.25 C13.209139,21.25 15,23.040861 15,25.25 L15,35.25 C15,35.8022847 14.5522847,36.25 14,36.25 L4,36.25 C1.790861,36.25 2.705415e-16,34.459139 0,32.25 L0,25.25 C-2.705415e-16,23.040861 1.790861,21.25 4,21.25 Z" id="矩形-copy-2" fill="url(#linearGradient-3)" filter="url(#filter-4)" transform="translate(7.500000, 28.750000) scale(1, -1) translate(-7.500000, -28.750000) "></path>
                                <path d="M22.75,21.25 L29.75,21.25 C31.959139,21.25 33.75,23.040861 33.75,25.25 L33.75,35.25 C33.75,35.8022847 33.3022847,36.25 32.75,36.25 L22.75,36.25 C20.540861,36.25 18.75,34.459139 18.75,32.25 L18.75,25.25 C18.75,23.040861 20.540861,21.25 22.75,21.25 Z" id="矩形-copy-3" fill="url(#linearGradient-5)" filter="url(#filter-6)" transform="translate(26.250000, 28.750000) scale(-1, -1) translate(-26.250000, -28.750000) "></path>
                                <path d="M22.75,3.75 L29.75,3.75 C31.959139,3.75 33.75,5.540861 33.75,7.75 L33.75,17.75 C33.75,18.3022847 33.3022847,18.75 32.75,18.75 L22.75,18.75 C20.540861,18.75 18.75,16.959139 18.75,14.75 L18.75,7.75 C18.75,5.540861 20.540861,3.75 22.75,3.75 Z" id="矩形-copy" fill="url(#linearGradient-7)" filter="url(#filter-8)" transform="translate(26.250000, 11.250000) scale(-1, 1) rotate(-135.000000) translate(-26.250000, -11.250000) "></path>
                            </g>
                            <g>
                                <path d="M4,2.5 L11,2.5 C13.209139,2.5 15,4.290861 15,6.5 L15,16.5 C15,17.0522847 14.5522847,17.5 14,17.5 L4,17.5 C1.790861,17.5 2.705415e-16,15.709139 0,13.5 L0,6.5 C-2.705415e-16,4.290861 1.790861,2.5 4,2.5 Z" id="矩形" fill="url(#linearGradient-9)"></path>
                                <path d="M4,21.25 L11,21.25 C13.209139,21.25 15,23.040861 15,25.25 L15,35.25 C15,35.8022847 14.5522847,36.25 14,36.25 L4,36.25 C1.790861,36.25 2.705415e-16,34.459139 0,32.25 L0,25.25 C-2.705415e-16,23.040861 1.790861,21.25 4,21.25 Z" id="矩形-copy-2" fill="url(#linearGradient-9)" transform="translate(7.500000, 28.750000) scale(1, -1) translate(-7.500000, -28.750000) "></path>
                                <path d="M22.75,21.25 L29.75,21.25 C31.959139,21.25 33.75,23.040861 33.75,25.25 L33.75,35.25 C33.75,35.8022847 33.3022847,36.25 32.75,36.25 L22.75,36.25 C20.540861,36.25 18.75,34.459139 18.75,32.25 L18.75,25.25 C18.75,23.040861 20.540861,21.25 22.75,21.25 Z" id="矩形-copy-3" fill="url(#linearGradient-9)" transform="translate(26.250000, 28.750000) scale(-1, -1) translate(-26.250000, -28.750000) "></path>
                                <path d="M22.75,3.75 L29.75,3.75 C31.959139,3.75 33.75,5.540861 33.75,7.75 L33.75,17.75 C33.75,18.3022847 33.3022847,18.75 32.75,18.75 L22.75,18.75 C20.540861,18.75 18.75,16.959139 18.75,14.75 L18.75,7.75 C18.75,5.540861 20.540861,3.75 22.75,3.75 Z" id="矩形-copy" fill="url(#linearGradient-10)" transform="translate(26.250000, 11.250000) scale(-1, 1) rotate(-135.000000) translate(-26.250000, -11.250000) "></path>
                            </g>
                        </g>
                    </g>
                </g>
            </g>
        </g>
    </g>
</svg>