<?xml version="1.0" encoding="UTF-8"?>
<svg width="50px" height="50px" viewBox="0 0 50 50" version="1.1" xmlns="http://www.w3.org/2000/svg" xmlns:xlink="http://www.w3.org/1999/xlink">
    <!-- Generator: Sketch 63.1 (92452) - https://sketch.com -->
    <title>icon-全部@3x</title>
    <desc>Created with Sketch.</desc>
    <defs>
        <linearGradient x1="50%" y1="0%" x2="50%" y2="98.8145773%" id="linearGradient-1">
            <stop stop-color="#FF4B45" offset="0%"></stop>
            <stop stop-color="#FF734B" offset="100%"></stop>
        </linearGradient>
        <filter x="-15.5%" y="-44.3%" width="131.1%" height="188.6%" filterUnits="objectBoundingBox" id="filter-2">
            <feGaussianBlur stdDeviation="2" in="SourceGraphic"></feGaussianBlur>
        </filter>
        <filter x="-15.5%" y="-44.3%" width="131.1%" height="188.6%" filterUnits="objectBoundingBox" id="filter-3">
            <feGaussianBlur stdDeviation="2" in="SourceGraphic"></feGaussianBlur>
        </filter>
        <linearGradient x1="50%" y1="0%" x2="50%" y2="100%" id="linearGradient-4">
            <stop stop-color="#FE3B43" offset="0%"></stop>
            <stop stop-color="#FE7A4C" offset="100%"></stop>
        </linearGradient>
    </defs>
    <g id="门店商品上传、总部审核" stroke="none" stroke-width="1" fill="none" fill-rule="evenodd">
        <g id="PC-总部-产品设置-自定义产品" transform="translate(-173.000000, -537.000000)">
            <g id="编组-9" transform="translate(166.000000, 528.000000)">
                <g id="编组-6备份" transform="translate(0.000000, 9.000000)">
                    <g id="全部" transform="translate(7.000000, 0.000000)">
                        <g id="分组-35" transform="translate(5.000000, 6.250000)">
                            <path d="M37.7590424,25.1026995 L25.6392812,32.4075704 C22.8409287,34.0859742 18.2670697,34.0859742 15.4687172,32.4075704 L3.34895595,25.1026995 C2.78928545,24.7593897 2.32610986,24.3779343 1.99802715,23.9583333 C0.666397333,25.5795188 1.11027394,27.6012324 3.34895595,28.9363263 L15.4687172,36.2411972 C18.2670697,37.9196009 22.8409287,37.9196009 25.6392812,36.2411972 L37.7590424,28.9363263 C39.9784255,27.6012324 40.4416011,25.560446 39.1099712,23.9583333 C38.7818885,24.3779343 38.3187129,24.7593897 37.7590424,25.1026995 Z" id="路径" fill-opacity="0.6" fill="url(#linearGradient-1)" filter="url(#filter-2)"></path>
                            <path d="M37.7397435,17.8110329 L25.6199822,25.1159038 C22.8216297,26.7943075 18.2477707,26.7943075 15.4494182,25.1159038 L3.34895595,17.8110329 C2.78928545,17.467723 2.32610986,17.0862676 1.99802715,16.6666667 C0.666397333,18.2878521 1.11027394,20.3095657 3.34895595,21.6446596 L15.4687172,28.9495305 C18.2670697,30.6279343 22.8409287,30.6279343 25.6392812,28.9495305 L37.7590424,21.6446596 C39.9784255,20.3095657 40.4416011,18.2687793 39.1099712,16.6666667 C38.7625896,17.0862676 38.299414,17.467723 37.7397435,17.8110329 Z" id="路径" fill-opacity="0.6" fill="url(#linearGradient-1)" filter="url(#filter-3)"></path>
                            <path d="M2.0985103,14.4756631 L14.2168043,21.6758955 C17.014818,23.330257 21.5881232,23.330257 24.3861369,21.6758955 L36.5044309,14.4756631 C39.3024446,12.8213016 39.3024446,10.0953651 36.5044309,8.44100355 L24.3668403,1.24077112 C21.5688265,-0.413590375 16.9955213,-0.413590375 14.1975076,1.24077112 L2.0985103,8.44100355 C-0.699503433,10.0953651 -0.699503433,12.8213016 2.0985103,14.4756631 Z" id="路径" fill="url(#linearGradient-4)"></path>
                            <path d="M36.4897435,16.5610329 L24.3699822,23.8659038 C21.5716297,25.5443075 16.9977707,25.5443075 14.1994182,23.8659038 L2.09895595,16.5610329 C1.53928545,16.217723 1.07610986,15.8362676 0.748027152,15.4166667 C-0.583602667,17.0378521 -0.139726061,19.0595657 2.09895595,20.3946596 L14.2187172,27.6995305 C17.0170697,29.3779343 21.5909287,29.3779343 24.3892812,27.6995305 L36.5090424,20.3946596 C38.7284255,19.0595657 39.1916011,17.0187793 37.8599712,15.4166667 C37.5125896,15.8362676 37.049414,16.217723 36.4897435,16.5610329 Z" id="路径" fill="url(#linearGradient-1)"></path>
                            <path d="M36.5090424,23.8526995 L24.3892812,31.1575704 C21.5909287,32.8359742 17.0170697,32.8359742 14.2187172,31.1575704 L2.09895595,23.8526995 C1.53928545,23.5093897 1.07610986,23.1279343 0.748027152,22.7083333 C-0.583602667,24.3295188 -0.139726061,26.3512324 2.09895595,27.6863263 L14.2187172,34.9911972 C17.0170697,36.6696009 21.5909287,36.6696009 24.3892812,34.9911972 L36.5090424,27.6863263 C38.7284255,26.3512324 39.1916011,24.310446 37.8599712,22.7083333 C37.5318885,23.1279343 37.0687129,23.5093897 36.5090424,23.8526995 Z" id="路径" fill="url(#linearGradient-1)"></path>
                        </g>
                    </g>
                </g>
            </g>
        </g>
    </g>
</svg>