<?xml version="1.0" encoding="UTF-8"?>
<svg width="180px" height="99px" viewBox="0 0 180 99" version="1.1" xmlns="http://www.w3.org/2000/svg" xmlns:xlink="http://www.w3.org/1999/xlink">
    <!-- Generator: Sketch 52.5 (67469) - http://www.bohemiancoding.com/sketch -->
    <title>分组 4</title>
    <desc>Created with Sketch.</desc>
    <g id="Page-1" stroke="none" stroke-width="1" fill="none" fill-rule="evenodd">
        <g id="完善资料" transform="translate(-16.000000, -394.000000)">
            <g id="分组-4" transform="translate(17.000000, 395.000000)">
                <path d="M58.9169073,61.3740264 C51,68 39.6021938,69.7202009 28.3715286,69.1029034 C17.1408633,68.4856059 6.60734456,65 0.577146032,45.842819 C-0.0307385935,39.222689 -0.131989024,34.0280858 0.27339474,30.2590094 C0.636686229,26.881288 3.16432404,16 10,10 C18.4537909,2.57970306 28.3211888,-0.3462693 39.6021938,1.22208293 C50.8645427,1.22208293 62.3841575,12.5706392 68,18.5706392 C70.6506232,21.402581 74.9885228,26.651275 84.0454545,37.4316932 C86.5358596,40.3960093 91.3227534,44.8475374 98.4061358,50.7862775 C102.855568,55.3514047 106.930212,56.180211 110.630067,53.2726965 C116.17985,48.9114247 111.429798,37.4893506 102.501449,38.1029034 C93.5731006,38.7164562 99.880676,55.8210229 107.513962,65.4851721 C115.147247,75.1493214 131.221872,92.2483686 153.05786,93.6840691" id="形状" stroke="#FFFFFF" stroke-width="2" stroke-linecap="round" stroke-dasharray="0,5"></path>
                <path d="M176.648881,93.4542805 C175.503611,93.8007709 163.857829,97.1704566 163.857829,97.1704566 C163.857829,97.1704566 160.633617,98.2496024 158.247858,95.3401407 L160.895468,94.2398352 C161.355692,94.3958881 161.784176,94.3826633 162.352844,94.2001607 L165.362814,93.4542805 L160.847859,86.7678085 C160.847859,86.7678085 159.932701,85.3157226 163.104014,86.0245733 C163.104014,86.0245733 168.840943,90.4178605 169.875125,91.2245748 C169.875125,91.2245748 170.404118,91.5261009 171.38011,91.2245748 L175.895066,89.7381044 C175.895066,89.7381044 178.952645,88.8044317 179.656206,90.4813396 C180.396796,92.2402415 177.791506,93.1077901 176.648881,93.4542805 Z M157.740025,94.8032127 C156.56037,93.4860201 156.335548,92.7110453 156.335548,92.7110453 C156.335548,92.7110453 156.578885,91.1002615 158.591703,92.7110453 C159.178886,93.1818491 159.803097,93.5045348 160.199842,93.7690314 L157.740025,94.8032127 Z" id="形状" fill="#FFFFFF" fill-rule="nonzero" transform="translate(168.061073, 91.597900) rotate(28.000000) translate(-168.061073, -91.597900) "></path>
            </g>
        </g>
    </g>
</svg>