<?xml version="1.0" encoding="UTF-8"?>
<svg width="13px" height="13px" viewBox="0 0 13 13" version="1.1" xmlns="http://www.w3.org/2000/svg" xmlns:xlink="http://www.w3.org/1999/xlink">
    <!-- Generator: Sketch 51.3 (57544) - http://www.bohemiancoding.com/sketch -->
    <title>Group</title>
    <desc>Created with Sketch.</desc>
    <defs></defs>
    <g id="Page-1" stroke="none" stroke-width="1" fill="none" fill-rule="evenodd">
        <g id="登录" transform="translate(-371.000000, -596.000000)" fill="#0899AC" fill-rule="nonzero">
            <g id="Group" transform="translate(371.000000, 596.000000)">
                <path d="M6.5,0 C2.912,0 0,2.912 0,6.5 C0,10.088 2.912,13 6.5,13 C10.088,13 13,10.088 13,6.5 C13,2.912 10.088,0 6.5,0 Z M6.5,12.1355 C3.393,12.1355 0.8645,9.607 0.8645,6.5 C0.8645,3.393 3.393,0.8645 6.5,0.8645 C9.607,0.8645 12.1355,3.393 12.1355,6.5 C12.1355,9.607 9.607,12.1355 6.5,12.1355 Z M6.0645,7.4555 L6.0645,3.835 C6.0645,3.59447999 6.25947999,3.3995 6.5,3.3995 C6.74052001,3.3995 6.9355,3.59447999 6.9355,3.835 L6.9355,7.4555 C6.9355,7.69602001 6.74052001,7.891 6.5,7.891 C6.25947999,7.891 6.0645,7.69602001 6.0645,7.4555 Z M7.0655,9.3145 C7.0655,9.6265 6.812,9.88 6.5,9.88 C6.188,9.88 5.9345,9.6265 5.9345,9.3145 C5.9345,9.0025 6.188,8.749 6.5,8.749 C6.812,8.749 7.0655,9.0025 7.0655,9.3145 Z" id="形状"></path>
            </g>
        </g>
    </g>
</svg>