<?xml version="1.0" encoding="UTF-8"?>
<svg width="431px" height="308px" viewBox="0 0 431 308" version="1.1" xmlns="http://www.w3.org/2000/svg" xmlns:xlink="http://www.w3.org/1999/xlink">
    <!-- Generator: Sketch 52.5 (67469) - http://www.bohemiancoding.com/sketch -->
    <title>分组 9</title>
    <desc>Created with Sketch.</desc>
    <defs>
        <polygon id="path-1" points="21.5 0 40.1195462 10.75 40.1195462 32.25 21.5 43 2.88045382 32.25 2.88045382 10.75"></polygon>
        <filter x="-8.4%" y="-12.8%" width="116.8%" height="130.2%" filterUnits="objectBoundingBox" id="filter-2">
            <feOffset dx="0" dy="1" in="SourceAlpha" result="shadowOffsetOuter1"></feOffset>
            <feGaussianBlur stdDeviation="2" in="shadowOffsetOuter1" result="shadowBlurOuter1"></feGaussianBlur>
            <feColorMatrix values="0 0 0 0 0.960784314   0 0 0 0 0.760784314   0 0 0 0 0.454901961  0 0 0 0.368970788 0" type="matrix" in="shadowBlurOuter1"></feColorMatrix>
        </filter>
        <polygon id="path-3" points="21.5 0 40.1195462 10.75 40.1195462 32.25 21.5 43 2.88045382 32.25 2.88045382 10.75"></polygon>
        <filter x="-8.4%" y="-12.8%" width="116.8%" height="130.2%" filterUnits="objectBoundingBox" id="filter-4">
            <feOffset dx="0" dy="1" in="SourceAlpha" result="shadowOffsetOuter1"></feOffset>
            <feGaussianBlur stdDeviation="2" in="shadowOffsetOuter1" result="shadowBlurOuter1"></feGaussianBlur>
            <feColorMatrix values="0 0 0 0 0.960784314   0 0 0 0 0.760784314   0 0 0 0 0.454901961  0 0 0 0.368970788 0" type="matrix" in="shadowBlurOuter1"></feColorMatrix>
        </filter>
        <polygon id="path-5" points="21.5 0 40.1195462 10.75 40.1195462 32.25 21.5 43 2.88045382 32.25 2.88045382 10.75"></polygon>
        <filter x="-8.4%" y="-12.8%" width="116.8%" height="130.2%" filterUnits="objectBoundingBox" id="filter-6">
            <feOffset dx="0" dy="1" in="SourceAlpha" result="shadowOffsetOuter1"></feOffset>
            <feGaussianBlur stdDeviation="2" in="shadowOffsetOuter1" result="shadowBlurOuter1"></feGaussianBlur>
            <feColorMatrix values="0 0 0 0 0.960784314   0 0 0 0 0.760784314   0 0 0 0 0.454901961  0 0 0 0.368970788 0" type="matrix" in="shadowBlurOuter1"></feColorMatrix>
        </filter>
        <path d="M272.753906,14 L415,14 C423.836556,14 431,21.163444 431,30 L431,296 C431,304.836556 423.836556,312 415,312 L16,312 C7.163444,312 0,304.836556 0,296 L0,30 C0,21.163444 7.163444,14 16,14 L160.676758,14" id="path-7"></path>
        <mask id="mask-8" maskContentUnits="userSpaceOnUse" maskUnits="objectBoundingBox" x="0" y="0" width="431" height="298" fill="white">
            <use xlink:href="#path-7"></use>
        </mask>
    </defs>
    <g id="Page-1" stroke="none" stroke-width="1" fill="none" fill-rule="evenodd">
        <g id="店铺配置-网店设置-联系我们" transform="translate(-297.000000, -242.000000)">
            <g id="分组-6-copy" transform="translate(242.000000, 174.000000)">
                <g id="分组-4">
                    <g id="分组-9" transform="translate(55.000000, 64.000000)">
                        <g id="分组" transform="translate(65.000000, 39.000000)">
                            <text id="联系客服：0755-86967063" font-family="PingFangSC-Medium, PingFang SC" font-size="17" font-weight="400" fill="#333333">
                                <tspan x="55" y="46">联系客服：0755-86967063</tspan>
                            </text>
                            <text id="沟通需求，达成意向" font-family="PingFangSC-Regular, PingFang SC" font-size="12" font-weight="normal" fill="#999999">
                                <tspan x="55" y="65">沟通需求，达成意向</tspan>
                            </text>
                            <text id="01" opacity="0.3" font-family="PingFangSC-Medium, PingFang SC" font-size="24" font-weight="400" fill="#3174F5">
                                <tspan x="55" y="25">01</tspan>
                            </text>
                            <g id="分组-6" transform="translate(0.000000, 13.000000)">
                                <g id="多边形">
                                    <use fill="black" fill-opacity="1" filter="url(#filter-2)" xlink:href="#path-1"></use>
                                    <use fill="#FFFFFF" fill-rule="evenodd" xlink:href="#path-1"></use>
                                </g>
                                <g id="联系客服" transform="translate(13.000000, 13.000000)" fill-rule="nonzero">
                                    <path d="M0.0462460882,17.9534076 L0.0462460882,17.9228383 C0.0462460882,15.2055282 1.43375775,13.0116886 3.95345432,11.7471168 L3.97231148,11.738075 L3.98814855,11.7520337 C5.34625114,12.9901797 7.11617284,13.6720577 8.97360357,13.6720577 C10.8336861,13.6720577 12.6039761,12.9867913 13.9586903,11.7437284 L13.9737908,11.7297697 L13.9926295,11.73883 C16.5470203,13.0060352 17.9537759,15.2025081 17.9537759,17.9228383 L17.9537759,17.9534076 L0.0462460882,17.9534076 Z" id="路径" fill="#3275F5"></path>
                                    <path d="M17.0259812,17.178367 C16.9863886,15.4733037 15.7305088,13.5246072 14.0899354,12.6243617 C12.8136884,13.6886498 10.8461348,14.375813 9.07129621,14.375813 C7.03998916,14.375813 5.46692595,13.8821383 3.97345323,12.7755874 C2.74282065,13.4503019 1.23726756,15.001893 1.00344977,17.1787537 L17.0259997,17.1787537 L17.0259812,17.178367 Z" id="路径" fill="#FFFFFF"></path>
                                    <path d="M8.97362199,12.2253412 C6.18616841,12.2253412 3.9191468,10.0017058 3.9191468,7.26929523 C3.9191468,4.54104652 6.18653672,2.32155454 8.97362199,2.32155454 C11.7550538,2.32155454 14.0186686,4.5406598 14.0186686,7.26929523 C14.0186686,10.0013191 11.7550722,12.2253412 8.97364041,12.2253412 L8.97362199,12.2253412 Z" id="路径" fill="#3275F5"></path>
                                    <path d="M8.96419341,3.18635075 C6.70776054,3.18635075 4.80167685,5.05170002 4.80167685,7.26025337 C4.80167685,9.50690777 6.66890446,11.3337693 8.96419341,11.3337693 C11.2549706,11.3337693 13.1184415,9.50652105 13.1184415,7.26025337 C13.1184415,5.01396727 11.2549706,3.18635075 8.96419341,3.18635075 Z" id="路径" fill="#FFFFFF"></path>
                                    <path d="M14.7424044,9.19197102 L14.7424044,4.5870661 L14.9109955,4.59498464 C13.8414039,2.32834975 11.5166874,0.866532757 8.97360357,0.866532757 C6.42488465,0.866532757 4.0960248,2.32833133 3.02643315,4.59498464 L3.20406617,4.5870661 L3.20406617,9.19197102 L3.17314705,9.19197102 C1.87690112,9.19197102 0.822796657,8.16123544 0.822796657,6.89480372 C0.822796657,6.05829326 1.28365545,5.28551781 2.02512507,4.87745539 C3.04190192,1.99418753 5.83992582,0.0462460882 8.97360357,0.0462460882 C12.1103198,0.0462460882 14.9049553,1.99457425 15.9266306,4.89404749 C16.659795,5.2885379 17.1244289,6.06131336 17.1244289,6.894417 C17.1244289,8.16086714 16.0699377,9.19160271 14.7733235,9.19160271 L14.742386,9.19160271 L14.7424044,9.19197102 Z" id="路径" fill="#FF9F27"></path>
                                </g>
                            </g>
                        </g>
                        <g id="分组-4-copy-3" transform="translate(163.000000, 128.000000)">
                            <g id="分组-5">
                                <text id="02" opacity="0.3" font-family="PingFangSC-Medium, PingFang SC" font-size="24" font-weight="400" fill="#3174F5">
                                    <tspan x="115" y="25">02</tspan>
                                </text>
                                <text id="确定内容" font-family="PingFangSC-Medium, PingFang SC" font-size="17" font-weight="400" fill="#333333">
                                    <tspan x="76" y="45">确定内容</tspan>
                                </text>
                                <text id="二维码内容确认，支付费用" font-family="PingFangSC-Regular, PingFang SC" font-size="12" font-weight="normal" fill="#999999">
                                    <tspan x="0" y="63">二维码内容确认，支付费用</tspan>
                                </text>
                            </g>
                            <g id="02" transform="translate(156.000000, 12.000000)">
                                <g id="分组-2">
                                    <g id="多边形">
                                        <use fill="black" fill-opacity="1" filter="url(#filter-4)" xlink:href="#path-3"></use>
                                        <use fill="#FFFFFF" fill-rule="evenodd" xlink:href="#path-3"></use>
                                    </g>
                                    <g id="合同" transform="translate(15.000000, 12.000000)" fill-rule="nonzero">
                                        <path d="M11.2766651,0 L1.52684122,0 C0.627919467,0 0.0286400589,0.58776045 0.0286400589,1.4866822 L0.0286400589,16.307344 C0.0286400589,17.194745 0.627921225,17.7940262 1.52684122,17.7940262 L13.512447,17.7940262 C14.4113687,17.7940262 15.0106481,17.2062657 15.0106481,16.307344 L15.0106481,3.71093283 L11.2766633,1.05468873e-05 L11.2766651,0 Z" id="路径" fill="#3275F5"></path>
                                        <path d="M14.00801,15.7080593 C14.00801,16.2843008 13.5700699,16.8605265 12.8555288,16.8605265 L2.04544397,16.8605265 C1.46920248,16.8605265 1.03127814,16.4225863 1.03127814,15.7080751 L1.03127814,1.87850433 C1.03127814,1.30227866 1.46920424,0.726052993 2.04542991,0.726052993 L10.4007971,0.726052993 L10.4007971,3.03095216 C10.4007971,3.89531352 10.9770227,4.47155325 11.8413683,4.47155325 L14.0079977,4.47155325 L14.0079977,15.7080663 L14.00801,15.7080593 Z" id="路径" fill="#FFFFFF"></path>
                                        <path d="M12.1288008,3.86074082 C11.6512008,3.86074082 11.173629,3.40402017 11.173629,2.81234507 L11.173629,1.10999309 L14.0079819,3.79846497 L12.1287727,3.86074504 L12.1288008,3.86074082 Z" id="路径" fill="#FFFFFF"></path>
                                        <path d="M3.54511114,6.11875907 C3.39179596,6.11875907 3.09695632,5.91916802 3.09695632,5.74620434 C3.09695632,5.37363379 3.2502715,5.02267909 3.54511114,5.02267909 L11.5056731,5.02267909 C11.8004991,5.02267909 11.9538139,5.37363379 11.9538139,5.74620434 C11.8005137,5.94577957 11.6471842,6.11875907 11.5056731,6.11875907 L3.54511114,6.11875907 Z" id="路径" fill="#FF9F27"></path>
                                        <path d="M7.37795545,9.84922826 L3.54511114,9.84922826 C3.25027115,9.84922826 3.09695632,9.47665771 3.09695632,9.27708247 C3.09695632,8.90451192 3.2502715,8.74828616 3.54511114,8.74828616 L7.37795545,8.74828616 C7.53127063,8.74828616 7.67279544,8.9045114 7.67279544,9.27708247 C7.67279544,9.47665771 7.51948026,9.84922826 7.37795545,9.84922826 Z" id="路径" fill="#FF9F27"></path>
                                        <path d="M3.54511114,13.7911625 C3.25027115,13.7911625 3.09695632,13.5915715 3.09695632,13.2190167 C3.09695632,12.8464462 3.2502715,12.646871 3.54511114,12.646871 L7.37795545,12.646871 C7.67279544,12.646871 7.82611027,12.8464462 7.82611027,13.2190167 C7.66100507,13.5915715 7.51948061,13.7911625 7.37795545,13.7911625 L3.54511114,13.7911625 Z" id="路径" fill="#FF9F27"></path>
                                        <path d="M10.9424342,9.80746258 C9.83607803,9.80746258 9.09850432,10.729424 9.09850432,11.65141 C9.09850432,12.2161009 9.29441979,12.5733715 9.66320928,12.942161 L9.66320928,14.7860908 C9.66320928,14.9820063 9.85912474,15.1548821 10.0320005,14.9820063 L10.953976,13.8756343 L11.8644167,14.9820063 C12.0603322,15.1779218 12.233208,14.9820063 12.233208,14.7860908 L12.233208,12.9306121 C12.4176027,12.7346967 12.786394,12.1930454 12.786394,11.6513802 C12.786394,10.545024 11.8644185,9.8074327 10.9424465,9.8074327 L10.9424342,9.80746258 Z" id="路径" fill="#3275F5"></path>
                                        <path d="M12.149935,11.6398612 C12.149935,12.2955418 11.6211686,12.8243223 10.9654879,12.8243223 C10.3098073,12.8243223 9.78104086,12.2955418 9.78104086,11.6398612 C9.78104086,10.9841946 10.3098073,10.4554141 10.9654879,10.4554141 C11.6211686,10.4448391 12.149935,10.9841946 12.149935,11.6398612 Z" id="路径" fill="#FFFFFF"></path>
                                    </g>
                                </g>
                            </g>
                        </g>
                        <g id="分组-7" transform="translate(72.000000, 215.000000)">
                            <g id="03" transform="translate(0.000000, 13.000000)">
                                <g id="分组-3">
                                    <g id="多边形">
                                        <use fill="black" fill-opacity="1" filter="url(#filter-6)" xlink:href="#path-5"></use>
                                        <use fill="#FFFFFF" fill-rule="evenodd" xlink:href="#path-5"></use>
                                    </g>
                                </g>
                                <g id="物流" transform="translate(14.000000, 13.000000)">
                                    <path d="M5.57705504,8.81699085 L3.23995408,8.81699085 C2.9164017,8.81699085 2.65567701,8.55626434 2.65567701,8.23271378 C2.65567701,7.90916141 2.91640352,7.64843672 3.23995408,7.64843672 L4.9927871,7.64843674 L4.9927871,5.89560371 C4.9927871,5.57205133 5.25351362,5.31132664 5.57706417,5.31132664 C5.90061655,5.31132664 6.16134123,5.57205316 6.16134123,5.89560371 L6.16134123,8.23270467 C6.16134122,8.55625705 5.90061472,8.81698174 5.57706417,8.81698174 L5.57705504,8.81699085 Z" id="路径" fill="#3275F5"></path>
                                    <path d="M11.9726999,10.4787361 C10.8418398,10.4787361 9.89632178,11.2703387 9.648163,12.3258016 L7.3864465,12.3258016 C7.13828589,11.2671904 6.19276056,10.4787361 5.06190961,10.4787361 C3.74257377,10.4787361 2.66825204,11.5530524 2.66825204,12.8723937 C2.66825204,14.1948706 3.74256829,15.2691923 5.06190961,15.2691923 C6.16449869,15.2691923 7.08489039,14.5152856 7.36131834,13.4975113 L9.67015013,13.4975113 C9.94658174,14.5152856 10.8669771,15.2691923 11.9726999,15.2691923 C13.2920357,15.2691923 14.3663575,14.1948761 14.3663575,12.8755347 C14.3663575,11.5561989 13.2920412,10.4787361 11.9726999,10.4787361 Z M5.06189135,14.0974825 C4.38651742,14.0974825 3.83679339,13.5477585 3.83679339,12.8692436 C3.83679339,12.1938696 4.38651742,11.6441456 5.06189135,11.6441456 C5.73726528,11.6441456 6.28698931,12.1938696 6.28698931,12.8692436 C6.28698931,13.5477585 5.73726528,14.0974825 5.06189135,14.0974825 Z M11.9726999,14.0943413 C11.297326,14.0943413 10.7476019,13.5446172 10.7476019,12.8692433 C10.7476019,12.1938694 11.297326,11.6441454 11.9726999,11.6441454 C12.6480738,11.6441454 13.1977978,12.1938694 13.1977978,12.8692433 C13.1977978,13.5446172 12.6480738,14.0943413 11.9726999,14.0943413 Z" id="形状" fill="#FF9F27" fill-rule="nonzero"></path>
                                    <path d="M14.9286364,0.052833026 L6.45033144,0.052833026 C5.64616477,0.052833026 4.9927798,0.706217995 4.9927798,1.51038467 L4.9927798,3.20039184 L1.4399948,4.98463688 C1.41486464,4.99720198 1.38973429,5.01290843 1.36774552,5.0286148 C0.708076682,5.49352401 0.343689227,6.21601688 0.343689227,7.06415965 L0.343689227,12.9446225 C0.343689227,13.2681749 0.604415741,13.5288996 0.927966294,13.5288996 C1.25151867,13.5288996 1.51224336,13.2681731 1.51224336,12.9446225 L1.51224334,7.06415965 C1.51224334,6.60867533 1.67873106,6.25056809 2.00542354,6.0055485 L5.84091854,4.08308034 C5.8660487,4.07051524 5.88489646,4.04538501 5.90688542,4.02967863 C5.94143955,4.00454847 5.9759935,3.98255951 6.00426505,3.95428796 C6.02939521,3.92601641 6.04824297,3.89460366 6.06709055,3.86319091 C6.08593813,3.83177816 6.10792709,3.80350662 6.12049226,3.76581128 C6.13619865,3.72497474 6.13933984,3.68413802 6.14562242,3.64330149 C6.1487637,3.61502994 6.16132882,3.58989977 6.16132882,3.56162823 L6.16132882,1.51037828 C6.16132882,1.35331435 6.2901212,1.22138077 6.45032633,1.22138077 L14.9286313,1.22138077 C15.2490408,1.22138077 15.5129084,1.48838932 15.5129084,1.81508272 L15.5129084,12.9069349 C15.5129084,13.2304873 15.7736349,13.4912119 16.0971854,13.4912119 C16.4207378,13.4912119 16.6814625,13.2304854 16.6814625,12.9069349 L16.6814625,1.81508272 C16.6814625,0.844427409 15.8930028,0.0528266344 14.9286295,0.0528266344 L14.9286364,0.052833026 Z" id="路径" fill="#3275F5"></path>
                                </g>
                            </g>
                            <g id="分组-8" transform="translate(55.000000, 0.000000)">
                                <text id="03" opacity="0.3" font-family="PingFangSC-Medium, PingFang SC" font-size="24" font-weight="400" fill="#3174F5">
                                    <tspan x="0" y="25">03</tspan>
                                </text>
                                <text id="送货上门" font-family="PingFangSC-Medium, PingFang SC" font-size="17" font-weight="400" fill="#333333">
                                    <tspan x="0" y="46">送货上门</tspan>
                                </text>
                                <text id="物流送货，放心使用" font-family="PingFangSC-Regular, PingFang SC" font-size="12" font-weight="normal" fill="#999999">
                                    <tspan x="0" y="65">物流送货，放心使用</tspan>
                                </text>
                            </g>
                        </g>
                        <text id="定制流程" font-family="PingFangSC-Regular, PingFang SC" font-size="18" font-weight="normal" fill="#3275F5">
                            <tspan x="179" y="19">定制流程</tspan>
                        </text>
                        <use id="路径" stroke="#3275F5" mask="url(#mask-8)" stroke-width="2" stroke-dasharray="2,2" xlink:href="#path-7"></use>
                    </g>
                </g>
            </g>
        </g>
    </g>
</svg>