<?xml version="1.0" encoding="UTF-8"?>
<svg width="91px" height="22px" viewBox="0 0 91 22" version="1.1" xmlns="http://www.w3.org/2000/svg" xmlns:xlink="http://www.w3.org/1999/xlink">
    <!-- Generator: Sketch 52.5 (67469) - http://www.bohemiancoding.com/sketch -->
    <title>logo-2-02</title>
    <desc>Created with Sketch.</desc>
    <g id="Page-1" stroke="none" stroke-width="1" fill="none" fill-rule="evenodd">
        <g id="今日会员-copy-2" transform="translate(-9.000000, -49.000000)" fill="#FFFFFF">
            <g id="logo-2-02" transform="translate(9.000000, 49.000000)">
                <path d="M4.96300157,5.83145907 L13.7840235,5.83144482 L13.7840235,7.38133742 C13.7840235,7.79239071 13.6207332,8.18660833 13.3300746,8.4772669 C13.039416,8.76792548 12.6451984,8.93121576 12.2341451,8.93121576 L3.40648089,8.93121576 L3.40648089,7.38133742 C3.4064771,6.96913067 3.57067887,6.57390307 3.86277564,6.28305281 C4.15487241,5.99220254 4.55079861,5.82969247 4.96300157,5.83145907 Z" id="路径" transform="translate(8.595252, 7.381330) rotate(-45.000000) translate(-8.595252, -7.381330) "></path>
                <path d="M8.58360412,9.44931795 L17.404626,9.4493037 L17.404626,10.9991963 C17.404626,11.8551705 16.7107218,12.5490746 15.8547477,12.5490746 L7.02708344,12.5490746 L7.02708344,10.9991963 C7.02707965,10.5869896 7.19128143,10.191762 7.48337819,9.90091169 C7.77547496,9.61006142 8.17140116,9.44755135 8.58360412,9.44931795 Z" id="路径" transform="translate(12.215855, 10.999189) rotate(-45.000000) translate(-12.215855, -10.999189) "></path>
                <path d="M13.2625016,15.6473382 L13.2625016,15.6473382 C14.1221442,15.6473382 14.8190223,16.3442162 14.8190223,17.2038589 L14.8190223,17.2038589 C14.8190223,18.0635015 14.1221442,18.7603796 13.2625016,18.7603796 L13.2625016,18.7603796 C12.4028589,18.7603796 11.7059809,18.0635015 11.7059809,17.2038589 L11.7059809,17.2038589 C11.7059809,16.3442162 12.4028589,15.6473382 13.2625016,15.6473382 Z" id="矩形" transform="translate(13.262502, 17.203859) rotate(-45.000000) translate(-13.262502, -17.203859) "></path>
                <path d="M12.6514355,18.377129 C12.8133081,18.5391833 13.0070762,18.6658488 13.2204623,18.7490998 C13.8607921,18.7734676 14.4500948,18.4012645 14.703226,17.8125874 C14.9563571,17.2239104 14.821117,16.5401538 14.362944,16.0921655 C14.061343,15.7890342 13.6479033,15.6239788 13.2204623,15.6360584 C12.6956469,15.8430769 12.3104239,16.3005409 12.195751,16.8529339 C12.0810781,17.4053268 12.2523851,17.9783224 12.6514355,18.377129 Z" id="路径"></path>
                <path d="M5.8496837,11.9717032 L6.03345499,12.1554745 L12.2706083,5.91832117 C12.5647026,5.6272201 12.730177,5.23060152 12.730177,4.81680049 C12.730177,4.40299946 12.5647026,4.00638088 12.2706083,3.71527981 L11.1635523,2.60822384 L5.96260341,7.82245742 C5.57581669,9.17391032 5.53697332,10.6012138 5.8496837,11.9717032 Z" id="路径"></path>
                <path d="M9.46975669,15.5917762 L9.65352798,15.7755474 L15.8906813,9.53618005 C16.1840928,9.24516466 16.3491327,8.84902217 16.3491327,8.43576642 C16.3491327,8.02251068 16.1840928,7.62636819 15.8906813,7.3353528 L14.7836253,6.22829684 L9.5826764,11.4425304 C9.19588968,12.7939833 9.15704631,14.2212868 9.46975669,15.5917762 Z" id="路径"></path>
                <path d="M0.624379562,5.16995134 C0.37003295,5.16995134 0.163844282,4.96376267 0.163844282,4.70941606 L0.163844282,2.8783455 C0.165065179,1.3931249 1.36876967,0.189420411 2.85399027,0.188199513 L4.67841849,0.188199513 C4.92099112,0.205008788 5.10917799,0.406687512 5.10917799,0.649841849 C5.10917799,0.892996186 4.92099112,1.09467491 4.67841849,1.11148418 L2.85399027,1.11148418 C1.87573407,1.11148418 1.08270073,1.90451752 1.08270073,2.88277372 L1.08270073,4.70720195 C1.08271235,4.96105199 0.878217983,5.16752215 0.624379562,5.16995134 Z" id="路径"></path>
                <path d="M0.624379562,5.16995134 C0.879086821,5.16995425 1.08591026,4.9641204 1.08712895,4.70941606 L1.08712895,2.8783455 C1.08736157,2.6503587 1.13250316,2.42465075 1.21997567,2.21411192 C0.544856796,2.84950149 0.162599553,3.73582541 0.163844282,4.66291971 C0.163844282,4.69391727 0.163844282,4.72491484 0.163844282,4.7536983 C0.186727673,4.99060953 0.386368293,5.17105393 0.624379562,5.16995134 Z" id="路径"></path>
                <path d="M20.5159611,5.16995134 C20.6381026,5.16995134 20.7552416,5.1214308 20.8416087,5.03506368 C20.9279758,4.94869656 20.9764964,4.83155761 20.9764964,4.70941606 L20.9764964,2.8783455 C20.9752755,1.3931249 19.771571,0.189420411 18.2863504,0.188199513 L16.4619221,0.188199513 C16.2193495,0.205008788 16.0311626,0.406687512 16.0311626,0.649841849 C16.0311626,0.892996186 16.2193495,1.09467491 16.4619221,1.11148418 L18.2863504,1.11148418 C19.2646066,1.11148418 20.0576399,1.90451752 20.0576399,2.88277372 L20.0576399,4.70720195 C20.0576283,4.96105199 20.2621226,5.16752215 20.5159611,5.16995134 Z" id="路径"></path>
                <path d="M20.5159611,5.16995134 C20.2612538,5.16995425 20.0544304,4.9641204 20.0532117,4.70941606 L20.0532117,2.8783455 C20.0529791,2.6503587 20.0078375,2.42465075 19.920365,2.21411192 C20.5954838,2.84950149 20.9777411,3.73582541 20.9764964,4.66291971 C20.9764964,4.69391727 20.9764964,4.72491484 20.9764964,4.7536983 C20.953613,4.99060953 20.7539723,5.17105393 20.5159611,5.16995134 Z" id="路径"></path>
                <path d="M20.5159611,16.0323844 C20.6381026,16.0323844 20.7552416,16.080905 20.8416087,16.1672721 C20.9279758,16.2536392 20.9764964,16.3707782 20.9764964,16.4929197 L20.9764964,18.3173479 C20.9752755,19.8025685 19.771571,21.006273 18.2863504,21.0074939 L16.4619221,21.0074939 C16.2193495,20.9906846 16.0311626,20.7890059 16.0311626,20.5458516 C16.0311626,20.3026972 16.2193495,20.1010185 16.4619221,20.0842092 L18.2863504,20.0842092 C19.2646066,20.0842092 20.0576399,19.2911759 20.0576399,18.3129197 L20.0576399,16.4884915 C20.0612356,16.2372341 20.2646892,16.0347633 20.5159611,16.0323844 Z" id="路径"></path>
                <path d="M20.5159611,16.0323844 C20.2612538,16.0323815 20.0544304,16.2382154 20.0532117,16.4929197 L20.0532117,18.3173479 C20.0528062,18.5453175 20.0076713,18.7709921 19.920365,18.9815815 C20.5950417,18.3458821 20.9772123,17.4597592 20.9764964,16.5327737 C20.9764964,16.5017762 20.9764964,16.4707786 20.9764964,16.439781 C20.94939,16.2063828 20.7509228,16.0308157 20.5159611,16.0323844 Z" id="路径"></path>
                <path d="M0.624379562,16.0323844 C0.37003295,16.0323844 0.163844282,16.2385731 0.163844282,16.4929197 L0.163844282,18.3173479 C0.165065179,19.8025685 1.36876967,21.006273 2.85399027,21.0074939 L4.67841849,21.0074939 C4.92099112,20.9906846 5.10917799,20.7890059 5.10917799,20.5458516 C5.10917799,20.3026972 4.92099112,20.1010185 4.67841849,20.0842092 L2.85399027,20.0842092 C1.87573407,20.0842092 1.08270073,19.2911759 1.08270073,18.3129197 L1.08270073,16.4884915 C1.07910506,16.2372341 0.875651401,16.0347633 0.624379562,16.0323844 Z" id="路径"></path>
                <path d="M0.624379562,16.0323844 C0.879086821,16.0323815 1.08591026,16.2382154 1.08712895,16.4929197 L1.08712895,18.3173479 C1.08753442,18.5453175 1.13266934,18.7709921 1.21997567,18.9815815 C0.545298887,18.3458821 0.163128319,17.4597592 0.163844282,16.5327737 C0.163844282,16.5017762 0.163844282,16.4707786 0.163844282,16.439781 C0.190950622,16.2063828 0.389417804,16.0308157 0.624379562,16.0323844 Z" id="路径"></path>
                <path d="M50.0987105,7.45712895 L56.5772019,7.45712895 L56.5772019,6.28586375 L50.0987105,6.28586375 C50.0987105,5.47757956 49.4434667,4.82233577 48.6351825,4.82233577 L47.7495377,4.82233577 L47.7495377,9.79965937 L44.7250608,9.79965937 L44.7250608,10.9709246 L47.7628224,10.9709246 L47.7628224,17.2412895 L50.1053528,17.2412895 L50.1053528,10.9709246 L58.6341119,10.9709246 L58.6341119,9.79965937 L50.0987105,9.79965937 L50.0987105,7.45712895 Z" id="路径"></path>
                <path d="M53.0257664,11.849927 L55.1778832,16.8006813 C55.2915007,17.0672725 55.5523336,17.2411611 55.8421168,17.2435036 L56.5329197,17.2435036 L54.1903893,11.8521411 L53.0257664,11.849927 Z" id="路径"></path>
                <path d="M90.3977616,6.28586375 L90.3977616,7.45712895 L86.0647445,7.45712895 L90.8361557,17.270073 L89.1379319,17.250146 C88.5835348,17.2443784 88.08015,16.9253679 87.8382482,16.4264964 L83.4720195,7.45712895 L81.6121655,7.45712895 L81.6121655,6.28586375 L82.909635,6.28586375 L82.1989051,4.82233577 L84.7827737,4.82233577 L85.4935036,6.28586375 L90.3977616,6.28586375 Z" id="路径"></path>
                <path d="M78.793601,5.49099757 L76.4887105,6.28586375 L76.4887105,7.45712895 L78.3906326,6.87038929 L78.3906326,17.2767153 L80.733163,17.2767153 L80.733163,6.87481752 C80.7331224,6.40193496 80.5045988,5.9582118 80.11965,5.68356227 C79.7347013,5.40891275 79.2407696,5.33718554 78.793601,5.49099757 Z" id="路径"></path>
                <path d="M72.0959124,4.82233577 L71.2102676,4.82233577 L71.2102676,6.28586375 L67.556983,6.28586375 L67.556983,7.45712895 L71.21691,7.45712895 L71.21691,17.2412895 L73.5594404,17.2412895 L73.5594404,7.45712895 L74.4450852,7.45712895 L74.4450852,6.28586375 L73.5594404,6.28586375 C73.5594404,5.47757956 72.9041966,4.82233577 72.0959124,4.82233577 Z" id="路径"></path>
                <path d="M67.556983,9.50739659 L69.7090998,14.4581509 C69.8227172,14.724742 70.0835501,14.8986307 70.3733333,14.9009732 L71.0729927,14.9009732 L68.7304623,9.50961071 L67.556983,9.50739659 Z" id="路径"></path>
                <path d="M65.3605839,4.82233577 L60.6666667,4.82233577 L60.6666667,17.2412895 L66.8174696,17.2412895 L66.8174696,6.28586375 C66.8174779,5.48016647 66.1662729,4.82599249 65.3605839,4.82233577 Z M64.4749392,5.99360097 L64.4749392,10.5303163 L63.0091971,10.5303163 L63.0091971,5.99360097 L64.4749392,5.99360097 Z M63.0091971,16.0700243 L63.0091971,11.7015815 L64.4749392,11.7015815 L64.4749392,16.0700243 L63.0091971,16.0700243 Z" id="形状" fill-rule="nonzero"></path>
                <polygon id="路径" points="32.859635 9.79965937 28.9052311 9.79965937 28.9052311 10.9709246 32.859635 10.9709246 32.859635 11.9960584 28.9052311 11.9960584 28.9052311 13.1673236 32.859635 13.1673236 32.859635 14.776983 28.9052311 14.776983 28.9052311 15.9482482 32.859635 15.9482482 32.859635 17.2412895 35.2021655 17.2412895 35.2021655 8.77452555 32.859635 8.77452555"></polygon>
                <polygon id="路径" points="38.5698297 8.77452555 36.2272993 8.77452555 36.2272993 17.2412895 38.5698297 17.2412895 38.5698297 15.9482482 42.6681509 15.9482482 42.6681509 14.776983 38.5698297 14.776983 38.5698297 13.1673236 42.6681509 13.1673236 42.6681509 11.9960584 38.5698297 11.9960584 38.5698297 10.9709246 42.6681509 10.9709246 42.6681509 9.79965937 38.5698297 9.79965937"></polygon>
                <path d="M40.3256204,6.28586375 C40.3256204,5.47757956 39.6703766,4.82233577 38.8620925,4.82233577 L37.9764477,4.82233577 L37.9764477,6.28586375 L33.4375182,6.28586375 C33.4375182,5.89771199 33.2833256,5.52545792 33.0088608,5.25099319 C32.7343961,4.97652845 32.362142,4.82233577 31.9739903,4.82233577 L31.0883455,4.82233577 L31.0883455,6.28586375 L28.8919465,6.28586375 L28.8919465,7.45712895 L31.0883455,7.45712895 L31.0883455,8.19221411 L33.4308759,8.19221411 L33.4308759,7.46155718 L37.9698054,7.46155718 L37.9698054,8.19221411 L40.3123358,8.19221411 L40.3123358,7.46155718 L42.6548662,7.46155718 L42.6548662,6.29029197 L40.3256204,6.28586375 Z" id="路径"></path>
                <rect id="矩形" x="87.6212652" y="2.82963504" width="2.65693431" height="2.65693431" rx="1.32846715"></rect>
            </g>
        </g>
    </g>
</svg>