<?xml version="1.0" encoding="UTF-8"?>
<svg width="71px" height="71px" viewBox="0 0 71 71" version="1.1" xmlns="http://www.w3.org/2000/svg" xmlns:xlink="http://www.w3.org/1999/xlink">
    <!-- Generator: Sketch 52.5 (67469) - http://www.bohemiancoding.com/sketch -->
    <title>Group</title>
    <desc>Created with Sketch.</desc>
    <g id="Page-1" stroke="none" stroke-width="1" fill="none" fill-rule="evenodd">
        <g id="完善注册信息" transform="translate(-477.000000, -113.000000)">
            <g id="Group" transform="translate(478.000000, 114.000000)">
                <circle id="椭圆形-copy-10" stroke="#0899AC" fill="#FFFFFF" cx="34.5" cy="34.5" r="34.5"></circle>
                <path d="M37.7581467,39.3982782 L37.7581467,46.0382782 L50.1581467,46.0382782 L50.1581467,39.3982782 L37.7581467,39.3982782 Z" id="矩形" stroke="#3275F5" stroke-width="2" transform="translate(43.958147, 42.718278) rotate(-47.000000) translate(-43.958147, -42.718278) "></path>
                <path d="M37.85823,41.0408391 L34.2222479,44.3378564 L37.8619056,47.6808391 L50.8723525,47.6808391 L50.8723525,41.0408391 L37.85823,41.0408391 Z" id="矩形" stroke="#3275F5" stroke-width="2" transform="translate(42.426434, 44.360839) rotate(-47.000000) translate(-42.426434, -44.360839) "></path>
                <path d="M47.5942896,33.4916594 L47.5942896,40.1316594 L51.3542896,40.1316594 L51.3542896,33.4916594 L47.5942896,33.4916594 Z" id="矩形-copy" stroke="#3275F5" stroke-width="2" transform="translate(49.474290, 36.811659) rotate(-47.000000) translate(-49.474290, -36.811659) "></path>
                <path d="M33.9613123,52 L24.2727273,52 C21.3606804,52 19,49.5375661 19,46.5 L19,24.5 C19,21.4624339 21.3606804,19 24.2727273,19 L42.7272727,19 C45.6393196,19 48,21.4624339 48,24.5 L48,30.9057288" id="路径" stroke="#0899AC" stroke-width="2" stroke-linecap="round" stroke-linejoin="round"></path>
                <path d="M23.7272727,26.8701239 L38.2784824,26.8701239" id="直线-10" stroke="#0899AC" stroke-width="2" stroke-linecap="round" stroke-linejoin="round"></path>
                <path d="M23.7272727,33.8701239 L38.2784824,33.8701239" id="直线-10-copy" stroke="#0899AC" stroke-width="2" stroke-linecap="round" stroke-linejoin="round"></path>
                <path d="M23.75,40.8701239 L30.704469,40.8701239" id="直线-10-copy-2" stroke="#0899AC" stroke-width="2" stroke-linecap="round" stroke-linejoin="round"></path>
            </g>
        </g>
    </g>
</svg>