<?xml version="1.0" encoding="UTF-8"?>
<svg width="26px" height="26px" viewBox="0 0 26 26" version="1.1" xmlns="http://www.w3.org/2000/svg" xmlns:xlink="http://www.w3.org/1999/xlink">
    <!-- Generator: Sketch 52.5 (67469) - http://www.bohemiancoding.com/sketch -->
    <title>Group 2</title>
    <desc>Created with Sketch.</desc>
    <g id="Page-1" stroke="none" stroke-width="1" fill="none" fill-rule="evenodd">
        <g id="注册账号" transform="translate(-500.000000, -134.000000)" stroke="#FFFFFF">
            <g id="Group-2" transform="translate(501.000000, 135.000000)">
                <path d="M13.3551034,14.457464 L13.3551034,18.9678988 L21.8724947,18.9678988 L21.8724947,14.457464 L13.3551034,14.457464 Z" id="矩形" stroke-width="1.5" transform="translate(17.613799, 16.712681) rotate(-47.000000) translate(-17.613799, -16.712681) "></path>
                <path d="M13.4605575,15.5732126 L10.9908298,17.8126996 L13.4633142,20.0836474 L22.4385407,20.0836474 L22.4385407,15.5732126 L13.4605575,15.5732126 Z" id="矩形" stroke-width="1.5" transform="translate(16.654251, 17.828430) rotate(-47.000000) translate(-16.654251, -17.828430) "></path>
                <path d="M20.3107675,10.2595872 L20.3107675,14.770022 L22.567724,14.770022 C22.7057952,14.770022 22.817724,14.6580932 22.817724,14.520022 L22.817724,10.5095872 C22.817724,10.371516 22.7057952,10.2595872 22.567724,10.2595872 L20.3107675,10.2595872 Z" id="矩形-copy" stroke-width="1.5" transform="translate(21.564246, 12.514805) rotate(-47.000000) translate(-21.564246, -12.514805) "></path>
                <path d="M10.336091,23.04 L3.64268775,23.04 C1.63088686,23.04 0,21.3207734 0,19.2 L0,3.84 C0,1.71922656 1.63088686,0 3.64268775,0 L16.3920949,0 C18.4038958,0 20.0347826,1.71922656 20.0347826,3.84 L20.0347826,7.31236339" id="路径" stroke-width="2" stroke-linecap="round" stroke-linejoin="round"></path>
                <path d="M3.50086957,5.64022185 L13.5222244,5.64022185" id="直线-10" stroke-width="2" stroke-linecap="round" stroke-linejoin="round"></path>
                <path d="M3.50086957,10.2489175 L13.5222244,10.2489175" id="直线-10-copy" stroke-width="2" stroke-linecap="round" stroke-linejoin="round"></path>
                <path d="M3.50086957,15.3793523 L8.14524537,15.3793523" id="直线-10-copy-2" stroke-width="2" stroke-linecap="round" stroke-linejoin="round"></path>
            </g>
        </g>
    </g>
</svg>