<?xml version="1.0" encoding="UTF-8"?>
<svg width="46px" height="46px" viewBox="0 0 46 46" version="1.1" xmlns="http://www.w3.org/2000/svg" xmlns:xlink="http://www.w3.org/1999/xlink">
    <!-- Generator: Sketch 52.5 (67469) - http://www.bohemiancoding.com/sketch -->
    <title>分组 7 copy 8</title>
    <desc>Created with Sketch.</desc>
    <defs>
        <linearGradient x1="42.3082443%" y1="36.9063088%" x2="92.4633897%" y2="100%" id="linearGradient-1">
            <stop stop-color="#13C9D6" offset="0%"></stop>
            <stop stop-color="#0899AC" offset="100%"></stop>
        </linearGradient>
    </defs>
    <g id="Page-1" stroke="none" stroke-width="1" fill="none" fill-rule="evenodd">
        <g id="（非）直营产品-待审核" transform="translate(-384.000000, -149.000000)">
            <g id="分组-7-copy-8" transform="translate(384.000000, 149.000000)">
                <g id="分组-7-copy-7">
                    <g id="分组-2-copy-3">
                        <circle id="椭圆形-copy-25" fill-opacity="0.25" fill="#0899AC" transform="translate(23.000000, 23.000000) rotate(-360.000000) translate(-23.000000, -23.000000) " cx="23" cy="23" r="23"></circle>
                        <circle id="椭圆形-copy-26" fill="url(#linearGradient-1)" cx="23" cy="23" r="19"></circle>
                    </g>
                    <g id="支付订单" transform="translate(11.000000, 11.000000)" stroke="#FFFFFF" stroke-width="1.5">
                        <g id="分组-2" transform="translate(3.000000, 5.000000)">
                            <rect id="矩形" x="0" y="0" width="18" height="14" rx="2"></rect>
                            <path d="M0,4.5 L18,4.5" id="直线" stroke-linecap="round" stroke-linejoin="round"></path>
                            <path d="M3,2.5 L5.5,2.5" id="直线-copy" stroke-linecap="round" stroke-linejoin="round"></path>
                            <path d="M8.75620972,7.24379028 L10.8895431,7.24379028" id="直线-2" stroke-linecap="round" transform="translate(9.822876, 7.243790) rotate(-45.000000) translate(-9.822876, -7.243790) "></path>
                            <path d="M7.15620972,7.24379028 L9.28954305,7.24379028" id="直线-2" stroke-linecap="round" transform="translate(8.222876, 7.243790) scale(1, -1) rotate(135.000000) translate(-8.222876, -7.243790) "></path>
                            <path d="M7.46862915,8.2 L10.6686292,8.2" id="直线-5" stroke-linecap="round"></path>
                            <path d="M7.266667,10.2 L11,10.2" id="直线-5-copy" stroke-linecap="round"></path>
                            <path d="M9.06862915,8.2 L9.06862915,11.9048794" id="直线-3" stroke-linecap="round"></path>
                        </g>
                    </g>
                </g>
            </g>
        </g>
    </g>
</svg>