<?xml version="1.0" encoding="UTF-8"?>
<svg width="28px" height="28px" viewBox="0 0 28 28" version="1.1" xmlns="http://www.w3.org/2000/svg" xmlns:xlink="http://www.w3.org/1999/xlink">
    <!-- Generator: Sketch 52.5 (67469) - http://www.bohemiancoding.com/sketch -->
    <title>分组 6 copy</title>
    <desc>Created with Sketch.</desc>
    <g id="Page-1" stroke="none" stroke-width="1" fill="none" fill-rule="evenodd">
        <g id="注册账号" transform="translate(-381.000000, -132.000000)" stroke="#FFFFFF" stroke-width="2">
            <g id="分组-6-copy" transform="translate(382.000000, 133.000000)">
                <path d="M21.6404348,10.4176548 L4.36108696,10.4176548 C2.41049645,10.4218397 0.830271889,12.0020643 0.826086957,13.9526548 L0.826086957,15.0041765 C0.826086957,21.4806983 6.10347826,25.2348287 12.5815217,25.2348287 L13.4184783,25.2348287 C19.8965217,25.2348287 25.173913,21.4806983 25.173913,15.0041765 L25.173913,13.9526548 C25.1722364,12.0016171 23.5914716,10.4201716 21.6404348,10.4176548 Z" id="路径" fill-rule="nonzero"></path>
                <path d="M20.7273992,8.01724634 C20.4424454,3.99812809 17.0916576,0.826086957 13,0.826086957 C8.90134565,0.826086957 5.54609714,4.00898571 5.2711659,8.03787178" id="路径" stroke-linecap="round"></path>
                <circle id="椭圆形" cx="13" cy="15.9512516" r="2.58234519"></circle>
                <path d="M13,18.5335968 L13,21.2006758" id="直线-2" stroke-linecap="round"></path>
            </g>
        </g>
    </g>
</svg>