<?xml version="1.0" encoding="UTF-8"?>
<svg width="70px" height="71px" viewBox="0 0 70 71" version="1.1" xmlns="http://www.w3.org/2000/svg" xmlns:xlink="http://www.w3.org/1999/xlink">
    <!-- Generator: Sketch 52.5 (67469) - http://www.bohemiancoding.com/sketch -->
    <title>分组 5</title>
    <desc>Created with Sketch.</desc>
    <g id="Page-1" stroke="none" stroke-width="1" fill="none" fill-rule="evenodd">
        <g id="设置密码" transform="translate(-360.000000, -113.000000)">
            <g id="分组-5" transform="translate(360.500000, 114.000000)">
                <circle id="椭圆形-copy" stroke="#0899AC" fill="#FFFFFF" cx="34.5" cy="34.5" r="34.5"></circle>
                <g id="分组" transform="translate(17.000000, 17.000000)" stroke-width="2">
                    <path d="M29.920625,13.7878788 L5.0815625,13.7878788 C2.27758865,13.7938946 0.00601584107,16.0654674 3.55271368e-15,18.8694413 L3.55271368e-15,20.3810038 C3.55271368e-15,29.6910038 7.58625,35.0875663 16.8984375,35.0875663 L18.1015625,35.0875663 C27.41375,35.0875663 35,29.6910038 35,20.3810038 L35,18.8694413 C34.9975898,16.0648246 32.7252404,13.7914966 29.920625,13.7878788 Z" id="路径" stroke="#0899AC" fill-rule="nonzero"></path>
                    <path d="M28.6363636,11.1363636 C28.6363636,4.98591983 23.6504438,1.64313008e-13 17.5,1.64313008e-13 C11.3495562,1.64313008e-13 6.36363636,4.98591983 6.36363636,11.1363636" id="路径" stroke="#0899AC" stroke-linecap="round"></path>
                    <circle id="椭圆形" stroke="#3275F5" cx="17.5" cy="21.7424242" r="3.71212121"></circle>
                    <path d="M17.5,25.4545455 L17.5,29.2884715" id="直线-2" stroke="#3275F5" stroke-linecap="round"></path>
                </g>
            </g>
        </g>
    </g>
</svg>