<?xml version="1.0" encoding="UTF-8"?>
<svg width="87px" height="97px" viewBox="0 0 87 97" version="1.1" xmlns="http://www.w3.org/2000/svg" xmlns:xlink="http://www.w3.org/1999/xlink">
    <!-- Generator: Sketch 52.5 (67469) - http://www.bohemiancoding.com/sketch -->
    <title>分组 4</title>
    <desc>Created with Sketch.</desc>
    <defs>
        <path d="M60.4184443,7.81597009e-14 L80.1266024,7.81597009e-14 C81.500898,7.81597009e-14 82.6150062,1.11410815 82.6150062,2.4884038 L82.6150062,22.4454023 L82.6150062,86.6959884 C82.6150062,88.0702841 81.500898,89.1843922 80.1266024,89.1843922 L13.7857571,89.1843922 C12.4114614,89.1843922 11.2973533,88.0702841 11.2973533,86.6959884 L11.2973533,2.4884038 C11.2973533,1.11410815 12.4114614,7.81597009e-14 13.7857571,7.81597009e-14 L60.4184443,7.81597009e-14 Z" id="path-1"></path>
        <filter x="-9.1%" y="-6.2%" width="118.2%" height="114.6%" filterUnits="objectBoundingBox" id="filter-2">
            <feOffset dx="0" dy="1" in="SourceAlpha" result="shadowOffsetOuter1"></feOffset>
            <feGaussianBlur stdDeviation="2" in="shadowOffsetOuter1" result="shadowBlurOuter1"></feGaussianBlur>
            <feColorMatrix values="0 0 0 0 0   0 0 0 0 0   0 0 0 0 0  0 0 0 0.2 0" type="matrix" in="shadowBlurOuter1"></feColorMatrix>
        </filter>
    </defs>
    <g id="Page-1" stroke="none" stroke-width="1" fill="none" fill-rule="evenodd">
        <g id="直营产品/非直营产品/其他产品2-编辑" transform="translate(-150.000000, -540.000000)" fill-rule="nonzero">
            <g id="分组-4" transform="translate(150.000000, 543.000000)">
                <g id="Combined-Shape">
                    <use fill="black" fill-opacity="1" filter="url(#filter-2)" xlink:href="#path-1"></use>
                    <use fill="#FFFFFF" xlink:href="#path-1"></use>
                </g>
                <g id="分组-3" transform="translate(0.000000, 12.000000)">
                    <path d="M1.59257843,0.840163609 L30.1594541,0.840163609 C31.221173,0.840163609 31.7520325,1.37102309 31.7520325,2.43274204 L31.7520325,30.9996177 C31.7520325,32.0613366 31.221173,32.5921961 30.1594541,32.5921961 L1.59257843,32.5921961 C0.530859477,32.5921961 -3.15125703e-12,32.0613366 -3.15125703e-12,30.9996177 L-3.15125703e-12,2.43274204 C-3.15125703e-12,1.37102309 0.530859477,0.840163609 1.59257843,0.840163609 Z" id="Shape" fill="#FF4867"></path>
                    <path d="M23.9946825,26.7195631 C21.9966933,26.7195631 20.204744,23.2880543 19.2619375,21.0567524 C17.676028,20.3941402 15.927775,19.7754235 14.2294892,19.3753877 C12.743514,20.3567146 10.2147981,21.8254701 8.27304681,21.8254701 C7.06796262,21.8254701 6.20010691,21.2192949 5.88169076,20.1629177 C5.63822533,19.2940667 5.84426517,18.6940627 6.10644339,18.3690772 C6.61845736,17.6690394 7.6736401,17.3127 9.25327884,17.3127 C10.5333138,17.3127 12.1566489,17.5376517 13.967311,17.9753122 C15.1348701,17.1439862 16.3211419,16.1813721 17.3764242,15.1626196 C16.9081066,12.9374889 16.3960926,9.33099552 17.6947408,7.66834364 C18.3378439,6.87454282 19.3181755,6.61206599 20.5044473,6.96830588 C21.803195,7.3433581 22.2963967,8.13715891 22.4462981,8.76214641 C22.9957377,10.9310392 20.5044473,13.8563071 18.8248743,15.5750974 C19.1995284,17.0626652 19.6928295,18.631554 20.2921367,20.0691547 C22.7022056,21.1441451 25.56815,22.7506586 25.8927374,24.5007032 C26.023926,25.1068784 25.836599,25.6694567 25.3432978,26.1632556 C24.9187761,26.5133242 24.4691713,26.7195631 23.9946825,26.7195631 Z M21.0409472,21.8270627 C22.2342861,24.2912792 23.3720839,25.4542596 23.9717892,25.4542596 C24.0645569,25.4542596 24.194352,25.4165354 24.3798874,25.2656386 C24.6024502,25.0393929 24.6024502,24.8884961 24.5653232,24.7502404 C24.4416993,24.1027577 23.4337963,23.0403088 21.0409472,21.8270627 Z M9.24561455,18.5373928 C7.6840914,18.5373928 7.25489151,18.919313 7.12420054,19.0975823 C7.08687449,19.1549151 6.97489632,19.326814 7.08687449,19.7724374 C7.1802394,20.1543576 7.4415218,20.5617591 8.25025303,20.5617591 C9.26422781,20.5617591 10.7323861,19.9824587 12.4369427,18.9447943 C11.2176248,18.6710699 10.1414399,18.5373928 9.24561455,18.5373928 Z M15.5579982,18.372561 C16.5702809,18.6509636 17.6196906,19.0096919 18.5947467,19.3808622 C18.2406966,18.4653287 17.9550279,17.5127677 17.7128564,16.5972342 C16.9986845,17.2096801 16.2721701,17.8095845 15.5579982,18.372561 Z M19.4840027,8.07753676 C19.1266679,8.07753676 18.8760359,8.20902401 18.6504869,8.45308666 C17.9860831,9.28540796 17.9109333,11.3819379 18.4248385,14.066627 C20.3739554,11.9890089 21.4331196,10.0802041 21.169946,9.06015765 C21.1323214,8.9099576 21.0194474,8.45308666 20.1106823,8.19021168 C19.8600503,8.11516142 19.6720265,8.07763629 19.4840027,8.07763629 L19.4840027,8.07753676 Z" id="Shape" fill="#FFFFFF"></path>
                </g>
                <g id="分组-2" transform="translate(18.000000, 50.000000)" fill="#D8D8D8">
                    <path d="M1.7081581,0.464829069 L57.0502586,0.464829069 C57.713833,0.464829069 58.0456201,0.796616242 58.0456201,1.46019059 C58.0456201,2.12376494 57.713833,2.45555211 57.0502586,2.45555211 L1.7081581,2.45555211 C1.04458375,2.45555211 0.712796578,2.12376494 0.712796578,1.46019059 C0.712796578,0.796616242 1.04458375,0.464829069 1.7081581,0.464829069 Z" id="Shape"></path>
                    <path d="M1.7081581,14.0017457 L57.0502586,14.0017457 C57.713833,14.0017457 58.0456201,14.3335329 58.0456201,14.9971073 C58.0456201,15.6606816 57.713833,15.9924688 57.0502586,15.9924688 L1.7081581,15.9924688 C1.04458375,15.9924688 0.712796578,15.6606816 0.712796578,14.9971073 C0.712796578,14.3335329 1.04458375,14.0017457 1.7081581,14.0017457 Z" id="Shape"></path>
                    <path d="M1.7081581,7.23328741 L57.0502586,7.23328741 C57.713833,7.23328741 58.0456201,7.56507458 58.0456201,8.22864893 C58.0456201,8.89222327 57.713833,9.22401045 57.0502586,9.22401045 L1.7081581,9.22401045 C1.04458375,9.22401045 0.712796578,8.89222327 0.712796578,8.22864893 C0.712796578,7.56507458 1.04458375,7.23328741 1.7081581,7.23328741 Z" id="Shape"></path>
                    <path d="M1.7081581,20.6706679 L57.0502586,20.6706679 C57.713833,20.6706679 58.0456201,21.0024551 58.0456201,21.6660294 C58.0456201,22.3296038 57.713833,22.661391 57.0502586,22.661391 L1.7081581,22.661391 C1.04458375,22.661391 0.712796578,22.3296038 0.712796578,21.6660294 C0.712796578,21.0024551 1.04458375,20.6706679 1.7081581,20.6706679 Z" id="Shape"></path>
                    <path d="M1.7081581,27.4391263 L57.0502586,27.4391263 C57.713833,27.4391263 58.0456201,27.7709134 58.0456201,28.4344878 C58.0456201,29.0980621 57.713833,29.4298493 57.0502586,29.4298493 L1.7081581,29.4298493 C1.04458375,29.4298493 0.712796578,29.0980621 0.712796578,28.4344878 C0.712796578,27.7709134 1.04458375,27.4391263 1.7081581,27.4391263 Z" id="Shape"></path>
                </g>
            </g>
        </g>
    </g>
</svg>