<?xml version="1.0" encoding="UTF-8"?>
<svg width="24px" height="24px" viewBox="0 0 24 24" version="1.1" xmlns="http://www.w3.org/2000/svg" xmlns:xlink="http://www.w3.org/1999/xlink">
    <!-- Generator: Sketch 52.5 (67469) - http://www.bohemiancoding.com/sketch -->
    <title>shouji</title>
    <desc>Created with Sketch.</desc>
    <g id="Page-1" stroke="none" stroke-width="1" fill="none" fill-rule="evenodd">
        <g id="登录" transform="translate(-358.000000, -287.000000)" fill="#333333" fill-rule="nonzero">
            <g id="shouji" transform="translate(358.000000, 287.000000)">
                <g transform="translate(4.000000, 2.000000)" id="形状">
                    <path d="M12.7623705,1.2915015 C13.766607,1.2915015 14.5741373,2.12100247 14.5741373,3.12900364 L14.5741373,17.8605208 C14.5741373,18.879022 13.756254,19.6980229 12.7623705,19.6980229 L3.23765356,19.6980229 C2.2334171,19.6980229 1.42588675,18.868522 1.42588675,17.8605208 L1.42588675,3.12900364 C1.42588675,2.11050246 2.24377005,1.2915015 3.23765356,1.2915015 L12.7623705,1.2915015 Z M12.9383707,1.7486033e-15 L3.06165336,1.7486033e-15 C1.49835742,1.7486033e-15 0.235297129,1.28100149 0.235297129,2.86650334 L0.235297129,18.1335211 C0.235297129,19.7190229 1.49835742,21.0000244 3.06165336,21.0000244 L12.9487237,21.0000244 C14.5120196,21.0000244 15.7750799,19.7190229 15.7750799,18.1335211 L15.7750799,2.86650334 C15.764727,1.28100149 14.5016667,0 12.9383707,1.7486033e-15 Z M15.764727,14.0700164 L0.235297129,14.0700164 L0.235297129,15.3090178 L15.764727,15.3090178 L15.764727,14.0700164 Z M9.6047198,16.8210196 L6.3953043,16.8210196 C6.04330389,16.8210196 5.7534212,17.15702 5.7534212,17.5665204 C5.7534212,17.9760209 6.04330389,18.3120213 6.3953043,18.3120213 L9.59436684,18.3120213 C9.94636725,18.3120213 10.2362499,17.9760209 10.2362499,17.5665204 C10.2362499,17.15702 9.95672021,16.8210196 9.6047198,16.8210196 Z"></path>
                </g>
            </g>
        </g>
    </g>
</svg>