<?xml version="1.0" encoding="UTF-8"?>
<svg width="46px" height="46px" viewBox="0 0 46 46" version="1.1" xmlns="http://www.w3.org/2000/svg" xmlns:xlink="http://www.w3.org/1999/xlink">
    <!-- Generator: Sketch 52.5 (67469) - http://www.bohemiancoding.com/sketch -->
    <title>提货时间</title>
    <desc>Created with Sketch.</desc>
    <g id="Page-1" stroke="none" stroke-width="1" fill="none" fill-rule="evenodd">
        <g id="普通订单-其他产品-待付款（门店自提）" transform="translate(-594.000000, -149.000000)">
            <g id="提货时间" transform="translate(594.000000, 149.000000)">
                <circle id="椭圆形-copy-22" fill="#F8F8F8" opacity="0.36" transform="translate(23.000000, 23.000000) rotate(-360.000000) translate(-23.000000, -23.000000) " cx="23" cy="23" r="23"></circle>
                <circle id="椭圆形-copy-24" fill="#E5E5E5" opacity="0.36" cx="23" cy="23" r="19"></circle>
                <g id="提货时间-copy-2" transform="translate(11.000000, 11.000000)">
                    <g id="分组-12" transform="translate(3.000000, 2.000000)">
                        <path d="M15.8426471,8.5603643 C15.8426471,7.91553692 15.8426471,7.41593167 15.8426471,6.12627691 C15.8426471,5.25605864 15.2324118,4.49461765 14.2560353,4.49461765 L2.17337647,4.49461765 C1.31904706,4.49461765 0.586764706,5.25605864 0.586764706,6.12627691 L0.586764706,16.6776735 C0.586764706,17.5478918 1.31904706,18.2005555 2.17337647,18.2005555 C5.76153206,18.2005555 7.77052245,18.2005555 9.56460024,18.2005555" id="路径" stroke="#FFFFFF" stroke-width="1.5" stroke-linecap="round" fill-rule="nonzero"></path>
                        <path d="M4.69411765,6.94153718 L4.69411765,2.81942286 C4.69411765,1.6895131 5.24202956,0.586764706 6.26478008,0.586764706 L10.2115729,0.586764706 C11.2343234,0.586764706 11.7822353,1.6895131 11.7822353,2.81942286 L11.7822353,6.94153718" id="路径" stroke="#FFFFFF" stroke-width="1.5" stroke-linecap="round" fill-rule="nonzero"></path>
                        <path d="M10.1382353,14.3770345 C10.1382353,16.724169 11.9571519,18.6158336 14.185307,18.6158336 C16.4134621,18.6158336 18.2323787,16.724169 18.2323787,14.3770345 C18.2323787,12.0298999 16.4134621,10.1382353 14.185307,10.1382353 C11.9571519,10.1382353 10.1382353,12.0298999 10.1382353,14.3770345 Z" id="路径-copy-5" stroke="#FFFFFF" stroke-width="1.5" fill-rule="nonzero"></path>
                        <g id="分组-11" transform="translate(11.500000, 13.500000)" fill="#FFFFFF">
                            <circle id="椭圆形" cx="0.75" cy="0.75" r="1"></circle>
                            <circle id="椭圆形-copy" cx="2.75" cy="0.75" r="1"></circle>
                            <circle id="椭圆形-copy-2" cx="4.75" cy="0.75" r="1"></circle>
                        </g>
                    </g>
                </g>
            </g>
        </g>
    </g>
</svg>