<?xml version="1.0" encoding="UTF-8"?>
<svg width="22px" height="22px" viewBox="0 0 22 22" version="1.1" xmlns="http://www.w3.org/2000/svg" xmlns:xlink="http://www.w3.org/1999/xlink">
    <!-- Generator: Sketch 52.5 (67469) - http://www.bohemiancoding.com/sketch -->
    <title>分组 14</title>
    <desc>Created with Sketch.</desc>
    <g id="Page-1" stroke="none" stroke-width="1" fill="none" fill-rule="evenodd">
        <g id="新增秒杀-（非）直营产品" transform="translate(-44.000000, -592.000000)">
            <g id="分组-14" transform="translate(44.000000, 592.000000)">
                <circle id="椭圆形-copy-2" fill-opacity="0.3" fill="#3275F5" cx="11" cy="11" r="11"></circle>
                <g id="分组-12" transform="translate(5.000000, 6.000000)">
                    <path d="M5.15492998,4.43700247 L5.49295816,4.43700247 L5.49295816,5.18290786 L4.52112717,5.18290786 L4.52112717,5.88219416 L5.49295816,5.88219416 L5.49295816,6.62809955 L6.1690145,6.62809955 L6.1690145,5.88219416 L6.50704266,5.88219416 C7.05633843,5.88219416 7.47887364,5.36938421 7.47887364,4.76333608 C7.47887364,4.15728795 7.01408492,3.644478 6.50704266,3.64447799 L6.1690145,3.64447799 L6.1690145,2.99181078 L7.14084548,2.99181078 L7.14084548,2.24590539 L6.1690145,2.24590539 L6.1690145,1.5 L5.49295816,1.5 L5.49295816,2.24590539 L5.15492998,2.24590539 C4.60563421,2.24590539 4.183099,2.75871534 4.183099,3.36476348 C4.183099,3.97081162 4.60563421,4.43700247 5.15492998,4.43700247 Z M6.1690145,4.43700247 L6.50704266,4.43700247 C6.67605674,4.43700247 6.84507082,4.62347882 6.84507083,4.80995516 C6.84507084,4.99643151 6.67605675,5.18290785 6.50704266,5.18290786 L6.1690145,5.18290786 L6.1690145,4.43700247 Z M5.15492998,2.99181078 L5.49295816,2.99181078 L5.49295816,3.73771617 L5.15492998,3.73771617 C4.9859159,3.73771617 4.81690182,3.55123982 4.81690182,3.36476348 C4.85915534,3.13166804 4.9859159,2.99181079 5.15492998,2.99181078 Z" id="形状" fill="#3275F5" fill-rule="nonzero"></path>
                    <rect id="矩形" stroke="#3275F5" x="0.5" y="0.5" width="11" height="7" rx="1"></rect>
                    <path d="M0.5,9.52906171 L11.5173069,9.52906171" id="直线-11" stroke="#3275F5" stroke-linecap="round"></path>
                </g>
            </g>
        </g>
    </g>
</svg>