<?xml version="1.0" encoding="UTF-8"?>
<svg width="945px" height="60px" viewBox="0 0 945 60" version="1.1" xmlns="http://www.w3.org/2000/svg" xmlns:xlink="http://www.w3.org/1999/xlink">
    <!-- Generator: Sketch 52.5 (67469) - http://www.bohemiancoding.com/sketch -->
    <title>分组 3</title>
    <desc>Created with Sketch.</desc>
    <g id="Page-1" stroke="none" stroke-width="1" fill="none" fill-rule="evenodd">
        <g id="直营产品/非直营产品/其他产品2（添加）" transform="translate(-39.000000, -94.000000)">
            <g id="分组-3" transform="translate(40.000000, 95.000000)">
                <path d="M518,0.5 C516.067003,0.5 514.5,2.06700338 514.5,4 L514.5,54 C514.5,55.9329966 516.067003,57.5 518,57.5 L940,57.5 C941.932997,57.5 943.5,55.9329966 943.5,54 L943.5,4 C943.5,2.06700338 941.932997,0.5 940,0.5 L518,0.5 Z" id="Rectangle-11-Copy-2" stroke="#FFFFFF" fill="#0899AC"></path>
                <g id="分组-2" stroke="#FFFFFF">
                    <path d="M4,0.5 C2.06700338,0.5 0.5,2.06700338 0.5,4 L0.5,54 C0.5,55.9329966 2.06700338,57.5 4,57.5 L514.742165,57.5 C515.942038,57.5 517.058281,56.88536 517.699838,55.8714076 L533.718488,30.5546684 C534.448842,29.4003775 534.440945,27.9266622 533.698263,26.7802645 L517.707464,2.0970037 C517.062319,1.10116418 515.956568,0.5 514.770015,0.5 L4,0.5 Z" id="Rectangle-11-Copy-3" fill="#EEEEEE"></path>
                    <path d="M4,-0.5 L88.922145,-0.5 C90.447713,-0.5 91.8693933,0.272925373 92.6988648,1.55329048 L108.689664,26.2365512 C109.644541,27.7104912 109.654694,29.6052679 108.715668,31.0893563 L92.697018,56.4060955 C91.8721582,57.7097486 90.4369889,58.5 88.8942947,58.5 L4,58.5 C1.51471863,58.5 -0.5,56.4852814 -0.5,54 L-0.5,4 C-0.5,1.51471863 1.51471863,-0.5 4,-0.5 Z" id="Rectangle-11-Copy-4" fill="#E5E5E5"></path>
                    <g id="分组-3-copy-10" transform="translate(31.000000, 12.000000)" fill-rule="nonzero" stroke-width="2">
                        <path d="M15.2733649,1.48836625 C14.6830622,1.48836625 14.1244981,1.60722222 13.7198934,1.80851393 L3.26957097,7.0479788 C2.86928535,7.24799082 2.69356466,7.48989237 2.69353809,7.69560025 C2.69503679,7.9012134 2.86450319,8.13046603 3.25038887,8.31726574 L13.5941971,13.3398488 C13.9640156,13.5207695 14.4883373,13.628812 15.0439588,13.628812 C15.6342616,13.628812 16.1928256,13.509956 16.5974304,13.3086643 L27.0477528,8.06919942 C27.4472716,7.86957056 27.6207957,7.62999238 27.6192873,7.42157797 C27.6177886,7.21596482 27.4483222,6.98671219 27.0622831,6.79983796 L16.7293689,1.78036144 C16.3487878,1.59744207 15.8247856,1.48836625 15.2733649,1.48836625 Z" id="路径"></path>
                        <path d="M12.2283982,31.8984724 C12.4790067,32.0162831 12.703604,32.0713303 12.898374,32.0713303 C13.2767052,32.0713303 13.495206,31.8578068 13.495206,31.5129961 L13.495206,18.6112361 C13.495206,18.0232051 12.9020437,17.2001415 12.0965519,16.8087159 L2.85208602,12.0181526 C2.60661642,11.9011253 2.38299516,11.8461935 2.18384454,11.8461935 C1.80551329,11.8461935 1.58701252,12.0597169 1.58701252,12.4045276 L1.58701252,25.3062876 C1.58701252,25.8943186 2.18017483,26.7173822 2.98566667,27.1088078 L12.2283982,31.8984724 Z" id="路径"></path>
                        <path d="M28.5832954,11.8462034 L28.5832843,11.8462034 C28.3843069,11.8462034 28.1532248,11.9033959 27.9320013,12.0095113 L18.6473626,16.8159194 C17.8669644,17.1947871 17.2719389,18.0213895 17.2719389,18.6067863 L17.2719389,31.5041166 C17.2719389,31.8513462 17.4883982,32.0624508 17.8687709,32.0624508 C18.0677483,32.0624508 18.2988304,32.0052583 18.520054,31.8991429 L27.8046926,27.0927347 C28.5850908,26.713867 29.1801163,25.8872647 29.1801163,25.3018679 L29.1801163,12.4089672 C29.1801163,12.0599119 28.9618582,11.8461992 28.5832954,11.8462034 Z" id="路径"></path>
                    </g>
                </g>
                <text id="填写产品基本信息-copy" font-family="PingFangSC-Medium, PingFang SC" font-size="16" font-weight="400" fill="#CCCCCC">
                    <tspan x="272" y="35">填写产品基本信息</tspan>
                </text>
                <circle id="Oval-2-Copy" fill="#FFFFFF" cx="252" cy="29" r="9"></circle>
                <text id="1-copy" font-family="PingFangSC-Regular, PingFang SC" font-size="16" font-weight="normal" fill="#CCCCCC">
                    <tspan x="248.292" y="35">1</tspan>
                </text>
                <text id="填写产品内容-copy" font-family="PingFangSC-Medium, PingFang SC" font-size="16" font-weight="400" fill="#FFFFFF">
                    <tspan x="706" y="35">填写产品内容</tspan>
                </text>
                <circle id="Oval-2-Copy-2" fill="#FFFFFF" cx="686" cy="29" r="9"></circle>
                <text id="2-copy" font-family="PingFangSC-Regular, PingFang SC" font-size="16" font-weight="normal" fill="#0899AC">
                    <tspan x="681.2" y="34">2</tspan>
                </text>
            </g>
        </g>
    </g>
</svg>