<?xml version="1.0" encoding="UTF-8"?>
<svg width="945px" height="60px" viewBox="0 0 945 60" version="1.1" xmlns="http://www.w3.org/2000/svg" xmlns:xlink="http://www.w3.org/1999/xlink">
    <!-- Generator: Sketch 52.5 (67469) - http://www.bohemiancoding.com/sketch -->
    <title>分组 7</title>
    <desc>Created with Sketch.</desc>
    <g id="Page-1" stroke="none" stroke-width="1" fill="none" fill-rule="evenodd">
        <g id="总部-新增直营产品" transform="translate(-39.000000, -94.000000)">
            <g id="分组-7" transform="translate(40.000000, 95.000000)">
                <g id="分组-6">
                    <path d="M4,0.5 C2.06700338,0.5 0.5,2.06700338 0.5,4 L0.5,54 C0.5,55.9329966 2.06700338,57.5 4,57.5 L940,57.5 C941.932997,57.5 943.5,55.9329966 943.5,54 L943.5,4 C943.5,2.06700338 941.932997,0.5 940,0.5 L4,0.5 Z" id="Rectangle-11" stroke="#0899AC" fill="#FFFFFF"></path>
                    <g id="分组-4">
                        <path d="M4,0.5 C2.06700338,0.5 0.5,2.06700338 0.5,4 L0.5,54 C0.5,55.9329966 2.06700338,57.5 4,57.5 L514.973908,57.5 C516.17353,57.5 517.289575,56.8856156 517.931204,55.8720052 L533.957013,30.5552741 C534.687875,29.4006961 534.679974,27.926351 533.936778,26.7796731 L517.938821,2.09640428 C517.293611,1.10090914 516.18806,0.5 515.00176,0.5 L4,0.5 Z" id="Rectangle-11-Copy" stroke="#0899AC" fill="#0899AC"></path>
                        <g id="分组-3-copy-9" transform="translate(31.000000, 12.000000)" fill-rule="nonzero" stroke="#FFFFFF" stroke-width="2">
                            <path d="M15.2733649,1.48836625 C14.6830622,1.48836625 14.1244981,1.60722222 13.7198934,1.80851393 L3.26957097,7.0479788 C2.86928535,7.24799082 2.69356466,7.48989237 2.69353809,7.69560025 C2.69503679,7.9012134 2.86450319,8.13046603 3.25038887,8.31726574 L13.5941971,13.3398488 C13.9640156,13.5207695 14.4883373,13.628812 15.0439588,13.628812 C15.6342616,13.628812 16.1928256,13.509956 16.5974304,13.3086643 L27.0477528,8.06919942 C27.4472716,7.86957056 27.6207957,7.62999238 27.6192873,7.42157797 C27.6177886,7.21596482 27.4483222,6.98671219 27.0622831,6.79983796 L16.7293689,1.78036144 C16.3487878,1.59744207 15.8247856,1.48836625 15.2733649,1.48836625 Z" id="路径"></path>
                            <path d="M12.2283982,31.8984724 C12.4790067,32.0162831 12.703604,32.0713303 12.898374,32.0713303 C13.2767052,32.0713303 13.495206,31.8578068 13.495206,31.5129961 L13.495206,18.6112361 C13.495206,18.0232051 12.9020437,17.2001415 12.0965519,16.8087159 L2.85208602,12.0181526 C2.60661642,11.9011253 2.38299516,11.8461935 2.18384454,11.8461935 C1.80551329,11.8461935 1.58701252,12.0597169 1.58701252,12.4045276 L1.58701252,25.3062876 C1.58701252,25.8943186 2.18017483,26.7173822 2.98566667,27.1088078 L12.2283982,31.8984724 Z" id="路径"></path>
                            <path d="M28.5832954,11.8462034 L28.5832843,11.8462034 C28.3843069,11.8462034 28.1532248,11.9033959 27.9320013,12.0095113 L18.6473626,16.8159194 C17.8669644,17.1947871 17.2719389,18.0213895 17.2719389,18.6067863 L17.2719389,31.5041166 C17.2719389,31.8513462 17.4883982,32.0624508 17.8687709,32.0624508 C18.0677483,32.0624508 18.2988304,32.0052583 18.520054,31.8991429 L27.8046926,27.0927347 C28.5850908,26.713867 29.1801163,25.8872647 29.1801163,25.3018679 L29.1801163,12.4089672 C29.1801163,12.0599119 28.9618582,11.8461992 28.5832954,11.8462034 Z" id="路径"></path>
                        </g>
                        <path d="M4,-0.5 L88.6347481,-0.5 C90.1625879,-0.5 91.5860625,0.275213058 92.4149444,1.55866521 L108.355906,26.2418697 C109.306185,27.7132945 109.316295,29.6024307 108.381818,31.0839417 L92.4130211,56.4007372 C91.5887964,57.707456 90.1518594,58.5 88.6069127,58.5 L4,58.5 C1.51471863,58.5 -0.5,56.4852814 -0.5,54 L-0.5,4 C-0.5,1.51471863 1.51471863,-0.5 4,-0.5 Z" id="Rectangle-11" stroke="#FFFFFF"></path>
                    </g>
                </g>
                <g id="分组-2" transform="translate(243.000000, 18.000000)">
                    <text id="填写产品基本信息" font-family="PingFangSC-Medium, PingFang SC" font-size="16" font-weight="400" fill="#FFFFFF">
                        <tspan x="29" y="17">填写产品基本信息</tspan>
                    </text>
                    <circle id="Oval-2" fill="#FFFFFF" cx="9" cy="11" r="9"></circle>
                    <text id="1" font-family="PingFangSC-Regular, PingFang SC" font-size="16" font-weight="normal" fill="#0899AC">
                        <tspan x="5.292" y="17">1</tspan>
                    </text>
                </g>
                <g id="分组-3" transform="translate(677.000000, 17.000000)">
                    <text id="填写产品内容" font-family="PingFangSC-Medium, PingFang SC" font-size="16" font-weight="400" fill="#0899AC">
                        <tspan x="29" y="18">填写产品内容</tspan>
                    </text>
                    <circle id="Oval-2" fill="#0899AC" cx="9" cy="12" r="9"></circle>
                    <text id="2" font-family="PingFangSC-Regular, PingFang SC" font-size="16" font-weight="normal" fill="#FFFFFF">
                        <tspan x="3.7" y="17">2</tspan>
                    </text>
                </g>
            </g>
        </g>
    </g>
</svg>