<?xml version="1.0" encoding="UTF-8"?>
<svg width="65px" height="67px" viewBox="0 0 65 67" version="1.1" xmlns="http://www.w3.org/2000/svg" xmlns:xlink="http://www.w3.org/1999/xlink">
    <!-- Generator: Sketch 52.5 (67469) - http://www.bohemiancoding.com/sketch -->
    <title>分组 2</title>
    <desc>Created with Sketch.</desc>
    <defs>
        <path d="M33.6725738,34.225 C33.4877168,29.97 32.1937177,26.64 30.3451475,24.235 C28.4965774,21.645 25.9085792,19.98 23.3205811,18.87 C25.9085793,17.76 28.4965774,16.095 30.3451475,13.69 C32.1937177,11.1 33.4877168,7.58499997 33.6725738,2.95999998 L35.1514299,2.95999998 C36.260572,2.95999998 37,2.40499998 37,1.47999997 C37,0.554999947 36.260572,-5.42035975e-08 35.1514299,0 L1.87716761,0 C1.13773958,0 0.583168537,0.184999982 0.213454494,0.739999982 C-0.156259549,1.29499998 0.0285974992,1.665 0.213454494,2.22 C0.398311489,2.775 1.13773958,2.775 1.87716761,2.775 L3.35602373,2.775 C3.54088072,7.39999999 4.83487985,10.915 6.68344996,13.505 C8.71687711,16.095 11.1200183,17.76 13.8928735,18.87 C11.1200183,19.795 8.71687711,21.46 6.68344996,24.05 C4.83487985,26.64 3.54088072,29.785 3.35602373,34.225 L1.87716761,34.225 C0.952882527,34.225 0.0285974988,34.78 0.0285974996,35.705 C0.0285974996,36.075 0.213454494,36.445 0.583168538,36.63 C0.952882581,36.815 1.32259657,37.0000001 1.87716761,37 L35.1514299,37 C36.260572,37 37,36.445 37,35.52 C37,34.7800001 36.260572,34.04 35.1514299,34.04 L33.6725738,34.04 L33.6725738,34.225 Z" id="path-1"></path>
        <filter x="-56.9%" y="-56.8%" width="213.7%" height="213.5%" filterUnits="objectBoundingBox" id="filter-2">
            <feMorphology radius="2" operator="dilate" in="SourceAlpha" result="shadowSpreadOuter1"></feMorphology>
            <feOffset dx="0" dy="0" in="shadowSpreadOuter1" result="shadowOffsetOuter1"></feOffset>
            <feGaussianBlur stdDeviation="5" in="shadowOffsetOuter1" result="shadowBlurOuter1"></feGaussianBlur>
            <feColorMatrix values="0 0 0 0 0.996078431   0 0 0 0 0.623529412   0 0 0 0 0.00392156863  0 0 0 0.2 0" type="matrix" in="shadowBlurOuter1"></feColorMatrix>
        </filter>
    </defs>
    <g id="Page-1" stroke="none" stroke-width="1" fill="none" fill-rule="evenodd">
        <g id="总部审核" transform="translate(-340.000000, -354.000000)">
            <g id="分组-2" transform="translate(345.000000, 354.000000)">
                <path d="M1.87896254,30 C2.14774415,30.7156194 2.37960723,31.1969484 2.57455179,31.4439868 C2.76949634,31.6910253 3.16395411,32.0033853 3.75792509,32.3810668 C3.2291623,32.7353704 2.85496515,33.0516833 2.63533366,33.3300057 C2.41570216,33.608328 2.16357846,34.085704 1.87896254,34.7621337 C1.63555162,34.1149903 1.39247512,33.6376143 1.14973302,33.3300057 C0.906990928,33.022397 0.523746587,32.7060841 0,32.3810668 C0.551235644,32.0885182 0.934479984,31.8058569 1.14973302,31.5330831 C1.36498606,31.2603092 1.60806257,30.7492815 1.87896254,30 Z" id="多边形" fill="#7BE413"></path>
                <path d="M14.4426513,0 C14.7920674,0.930305249 15.0934894,1.55603287 15.3469173,1.87718286 C15.6003452,2.19833286 16.1131403,2.60440086 16.8853026,3.09538688 C16.197911,3.55598149 15.7114547,3.96718832 15.4259338,4.32900737 C15.1404128,4.69082643 14.812652,5.31141522 14.4426513,6.19077376 C14.1262171,5.34948742 13.8102177,4.72889863 13.4946529,4.32900737 C13.1790882,3.92911612 12.6808706,3.51790929 12,3.09538688 C12.7166063,2.71507362 13.214824,2.34761399 13.4946529,1.99300797 C13.7744819,1.63840195 14.0904813,0.97406596 14.4426513,0 Z" id="多边形-copy-2" fill="#FF4438"></path>
                <path d="M50.8789625,26 C51.1477442,26.7156194 51.3796072,27.1969484 51.5745518,27.4439868 C51.7694963,27.6910253 52.1639541,28.0033853 52.7579251,28.3810668 C52.2291623,28.7353704 51.8549652,29.0516833 51.6353337,29.3300057 C51.4157022,29.608328 51.1635785,30.085704 50.8789625,30.7621337 C50.6355516,30.1149903 50.3924751,29.6376143 50.149733,29.3300057 C49.9069909,29.022397 49.5237466,28.7060841 49,28.3810668 C49.5512356,28.0885182 49.93448,27.8058569 50.149733,27.5330831 C50.3649861,27.2603092 50.6080626,26.7492815 50.8789625,26 Z" id="多边形-copy" fill="#7BE413"></path>
                <g id="分组" transform="translate(9.000000, 16.000000)">
                    <g id="路径" fill-rule="nonzero">
                        <use fill="black" fill-opacity="1" filter="url(#filter-2)" xlink:href="#path-1"></use>
                        <use fill="#FFFFFF" xlink:href="#path-1"></use>
                    </g>
                    <path d="M4.09439868,6.16666667 L27.8745174,6.16666667 C27.8745174,7.63492065 26.5940495,9.8373016 24.3989616,12.5902777 C21.2892537,16.6279761 16.167382,18.4632936 16.167382,18.4632936 C16.167382,18.4632936 21.8380257,21.5833333 24.3989616,24.1527777 C27.1428214,26.9057539 28.7891373,33.1458333 29.5208333,33.1458333 L4.09439868,32.7787698 C4.09439868,32.7787698 3.72855068,28.5575396 7.20410653,24.3363095 C10.6796624,20.1150794 16.167382,18.4632936 16.167382,18.4632936 C16.167382,18.4632936 8.66749841,15.3432539 6.65533456,11.8561508 C4.6431707,8.36904762 4.09439868,6.16666667 4.09439868,6.16666667 Z" id="路径" fill="#FFF3E0"></path>
                    <path d="M33.6725738,34.225 C33.4877168,29.97 32.1937177,26.64 30.3451475,24.235 C28.4965774,21.645 25.9085792,19.98 23.3205811,18.87 C25.9085793,17.76 28.4965774,16.095 30.3451475,13.69 C32.1937177,11.1 33.4877168,7.58499997 33.6725738,2.95999998 L35.1514299,2.95999998 C36.260572,2.95999998 37,2.40499998 37,1.47999997 C37,0.554999947 36.260572,-5.42035975e-08 35.1514299,0 L1.87716761,0 C1.13773958,0 0.583168537,0.184999982 0.213454494,0.739999982 C-0.156259549,1.29499998 0.0285974992,1.665 0.213454494,2.22 C0.398311489,2.775 1.13773958,2.775 1.87716761,2.775 L3.35602373,2.775 C3.54088072,7.39999999 4.83487985,10.915 6.68344996,13.505 C8.71687711,16.095 11.1200183,17.76 13.8928735,18.87 C11.1200183,19.795 8.71687711,21.46 6.68344996,24.05 C4.83487985,26.64 3.54088072,29.785 3.35602373,34.225 L1.87716761,34.225 C0.952882527,34.225 0.0285974988,34.78 0.0285974996,35.705 C0.0285974996,36.075 0.213454494,36.445 0.583168538,36.63 C0.952882581,36.815 1.32259657,37.0000001 1.87716761,37 L35.1514299,37 C36.260572,37 37,36.445 37,35.52 C37,34.7800001 36.260572,34.04 35.1514299,34.04 L33.6725738,34.04 L33.6725738,34.225 Z M16.7217067,19.835 C16.9065637,19.835 16.9065637,19.65 17.0914208,19.65 L17.2762778,19.65 C17.2762778,19.65 17.2762778,19.465 17.4611348,19.465 L17.4611348,19.095 L17.4611348,18.725 C17.4611348,18.725 17.4611348,18.54 17.2762778,18.54 C17.2762778,18.54 17.0914208,18.54 17.0914208,18.355 L16.9065637,18.355 C13.7639945,17.615 11.3608533,15.95 9.14256918,12.99 C7.29399907,10.585 6.184857,7.25500002 6,3 L31.8799817,3 C31.6951247,7.25500002 30.5859827,10.4 28.7374126,12.805 C26.5191284,15.765 24.1159873,17.43 20.973418,18.17 L20.788561,18.17 C20.788561,18.17 20.603704,18.17 20.603704,18.355 L20.418847,18.355 C20.418847,18.355 20.418847,18.54 20.2339899,18.54 C20.2339899,18.54 20.2339899,18.725 20.0491329,18.725 L20.0491329,19.28 C20.0491329,19.28 20.0491329,19.465 20.2339899,19.465 L20.418847,19.465 C20.418847,19.465 20.603704,19.465 20.603704,19.65 L20.788561,19.65 C23.9311302,20.39 26.3342714,22.055 28.5525555,25.015 C29.4768406,26.31 30.2162686,27.79 30.7708397,29.455 C30.9556967,30.01 31.3254107,30.935 31.3254107,32.415 C29.6616976,31.305 24.6705582,30.38 18.9399909,30.195 L18.9399909,17.06 L19.1248479,17.06 L19.864276,16.875 C22.0825601,16.32 23.7462732,15.58 25.0402723,14.47 C26.5191284,13.36 27.6282705,11.88 28.3676985,10.215 C28.5525555,9.84499999 28.3676985,9.28999999 27.8131275,9.10500001 L26.8888424,9.10500001 C26.5191284,9.10500001 26.5191284,9.47500002 26.3342714,9.66000001 C25.5948433,10.955 24.6705582,12.25 23.3765592,13.175 C22.2674171,14.1 20.788561,14.655 19.1248479,15.21 L18.3854198,15.21 C16.9065637,14.84 15.4277076,14.1 14.3185656,13.175 C13.0245665,12.25 12.1002814,10.955 11.5457104,9.66000001 C11.3608534,9.28999999 10.6214253,8.92000002 10.0668543,9.10500001 C9.51228322,9.28999999 9.32742623,9.84499999 9.51228322,10.215 C10.2517113,11.88 11.3608533,13.175 12.8397095,14.47 C14.1337085,15.58 15.9822787,16.32 18.0157058,16.875 L18.5702768,16.875 L18.5702768,30.195 C13.2094234,30.195 8.40314115,30.935 6.18485699,31.86 C6.18485699,31.12 6.36971399,30.38 6.73942803,29.27 C7.29399907,27.605 8.0334271,26.125 8.95771219,24.83 C11.1759963,22.24 13.5791375,20.575 16.7217067,19.835 Z" id="形状" fill="#FE9F01" fill-rule="nonzero"></path>
                    <path d="M18.947029,30.1392075 L18.947029,17.0042075 L19.131886,17.0042075 L19.8713141,16.8192075 C22.0895983,16.2642075 23.7533114,15.5242075 25.0473104,14.4142074 C26.5261666,13.3042074 27.6353086,11.8242074 28.3747367,10.1592075 C28.5595937,9.78920745 28.3747367,9.23420745 27.8201656,9.04920747 L26.8958805,9.04920747 C26.5261665,9.04920747 26.5261665,9.41920748 26.3413095,9.60420746 C25.6018815,10.8992074 24.6775964,12.1942075 23.3835973,13.1192075 C22.2744552,14.0442075 20.7955991,14.5992075 19.131886,15.1542075 L18.392458,15.1542075 C16.9136019,14.7842075 15.4347458,14.0442075 14.3256037,13.1192075 C13.0316046,12.1942074 12.1073196,10.8992074 11.5527485,9.60420746 C11.3678915,9.23420745 10.6284634,8.86420748 10.0738924,9.04920747 C9.51932137,9.23420745 9.33446438,9.78920745 9.51932137,10.1592075 C10.2587494,11.8242075 11.3678915,13.1192075 12.8467476,14.4142074 C14.1407467,15.5242074 15.9893168,16.2642074 18.0227439,16.8192075 L18.577315,16.8192075 L18.577315,30.1392075 C13.2164616,30.1392075 24.6775964,30.3242075 18.947029,30.1392075 Z" id="路径-copy" fill="#FF4438" fill-rule="nonzero"></path>
                </g>
            </g>
        </g>
    </g>
</svg>