<?xml version="1.0" encoding="UTF-8"?>
<svg width="24px" height="24px" viewBox="0 0 24 24" version="1.1" xmlns="http://www.w3.org/2000/svg" xmlns:xlink="http://www.w3.org/1999/xlink">
    <!-- Generator: Sketch 52.5 (67469) - http://www.bohemiancoding.com/sketch -->
    <title>今日会员 copy 2</title>
    <desc>Created with Sketch.</desc>
    <g id="Page-1" stroke="none" stroke-width="1" fill="none" fill-rule="evenodd">
        <g id="优选中心" transform="translate(-976.000000, -74.000000)" fill="#333333" fill-rule="nonzero">
            <g id="sousuo" transform="translate(976.000000, 74.000000)">
                <g id="搜索" transform="translate(2.000000, 1.000000)">
                    <path d="M19.4085272,9.6432679 C19.4085272,4.31479781 15.0632316,0 9.70606296,0 C4.34709502,0 0,4.31659716 0,9.6432679 C0,14.971738 4.34709502,19.2865358 9.70606296,19.2865358 C15.0632316,19.2865358 19.4085272,14.9699386 19.4085272,9.6432679 Z M1.79411224,9.6432679 C1.79411224,5.31052213 5.33386814,1.79411224 9.70606296,1.79411224 C14.0746819,1.79411224 17.6144378,5.31054491 17.6144378,9.6432679 C17.6144378,13.9760137 14.0746819,17.4924235 9.70606296,17.4924235 C5.33744406,17.4924235 1.79411224,13.9759909 1.79411224,9.6432679 Z M18.31951,21.6547321 C18.7233367,22.0910428 19.4044047,22.1173748 19.8407131,21.713546 C20.2770238,21.3097193 20.3033558,20.6286513 19.899527,20.1923429 C19.8824124,20.1738517 19.864654,20.1559671 19.8462842,20.138722 L16.0123003,16.2850136 C15.5783379,15.8786632 14.897131,15.9010458 14.4907806,16.335008 C14.1045169,16.7475171 14.1030046,17.3884915 14.4873188,17.8028182 L18.3195033,21.6565266 L18.31951,21.6547321 Z" id="形状"></path>
                </g>
            </g>
        </g>
    </g>
</svg>