<?xml version="1.0" encoding="UTF-8"?>
<svg width="24px" height="24px" viewBox="0 0 24 24" version="1.1" xmlns="http://www.w3.org/2000/svg" xmlns:xlink="http://www.w3.org/1999/xlink">
    <!-- Generator: Sketch 52.5 (67469) - http://www.bohemiancoding.com/sketch -->
    <title>分组 5</title>
    <desc>Created with Sketch.</desc>
    <g id="Page-1" stroke="none" stroke-width="1" fill="none" fill-rule="evenodd">
        <g id="登录" transform="translate(-358.000000, -349.000000)" fill="#333333">
            <g id="mima" transform="translate(358.000000, 349.000000)">
                <g id="密码" transform="translate(4.000000, 2.000000)">
                    <g id="分组" transform="translate(0.235297, 0.356252)">
                        <path d="M8.41177449,13.715641 C8.41177449,14.0748601 8.12059768,14.3687667 7.76471492,14.3687667 C7.40883215,14.3687667 7.11765534,14.0748601 7.11765534,13.715641 L7.11765534,11.1031379 C7.11765534,10.7439188 7.40883215,10.4500122 7.76471492,10.4500122 C8.12059768,10.4500122 8.41177449,10.7439188 8.41177449,11.1031379 L8.41177449,13.715641 Z" id="路径"></path>
                        <path d="M14.2353107,6.5312576 L1.29411915,6.5312576 C0.582353619,6.5312576 0,7.11907078 0,7.83750912 L0,15.6750182 L1.29411915,15.6750182 L1.29411915,8.49063488 C1.29411915,8.13141571 1.58529596,7.83750912 1.94117873,7.83750912 L13.5882511,7.83750912 C13.9441339,7.83750912 14.2353107,8.13141571 14.2353107,8.49063488 L14.2353107,15.6750182 L15.5294298,15.6750182 L15.5294298,7.83750912 C15.5294298,7.11907078 14.9470762,6.5312576 14.2353107,6.5312576 Z M14.2353107,14.7212505 L14.2353107,15.6750182 C14.2353107,16.3934566 13.6529571,16.9812698 12.9411915,16.9812698 L2.58823831,16.9812698 C1.87647277,16.9812698 1.29411915,16.3934566 1.29411915,15.6750182 L1.29411915,14.7212505 C0.521995093,15.1746831 0,14.7131477 0,15.6750182 C0,17.1118949 1.16470724,18.2875213 2.58823831,18.2875213 L12.9411915,18.2875213 C14.3647226,18.2875213 15.5294298,17.1118949 15.5294298,15.6750182 C15.5294298,14.7131273 15.007455,15.1746423 14.2353107,14.7212505 Z M7.76471492,0 C4.91765278,0 2.58823831,2.35125274 2.58823831,5.22500608 L2.58823831,7.83750912 L3.88235746,7.83750912 L3.88235746,5.22500608 C3.88235746,3.06969107 5.62941832,1.30625152 7.76471492,1.30625152 C9.90001152,1.30625152 11.6470724,3.06969107 11.6470724,5.22500608 L11.6470724,7.83750912 L12.9411915,7.83750912 L12.9411915,5.22500608 C12.9411915,2.35125274 10.6117771,0 7.76471492,0 Z" id="形状" fill-rule="nonzero"></path>
                    </g>
                </g>
            </g>
        </g>
    </g>
</svg>