<?xml version="1.0" encoding="UTF-8"?>
<svg width="20px" height="20px" viewBox="0 0 20 20" version="1.1" xmlns="http://www.w3.org/2000/svg" xmlns:xlink="http://www.w3.org/1999/xlink">
    <!-- Generator: Sketch 52.5 (67469) - http://www.bohemiancoding.com/sketch -->
    <title>icon-提示 </title>
    <desc>Created with Sketch.</desc>
    <g id="菲卡时代2.0" stroke="none" stroke-width="1" fill="none" fill-rule="evenodd">
        <g id="添加次卡-单项有限次1" transform="translate(-574.000000, -1675.000000)" fill="#E94E27" fill-rule="nonzero">
            <g id="分组-8" transform="translate(70.000000, 1661.000000)">
                <g id="icon-提示-" transform="translate(504.000000, 14.000000)">
                    <path d="M10,0 C4.48,0 0,4.48 0,10 C0,15.52 4.48,20 10,20 C15.52,20 20,15.52 20,10 C20,4.48 15.52,0 10,0 Z M10,18.67 C5.22,18.67 1.33,14.78 1.33,10 C1.33,5.22 5.22,1.33 10,1.33 C14.78,1.33 18.67,5.22 18.67,10 C18.67,14.78 14.78,18.67 10,18.67 Z M9.33,11.47 L9.33,5.9 C9.33,5.52996922 9.62996922,5.23 10,5.23 C10.3700308,5.23 10.67,5.52996922 10.67,5.9 L10.67,11.47 C10.67,11.8400308 10.3700308,12.14 10,12.14 C9.62996922,12.14 9.33,11.8400308 9.33,11.47 Z M10.87,14.33 C10.87,14.81 10.48,15.2 10,15.2 C9.52,15.2 9.13,14.81 9.13,14.33 C9.13,13.85 9.52,13.46 10,13.46 C10.48,13.46 10.87,13.85 10.87,14.33 Z" id="形状"></path>
                </g>
            </g>
        </g>
    </g>
</svg>