<?xml version="1.0" encoding="UTF-8"?>
<svg width="14px" height="14px" viewBox="0 0 14 14" version="1.1" xmlns="http://www.w3.org/2000/svg" xmlns:xlink="http://www.w3.org/1999/xlink">
    <!-- Generator: Sketch 52.5 (67469) - http://www.bohemiancoding.com/sketch -->
    <title>分组 2 copy 2</title>
    <desc>Created with Sketch.</desc>
    <g id="Page-1" stroke="none" stroke-width="1" fill="none" fill-rule="evenodd">
        <g id="（非）直营产品-待审核" transform="translate(-82.000000, -796.000000)" fill="#0899AC">
            <g id="分组-2-copy-2" transform="translate(82.000000, 796.000000)">
                <path d="M6.99999072,7.46666667 C5.93154148,7.46666667 4.92707191,7.07833287 4.17156264,6.37319089 C3.41607192,5.66806622 3,4.73054396 3,3.73332467 C3,2.73610538 3.41607192,1.79860044 4.17158119,1.09345846 C4.92707191,0.388333793 5.93156004,-2.42472709e-13 6.99999072,-2.42472709e-13 C8.06842141,-2.42472709e-13 9.07290954,0.388333793 9.82841881,1.09347578 C10.5839281,1.79860044 11,2.7361227 11,3.73334199 C11,4.73056128 10.5839281,5.66806622 9.82841881,6.37320821 C9.07290954,7.07833287 8.06842141,7.46666667 6.99999072,7.46666667 Z M6.99999072,1.10838705 C5.44920756,1.10838705 4.18755755,2.28592706 4.18755755,3.73332467 C4.18755755,5.18072229 5.44920756,6.3582623 6.99999072,6.3582623 C8.55077388,6.3582623 9.81242389,5.18072229 9.81242389,3.73332467 C9.81242389,2.28592706 8.55079244,1.10838705 6.99999072,1.10838705 Z" id="形状" fill-rule="nonzero"></path>
                <path d="M0.64894894,14 C0.364419746,14 0.115361008,13.81167 0.0726360601,13.5497768 C0.0242651709,13.2521603 -1.12706097e-05,12.9517523 3.9263325e-09,12.6509443 C3.9263325e-09,11.8252963 0.179102109,11.024087 0.532348475,10.2695321 C0.87341896,9.54099691 1.36154784,8.886799 1.98321041,8.32515218 C2.60487298,7.7634889 3.32895512,7.32245493 4.13531559,7.0143026 C4.97047531,6.69514954 5.85729138,6.53333333 6.77112041,6.53333333 C8.52661632,6.53333333 10.1909572,7.13778091 11.457504,8.23531834 C11.5955683,8.35498977 11.7280037,8.47985184 11.8544596,8.60957389 C12.0673552,8.82800765 12.0439513,9.1609775 11.8021835,9.35332569 C11.5604339,9.54570681 11.1918583,9.52452875 10.9789809,9.30609499 C10.8741718,9.19861461 10.7644196,9.09515301 10.6500134,8.99598294 C9.60172109,8.08758241 8.22416962,7.58731245 6.77112041,7.58731245 C3.68074329,7.58731245 1.16655147,9.85886546 1.16655147,12.6509607 C1.16655147,12.9005852 1.18680208,13.1512966 1.22673824,13.3961453 C1.27369193,13.6840747 1.05341421,13.9518965 0.734726927,13.9943185 C0.706325011,13.9980926 0.677656406,13.9999915 0.64894894,14 Z" id="路径"></path>
                <path d="M7.8805233,13.9853694 L0.577717885,13.9853694 C0.25865513,13.9853694 0,13.7272252 0,13.4087928 C0,13.0903604 0.25865513,12.8322162 0.577717885,12.8322162 L7.8805233,12.8322162 C8.19958605,12.8322162 8.45824118,13.0903604 8.45824118,13.4087928 C8.45824118,13.7272252 8.19958605,13.9853694 7.8805233,13.9853694 Z M13.3861747,10.4864865 L9.75754676,10.4864865 C9.43848401,10.4864865 9.17982888,10.2283423 9.17982888,9.90990991 C9.17982888,9.59147748 9.43848401,9.33333333 9.75754676,9.33333333 L13.3861747,9.33333333 C13.7052375,9.33333333 13.9638926,9.59147748 13.9638926,9.90990991 C13.9638926,10.2283423 13.7052375,10.4864865 13.3861747,10.4864865 Z M13.4042284,12.2702703 L9.77560045,12.2702703 C9.45653769,12.2702703 9.19788256,12.0121261 9.19788256,11.6936937 C9.19788256,11.3752613 9.45653769,11.1171171 9.77560045,11.1171171 L13.4042284,11.1171171 C13.7232912,11.1171171 13.9819463,11.3752613 13.9819463,11.6936937 C13.9819463,12.0121261 13.7232912,12.2702703 13.4042284,12.2702703 Z M13.4222821,14 L9.79365413,14 C9.47459137,14 9.21593624,13.7418559 9.21593624,13.4234234 C9.21593624,13.104991 9.47459137,12.8468468 9.79365413,12.8468468 L13.4222821,12.8468468 C13.7413449,12.8468468 14,13.104991 14,13.4234234 C14,13.7418559 13.7413449,14 13.4222821,14 Z" id="形状" fill-rule="nonzero"></path>
                <path d="M6.99999072,7.46666667 C5.93154148,7.46666667 4.92707191,7.07833287 4.17156264,6.37319089 C3.41607192,5.66806622 3,4.73054396 3,3.73332467 C3,2.73610538 3.41607192,1.79860044 4.17158119,1.09345846 C4.92707191,0.388333793 5.93156004,-2.42472709e-13 6.99999072,-2.42472709e-13 C8.06842141,-2.42472709e-13 9.07290954,0.388333793 9.82841881,1.09347578 C10.5839281,1.79860044 11,2.7361227 11,3.73334199 C11,4.73056128 10.5839281,5.66806622 9.82841881,6.37320821 C9.07290954,7.07833287 8.06842141,7.46666667 6.99999072,7.46666667 Z M6.99999072,1.10838705 C5.44920756,1.10838705 4.18755755,2.28592706 4.18755755,3.73332467 C4.18755755,5.18072229 5.44920756,6.3582623 6.99999072,6.3582623 C8.55077388,6.3582623 9.81242389,5.18072229 9.81242389,3.73332467 C9.81242389,2.28592706 8.55079244,1.10838705 6.99999072,1.10838705 Z" id="形状-copy-2" fill-rule="nonzero"></path>
                <path d="M0.64894894,14 C0.364419746,14 0.115361008,13.81167 0.0726360601,13.5497768 C0.0242651709,13.2521603 -1.12706097e-05,12.9517523 3.9263325e-09,12.6509443 C3.9263325e-09,11.8252963 0.179102109,11.024087 0.532348475,10.2695321 C0.87341896,9.54099691 1.36154784,8.886799 1.98321041,8.32515218 C2.60487298,7.7634889 3.32895512,7.32245493 4.13531559,7.0143026 C4.97047531,6.69514954 5.85729138,6.53333333 6.77112041,6.53333333 C8.52661632,6.53333333 10.1909572,7.13778091 11.457504,8.23531834 C11.5955683,8.35498977 11.7280037,8.47985184 11.8544596,8.60957389 C12.0673552,8.82800765 12.0439513,9.1609775 11.8021835,9.35332569 C11.5604339,9.54570681 11.1918583,9.52452875 10.9789809,9.30609499 C10.8741718,9.19861461 10.7644196,9.09515301 10.6500134,8.99598294 C9.60172109,8.08758241 8.22416962,7.58731245 6.77112041,7.58731245 C3.68074329,7.58731245 1.16655147,9.85886546 1.16655147,12.6509607 C1.16655147,12.9005852 1.18680208,13.1512966 1.22673824,13.3961453 C1.27369193,13.6840747 1.05341421,13.9518965 0.734726927,13.9943185 C0.706325011,13.9980926 0.677656406,13.9999915 0.64894894,14 Z" id="路径-copy"></path>
                <path d="M7.8805233,13.9853694 L0.577717885,13.9853694 C0.25865513,13.9853694 0,13.7272252 0,13.4087928 C0,13.0903604 0.25865513,12.8322162 0.577717885,12.8322162 L7.8805233,12.8322162 C8.19958605,12.8322162 8.45824118,13.0903604 8.45824118,13.4087928 C8.45824118,13.7272252 8.19958605,13.9853694 7.8805233,13.9853694 Z M13.3861747,10.4864865 L9.75754676,10.4864865 C9.43848401,10.4864865 9.17982888,10.2283423 9.17982888,9.90990991 C9.17982888,9.59147748 9.43848401,9.33333333 9.75754676,9.33333333 L13.3861747,9.33333333 C13.7052375,9.33333333 13.9638926,9.59147748 13.9638926,9.90990991 C13.9638926,10.2283423 13.7052375,10.4864865 13.3861747,10.4864865 Z M13.4042284,12.2702703 L9.77560045,12.2702703 C9.45653769,12.2702703 9.19788256,12.0121261 9.19788256,11.6936937 C9.19788256,11.3752613 9.45653769,11.1171171 9.77560045,11.1171171 L13.4042284,11.1171171 C13.7232912,11.1171171 13.9819463,11.3752613 13.9819463,11.6936937 C13.9819463,12.0121261 13.7232912,12.2702703 13.4042284,12.2702703 Z M13.4222821,14 L9.79365413,14 C9.47459137,14 9.21593624,13.7418559 9.21593624,13.4234234 C9.21593624,13.104991 9.47459137,12.8468468 9.79365413,12.8468468 L13.4222821,12.8468468 C13.7413449,12.8468468 14,13.104991 14,13.4234234 C14,13.7418559 13.7413449,14 13.4222821,14 Z" id="形状-copy" fill-rule="nonzero"></path>
            </g>
        </g>
    </g>
</svg>